/* XPM */
static char *result[] = {
/* columns rows colors chars-per-pixel */
"65 65 154 2 ",
"   c #8C88B6",
".  c #8D89B7",
"X  c #8E8AB7",
"o  c #8E8AB8",
"O  c #8F8BB8",
"+  c #8F8BB9",
"@  c #908CB9",
"#  c #908CBA",
"$  c #918CBA",
"%  c #918DBA",
"&  c #918DBB",
"*  c #928DBB",
"=  c #928EBB",
"-  c #928EBC",
";  c #938EBC",
":  c #938FBC",
">  c #938FBD",
",  c #948FBD",
"<  c #9490BD",
"1  c #9590BE",
"2  c #9691BF",
"3  c #9692BF",
"4  c #9792C0",
"5  c #9793C0",
"6  c #9793C1",
"7  c #9893C0",
"8  c #9893C1",
"9  c #9894C1",
"0  c #9894C2",
"q  c #9994C2",
"w  c #9995C3",
"e  c #9A95C2",
"r  c #9A95C3",
"t  c #9996C3",
"y  c #9A96C3",
"u  c #9A96C4",
"i  c #9B96C4",
"p  c #9B97C4",
"a  c #9C96C4",
"s  c #9C97C4",
"d  c #9C97C5",
"f  c #9D97C5",
"g  c #9C97C6",
"h  c #9D98C6",
"j  c #9F98C6",
"k  c #9E99C6",
"l  c #9E99C7",
"z  c #9F99C7",
"x  c #9F9AC7",
"c  c #9F9AC8",
"v  c #9F9AC9",
"b  c #A09AC8",
"n  c #A09BC8",
"m  c #A09BC9",
"M  c #A19BC9",
"N  c #A29BC9",
"B  c #A19CC9",
"V  c #A19CCA",
"C  c #A29CCA",
"Z  c #A39CCB",
"A  c #A29DCB",
"S  c #A39DCB",
"D  c #A39ECB",
"F  c #A39ECC",
"G  c #A49ECC",
"H  c #A49ECD",
"J  c #A49FCD",
"K  c #A59FCD",
"L  c #A69FCD",
"P  c #A5A0CE",
"I  c #A5A0CF",
"U  c #A6A0CE",
"Y  c #A7A0CE",
"T  c #A6A1CE",
"R  c #A6A1CF",
"E  c #A7A1CF",
"W  c #A7A2CF",
"Q  c #A8A1CF",
"!  c #A7A2D0",
"~  c #A8A2D0",
"^  c #A9A2D0",
"/  c #A9A3D1",
"(  c #AAA3D1",
")  c #A9A4D2",
"_  c #AAA4D2",
"`  c #ABA4D2",
"'  c #AAA5D3",
"]  c #ABA5D3",
"[  c #ACA5D3",
"{  c #ABA6D4",
"}  c #ACA5D4",
"|  c #ACA6D4",
" . c #ADA6D4",
".. c #ACA7D4",
"X. c #ADA7D5",
"o. c #AEA7D5",
"O. c #AEA7D6",
"+. c #AFA8D5",
"@. c #AEA8D6",
"#. c #AFA8D6",
"$. c #AFA9D7",
"%. c #B0A9D7",
"&. c #B0A9D8",
"*. c #B0AAD8",
"=. c #B1AAD8",
"-. c #B1AAD9",
";. c #B1ABD9",
":. c #B2AAD8",
">. c #B2ABD9",
",. c #B2ABDA",
"<. c #B2ACDA",
"1. c #B3ACDA",
"2. c #B2ACDB",
"3. c #B3ACDB",
"4. c #B3ADDB",
"5. c #B4ADDB",
"6. c #B3ADDC",
"7. c #B4ADDC",
"8. c #B4AEDC",
"9. c #B5AEDC",
"0. c #B5AEDD",
"q. c #B5AFDD",
"w. c #B6AFDD",
"e. c #B6AFDE",
"r. c #B5B0DE",
"t. c #B6B0DE",
"y. c #B7B0DE",
"u. c #B7B0DF",
"i. c #B6B1DF",
"p. c #B7B1DF",
"a. c #B8B1DF",
"s. c #B8B2DF",
"d. c #B7B0E0",
"f. c #B8B1E0",
"g. c #B9B1E0",
"h. c #B8B1E1",
"j. c #B8B2E0",
"k. c #B9B2E0",
"l. c #B8B2E1",
"z. c #B9B2E1",
"x. c #B8B3E1",
"c. c #B9B3E1",
"v. c #BAB2E1",
"b. c #BAB3E1",
"n. c #BAB3E2",
"m. c #BBB3E2",
"M. c #BAB4E1",
"N. c #BBB4E2",
"B. c #BBB4E3",
"V. c #BCB4E2",
"C. c #BCB4E3",
"Z. c #BCB5E3",
"A. c #BDB5E4",
"S. c #BDB6E4",
/* pixels */
"z.z.l.l.l.l.l.l.l.l.l.l.l.l.l.l.l.l.l.l.l.l.l.l.l.l.l.l.l.l.c.M.V.c.q.o.J d w i Z ' 4.j.V.M.c.l.l.l.l.l.l.l.l.l.l.l.l.l.l.l.l.z.z.",
"z.z.l.l.l.l.l.l.l.l.l.l.l.l.l.l.l.l.l.l.l.l.l.l.l.l.l.l.l.l.c.M.V.c.q.o.J d w i Z ' 4.j.V.M.c.l.l.l.l.l.l.l.l.l.l.l.l.l.l.l.l.z.z.",
"l.l.h.h.h.h.h.h.h.h.h.h.h.h.h.h.h.h.h.h.h.h.h.h.h.h.h.h.h.h.z.n.B.z.0.O.I v g l H } 7.z.B.N.b.z.h.h.h.h.h.h.h.h.h.h.h.h.h.h.h.l.l.",
"h.h.f.z.f.f.f.f.f.f.f.f.f.f.f.f.f.f.f.f.f.f.f.f.f.f.f.f.f.f.k.b.b.k.q.*._ K A G ~ @.8.a.b.b.k.f.f.f.f.f.f.f.f.f.f.f.f.f.f.f.z.h.h.",
"z.z.z.f.f.f.f.f.f.f.f.f.f.f.f.f.f.f.f.f.f.f.f.f.f.f.f.f.f.f.k.k.z.f.t.1.$.| ' ] @.>.q.a.z.k.k.f.f.f.f.f.f.f.f.f.f.f.f.f.f.f.f.z.z.",
"f.f.f.f.f.f.f.f.f.f.f.f.f.f.f.f.f.f.f.f.f.f.f.f.f.f.f.f.f.f.j.k.k.f.u.w.5.<.<.<.5.9.y.a.k.k.k.f.f.f.f.f.f.f.f.f.f.f.f.f.f.f.f.j.j.",
"p.p.f.f.f.f.f.f.f.f.f.f.f.f.f.f.f.f.f.f.f.f.f.f.f.f.f.f.f.f.f.f.j.f.u.u.u.u.u.u.u.u.u.a.a.a.j.k.k.k.k.k.k.k.k.k.k.k.k.k.k.k.k.s.s.",
"l.l.h.f.f.f.f.f.f.f.f.f.f.f.f.f.f.f.f.f.f.f.f.f.f.f.f.f.f.f.a.a.a.a.f.k.k.b.b.b.k.k.a.a.a.a.f.k.v.b.b.b.k.k.k.k.k.b.b.b.v.k.k.c.c.",
"l.l.h.f.f.f.f.f.f.f.f.f.f.f.f.f.f.f.f.f.f.f.f.f.f.f.f.f.f.f.a.a.a.a.j.k.b.b.N.b.b.k.a.a.a.a.a.k.b.b.N.b.z.k.k.k.z.b.N.b.b.b.k.c.c.",
"l.l.z.f.f.f.f.f.f.f.f.f.f.f.f.f.f.f.f.f.f.f.f.f.f.f.f.f.f.f.a.a.a.a.j.k.k.b.b.b.k.k.f.a.a.a.a.a.a.a.a.a.a.k.k.k.f.a.a.a.a.a.a.l.l.",
"x.x.z.k.k.k.k.k.k.k.k.k.k.k.k.k.k.k.j.a.a.a.f.f.f.f.f.f.f.f.f.a.a.a.j.k.k.k.k.k.k.k.j.f.a.a.y.w.9.1.1.4.9.y.a.a.y.8.1.1.5.9.y.j.j.",
"c.c.z.k.v.b.b.b.k.k.k.k.k.b.b.b.v.k.j.a.a.a.a.f.f.f.f.f.f.f.f.f.f.f.f.f.f.f.f.f.f.f.k.k.k.k.y.5.%.| ' | %.5.y.w.4.#.| ' X.*.9.p.p.",
"c.c.z.k.b.b.N.b.z.k.k.k.z.b.N.b.b.k.j.a.a.a.a.f.f.f.f.f.f.f.f.f.f.f.f.f.f.f.f.f.f.f.k.v.b.k.w.;.] U F L ] =.9.5.%.( G F E X.1.t.t.",
"l.l.f.a.a.a.a.a.f.k.k.k.a.a.a.a.a.a.a.a.a.a.a.f.f.f.f.f.f.f.f.f.f.f.f.f.f.f.f.f.f.f.k.b.b.b.w.%.! B h c U | >.-.] G l h A / >.r.r.",
"j.j.u.9.5.1.4.8.y.a.a.y.q.4.1.5.9.w.y.a.j.j.j.f.f.f.f.f.f.f.f.f.f.f.f.f.f.f.f.f.f.f.k.b.N.b.w.$.E m d h C E | ] U m d d C / >.r.r.",
"p.p.0.;.o.] | $.1.w.y.9.=.X.{ X.%.5.y.k.k.k.k.f.f.f.f.f.f.f.f.f.f.f.f.f.f.f.f.f.f.f.k.b.b.k.w.;._ G c k c A K J V c k m U | 1.r.r.",
"t.t.5.X.W F K ( %.5.9.>.[ U G T ] =.w.k.b.v.k.f.f.f.f.f.f.f.f.f.f.f.f.f.f.f.f.f.f.f.k.k.b.k.y.5.$._ P C b l l l c b S R | *.9.i.i.",
"r.r.,._ D l l G ` =.>.X.E m h B E $.w.k.b.b.k.f.f.f.f.f.f.f.f.f.f.f.f.f.f.f.f.f.f.f.k.k.k.k.a.t.8.<.X.! C h r i l F / @.<.q.u.j.j.",
"r.r.2._ C d d m U ] | ~ A h d b E $.w.b.N.b.k.f.f.f.f.f.f.f.f.f.f.f.f.f.f.f.f.f.f.f.j.j.j.j.k.k.k.p.8.X.U c i i m ! $.q.a.c.k.c.c.",
"r.r.6.| U m k c V J P S m k x F / =.w.k.b.b.k.f.f.f.f.f.f.f.f.f.f.f.f.f.f.f.f.f.f.f.a.a.a.a.k.b.N.N.a.>._ F b m P | 5.k.N.N.b.c.c.",
"i.i.0.*.] R S b c c c c c C K _ @.1.y.k.b.k.k.f.f.f.f.f.f.f.f.f.f.f.f.f.f.f.f.f.f.f.a.a.a.a.k.b.N.N.k.9.$.) E E ] *.e.b.N.N.b.c.c.",
"j.j.d.q.<.@./ F l i i h V E | ;.8.e.a.k.k.k.k.f.f.f.f.f.f.f.f.f.f.f.f.f.f.f.f.f.f.f.a.a.a.a.k.k.b.b.k.y.4.=.$.$.;.8.u.b.b.b.k.c.c.",
"c.c.z.k.a.q.$.~ V d i c K | 4.y.k.k.k.j.j.j.j.f.f.f.f.a.a.a.j.k.k.k.k.k.k.k.j.a.a.a.f.a.a.a.j.k.k.k.k.a.y.w.q.q.w.y.a.k.k.k.k.x.x.",
"c.c.n.N.N.k.5. .P m c F ( ;.y.b.N.b.k.a.a.a.a.f.f.f.a.a.a.a.j.k.v.b.b.b.v.k.j.a.a.a.a.f.f.f.a.a.a.a.j.k.k.k.k.k.k.k.j.a.a.a.a.l.l.",
"c.c.n.N.N.b.e.*.] E U / @.7.k.N.N.b.k.a.a.a.a.f.f.f.a.a.a.a.j.k.b.b.N.b.b.k.j.a.a.a.a.f.f.f.a.a.a.a.j.k.b.b.N.b.b.k.j.a.a.a.a.l.l.",
"c.c.z.b.b.b.u.8.=.@.@.*.1.e.k.b.b.k.k.a.a.a.a.f.f.f.a.a.a.a.f.f.f.k.k.k.k.k.j.a.a.a.a.f.f.f.a.a.a.a.j.k.b.b.b.b.v.k.j.a.a.a.a.l.l.",
"x.x.z.k.k.k.a.y.w.9.9.w.t.a.k.k.k.k.j.a.a.a.f.f.f.f.f.f.j.a.u.y.e.0.0.w.y.a.k.k.k.k.f.a.a.a.f.f.j.k.k.k.b.k.k.k.k.f.f.a.a.a.f.l.l.",
"l.l.f.a.a.a.j.k.k.k.k.k.k.k.j.a.a.a.a.f.f.f.f.f.f.f.j.k.k.a.t.8.;.$.$.%.1.w.k.b.b.b.k.a.a.a.a.k.k.b.b.b.b.k.j.a.a.a.a.f.f.f.f.l.l.",
"l.l.f.a.a.a.j.k.b.b.N.b.b.k.j.a.a.a.a.f.f.f.f.f.f.f.k.k.z.f.w.;.| / ! / @.1.a.m.N.m.k.a.a.a.a.k.b.b.N.b.b.k.j.a.a.a.a.f.f.f.f.l.l.",
"l.l.f.a.a.a.j.k.v.b.b.b.k.k.j.a.a.a.a.f.f.f.f.f.f.f.k.b.b.k.9.@.E C c V ! #.9.k.N.m.k.a.a.a.a.k.k.k.z.k.k.f.f.a.a.a.a.f.f.f.f.l.l.",
"l.l.h.a.a.a.j.k.k.k.k.k.k.k.j.a.a.a.f.f.f.f.f.f.f.f.k.b.N.k.5.| S i 7 e m ~ =.w.k.k.k.k.k.k.k.a.y.w.q.q.e.y.u.a.j.f.f.f.f.f.f.l.l.",
"l.l.h.f.f.f.f.f.f.f.f.f.f.f.f.f.f.f.f.f.f.f.f.f.f.f.k.m.N.k.5._ b 4 = : 9 m ( *.9.y.a.z.N.N.b.y.5.;.$.$.-.4.w.a.k.k.j.f.f.f.f.l.l.",
"l.l.h.f.f.f.f.f.f.f.f.f.f.f.f.f.f.f.f.f.f.f.f.f.f.f.v.N.C.v.5._ c 2 + o = 0 V / $.5.y.b.Z.A.b.9.%.' ! ~ ] $.8.a.z.k.k.f.f.f.f.l.l.",
"l.l.h.f.f.f.f.f.f.f.f.f.f.f.f.f.f.f.f.f.f.f.f.f.f.f.k.m.N.k.5.] B 6 # . o - r C ( *.w.b.S.Z.g.>._ G b m K | 1.a.b.b.k.f.f.f.f.l.l.",
"l.l.h.f.f.f.f.f.f.f.f.f.f.f.f.f.f.f.f.f.f.f.f.f.f.f.k.b.N.k.9.o.K d , o   o > i J X.9.b.Z.b.9.| S d 9 e b ~ ;.a.N.m.k.f.f.f.f.l.l.",
"l.l.h.f.f.f.f.f.f.f.f.f.f.f.f.f.f.f.f.f.f.f.f.f.f.f.k.b.b.k.w.=._ S r > o   + 4 M ` 4.f.k.w.#.K p 1 = 1 f U =.a.N.N.v.f.f.f.f.l.l.",
"l.l.h.f.f.f.f.f.f.f.f.f.f.f.f.f.f.f.f.f.f.f.f.f.f.f.k.k.z.k.y.8.$._ A r - o + 2 b / >.e.8.$.E h < O o ; s U =.a.C.N.v.f.f.f.f.l.l.",
"l.l.h.f.f.f.f.f.f.f.f.f.f.f.f.f.f.f.f.f.f.f.f.f.f.f.j.k.k.k.a.y.8.*._ V 9 ; * 4 m _ ;.3.%./ c 2 +   o , h Q ;.a.N.N.v.f.f.f.f.l.l.",
"l.l.h.f.f.f.f.f.f.f.f.f.f.f.f.f.f.f.f.f.f.f.f.f.f.f.f.f.j.j.k.k.k.w.=./ m r 6 a G { *.*._ C 8 # . . & 8 V _ 1.a.N.m.k.f.f.f.f.l.l.",
"l.l.h.f.f.f.f.f.f.f.f.f.f.f.f.f.f.f.f.f.f.f.f.f.f.f.a.a.a.a.k.b.N.b.w.$.! V c S / @.;.@.U d ; . . # 4 c E @.9.j.b.b.k.f.f.f.f.l.l.",
"l.l.h.f.f.f.f.f.f.f.f.f.f.f.f.f.f.f.f.f.f.f.f.f.f.f.a.a.a.a.k.b.N.N.a.5.@.) ! _ @.,.,.X.S q $ X @ 3 l E X.1.y.k.z.k.k.f.f.f.f.l.l.",
"l.l.h.f.f.f.f.f.f.f.f.f.f.f.f.f.f.f.f.f.f.f.f.f.f.f.a.a.a.a.k.b.m.m.k.w.1.&.$.;.5.0.1.| A q - % 2 h Y @.4.t.a.k.k.k.j.f.f.f.f.l.l.",
"l.l.h.f.f.f.f.a.a.a.j.k.k.k.k.k.k.k.k.k.k.k.k.k.k.j.f.a.a.a.f.k.k.k.k.a.y.0.q.y.f.a.9.X.G i 4 5 h K @.9.a.k.k.j.j.f.f.f.f.f.f.l.l.",
"l.l.h.f.f.f.a.a.a.a.j.k.v.b.b.b.k.k.k.k.k.b.b.b.k.k.f.a.a.a.a.a.a.a.j.k.k.k.b.b.N.b.w.$.E M k x K | 5.k.N.m.k.a.a.a.a.f.f.f.f.l.l.",
"l.l.h.f.f.f.a.a.a.a.j.k.b.b.N.b.z.k.k.k.z.b.N.b.b.k.j.a.a.a.a.a.a.a.j.k.b.b.N.Z.N.b.y.;.| ~ P E { ;.y.b.N.m.k.a.a.a.a.f.f.f.f.l.l.",
"l.l.h.f.f.f.a.a.a.a.a.k.k.b.b.k.k.k.k.k.k.k.b.k.k.k.a.a.a.a.a.a.a.a.j.k.v.b.N.N.N.b.p.8.=.#.X.@.;.9.a.b.m.b.k.a.a.a.a.f.f.f.f.l.l.",
"l.l.h.f.f.f.j.j.j.a.y.y.w.w.w.t.a.a.a.a.y.w.w.w.y.y.u.a.j.f.f.a.a.a.j.k.k.k.k.k.k.k.a.t.q.8.8.9.w.y.k.k.k.k.j.a.a.a.f.f.f.f.f.l.l.",
"l.l.h.f.f.f.k.k.k.a.w.5.;.%.*.>.9.y.y.w.5.;.$.*.>.9.y.a.k.k.j.f.f.f.f.f.f.f.a.a.a.a.f.a.a.a.f.j.k.k.j.a.a.a.a.f.f.f.f.f.f.f.f.l.l.",
"l.l.h.f.f.f.k.v.b.a.9.%.] ! ~ [ =.9.w.5.#._ ! / ..>.w.k.b.k.k.f.f.f.f.f.f.f.a.a.a.a.j.k.b.b.N.b.b.k.j.a.a.a.a.f.f.f.f.f.f.f.f.l.l.",
"l.l.h.f.f.f.k.b.b.a.1.| U B M U | >.5.%._ G m A ~ $.9.k.b.b.k.f.f.f.f.f.f.f.a.a.a.a.j.k.v.b.b.b.v.k.j.a.a.a.a.f.f.f.f.f.f.f.f.l.l.",
"l.l.h.f.f.f.k.b.N.a.1._ S h d V E O.$.] K z d c P o.9.k.N.b.k.f.f.f.f.f.f.f.f.a.a.a.j.k.k.k.k.k.k.k.j.a.a.a.f.f.f.f.f.f.f.f.f.l.l.",
"l.l.h.f.f.f.k.b.b.a.4.[ G l d x S ~ / U V h d m E @.9.k.b.b.k.f.f.f.f.f.f.f.f.f.f.f.f.f.f.f.f.f.f.f.f.f.f.f.f.f.f.f.f.f.f.f.f.l.l.",
"l.l.h.f.f.f.k.v.b.a.9.#./ F n c m V V m c c V U ] =.w.k.b.v.k.f.f.f.f.f.f.f.f.f.f.f.f.f.f.f.f.f.f.f.f.f.f.f.f.f.f.f.f.f.f.f.f.l.l.",
"l.l.h.f.f.f.k.k.k.j.w.4.$.] U C z h d h b G ~ X.*.8.y.k.k.k.k.f.f.f.f.f.f.f.f.f.f.f.f.f.f.f.f.f.f.f.f.f.f.f.f.f.f.f.f.f.f.f.f.l.l.",
"l.l.h.f.f.f.j.j.j.j.f.p.w.<.X.R m i r h A / $.8.t.p.f.a.a.f.j.k.k.k.k.k.k.k.k.k.k.k.k.k.k.k.j.a.a.a.f.f.f.f.f.f.f.f.f.f.f.f.f.l.l.",
"l.l.h.f.f.f.a.a.a.a.k.b.b.a.1.] G l d m U @.q.k.b.b.k.a.a.a.f.k.k.b.b.b.k.k.k.k.k.b.b.b.k.k.j.a.a.a.a.f.f.f.f.f.f.f.f.f.f.f.f.l.l.",
"l.l.h.f.f.f.a.a.a.a.k.N.N.b.w.%./ G S P ] >.a.N.N.b.k.a.a.a.a.k.b.b.N.b.z.k.k.k.z.b.N.b.b.k.j.a.a.a.a.f.f.f.f.f.f.f.f.f.f.f.f.l.l.",
"l.l.h.f.f.f.a.a.a.a.k.b.N.N.a.4.@.] _ | *.0.k.N.N.b.k.a.a.a.a.k.k.b.b.b.k.f.f.f.k.b.b.b.k.k.f.a.a.a.a.f.f.f.f.f.f.f.f.f.f.f.f.l.l.",
"j.j.f.f.f.f.f.a.a.a.j.k.k.k.a.w.5.<.<.1.9.y.k.k.k.k.k.a.a.a.u.u.u.u.u.u.u.u.u.u.u.u.u.u.u.u.u.f.j.f.f.f.f.f.f.f.f.f.f.f.f.f.f.j.j.",
"f.f.f.f.f.f.f.f.f.f.a.a.a.a.j.j.a.a.a.a.a.j.j.a.a.a.j.k.k.a.y.w.8.4.1.5.9.w.w.w.9.5.1.<.5.w.y.a.k.k.j.f.f.f.f.f.f.f.f.f.f.f.f.f.f.",
"z.z.z.f.f.f.f.f.f.f.a.a.a.a.j.k.b.b.N.b.b.k.j.a.a.a.j.k.z.f.w.1.$.| ]  .*.1.8.5.=.X.[ | @.>.q.a.z.k.k.f.f.f.f.f.f.f.f.f.f.f.f.z.z.",
"z.z.z.f.f.f.f.f.f.f.a.a.a.a.j.k.b.m.N.m.b.k.j.a.a.a.k.b.b.k.q.*._ K G U ] *.4.;.| E G G ~ @.8.a.b.b.k.f.f.f.f.f.f.f.f.f.f.f.f.z.z.",
"l.l.h.z.f.f.f.f.f.f.f.a.a.a.j.k.k.b.b.b.k.k.j.a.a.a.k.b.N.k.9.X.K l d b E X.;.#.^ C f h F ] 1.a.N.b.k.f.f.f.f.f.f.f.f.f.f.f.z.l.l.",
"z.z.l.l.l.l.l.l.l.l.l.l.l.l.x.c.c.c.c.c.c.c.x.l.l.l.c.M.V.c.q.X.G d t j U  .:.+.W b y u N ' 4.j.V.M.c.l.l.l.l.l.l.l.l.l.l.l.l.z.z.",
"z.z.l.l.l.l.l.l.l.l.l.l.l.l.x.c.c.c.c.c.c.c.x.l.l.l.c.M.V.c.q.X.G d t j U  .:.+.W b y u N ' 4.j.V.M.c.l.l.l.l.l.l.l.l.l.l.l.l.z.z."
};
