/* XPM */
static char *result[] = {
/* columns rows colors chars-per-pixel */
"65 65 121 2 ",
"   c #584611",
".  c #614E16",
"X  c #624F1A",
"o  c #64511D",
"O  c #6A561D",
"+  c #6E591E",
"@  c #755E1F",
"#  c #7A621E",
"$  c #60512E",
"%  c #715C23",
"&  c #625332",
"*  c #6C5B35",
"=  c #6E5D39",
"-  c #705F3A",
";  c #766021",
":  c #7D6523",
">  c #7B662B",
",  c #7E6833",
"<  c #736342",
"1  c #76664E",
"2  c #766751",
"3  c #7F705B",
"4  c #816925",
"5  c #846D2A",
"6  c #8E7223",
"7  c #8B732E",
"8  c #947826",
"9  c #967A29",
"0  c #997D2A",
"q  c #816D3A",
"w  c #8E7738",
"e  c #907731",
"r  c #8B7545",
"t  c #937C4A",
"y  c #837565",
"u  c #837569",
"i  c #86786D",
"p  c #8C7C6B",
"a  c #827676",
"s  c #857975",
"d  c #8A7C73",
"f  c #857979",
"g  c #9F8233",
"h  c #A7882D",
"j  c #AD8C2E",
"k  c #A08333",
"l  c #AC8D35",
"z  c #A88A39",
"x  c #B59433",
"c  c #BF9C35",
"v  c #B4953A",
"b  c #C19E37",
"n  c #C6A23A",
"m  c #CAA539",
"M  c #DBB23E",
"N  c #A98F47",
"B  c #AE9349",
"V  c #B59743",
"C  c #B69844",
"Z  c #B79B4C",
"A  c #AE9553",
"S  c #B59A55",
"D  c #BDA04E",
"F  c #BBA059",
"G  c #9B8760",
"H  c #8D807E",
"J  c #928374",
"K  c #A28C60",
"L  c #C6AA4C",
"P  c #CBAA4B",
"I  c #DBB341",
"U  c #DFB949",
"Y  c #CBAD54",
"T  c #DDBC51",
"R  c #E5BB42",
"E  c #E3BD4C",
"W  c #E0BE52",
"Q  c #E7C04D",
"!  c #EEC44B",
"~  c #EECD5E",
"^  c #F7CE52",
"/  c #DFC067",
"(  c #EFD06A",
")  c #F3D461",
"_  c #FADA64",
"`  c #F3D66D",
"'  c #F6D86E",
"]  c #8C8289",
"[  c #928587",
"{  c #92878E",
"}  c #948995",
"|  c #9A8E9C",
" . c #9C919E",
".. c #9D92A3",
"X. c #8D89B7",
"o. c #8F8BB8",
"O. c #928DBB",
"+. c #9591BE",
"@. c #A095A4",
"#. c #A299B4",
"$. c #A69EBB",
"%. c #A89FBE",
"&. c #A9A0BE",
"*. c #9792C0",
"=. c #9B96C4",
"-. c #9E99C6",
";. c #9F9AC8",
":. c #A29DCB",
">. c #ABA2C3",
",. c #A6A1CE",
"<. c #ADA5CB",
"1. c #B1A9CE",
"2. c #A7A2D0",
"3. c #ABA5D3",
"4. c #AFA8D6",
"5. c #B0A9D6",
"6. c #B4ADDB",
"7. c #B7B0DE",
"8. c #B8B1DF",
"9. c #B7B0E0",
"0. c #B8B2E0",
/* pixels */
"0.0.0.0.0.0.0.0.0.0.0.0.0.0.0.0.0.0.0.0.0.0.0.0.0.0.9.0.0.0.0.0.0.0.9.3.2.=.=.=.:.3.6.0.0.0.0.0.0.0.0.0.0.0.0.0.0.0.0.0.0.0.0.0.0.",
"0.0.0.0.0.0.0.0.0.0.0.0.0.0.0.0.0.0.0.0.0.0.0.0.9.0.0.0.0.0.0.0.0.0.9.4.:.-.=.=.:.2.6.0.0.0.0.0.0.0.0.0.0.0.0.0.0.0.0.0.0.0.0.0.0.",
"0.0.0.0.0.0.0.0.0.0.9.9.0.0.0.0.0.9.9.0.0.0.0.9.9.0.0.9.0.0.0.0.0.0.0.4.,.;.-.-.,.3.7.8.0.0.0.0.0.0.0.0.0.0.0.0.0.0.0.0.0.0.0.0.0.",
"0.0.0.0.0.9.0.9.9.0.0.0.9.9.0.0.0.9.0.0.0.0.0.0.0.0.9.0.0.0.0.0.0.0.0.9.2.2.:.;.<.3.7.8.0.0.0.0.0.0.0.0.0.0.0.0.0.0.0.0.0.0.0.0.0.",
"0.0.0.0.0.9.0.0.9.0.0.9.0.0.9.0.0.8.0.9.0.0.0.0.9.0.0.9.0.0.0.0.0.0.7.6.4.4.3.3.5.5.7.8.0.8.8.8.0.0.0.0.0.0.0.0.0.0.0.0.0.0.0.0.0.",
"0.0.9.0.0.0.9.9.0.0.9.0.9.0.0.9.9.0.9.0.9.0.7.9.9.0.0.9.0.9.0.0.0.9.7.7.7.4.6.4.8.8.7.8.8.8.8.8.0.0.0.0.0.0.0.0.0.0.0.0.0.0.0.0.0.",
"0.0.0.9.9.0.9.9.9.0.9.0.0.9.9.0.0.9.0.9.0.0.8.0.0.0.0.0.0.0.9.0.0.0.9.9.9.0.0.9.8.8.8.8.8.8.8.8.0.0.0.0.0.0.0.0.0.0.0.0.0.0.0.0.0.",
"0.0.0.0.0.9.9.9.9.0.0.9.0.0.9.0.8.0.9.0.0.7.0.9.0.9.9.0.9.0.0.0.0.7.9.0.0.0.0.0.0.8.8.8.8.8.8.8.0.0.0.0.0.0.0.0.0.0.0.0.0.0.0.0.0.",
"0.0.0.0.0.0.0.0.0.9.0.9.0.0.0.0.0.0.0.0.0.8.8.0.0.8.0.9.0.9.8.8.8.8.0.0.0.0.0.0.0.0.0.0.8.8.8.8.0.0.0.8.0.8.0.8.0.0.0.0.0.0.0.0.0.",
"0.0.0.0.8.0.0.0.0.0.0.0.0.9.0.0.8.0.8.0.0.0.0.0.9.0.9.0.9.0.8.8.8.8.8.0.0.0.0.0.0.0.0.8.8.8.8.8.8.8.8.7.8.0.0.0.0.0.9.9.0.0.0.0.0.",
"0.0.0.0.0.0.0.0.0.0.0.0.0.0.0.0.0.0.0.8.8.8.0.0.0.7.0.8.0.8.0.7.8.7.0.0.0.0.0.0.0.0.0.0.8.8.8.8.8.7.5.7.8.8.7.8.0.9.4.6.6.6.9.0.0.",
"0.0.0.0.0.0.0.0.0.0.0.0.0.0.0.0.0.0.8.8.8.8.8.8.9.0.9.0.9.0.0.9.0.0.0.8.0.8.0.8.0.8.0.0.8.8.8.6.4.3.3.3.4.7.7.7.9.6.4.3.3.6.6.9.0.",
"0.0.0.0.0.0.0.0.0.8.0.0.0.0.0.0.8.8.8.8.8.8.8.8.0.0.0.7.0.9.0.0.0.0.0.0.9.0.9.0.8.0.0.0.0.0.8.5.3.,.,.,.3.4.7.6.4.3.:.;.2.3.6.9.0.",
"0.0.0.0.8.8.0.8.0.0.0.0.0.0.0.0.8.8.8.8.8.8.8.0.0.9.0.0.9.0.0.7.0.7.7.0.0.9.0.9.0.0.0.0.0.0.8.5.,.:.=.-.,.3.6.4.3.:.;.-.:.3.6.6.0.",
"8.8.0.8.7.5.6.7.7.8.7.7.7.7.9.7.6.7.8.8.0.9.0.0.0.9.0.9.0.7.9.0.0.0.8.0.8.0.9.0.8.8.0.0.0.0.0.6.,.;.=.-.:.2.3.3.,.;.-.-.:.2.6.6.0.",
"8.8.7.7.3.3.3.4.6.7.7.7.4.3.3.3.4.7.7.8.0.0.0.7.0.0.8.0.0.9.0.0.0.9.0.9.0.9.0.8.0.0.0.0.0.0.0.8.2.,.;.-.;.:.2.:.:.;.;.;.2.3.6.7.0.",
"7.7.6.3.2.:.:.3.5.6.6.6.<.2.,.,.<.4.8.8.8.0.0.0.9.0.0.0.0.9.0.7.0.9.9.0.7.0.8.0.0.8.0.8.8.8.8.7.4.3.,.:.;.-.;.;.;.;.:.,.4.4.7.7.0.",
"7.7.6.3.:.;.;.:.3.5.6.3.2.;.-.;.2.4.8.8.0.0.0.0.0.0.7.0.8.0.9.0.9.0.0.9.0.0.0.0.0.0.0.0.8.8.8.8.7.5.4.,.:.-.+.-.;.:.,.4.5.7.7.8.0.",
"7.6.6.3.;.-.-.;.2.3.3.2.:.=.=.;.2.4.8.8.0.0.8.0.7.0.0.8.0.0.7.0.0.0.0.0.0.7.8.0.0.8.0.0.0.8.0.0.8.8.7.3.,.;.=.=.:.2.4.7.0.0.8.0.0.",
"6.7.6.3.2.;.;.;.:.:.2.:.;.;.;.,.3.4.7.8.0.0.0.0.0.0.9.0.9.0.0.9.0.7.7.0.0.0.0.0.0.0.8.8.8.8.0.0.0.0.8.5.3.:.;.:.:.3.7.8.0.0.0.0.0.",
"8.8.7.6.3.2.:.;.;.;.;.;.;.:.2.<.1.7.8.0.0.0.0.0.0.7.0.9.0.8.0.0.9.0.0.9.0.8.0.8.0.0.8.8.8.8.0.0.0.0.8.8.6.1.2.2.1.7.0.0.0.0.0.0.0.",
"0.8.7.8.6.3.3.:.;.=.=.-.;.2.3.6.7.8.0.0.0.0.0.0.0.9.0.0.9.0.9.9.0.9.7.0.0.0.0.0.8.0.8.8.8.8.8.0.0.0.0.8.6.5.4.4.6.8.0.0.0.0.0.0.0.",
"0.0.0.0.7.7.4.2.;.=.=.;.,.3.7.8.8.8.0.0.0.0.0.0.0.0.0.8.8.8.9.0.0.0.0.0.8.8.8.8.8.8.8.8.8.8.8.0.0.0.0.0.7.7.7.7.7.7.0.0.0.0.0.0.0.",
"0.0.0.0.0.8.6.4.2.:.;.:.3.4.8.0.0.8.0.8.0.8.8.0.7.0.8.8.8.8.9.9.1...[ 3 u 3 H  .<.8.8.0.0.0.8.8.0.0.0.0.8.0.8.8.8.7.0.0.0.0.0.0.0.",
"0.0.0.0.0.0.0.6.3.2.2.2.1.7.8.0.0.0.0.0.8.8.8.8.8.0.0.7.7.9.9.9.<.[ < $ X O * H $.7.7.8.8.8.8.8.0.0.0.0.0.0.0.0.8.8.0.8.8.8.8.0.0.",
"0.0.0.0.0.0.0.7.4.4.4.4.6.8.8.0.0.0.0.0.8.8.8.7.1.>.&.&.&.>.&.&...J g , , : > J  .$.&.<.0.8.8.8.0.0.0.0.0.0.0.0.0.8.0.8.8.8.8.0.0.",
"0.0.0.0.0.0.7.7.7.7.7.7.8.8.0.0.0.0.0.0.8.8.0.1.+.] f H ] f ] 3 J G F L D v g r J H H | 8.8.0.0.0.0.0.0.0.0.0.0.8.0.8.8.8.8.0.0.0.",
"0.0.0.0.7.7.0.0.7.8.8.7.0.0.0.0.0.8.0.0.0.8.0.>.{ 2 * * = = & & < S / ` ) E b g , - = i 8.8.8.8.0.0.0.0.0.0.0.8.8.8.8.0.0.0.0.0.0.",
"0.0.0.0.0.0.0.0.0.0.0.0.0.0.0.0.8.8.8.0.0.0.1...J q > % o X . + 7 D / ` _ ^ M j : O o 3 8.8.8.0.0.0.0.0.0.0.0.8.8.8.0.0.0.8.0.0.0.",
"0.0.0.0.0.0.0.0.0.0.0.0.0.0.0.0.8.8.8.8.0.8...J K D B w % O # 9 l C D D W ! M x : O o 3 8.8.8.0.0.0.0.0.0.0.0.8.8.8.7.0.0.0.0.0.0.",
"0.0.0.0.0.0.0.0.0.0.0.0.0.0.0.0.8.8.8.8.0.0.H r F / / N > + 8 c n l 7 g v M M x : O X 2 8.0.8.8.8.6.0.0.6.8.7.8.0.0.0.7.0.0.0.0.0.",
"0.0.0.0.0.0.0.0.0.0.0.8.0.0.0.0.8.8.8.8.8.0.J 5 Y ' ( Z > % h M M h O . g m M x : o o G 0.0.8.8.6.6.6.8.6.6.6.8.0.0.0.0.7.0.0.0.0.",
"0.0.0.0.0.8.8.8.0.9.9.8.0.9.0.9.8.0.0.9.8.8.y e P ) ~ V > ; j R M h .   6 b M x 5 O X 3 0.0.8.8.5.<.2.2.2.4.7.8.0.8.0.0.0.0.0.0.0.",
"0.0.0.0.0.8.8.8.8.0.0.0.8.0.9.8.0.9.0.8.9.8.y 5 b E U l ; ; l I M h o . g b M x > O o 3 0.0.8.5.4.:.:.;.,.4.5.8.0.0.0.0.0.0.0.0.0.",
"0.0.0.0.9.8.8.8.9.0.0.9.0.9.0.0.9.0.9.0.9.0.d q z n b 9 % @ 0 b n l 7 g x M M x > O o 3 0.0.0.4.:.-.*.=.;.,.6.8.0.0.0.0.0.0.0.0.0.",
"9.0.0.9.0.0.0.9.9.0.0.9.8.0.0.8.8.0.0.0.9.8.@.p t k 0 4 + O : 0 l V D D T ! M x > o o 3 0.0.7.2.=.+.O.+.-.,.4.8.0.0.0.0.0.0.0.0.0.",
"0.0.9.0.9.0.0.0.0.0.0.9.0.0.8.0.9.9.0.8.0.0.<. .p q @ @ O X X + g D / ' _ ^ M j : o o 3 7.5.2.;.O.o.o.O.;.,.4.8.0.0.0.0.0.0.0.0.0.",
"0.0.9.0.0.9.8.9.8.9.8.0.8.0.0.0.0.0.9.0.9.9.8.>.{ 1 * * * * $ & - A / ' ) Q b g , * * 3 4.2.;.+.o.o.o.O.;.,.6.8.0.0.0.0.0.0.0.0.0.",
"0.9.0.9.0.8.9.8.9.0.9.0.0.0.0.0.8.0.0.8.8.8.8.5.#.] a f d d s d J G S F D C k g 3 s s } <.:.+.O.o.o.o.=.;.3.5.8.0.0.0.0.0.0.0.0.0.",
"0.0.0.0.0.9.0.0.0.9.8.0.8.8.0.0.9.0.9.0.8.8.8.6.1.%.$.$.$.$.$.&...J g , g > , 3 } #.#.$.2.=.O.o.X.o.+.;.,.4.7.7.0.0.0.0.0.0.0.0.0.",
"0.0.0.9.0.0.0.9.8.0.0.0.0.0.0.0.0.0.0.8.0.8.0.0.8.8.8.8.8.8.0.0.>.[ < o O o * i #.4.4.4.:.+.O.o.o.+.;.<.3.7.8.0.0.0.0.0.0.0.0.0.0.",
"0.0.0.0.0.9.0.0.0.8.0.8.0.8.0.0.0.9.0.8.0.0.8.0.0.0.8.8.8.8.0.0.1...J 3 3 3 u } >.7.4.4.,.+.O.O.+.-.,.3.7.8.8.0.0.0.0.0.0.0.0.0.0.",
"0.0.0.0.9.0.9.0.8.8.8.0.0.0.0.0.8.0.8.0.0.0.0.0.0.0.8.8.8.8.8.0.0.0.7.7.0.0.0.0.0.8.7.4.,.=.+.+.-.,.5.7.8.8.0.0.0.0.0.0.0.0.0.0.0.",
"0.0.0.0.9.0.9.9.8.8.8.0.0.0.0.0.0.0.0.0.0.0.0.0.0.0.8.8.8.8.8.8.7.7.0.7.0.0.0.0.0.0.7.4.2.;.;.-.,.3.8.8.8.8.0.0.0.0.0.0.0.0.0.0.0.",
"0.0.0.0.9.9.9.0.8.8.8.0.0.0.0.0.0.0.8.8.0.0.0.0.0.0.0.8.0.0.0.0.7.8.0.8.0.0.0.0.0.0.8.4.4.2.:.2.3.4.7.0.0.0.0.0.8.8.0.9.0.0.0.0.0.",
"0.0.9.9.9.9.9.0.8.8.8.8.0.0.0.8.0.0.0.8.0.0.0.0.0.0.0.0.0.0.0.0.8.8.0.0.0.0.0.0.0.0.8.7.4.5.4.4.6.6.8.0.0.0.0.0.8.8.8.0.0.0.0.0.0.",
"0.0.0.0.9.0.0.0.8.8.8.8.8.8.8.8.8.8.8.8.8.8.0.0.8.8.8.0.0.0.0.0.8.7.0.8.0.0.0.0.0.0.0.8.7.7.7.7.8.8.0.0.0.8.0.7.8.8.0.9.0.0.0.0.0.",
"0.0.9.0.0.0.0.0.8.8.6.8.6.1.5.6.6.8.8.6.6.5.6.6.1.6.8.0.0.0.0.0.0.0.0.0.0.0.0.8.0.0.0.0.8.8.7.7.8.0.0.8.8.8.8.0.9.0.0.9.0.0.0.0.0.",
"0.0.0.0.0.0.0.0.0.0.6.4.3.2.2.3.5.6.9.6.5.2.2.2.3.6.6.0.0.0.0.0.0.0.0.0.8.8.8.8.8.8.0.0.0.0.0.0.8.0.8.8.8.8.8.0.9.0.7.0.0.0.7.0.0.",
"0.0.0.0.0.0.0.0.0.0.6.4.,.;.:.,.3.6.6.5.3.:.:.:.2.6.6.0.0.0.0.0.8.0.8.8.8.8.8.8.8.0.0.0.0.0.0.0.0.0.0.8.8.8.8.0.7.0.0.0.9.0.0.0.0.",
"0.0.0.0.0.0.0.0.0.0.9.3.:.-.=.:.2.5.5.3.2.;.=.;.2.3.6.0.0.0.0.0.0.0.0.0.8.8.0.0.8.8.0.0.0.0.0.0.0.0.0.8.8.8.0.9.0.9.0.9.9.0.9.0.0.",
"0.0.0.9.0.0.0.0.0.0.9.3.:.;.=.;.:.2.2.,.;.;.=.;.2.5.6.0.0.0.0.8.8.0.0.8.0.8.0.0.0.0.0.0.0.0.8.0.8.0.8.0.0.7.0.0.0.0.8.0.0.0.9.0.0.",
"0.0.0.9.0.0.0.0.0.9.6.4.2.,.;.;.;.:.;.;.;.;.;.,.3.6.6.0.0.0.0.0.0.8.9.0.0.0.0.0.8.0.8.0.8.0.0.0.0.0.0.8.0.0.0.8.0.9.9.0.0.0.9.0.0.",
"0.0.0.9.0.9.0.0.0.0.9.6.4.3.,.:.;.=.-.;.;.,.,.4.5.6.8.0.0.0.0.8.0.0.9.0.0.0.0.0.0.0.0.0.0.0.8.0.8.0.0.8.7.0.9.0.0.0.0.0.9.0.9.0.0.",
"0.0.0.0.0.9.0.9.0.0.9.0.9.6.3.,.;.=.=.=.:.<.5.7.6.0.0.0.8.0.0.0.0.0.0.8.0.0.0.0.0.0.8.0.8.0.8.8.8.8.0.0.0.0.0.8.7.0.0.9.0.9.0.0.0.",
"0.0.0.0.9.0.0.0.8.8.0.0.0.9.6.3.,.;.=.;.,.4.8.0.0.0.0.0.8.8.0.0.0.0.0.0.0.0.0.0.0.0.0.0.0.0.0.8.8.8.8.0.0.9.9.0.0.0.0.9.0.0.0.9.0.",
"0.0.0.8.0.9.8.8.8.8.0.0.0.0.0.6.1.,.:.,.3.5.0.0.0.0.0.8.8.8.8.9.0.0.0.0.0.0.0.0.0.0.0.0.0.0.0.8.8.8.7.0.9.0.0.0.9.0.0.8.0.8.0.9.0.",
"0.0.9.0.9.0.8.8.8.8.0.0.0.0.8.7.1.1.<.4.5.6.0.0.0.0.8.8.8.8.8.8.0.0.8.8.0.0.0.0.0.0.0.0.0.0.8.8.8.8.8.0.0.0.9.9.0.8.9.0.9.0.0.0.0.",
"0.0.0.9.0.0.0.8.8.8.0.0.8.8.8.7.8.8.0.0.7.7.0.0.0.0.0.8.8.8.6.8.0.8.8.8.8.8.8.8.9.7.7.9.0.8.8.8.0.8.0.9.0.9.0.0.9.7.0.0.9.0.9.0.0.",
"0.0.0.9.0.7.7.0.0.0.8.8.8.8.8.8.0.0.0.0.7.9.0.8.0.0.0.8.0.8.8.8.8.8.6.6.6.8.8.8.6.6.6.6.8.8.8.8.0.0.0.9.0.0.9.0.0.0.0.9.0.0.9.0.0.",
"0.0.0.0.9.0.9.9.0.0.8.8.8.8.8.0.0.0.0.0.0.0.0.0.0.0.0.0.0.0.0.6.4.5.<.3.5.6.6.6.4.4.3.3.3.6.7.8.0.0.0.0.0.0.9.0.0.9.9.0.0.0.0.0.0.",
"0.0.0.0.0.0.0.0.0.0.8.8.8.8.0.8.0.0.0.0.0.0.0.0.0.0.0.0.0.0.8.6.3.:.:.:.3.5.6.6.3.2.,.:.<.3.7.8.0.0.0.0.9.0.0.9.0.0.0.0.7.0.0.0.0.",
"0.0.0.0.0.0.0.0.0.0.0.0.8.8.0.0.0.0.0.0.0.0.0.0.0.0.0.0.0.0.6.4.:.:.:.:.,.3.5.5.<.:.=.=.,.3.7.8.0.0.0.0.0.9.9.0.9.0.0.9.0.9.0.0.0.",
"0.0.0.0.0.0.0.0.0.0.0.0.0.0.0.0.0.0.0.0.0.0.0.0.0.0.0.0.0.9.6.4.:.=.=.:.:.3.6.3.,.;.=.=.:.3.8.0.0.0.0.0.0.0.0.0.9.0.0.9.0.0.0.0.0.",
"0.0.0.0.0.0.0.0.0.0.0.0.0.0.0.0.0.0.0.0.0.0.0.0.0.0.0.0.0.0.0.9.2.;.=.-.2.3.4.4.2.;.=.=.;.3.6.7.0.0.0.0.0.0.0.0.0.0.0.0.0.0.0.0.0."
};
