/* XPM */
static char *result[] = {
/* columns rows colors chars-per-pixel */
"65 65 79 1 ",
"  c #574719",
". c #5C4B1B",
"X c #64511D",
"o c #68541D",
"O c #6F5A1F",
"+ c #715B1F",
"@ c #645225",
"# c #695620",
"$ c #69582E",
"% c #745F27",
"& c #675735",
"* c #6C5A33",
"= c #6C5C39",
"- c #796323",
"; c #7F6826",
": c #766128",
"> c #7C672C",
", c #7E682C",
"< c #736657",
"1 c #796A55",
"2 c #746758",
"3 c #77695A",
"4 c #7B6D5B",
"5 c #7B6D63",
"6 c #7F7163",
"7 c #896F25",
"8 c #836C2C",
"9 c #88702D",
"0 c #887130",
"q c #827365",
"w c #83756A",
"e c #86786D",
"r c #8A7C75",
"t c #98803C",
"y c #A4862E",
"u c #BC9B3C",
"i c #C4A037",
"p c #B1954B",
"a c #B69A4C",
"s c #B99D4E",
"d c #8F827F",
"f c #C7A649",
"g c #CBAA4B",
"h c #CAAA52",
"j c #E5BE4B",
"k c #DFC065",
"l c #F5D260",
"z c #F5D66C",
"x c #908280",
"c c #93878B",
"v c #94888D",
"b c #968B94",
"n c #998F9B",
"m c #9B909F",
"M c #9A93AE",
"N c #8D89B7",
"B c #8F8BB9",
"V c #928DBB",
"C c #9A93B6",
"Z c #9591BE",
"A c #AAA1BF",
"S c #9792C0",
"D c #9B96C4",
"F c #9E99C6",
"G c #9F9AC8",
"H c #A29DCB",
"J c #ADA5C6",
"K c #A6A1CE",
"L c #ADA5CB",
"P c #B0A8CE",
"I c #A7A2D0",
"U c #ABA5D3",
"Y c #AFA8D6",
"T c #B0A9D7",
"R c #B4ADDB",
"E c #B7B0DE",
"W c #B8B1DF",
"Q c #B7B0E0",
"! c #B9B2E0",
/* pixels */
"!!!!!!!!!!!!!QQQ!!!!!!!!!!!!!!!!!!QYHFDDHUR!!!!!!!!!!!!!!!!!!!!!!",
"!!!!!!!!!!!!!Q!Q!!!!!!!!!!QQ!!Q!!!QYHFSDHIR!!!!!!!!!!!!!!!!!!!!!!",
"!!!!!!!!!!!!!!QQ!!!!!!!!!QQQ!!!!!!!YIGFFKLRW!!!!!!!!!!!!!!!!!!!!!",
"!!!!Q!!!!!!!Q!Q!Q!Q!!!!Q!!!Q!!!!!!!QIIHHLTRW!!!!!!!!!!!!!!!!!!!!!",
"!!!Q!!!QQ!!!QQ!Q!!R!Q!W!Q!!!!!!Q!!!TYYIUTRWW!!WW!!!!!!!!!!!!!!!!!",
"!!!!!QQQ!!QQ!!!!Q!!!!!Q!Q!!Q!!!!!!!QRRRRRWWW!WWW!!!!!!!!Q!!!!!!!!",
"!!!QQ!QQQ!!!Q!Q!!WQWW!WQ!!!!!!!!!!!!QQQQWWWW!WWW!!!!!!!!!!!!!!!!!",
"!!!!!QQQ!!Q!!!Q!Q!!!!Q!!!QQ!!!Q!EEQ!!!QQ!!WWWWWW!!!!!!!!!!!!!!!!!",
"!!!!!!!!!!!!!!!Q!!W!W!!Q!!W!!QWW!!!!!!!!!!!!WWWW!!WE!!!E!!Q!!!!!!",
"!!!!!!!!!!!!!!QQ!W!!!!W!WQ!Q!!WWEE!E!!!!!!!!WWWWWWEEW!!!!!QQQ!!!!",
"!!!!W!!!!!!!!!!!!!WWWWW!Q!W!WQWWEE!!E!!E!W!!WWWREEREEEEE!QRRRR!!!",
"!!!!!!!!!!!!!!!!!!!WWWW!!Q!Q!!!Q!E!!!!!!!!!!WWWRYUUUYEEEQRUUURE!!",
"!!!!!!!!!E!!!!!!!W!WWWWW!!!Q!!W!!!!Q!!!Q!W!!!!RRUKKKURRRYIKGIUR!!",
"!!!!WEWW!!!E!!!!WWWWWWW!WQW!Q!Q!!!!E!E!Q!!!!!!WRIKFZIURYUHFFHIRE!",
"WW!!ETYEEEEEETQEERWW!QW!!Q!Q!WW!!E!!Q!!WW!W!!!!RKGFFHIUUKGFFGIRE!",
"WEEEYUUYEEEETYYYTRWW!!!Q!W!!Q!Q!!!!!!QQ!!!!!!!!WLKFFGGKKHGGGIURR!",
"EERUIHKIYERYYKKILYEEW!!!E!!!WQ!QWWWWWW!!!W!WWWWWYIKKFFFFGGKKUYEE!",
"EERUHGGHUYYYIGFGUYEW!!W!!QQ!Q!QWWWWWWWW!!!!!WWWWETYKKDDDDKIYREEE!",
"EERIHFFGIUUUHDDGIYRW!!!!!!!!!Q!!WWWWWW!W!WW!W!!!!EEIKGDDGKYE!!EW!",
"EERUKGGGHHKHGFGKIREE!!W!!!E!!WQ!!WWWWW!!!!WWWW!!!!ERIKGHKUEE!!!W!",
"EEERUIHGGGGGGGKLPE!!!!!!!!!!!!WE!!!W!W!W!!WWWW!!!!!WRLKKPE!!!!!!!",
"EWEWRUIHGDDDHIPREW!!!!!!!E!EEWWEW!!!!!!!W!WWWW!!!!!WERYYRW!!!!!!!",
"!!!!EERIHDDGKUEEWW!!!!!!!!WWWWEEWW!W!!!WWW!WWW!!!!!WEEEEEE!!!!!!!",
"!!!!!WRUIGGHUY!!!W!!!!!!WWWEEPbddnP!!W!WWWWWW!WW!!!!EEEEEE!!!!!!!",
"!!!!!!!YPIIIPE!!!!!!WWWW!WWWWAd*:eAEWEWEWWW!!!WW!!!!!!!!WW!WWWW!!",
"!!!!!!!EYYYYRW!!!!!!WWW!!!WWPm1X@1nJAPWW!!W!!WWW!!!!!!!!WW!WWWW!!",
"!!!!!!!!EEEEWW!!!!!!WW!!!!!!Mw&  $6ddmWW!!!!WW!W!!!!!!!!W!!WWW!!!",
"!!!!!!!!E!EE!!!!!!!!!W!WW!W!v*@ .@$==d!!!!!!WWW!!!!!!!WWWWWW!!!!!",
"!!!!!!!!!!!!!!!!!WWWWW!!!!!!x#%>>:oXoqEW!!!!WWWW!!!!!W!WWWE!!!!!!",
"!!!!!!!!!!!!!!!!WWWWWW!WW!!!d:tppt:Xo6EW!!!!WWWW!!!!WE!WWWWE!!!!!",
"!!!!!!!!!!!!!!!!WWWWWWW!!!!!d,akks,Xo6RE!!!!W!WWWW!!EEEW!!!!!!!!!",
"!!!!!!!!!!!!!!!!!!WWWW!!!E!!x0hzzh9XX6LYW!!!!!WERRRWRREW!!!W!!!!!",
"!!!QQ!W!QW!!!!WW!Q!Q!Q!W!!!!d8fllg0XX4HIYRW!!!!WYUKIUYRWWW!!!!!!!",
"!!!!!Q!Q!!QW!WWWW!W!W!Q!!!!!d-ujju;XX3DHUYWW!!WRUHGHKURW!!!!!!!!!",
"!!Q!W!Q!!Q!!W!WWQ!!Q!Q!Q!!!!d-yiiy-XX2VDKUE!!!!UHDSDGKRW!!!!!!!!!",
"!!!Q!Q!WW!!W!!W!!QW!Q!Q!!!WWdO7yy7+XX<BSGURQ!!ELDZVZGKTW!!!!!!!!!",
"!!!!!WQ!QWQ!!!WW!!Q!WQ!W!!!!do+--##@X<BSGIRWETIDZBBVGKTW!!!!!!!!!",
"!!Q!!Q!Q!!!Q!W!!WQW!!!Q!!!!Wc*@.X@$=*5BSGITRYIGSBNNVDKTW!!!!!!!!!",
"!Q!!Q!Q!!!!W!!!!!WQ!!Q!!!!!!Mq=..&665cSDKYTTUGZBNNVDHURW!!!!!!!!!",
"!!!QW!!QWQ!Q!W!WQ!Q!QW!W!WWWPn4#@1bCCCGKIYRYKDZBNBZGKYRW!!!!!!!!!",
"!!!Q!!!Q!!!!!W!!!!W!!!!!!WWWWAr$*eATTLKLYTTYKZCNVCHKTRW!!!!!!!!!!",
"!!!!!Q!!W!W!!!!!QW!!!W!W!!WWWJbewbJERWYERETYKZBBVHHTRWW!!!!!!!!!!",
"!!!!Q!Q!WWW!!!!!!W!!!!!!!WWWWWW!WWWE!W!!WWEYKZZZFHTRWW!!!!!!!!!!!",
"!!!!Q!Q!WW!!!!!!!!!W!!!!!WWWWWWWWWWW!!!!!QEYKKGGHYW!!W!W!!!!!!!!!",
"!!!QQQQQWWW!!!!!!WWW!!!!WWWWWWWWWW!!!!!!!!EEUKKKYT!!!!!!WWQ!!!!!!",
"!!Q!QQ!!WWWW!!!W!!!W!!!!WWWWWWWWWWW!!!!!!!EEYYUYTR!!!!!!WWW!!!!!!",
"!!Q!!Q!!WWWWWWWWWWWWWW!!WWWW!!!!WW!!!!!!!!!EEEEEWW!!!!!WWW!Q!!!!!",
"!!!Q!!!!WWRRRTTTWWWRRRTRRWWW!!!!W!W!!!WW!!!WEEEEW!!!WWW!Q!Q!!!!!!",
"!!!!!!!!!!QYUIIUTWRRYUIIYRR!!!!!!!!WWWWWWW!!!!!!!W!WWWW!!WQ!Q!Q!!",
"!!!!!!!!!!RUKGHKUTRTUHGHIYR!!!!!!W!!WWWWW!!!!!!!!!!WWWWQ!Q!W!W!!!",
"!!!!!!!!!!QUHFDHIYYUKGDGKYWW!!!!W!!!!WWWWW!!!!!!W!!WWW!!QWQ!!!!!!",
"!!!!!!!!!!QUHGDGHILKHDGGKYRW!!!W!!W!!!!!!!!!!!W!!!!W!QWQ!!!QQQ!!!",
"!!Q!!Q!!!WRYIHHGHGHGGGGKUTWW!!!!W!!W!!!!!!!WW!!!!!!W!!Q!!QW!!!Q!!",
"!!!!!!!!!!WRTUHHGDDGGKKYRRW!!W!W!Q!Q!!!!W!!!!!!W!W!!!WW!W!Q!Q!!!!",
"!!QQQQ!!!!!!WTYIGDDDKKTWWWWWW!W!!!!!!!!!!!W!W!WWWW!WQWQ!!Q!QQ!!!!",
"!!!!!!!QWW!!!QRUKGDGKYW!W!!WWW!!!!!!!!!!!!!!!!!WWWW!!!!QQ!Q!!Q!!!",
"!!!Q!!!EWW!!!!!RPKKKUTW!!!!WWWWW!!!!!!!!!!!!!!!WWWW!!QQ!!W!Q!W!!!",
"!!!!!!EEWW!!!!WEPPLUYW!!!!!WWWWW!!!W!!!!!!!!!!WWWWWQ!!!!Q!W!Q!!!!",
"!!WQE!!EWWW!WWWWWW!!RW!!!!!WWWWW!WWWRW!WWWWW!WWW!W!!Q!!Q!W!QW!Q!!",
"!!!!Q!Q!!!WWWWWW!!!!WE!E!!WWWWWRWRRRRWWWRRTRWWWW!!Q!Q!!QQ!Q!QQ!!!",
"!!!!!!!Q!!WWWWWW!!!!!!!!!!W!!!WRTTUURRRRTYUYYTEW!!!!Q!!!!!!Q!!W!!",
"!!!!!!!!!!WWWW!!!!!!!!!!!!!!!!WRUHHHPTRTUKHHLYEW!!!!!!Q!QQ!!!Q!!!",
"!!!!!!!!!W!!W!!W!!!!!!!!!!!!!!RUHHFHHYRTUHDGHUEW!!!WQQ!Q!!Q!!!!!!",
"!!!!!!!!!!!!!!!!!!!!!!!!!!!!!!WYHFDHHUTTKGDDGUW!!!!!!!!!!Q!!!!!!!",
"!!!!!!!!!!!!!!!!!!!!!!!!!!!!!!!QIFDFIUYYIGDDGUR!!!!!!!!!!!!!!!!!!"
};
