/* XPM */
static char *result[] = {
/* columns rows colors chars-per-pixel */
"65 65 90 1 ",
"  c #614E1B",
". c #6B571F",
"X c #6C581F",
"o c #685627",
"O c #6D5922",
"+ c #705C24",
"@ c #675730",
"# c #6B5B35",
"$ c #725F33",
"% c #7D6727",
"& c #76633A",
"* c #756547",
"= c #77674B",
"- c #736657",
"; c #77695A",
": c #7B6E5E",
"> c #786C65",
", c #7F7162",
"< c #7E716B",
"1 c #967A2B",
"2 c #9A7D2C",
"3 c #826E3D",
"4 c #937A37",
"5 c #867349",
"6 c #8E7A53",
"7 c #827363",
"8 c #86786C",
"9 c #8A7C73",
"0 c #9D8236",
"q c #9E833A",
"w c #A68830",
"e c #A4893F",
"r c #BD9A39",
"t c #CBA539",
"y c #CEA93A",
"u c #DEB53E",
"i c #E3B93E",
"p c #9D854A",
"a c #A58B42",
"s c #AA8E44",
"d c #AE9247",
"f c #AB914F",
"g c #B79A4C",
"h c #968362",
"j c #92847C",
"k c #CDA942",
"l c #D5B24F",
"z c #D4B45F",
"x c #DEBD5D",
"c c #E2C05F",
"v c #EEC85A",
"b c #E6C869",
"n c #E9CA6B",
"m c #FAD56C",
"M c #EBD070",
"N c #FFE27A",
"B c #8F8281",
"V c #928582",
"C c #958884",
"Z c #968B94",
"A c #988C96",
"S c #998E9A",
"D c #9D93A5",
"F c #9D94AB",
"G c #8D89B7",
"H c #8F8BB9",
"J c #928DBB",
"K c #9A93B6",
"L c #9591BE",
"P c #A197AC",
"I c #A399AF",
"U c #A49BB2",
"Y c #A79EBA",
"T c #A9A1BE",
"R c #9792C0",
"E c #9B96C4",
"W c #9E99C6",
"Q c #9F9AC8",
"! c #A29DCB",
"~ c #A6A1CE",
"^ c #ADA5CC",
"/ c #A7A2D0",
"( c #ABA5D3",
") c #AFA8D6",
"_ c #B1AAD6",
"` c #B4ADDB",
"' c #B7B0DE",
"] c #B8B1DF",
"[ c #B7B0E0",
"{ c #B8B2E0",
/* pixels */
"{{{{{{{{{{{{{{{{{{{{{{{[{{{{{{{{{{[(!WEE!(`]{{{{{{{{{{{{{{{{{{{{{",
"{{{{{{{{{{{{{{{{{{{{{{{{{[{{{{{{{{[)!WRE!(`]{{{{{{{{{{{{{{{{{{{{{",
"{{{{{{{{{{[[{[{{{[{{{{{[[{{[{{{{{{{`/QWW~/`]{{{{{{{{{{{{{{{{{{{{{",
"{{{{[{{[[{{{[{{{{{{`{{{{{{[{{{{{{{{{//!!^)']{{{{{{{{{{{{{{{{{{{{{",
"{{{[{{[{{{[{{{[{{]{{{]{{[{{{[{{{[[[))(((_`']{{]]{{{{{{{{{{{{{{{{{",
"{{{{{[[[[[{{{[[{[{[{[{[{[{[{[{{{{[[[````]]''{{]]{{{{{{{{{{{{{{{{{",
"{{{[[[{[{[{[[{{[{{[{{{{'{{[{{{{{{{[[[{[[]]]]]]]]{{{{{{{{{{{{{{{{{",
"{{{{{{[[{{[{{[{{'{{{{'{[[{{[{[[{{[{{{{{{{{]]]]]]{{{{{{{{{{{{{{{{{",
"{{{{{{{{[{{{{[{{{{{{]{]{]{[{'{]]]]{{{{{{{{{{]]]]{{{{{{]]{{{{{{{{{",
"{{{{]{{{{[{{[{{[]{]{{{{[{[{{{{]]]]{{{{{{{{{{]]]]]]]]]{{]{{[[{[{{{",
"{{{{{{{{{{{{{{{{{{]]]]]{[{{'[{{']]{]{]{{{{{{]]]]]'')]]']{[````{{{",
"{{{{{{{{{{{{{{{{{]]]]]]{{[[{{[[{{'{{{{][{]{{]]``)(((('''[`(((``{{",
"{{{{{{{{{{{{{{{{]]]]]]]{]{[{{[{]{{{[{{]{]{{{{{]_(~!~()'`)//!/(`{{",
"{{{{]]{]{{]{{{{{'']]]]][{[{]]{[{{[{{{'{[{{{{{{]_^!QQ~(`)(/EW!/`[{",
"]]{{'_`'']''')[''']]]{{{[{[{{[{[{{['{{[{]{]{{{{`~QEQ!~((/QEE!(``{",
"]]''((()`''')))))']{]{]{{]{[[{]{'{{{[{{]{{{{{{{]^~QEQQ//QQWQ/(``{",
"''`(/!//)''))~~~(_']{{{{{{{{'{{[]]]{{]]]{{{{{]]])(/QQQQEQQ!/(``[{",
"''`(!QE/()))/QQQ/_']{{]{'{[{[{]{]{{{]]]]{{]{{]]{``(/!QEEQ!^(``'{{",
"`'`(!EEQ/((^QEEQ~_']{{{{[{[{{]{[]]]{{{]]{]]]{{{{{[`)~QEEQ/)'{{{{{",
"'``(/QQQQ!~!QQQ~/_''{{]{{]{][{[{]]{{{]{{]]]]]]{{{{'`(!QQ~(']{{{{{",
"'''`(/!QQQQQQ!^^_`{{{{{{{{]{]]]']]]]{]{{]]]]]]{{{{{])(^~_`{{{{{{{",
"{'']`(//QEEQQ/(_`]{{{{{{{]{{]]]']]]]{{{]]]]]]]{{{{{]'`)()]{{{{{{{",
"{{{{'')/QEEQ~(]]]]{{{{{{]]]]]]'']]{{{{{]]]{]]]{{{{{{''''''{{{{{{{",
"{{{{]]'(~QQ~()]{{{{{{{{{]]]]]`TVhjU]{{]]]]]{{]]]{{{{]]]]]]{{{{{{{",
"{{{{{{{`(///_`]{{{{{]]]{{{]]'_S=@*A_]]]]{{{]]]]]{{{{{{{{]]{]]]]{{",
"{{{{{{{'))))`]{{{{{{]]]{]{]^TKC5%5jIT^]]{{{{{{]]{{{{{{{{{{{]]]{{{",
"{{{{]{]{''''{{{{{{{{]]{]{{{Pj9hfgfhjjD]]{{{{]]{]{{{{{{{{{]{]]]{{{",
"{{{{]]]{']]'{{{{{{{{]{{{{{{j#&pzMzp&#j{{{{{{]]]{{{{{{{{]]]]]{{{{{",
"{{{{{{{{]{{{{{{{]]]]{]]]{{'8 OabNnd+ 7']{{{{]]]]{{{{{{]]]]''{{{{{",
"{{{{{{{{{{{{{{{{]]]{]]]]{]`j OaMNMd+ ,']{{{{]]]]{{{{''{']'{{]{{{{",
"{{{{{{{{{{{{{{{{]]{{]]]]{{{8 OabNMsO ,`']{{{]]]]]]{{''']{{{{{{{{{",
"{{{{{{{{{]{]{{{{{{]{]]]]{'{j OqxmceO :^)]{{{{{]]```]``']{{{'{{{{{",
"{{{{{[[{{[{[[{[{[{]{]{{[{]]9 O4lvl0. ;Q~)`']{{{'_(//()`]{{{{{{{{{",
"{{[[{]{[{{]{{]{{{{[[[[{]{{]9 O2tckwX =R~()']{{{_(!Q!~(`]{{{{{{{{{",
"{{[{[{]{][[{{]][][{{{{[{{]{9 .1tut1X -LE~('{{{{)!EREQ~_]{{{{{{{{{",
"[{{{[]{[{{]{{[{{{{[]{[{{{{]9 .1yiyw  -HL!(`'{{'^ELJLQ~_]{{{{{{{{{",
"{{{[[{]{[{[{{[{[][{{{{[[][{9 X1tiy1. -HRQ(`'')~WLHHJE~_]{{{{{{{{{",
"{[{{{{{[{]]{{]]{[{[][]{]{{{j#$4ryr4$@>LRQ/)`)~QLHGHJQ~`]{{{[{{{{{",
"{{[{][]{{][{{{{]{[{[[{[{{{[D996ew06<<BLE~(_)(!LHHHHE!(`]{{{{{{{{{",
"{{[{{{[{[{[{{]{{[]{{{]{[{{]^YIj3%3jFKKQ!/)`)~ELGGHLQ~(`]{{{{{{{{{",
"{{{{[{[{{{]{]{{{{{{]{{{{]]]]]_A=o*Z^_^(/))`(~LHHHJ!~_`{{{{{{{{{{{",
"{{{{[{[{]{{{{[{{[]{{{]{]]{]]]`Ij7jP^``)`'''(~LLHL!!_`]{{{{{{{{{{{",
"{{{{{[{{]]{]{{{{{]{]{{{{{{]]]]]]{{]]{]{{]]`(~ELL!!_`]]{{{{{{{{{{{",
"{{{{{{{[]]{]{{{{{{{{{{{{{{]]]]]]]]{]{{{{{]')~QQQ!^]{{{{{{{{{{{{{{",
"{{{[[[[[]]]]{{{]]]]]{{{{{{]]]{{{]]]{{{{{{{]`(^~~(`]{{{{{]][{{{{{{",
"{{[{{{[{]]]]{{{]]]]]{{{{]]]]]{{{]]{{{{{{{{]])))(``]{{{{{]{{[{{{{{",
"{{[{{{{{]]]]]]]]]]]]]]{{]]]]{]{{]]{{{{{{{{{]'''']]{{{{{]]]{{{{{{{",
"{{{[{{{{]]`]`___]]]]]__`_]]]{{{{]{{]{{]]{{{]]]'']{]]]]][{[[{[{{{{",
"{{{{{{{{{{[)(//(_`'`_(//(``{{{{{{]{]{{]]]{{{{{{{{{{]]]]][{{[{{{{{",
"{{{{{{{{{{`(/QQ/(``_(!Q!/_`{{{{{{{{{{{]]]{{{{{{{{]{]]]]{[{{[][[{{",
"[{{{{{{{{{{(!QE!~_)(!QEQ/('{{{{]{]]]]]{{]]{{{{]{{{]]]][]{{{]{[{{{",
"{{{{{{{{{{[(!QEQ!~~~!QE!/_`{{{{{{{]]]]{{{]{{{{{{{]{{[{{{][[{[{{{{",
"{[{{{[{{{]`_/!!QQ!!!Q!!~(_`{{{{{{{{]{{{{{{{]]{{{]{{{{]{[]{{[{{[{{",
"{{{[{[{{{{'`)(~!!EEE!!~)_`]{{{]{]{{{{{{{]{{{{{{]{{]{[{{[[[{]{[{{{",
"[{{{[{{{{{{{``(/QEEQ!~_'{{{{{{{{{{{]{{{{{{{]]{]]]]]{{]{]{{[{{[{{{",
"{{{[{[{[]]{{{[`(!QEQ~)]{{{{{]]{{{{{{{{{{{{{{{{{]]]]{[{[{{[{{[{{{{",
"{{{[{[]]]]{{{{{'^^!~(`{{{{{]]]]{{{{{{{{{{{{{{{{]]]]]{[{{][{{[[{{{",
"{{{{]{]]]]{{{{''_^^(_`{{{{{]]]]]{{{{{{{{{{{{{{]]]]]{{{[[{{[]{]{{{",
"[{{[{[[]]]{{]]'']]{{`]{]{{]]]]]]{]]]]]{]{[[{{]]]{[[{[{[{[[{{[]{{{",
"[{]{[{{]{{]]]]]]{{{{{{{]{{{{]]]`]]_```]]````]]]]]{{{{[{{{]{[{{{[{",
"{{{{{{{{{{]]]]]]{{{{{{{]{{{{{{{`_)((_```_((()_']{{{{{{[[[{{[[][{{",
"{{{{{{{{]{]]]]]]{{{{{{{{{{{{{{]`(!!!(_``(~~!^_`]{{{{[{{{{[{{{{{{{",
"{{{{{{{{{{{{]{{{{{{{{{{{{{{{{{`(!!!!!)`)/!EW!(']{{{{[{{{{[{{{{{{{",
"{{{{{{{{{{{{{{{{{{{{{{{{{{{{{{`)!EE!!(_)/QEE!(]{{{{{{{{{{{{{{{{{{",
"{{{{{{{{{{{{{{{{{{{{{{{{{{{{{{{[/QEW/())/QEEQ(`{{{{{{{{{{{{{{{{{{"
};
