/* XPM */
static char *result[] = {
/* columns rows colors chars-per-pixel */
"65 65 142 2 ",
"   c #53400F",
".  c #5F4C17",
"X  c #5E4C1A",
"o  c #604E1B",
"O  c #64511D",
"+  c #6C561B",
"@  c #6D581D",
"#  c #725C1F",
"$  c #79611E",
"%  c #5E4F2D",
"&  c #5E4F31",
"*  c #675527",
"=  c #685628",
"-  c #6A582E",
";  c #725D21",
":  c #6C5B35",
">  c #6D5C38",
",  c #7D6524",
"<  c #7E6729",
"1  c #7F6828",
"2  c #756234",
"3  c #786539",
"4  c #6F5F42",
"5  c #7D6B41",
"6  c #776952",
"7  c #7B6C56",
"8  c #7E6F59",
"9  c #7F705B",
"0  c #7F7160",
"q  c #856C24",
"w  c #836C2B",
"e  c #886F28",
"r  c #8B7025",
"t  c #87712F",
"y  c #957928",
"u  c #9A7E2C",
"i  c #877237",
"p  c #8C7432",
"a  c #8A7538",
"s  c #947B34",
"d  c #957B3A",
"f  c #84714A",
"g  c #887553",
"h  c #8D7A5A",
"j  c #917E5D",
"k  c #837465",
"l  c #84766C",
"z  c #86786D",
"x  c #827674",
"c  c #867A77",
"v  c #8B7D73",
"b  c #85797A",
"n  c #8A7D7A",
"m  c #9E812C",
"M  c #9D8233",
"N  c #9E833B",
"B  c #A2842D",
"V  c #AA8A2D",
"C  c #A48631",
"Z  c #AC8D32",
"A  c #A4883C",
"S  c #AA8D3A",
"D  c #B29133",
"F  c #B79739",
"G  c #BB9A3B",
"H  c #C6A136",
"J  c #C6A33D",
"K  c #CBA63A",
"L  c #CDA83C",
"P  c #D4AD3B",
"I  c #D9B13E",
"U  c #E0B63D",
"Y  c #9B844D",
"T  c #B59A4B",
"R  c #AB9359",
"E  c #BEA34F",
"W  c #918067",
"Q  c #938269",
"!  c #8E817C",
"~  c #C1A345",
"^  c #D3AE43",
"/  c #D6B043",
"(  c #DBB340",
")  c #C5AA53",
"_  c #CAAF52",
"`  c #CBAD5C",
"'  c #D3B553",
"]  c #E5BC42",
"[  c #EABF43",
"{  c #E4BF54",
"}  c #E0BF60",
"|  c #ECC245",
" . c #E7C14F",
".. c #EDC44E",
"X. c #EDCC59",
"o. c #F1CE5B",
"O. c #FBD75C",
"+. c #EDCD64",
"@. c #E6CA6A",
"#. c #ECCE6B",
"$. c #EED06D",
"%. c #FDDB64",
"&. c #F5DA6B",
"*. c #FCE071",
"=. c #887C81",
"-. c #938582",
";. c #968887",
":. c #93878A",
">. c #998B8E",
",. c #958994",
"<. c #998D91",
"1. c #978D9D",
"2. c #9A8E9C",
"3. c #9C92A4",
"4. c #8D89B7",
"5. c #8F8BB8",
"6. c #928DBB",
"7. c #9591BE",
"8. c #A197AC",
"9. c #A399AF",
"0. c #A49AB3",
"q. c #A79EBC",
"w. c #A99FBB",
"e. c #AAA1BE",
"r. c #9792C0",
"t. c #9B96C4",
"y. c #9E99C6",
"u. c #9F9AC8",
"i. c #A29DCB",
"p. c #ABA3C5",
"a. c #A6A1CE",
"s. c #ACA4CB",
"d. c #B0A8CD",
"f. c #A7A2D0",
"g. c #ABA5D3",
"h. c #AFA8D6",
"j. c #B1AAD6",
"k. c #B4ADDB",
"l. c #B7B0DE",
"z. c #B8B1DF",
"x. c #B7B0E0",
"c. c #B8B2E0",
/* pixels */
"c.c.c.c.c.c.c.c.c.c.c.c.c.c.c.c.c.c.c.c.c.c.x.c.c.c.c.c.c.c.c.c.c.c.x.g.i.t.t.t.i.h.h.z.c.c.c.c.c.c.c.c.c.c.c.c.c.c.c.c.c.c.c.c.c.",
"c.c.c.c.c.c.c.c.c.c.c.c.c.c.c.c.c.c.c.c.c.c.c.c.x.c.c.c.c.c.c.c.c.c.x.h.i.u.t.t.u.g.l.c.c.c.c.c.c.c.c.c.c.c.c.c.c.c.c.c.c.c.c.c.c.",
"c.c.c.c.c.c.c.c.c.c.x.x.c.x.c.c.x.c.c.c.c.c.c.x.x.c.c.x.c.c.c.c.c.c.c.k.f.u.t.u.a.g.l.z.c.c.c.c.c.c.c.c.c.c.c.c.c.c.c.c.c.c.c.c.c.",
"c.c.c.c.c.x.c.x.x.c.c.c.x.c.c.c.c.c.c.c.c.c.c.c.c.c.x.c.c.c.c.c.c.c.c.c.g.i.i.i.s.g.l.z.c.c.c.c.c.c.c.c.c.c.c.c.c.c.c.c.c.c.c.c.c.",
"c.c.c.x.c.c.c.c.x.c.c.x.c.c.x.c.c.c.x.k.c.c.c.c.x.c.c.x.c.c.c.c.c.x.l.k.k.f.g.g.h.j.l.z.c.z.z.z.c.c.c.c.c.c.c.c.c.c.c.c.c.c.c.c.c.",
"c.c.c.c.c.x.x.x.c.x.c.c.c.x.x.c.l.c.c.c.x.c.l.x.x.c.c.x.c.x.c.c.c.x.l.l.k.k.k.k.l.z.l.z.z.z.z.z.c.c.c.c.c.c.c.c.c.c.c.c.c.c.c.c.c.",
"c.c.c.x.x.c.x.x.c.x.c.x.x.c.c.x.x.c.x.c.c.c.z.c.c.x.c.c.c.c.x.x.c.x.x.x.x.x.x.x.z.z.z.z.z.z.z.z.c.c.c.c.c.c.c.c.c.c.c.c.c.c.c.c.c.",
"c.c.c.c.c.x.x.x.x.c.x.c.c.x.c.c.c.z.c.c.c.l.c.x.x.c.c.x.x.c.c.c.z.c.x.x.x.c.c.c.c.c.z.z.z.z.z.z.c.c.c.c.c.c.c.c.c.c.c.c.c.c.c.c.c.",
"c.c.c.c.c.c.c.c.c.c.c.c.x.x.c.x.c.c.z.c.z.c.z.c.x.c.z.c.c.x.z.z.z.z.c.c.c.c.c.c.c.c.c.c.z.z.z.z.c.c.c.z.c.z.c.c.c.c.c.c.c.c.c.c.c.",
"c.c.c.c.z.c.c.c.c.x.c.c.c.c.c.c.z.c.c.c.c.c.c.x.c.x.c.x.c.c.z.z.z.z.z.c.c.c.c.c.c.c.c.z.z.z.z.z.z.z.z.z.z.c.c.c.c.c.x.x.c.c.c.c.c.",
"c.c.c.c.c.c.c.c.c.c.c.c.c.c.c.c.c.c.z.z.z.z.z.c.z.c.x.c.x.c.c.l.z.l.c.c.c.c.c.z.c.z.c.c.z.z.z.z.z.l.h.l.l.z.z.z.c.k.k.k.k.l.c.c.c.",
"c.c.c.c.c.c.c.c.c.c.c.c.c.c.c.c.c.z.z.z.z.z.z.c.c.x.c.z.c.x.l.c.c.c.z.c.c.z.c.c.c.c.c.c.z.z.z.k.h.g.g.g.h.l.l.l.x.k.g.g.g.h.l.c.c.",
"c.c.c.c.c.c.c.c.c.c.c.c.c.c.c.c.z.z.z.z.z.z.z.c.l.x.c.x.l.c.x.c.c.c.c.l.c.c.x.c.c.z.c.c.c.c.l.j.g.a.i.a.g.h.l.l.h.g.a.i.f.h.k.l.c.",
"c.c.c.c.z.l.c.z.c.c.z.z.c.c.c.c.l.l.z.z.z.z.z.x.c.c.c.c.c.c.c.x.c.l.c.x.x.c.c.c.c.c.c.c.c.c.z.j.s.u.y.u.f.g.h.h.g.i.u.u.i.f.h.l.c.",
"z.z.c.z.l.j.k.l.l.z.l.l.l.h.x.l.l.l.z.z.z.c.c.c.c.c.l.c.c.x.c.c.c.c.c.c.c.x.c.c.z.c.z.c.c.c.c.k.g.u.y.y.u.f.g.g.a.u.t.t.i.f.k.l.c.",
"z.z.z.l.g.g.g.h.k.l.l.l.h.h.h.h.h.l.z.c.z.c.c.c.l.x.c.x.c.c.l.x.c.x.l.c.z.c.c.l.c.c.c.c.c.c.c.z.g.i.y.y.u.i.a.a.u.u.u.u.f.f.k.l.c.",
"l.l.k.g.f.i.a.g.h.k.k.j.g.f.i.f.g.j.z.z.z.c.c.c.c.x.c.x.c.c.z.c.c.x.x.c.c.c.c.c.c.c.c.c.z.z.z.l.h.g.a.u.u.y.y.y.u.u.i.a.h.h.l.l.c.",
"l.l.k.g.i.u.y.i.g.h.j.h.f.u.u.i.f.h.z.c.c.c.c.c.c.c.z.c.c.l.c.x.x.c.c.x.x.x.c.c.z.c.z.c.z.z.z.z.h.k.h.g.i.y.t.t.u.i.f.h.k.k.l.l.c.",
"k.l.k.g.a.t.t.u.f.g.g.f.i.u.t.u.f.j.k.c.c.c.c.c.c.l.z.c.c.c.x.c.c.c.c.c.c.x.c.c.c.c.c.z.z.c.c.c.c.c.k.g.a.u.t.t.u.f.h.l.c.c.x.c.c.",
"l.k.k.g.a.u.y.u.i.i.f.i.u.u.u.i.f.j.k.z.c.c.c.z.c.x.c.x.x.c.c.z.c.x.x.x.x.x.c.c.z.c.z.z.z.z.c.c.c.c.c.h.g.i.u.u.a.g.l.x.c.c.c.c.c.",
"l.l.k.k.g.f.i.u.u.u.u.u.u.u.f.d.d.k.c.c.c.c.c.c.c.c.l.c.x.c.c.x.x.x.c.x.c.c.c.c.c.c.z.z.z.z.c.c.c.c.c.z.j.g.s.a.d.l.c.c.c.c.c.c.c.",
"c.c.c.c.k.g.g.a.u.t.t.u.i.f.g.j.l.z.c.c.c.c.c.c.x.c.c.c.c.c.l.c.c.c.c.c.c.c.c.c.c.z.z.z.z.z.c.c.c.c.c.z.l.j.h.h.k.z.c.c.c.c.c.c.c.",
"c.c.c.c.c.k.g.g.i.t.t.u.a.g.l.z.c.c.c.c.c.c.c.c.c.z.c.z.l.z.c.c.c.z.c.c.c.c.l.l.z.z.c.z.z.z.c.c.c.c.c.c.z.l.l.l.l.l.c.c.c.c.c.c.c.",
"c.c.c.c.c.l.k.g.i.i.u.i.g.j.c.c.c.c.c.c.c.c.c.c.x.c.z.z.z.z.x.x.l.e.:.! 0 0 W -.e.j.z.c.z.c.z.z.c.c.c.c.z.z.z.z.z.l.c.c.c.c.c.c.c.",
"c.c.c.c.c.c.c.h.g.f.f.f.d.l.c.c.c.c.c.c.z.z.z.z.z.l.l.l.x.x.x.l.j.3.0 : O O = 7 2.d.l.c.l.c.z.z.c.c.c.c.c.c.c.c.z.z.c.z.z.z.z.c.c.",
"c.c.c.c.c.c.c.l.k.h.h.h.k.z.c.c.c.c.c.c.z.z.z.z.k.d.e.e.p.a.p.q.e.<.h i i 1 1 5 :.3.e.s.c.c.z.z.c.c.c.c.c.c.c.c.c.z.z.z.z.z.z.c.c.",
"c.c.c.c.c.c.c.l.k.l.k.l.z.z.c.c.c.c.c.c.z.z.z.z.d.6.! 0 =.0 =.0 z W R E ~ E Z N h c ! 3.l.z.c.c.c.c.c.c.c.c.c.c.c.c.c.z.z.c.c.c.c.",
"c.c.c.c.c.l.c.c.c.c.c.z.c.c.c.c.c.c.c.c.z.z.z.k.3.0 4 4 > > & % : Y ) #.&.X./ Z N 3 > 0 l.z.l.c.c.c.c.c.c.c.z.z.z.z.z.c.c.c.c.c.c.",
"c.c.c.c.c.c.c.c.c.c.c.c.c.c.c.c.c.c.z.z.z.z.d.0.<.g < < < , $ + , N _ $.&.O.| H y @ o 9 z.z.z.c.c.c.c.c.c.c.c.z.l.c.l.c.c.c.c.c.c.",
"c.c.c.c.c.c.c.c.c.c.c.c.c.c.c.c.z.c.z.c.z.z.3.! Q R E E G S V V C S T ) '  .| K m ; O 9 z.z.z.z.c.c.c.c.l.l.c.z.l.l.l.c.c.l.c.c.c.",
"c.c.c.c.c.c.c.c.c.c.c.c.c.c.c.c.z.z.c.z.z.z.! 3 Y ` @.+.{ I P I K D s t M K ( K m @ o 7 c.c.z.z.z.z.c.c.l.l.l.z.c.c.l.c.c.c.c.c.c.",
"c.c.c.c.c.c.c.c.c.c.c.c.c.c.c.c.c.c.c.c.z.z.W ; N } *.*.X.I I | ] G $ . , D I L M ; O Y c.c.z.z.k.k.k.z.k.k.l.l.c.c.c.c.c.c.c.c.c.",
"c.c.x.c.z.c.z.c.c.x.c.x.x.c.z.c.c.x.c.z.c.c.k ; A { %.o.^ F H [ | H $   + V I K m ; O 9 c.c.c.k.j.g.g.f.g.h.k.z.c.c.c.c.c.c.c.c.c.",
"c.c.c.c.x.x.c.x.c.c.z.c.c.c.x.c.z.c.x.c.c.c.k # M / ..^ C e B P U H q . $ D I K u ; O 9 c.c.c.j.g.i.u.u.a.g.k.z.c.c.c.c.c.c.c.c.c.",
"c.c.c.x.c.x.x.c.z.x.x.c.z.c.z.x.c.x.c.x.c.c.n 2 d G H V , O , Z K G M w M J U K m ; O 9 c.c.c.h.i.t.r.t.u.f.k.z.c.c.c.c.c.c.c.c.c.",
"c.c.x.z.c.c.c.z.c.c.z.c.c.x.c.c.x.c.x.z.c.c.8.v j N B r * X + q C F T E '  .| K y ; O 8 c.c.k.g.y.7.6.7.t.a.j.c.c.c.c.c.c.c.c.c.c.",
"c.c.c.c.c.c.x.c.z.c.x.c.c.c.c.x.c.x.c.x.c.z.s.9.;.f , # O o o o , N ` $.&.O.| H y ; O 9 l.h.s.y.7.4.5.6.y.a.h.l.c.c.c.c.c.c.c.c.c.",
"c.c.c.c.x.c.c.x.x.c.c.z.z.c.z.c.z.c.z.c.x.c.c.j.8.l 4 : : : - % : Y ` $.&.X.I D p 2 : k h.f.u.r.5.4.5.7.y.a.k.c.c.c.c.c.c.c.c.c.c.",
"x.c.c.c.c.x.x.c.c.c.x.c.c.c.c.z.c.x.c.x.c.x.x.z.p.1.b b n n v v x W R ) _ ~ Z s g l c :.f.u.r.5.4.5.5.r.i.g.j.x.c.c.c.c.c.c.c.c.c.",
"x.c.c.x.c.x.c.c.c.c.k.c.z.c.c.c.c.z.c.c.c.x.c.c.k.p.q.q.0.q.q.w.9.>.h a t t 1 5 n 3.0.i.f.u.6.5.4.5.r.u.a.h.k.c.c.c.c.x.c.c.c.c.c.",
"x.c.c.c.x.c.c.x.c.c.c.x.c.z.c.c.z.x.c.c.c.c.z.c.z.z.z.z.z.z.c.c.k.8.h = O O = 6 ,.s.k.h.i.t.5.5.6.6.i.i.j.k.z.c.c.c.c.c.c.c.c.c.c.",
"c.c.c.c.x.x.x.c.z.c.z.c.x.c.c.c.c.c.z.c.z.c.c.c.c.c.z.z.z.z.c.c.k.e.:.k 9 g 0 ! 3.h.h.h.i.r.6.6.r.i.i.d.k.z.c.c.c.c.c.c.c.c.c.c.c.",
"c.c.c.x.c.c.c.c.z.z.c.z.c.c.c.c.c.c.c.c.c.c.z.c.c.c.z.z.z.z.z.c.c.c.c.l.z.z.c.c.x.x.l.h.a.t.r.r.y.i.j.z.z.z.c.c.c.c.c.c.c.c.c.c.c.",
"c.c.c.c.x.x.c.x.z.z.c.z.c.c.c.c.z.c.z.c.c.c.c.c.c.c.z.z.z.z.z.z.z.z.c.c.c.c.c.c.c.x.l.h.a.u.y.y.i.g.z.c.c.z.c.c.c.c.c.c.c.c.c.c.c.",
"c.x.x.c.c.c.c.c.z.z.z.z.c.c.c.c.c.z.z.z.c.c.c.c.c.c.c.z.z.c.c.c.z.z.z.c.c.c.c.c.c.c.z.j.h.s.a.a.h.j.c.c.c.c.c.c.z.z.x.c.c.c.c.c.c.",
"c.c.c.c.x.c.c.c.z.z.z.z.c.c.c.z.c.z.z.z.c.c.c.c.c.z.c.c.z.c.c.c.z.z.c.c.c.c.c.c.c.c.z.z.h.h.h.h.k.k.c.c.c.c.c.c.z.z.c.c.c.c.c.c.c.",
"x.c.c.x.c.c.c.c.z.z.z.z.z.z.z.z.z.z.z.z.z.z.c.c.z.z.z.c.c.z.c.c.z.z.c.c.c.c.c.c.c.c.c.z.l.l.h.l.z.z.c.c.z.c.c.z.z.z.c.x.x.c.c.c.c.",
"c.c.c.x.c.c.c.c.z.z.z.k.k.j.j.j.z.z.z.z.j.z.j.j.j.k.z.c.c.c.c.c.c.z.c.z.c.c.z.z.c.c.c.c.x.z.c.c.z.c.c.c.z.z.z.c.c.x.x.c.c.c.c.c.c.",
"c.c.c.c.c.c.c.c.c.c.k.h.g.f.f.g.j.k.x.k.h.g.f.g.g.k.k.c.c.c.c.c.z.z.z.z.z.z.c.c.c.c.c.c.c.c.c.c.c.z.c.z.z.z.z.x.c.x.c.z.c.c.z.c.c.",
"c.c.c.c.c.c.c.c.c.c.x.g.f.u.i.f.h.j.k.j.g.i.u.i.f.h.k.c.c.c.c.c.z.z.z.c.z.z.z.c.c.c.c.c.c.c.c.c.c.c.c.z.z.z.z.c.z.c.x.c.x.c.x.c.c.",
"c.c.x.c.c.c.c.c.c.c.c.f.i.y.t.i.f.j.j.g.i.y.y.y.a.g.k.c.c.c.c.z.z.c.z.c.z.c.c.c.c.c.c.c.c.c.c.c.z.c.c.z.z.z.c.x.c.x.c.x.c.c.c.c.c.",
"c.c.c.x.c.c.c.c.c.c.x.g.i.u.t.u.i.f.f.i.i.y.t.i.f.h.z.c.c.c.c.c.z.c.c.c.z.c.c.c.c.c.c.c.c.c.z.c.c.c.c.z.z.c.x.z.x.c.z.c.x.x.c.c.c.",
"c.c.c.x.c.x.c.c.c.c.k.h.f.i.i.u.u.i.i.i.i.i.i.f.g.j.k.c.c.c.c.c.c.z.c.c.c.c.c.c.z.z.z.z.z.c.c.c.c.c.z.x.c.x.c.c.x.c.x.c.c.c.x.c.c.",
"c.c.c.c.c.c.c.c.c.c.k.k.j.g.a.i.i.y.r.y.y.i.f.g.j.k.z.c.c.c.z.c.c.c.z.c.c.c.c.c.z.z.c.z.c.c.c.z.c.z.c.c.c.c.x.c.c.z.c.x.x.c.c.c.c.",
"c.c.x.x.x.x.c.c.c.c.c.c.x.j.g.f.i.r.r.y.i.f.j.k.x.c.c.c.c.c.c.c.c.c.c.c.c.c.c.c.c.c.c.c.z.c.z.z.z.z.c.c.z.x.c.x.x.c.c.c.c.c.c.c.c.",
"x.c.c.c.c.c.c.x.z.c.c.c.c.x.k.g.i.i.y.i.a.g.z.c.c.c.c.c.c.c.z.c.c.c.c.c.c.c.c.c.c.c.c.c.c.c.c.z.z.z.z.z.x.c.c.z.c.z.x.c.x.x.c.c.c.",
"c.c.x.c.c.x.z.z.z.z.c.c.c.c.c.l.d.i.i.i.g.k.c.c.c.c.c.z.z.z.z.z.c.c.c.c.c.c.c.c.c.c.c.c.c.c.c.z.z.z.z.x.x.c.c.x.x.c.z.x.c.c.z.c.c.",
"c.c.c.c.c.c.z.z.z.z.c.c.c.c.l.l.d.d.d.h.j.z.c.c.c.c.c.z.z.z.z.z.c.c.c.c.c.c.c.c.c.c.c.c.c.c.c.z.z.z.z.z.c.x.c.c.x.z.c.x.c.x.c.c.c.",
"c.c.c.l.l.c.x.z.z.z.c.c.z.z.l.l.z.z.c.c.k.x.c.c.c.c.z.z.z.z.z.z.c.z.z.z.l.l.c.c.z.k.l.l.c.z.z.z.c.c.c.c.c.x.c.x.c.c.z.c.c.c.x.c.c.",
"c.c.x.c.c.x.c.l.c.c.z.z.z.z.z.z.c.c.c.c.c.c.c.z.c.c.c.c.z.z.z.k.z.l.j.k.l.l.l.l.k.k.k.k.z.z.z.z.z.c.z.c.x.c.c.x.c.x.x.c.z.x.c.c.c.",
"c.c.c.c.c.c.c.c.c.c.z.z.z.z.z.z.c.c.c.c.c.c.c.z.c.c.c.c.c.c.c.k.k.h.g.g.j.k.k.k.j.h.g.h.h.j.l.z.c.c.c.c.c.x.c.c.c.c.x.c.x.c.c.c.c.",
"c.c.c.c.c.c.c.c.z.c.z.z.z.z.z.z.c.c.c.c.c.c.c.c.c.c.c.c.c.c.z.k.g.i.i.i.d.j.k.k.h.a.i.i.a.j.k.z.c.c.c.c.c.x.c.x.x.x.c.c.c.x.c.c.c.",
"c.c.c.c.c.c.c.c.c.c.c.c.z.c.c.c.c.c.c.c.c.c.c.c.c.c.c.c.c.c.k.h.i.i.t.i.i.g.j.h.a.i.y.y.a.g.l.z.c.c.c.c.c.c.c.c.c.x.c.x.c.c.c.c.c.",
"c.c.c.c.c.c.c.c.c.c.c.c.c.c.c.c.c.c.c.c.c.c.c.c.c.c.c.c.c.c.k.h.i.r.r.i.g.g.k.h.a.i.r.r.i.g.z.c.c.c.c.c.c.c.c.c.c.c.c.c.c.c.c.c.c.",
"c.c.c.c.c.c.c.c.c.c.c.c.c.c.c.c.c.c.c.c.c.c.c.c.c.c.c.c.c.c.c.x.f.u.t.y.f.g.h.h.f.u.t.t.i.f.k.c.c.c.c.c.c.c.c.c.c.c.c.c.c.c.c.c.c."
};
