/* XPM */
static char *result[] = {
/* columns rows colors chars-per-pixel */
"65 65 135 2 ",
"   c #5D4A13",
".  c #604D17",
"X  c #624F1A",
"o  c #64511D",
"O  c #69551C",
"+  c #6E591E",
"@  c #705B1D",
"#  c #77601F",
"$  c #7B641F",
"%  c #5F4F2D",
"&  c #6F5B24",
"*  c #635432",
"=  c #685731",
"-  c #6A5A35",
";  c #6E5D39",
":  c #7F6827",
">  c #766129",
",  c #7A652C",
"<  c #7F6A35",
"1  c #71613E",
"2  c #6C5D43",
"3  c #75654D",
"4  c #7E6F59",
"5  c #7F705B",
"6  c #776C6A",
"7  c #7D716E",
"8  c #7A7076",
"9  c #7F7478",
"0  c #826925",
"q  c #846D2A",
"w  c #8E7223",
"e  c #8A722E",
"r  c #977B27",
"t  c #9A7D2A",
"y  c #816B36",
"u  c #826E3E",
"i  c #867030",
"p  c #8C7431",
"a  c #8E7738",
"s  c #907731",
"d  c #8A7544",
"f  c #907A48",
"g  c #80705A",
"h  c #837566",
"j  c #8B7A67",
"k  c #87796E",
"l  c #8B7C6B",
"z  c #867974",
"x  c #897B72",
"c  c #827779",
"v  c #9D8133",
"b  c #A1822B",
"n  c #AA8A2D",
"m  c #A08334",
"M  c #AB8D36",
"N  c #A98B38",
"B  c #B08F30",
"V  c #B39233",
"C  c #BE9B35",
"Z  c #B5953A",
"A  c #C19E37",
"S  c #C19E3A",
"D  c #C7A23A",
"F  c #CCA63A",
"G  c #D6AF3C",
"H  c #D7B03C",
"J  c #DAB13E",
"K  c #9E8A5F",
"L  c #A98F47",
"P  c #AC9149",
"I  c #B59743",
"U  c #B69844",
"Y  c #B79B4C",
"T  c #BB9E4D",
"R  c #A48E5F",
"E  c #B19754",
"W  c #BEA04E",
"Q  c #BEA259",
"!  c #91816E",
"~  c #928373",
"^  c #C6AA4C",
"/  c #D0AE4D",
"(  c #DDB749",
")  c #CAAE53",
"_  c #D0B056",
"`  c #DDBC51",
"'  c #E5BB42",
"]  c #E3BD4B",
"[  c #E0BE52",
"{  c #ECC34B",
"}  c #EDCA5D",
"|  c #F5CC50",
" . c #E1C165",
".. c #E2C368",
"X. c #F4D462",
"o. c #FADA64",
"O. c #F3D76D",
"+. c #F6D96E",
"@. c #8F8282",
"#. c #8D828C",
"$. c #92868C",
"%. c #8C849C",
"&. c #9A8F9C",
"*. c #9B919E",
"=. c #958DAB",
"-. c #9D93A4",
";. c #9A92AE",
":. c #8D89B7",
">. c #8F8BB8",
",. c #928DBB",
"<. c #9790B0",
"1. c #9D95B3",
"2. c #9591BE",
"3. c #9D96BC",
"4. c #A195A4",
"5. c #A89FBD",
"6. c #A9A1BF",
"7. c #9792C0",
"8. c #9B96C4",
"9. c #9E99C6",
"0. c #9F9AC8",
"q. c #A29DCB",
"w. c #ACA4C4",
"e. c #A6A1CE",
"r. c #ADA5CB",
"t. c #B0A8CD",
"y. c #A7A2D0",
"u. c #ABA5D3",
"i. c #AFA8D6",
"p. c #B0A9D6",
"a. c #B4ADDB",
"s. c #B7B0DE",
"d. c #B8B1DF",
"f. c #B7B0E0",
"g. c #B9B2E0",
/* pixels */
"g.g.g.g.g.g.g.g.g.g.g.g.g.g.g.g.g.g.g.g.g.g.g.g.g.g.g.g.g.g.g.g.g.g.s.i.e.8.8.8.e.y.a.d.g.g.g.g.g.g.g.g.g.g.g.g.g.g.g.g.g.g.g.g.g.",
"g.g.g.g.g.g.g.g.g.g.g.g.g.g.g.g.g.g.g.g.g.g.g.g.g.g.g.g.g.g.g.g.g.g.s.i.q.8.8.8.q.u.a.d.g.g.g.g.g.g.g.g.g.g.g.g.g.g.g.g.g.g.g.g.g.",
"g.g.g.g.g.g.g.g.g.f.g.g.f.g.g.g.g.f.f.g.g.g.g.f.f.g.f.g.g.g.g.g.g.g.g.i.y.0.8.0.e.u.a.d.g.g.g.g.g.g.g.g.g.g.g.g.g.g.g.g.g.g.g.g.g.",
"g.g.g.g.f.f.g.g.g.g.g.f.g.g.f.g.g.f.g.g.g.g.g.g.g.g.f.g.g.g.g.g.g.g.g.s.y.y.q.q.r.p.a.d.g.g.g.g.g.g.g.g.g.g.g.g.g.g.g.g.g.g.g.g.g.",
"g.g.g.g.g.f.g.f.g.f.f.g.f.f.g.f.g.s.g.f.f.g.f.g.g.f.g.f.g.g.g.g.g.g.s.a.i.u.u.u.p.a.s.d.g.g.d.d.g.g.g.g.g.g.g.g.g.g.g.g.g.g.g.g.g.",
"g.g.f.g.f.g.g.f.f.g.g.f.g.g.g.g.g.f.f.g.g.d.g.f.g.g.f.g.g.f.g.g.g.s.s.s.a.a.a.a.d.d.s.s.g.d.d.d.g.g.g.g.g.g.g.g.g.g.g.g.g.g.g.g.g.",
"g.g.g.f.g.f.f.f.g.g.g.g.g.g.f.g.f.g.g.f.s.g.f.g.f.f.g.g.g.g.f.f.g.f.g.f.f.f.a.f.d.d.d.d.d.d.d.d.g.g.g.g.g.g.g.g.g.g.g.g.g.g.g.g.g.",
"g.g.g.g.g.f.f.f.g.f.f.g.f.f.g.f.g.s.g.g.f.g.g.g.g.g.g.f.f.g.g.g.f.f.g.g.g.g.g.g.g.g.d.d.d.d.d.d.g.g.g.g.g.g.g.g.g.g.g.g.g.g.g.g.g.",
"g.g.g.g.d.g.g.g.f.g.g.g.g.f.g.g.g.d.g.d.g.g.g.s.f.g.s.g.g.g.d.d.g.g.g.g.g.g.g.g.g.g.g.g.d.d.d.d.g.g.g.d.g.g.g.d.g.g.g.g.g.g.g.g.g.",
"g.g.g.g.g.g.g.g.f.g.g.g.f.g.g.f.g.d.g.g.d.g.g.g.g.g.g.g.g.g.d.s.g.f.g.s.g.g.g.g.g.g.g.d.d.d.d.d.d.d.d.s.d.d.g.d.g.g.f.f.g.g.g.g.g.",
"g.g.g.g.g.g.g.g.g.g.g.g.g.g.g.g.g.g.d.d.d.d.g.d.d.g.g.f.f.g.f.s.s.s.g.g.g.g.g.d.g.g.g.g.d.d.a.d.d.s.a.a.s.d.s.s.g.f.a.a.a.a.g.g.g.",
"g.g.g.g.g.g.g.g.g.g.g.g.g.g.g.g.g.d.d.d.d.d.d.g.g.f.f.g.g.s.g.g.g.g.s.g.g.d.g.g.g.d.g.g.d.d.d.a.i.u.u.u.i.s.s.s.f.i.u.u.u.a.a.g.g.",
"g.g.g.g.g.g.g.g.g.d.d.g.g.g.g.g.d.d.d.d.d.d.d.f.g.g.g.f.g.f.g.s.g.g.g.g.f.g.f.g.d.g.g.g.g.g.d.p.u.e.e.e.u.a.a.a.i.y.y.q.y.u.a.g.f.",
"g.g.g.g.d.d.g.d.g.g.g.d.g.g.g.g.s.s.d.d.d.d.d.g.s.g.d.g.g.f.f.g.g.g.s.g.g.f.g.d.g.g.g.g.g.g.d.p.y.q.8.8.e.u.a.i.u.y.8.9.q.u.a.a.f.",
"d.d.g.d.s.p.a.s.d.d.s.s.s.i.f.s.s.s.s.d.g.d.d.g.g.g.g.f.f.g.g.f.g.g.f.f.s.f.g.g.d.d.g.g.g.g.g.a.e.8.8.9.q.y.u.y.y.0.8.8.q.y.a.a.g.",
"d.d.s.s.u.u.u.i.a.s.s.s.i.i.i.i.i.s.d.g.g.g.g.g.f.s.g.g.g.g.f.g.g.s.g.g.g.g.g.f.g.g.g.g.g.g.g.d.r.e.q.9.0.q.e.y.0.0.9.0.y.u.a.g.g.",
"s.s.a.u.y.q.y.y.i.a.a.a.u.y.q.y.u.i.d.d.d.g.g.d.g.f.g.g.f.g.f.g.g.s.g.g.g.g.g.g.d.g.g.g.d.d.d.d.i.u.y.0.0.8.0.0.0.0.q.e.i.i.s.s.g.",
"s.s.a.u.q.0.8.y.u.i.a.u.y.0.9.q.y.p.d.d.d.g.g.g.f.g.f.g.g.f.g.f.f.g.f.g.g.s.g.g.d.g.g.g.d.d.d.d.s.a.i.e.q.0.8.8.0.q.e.i.a.a.s.s.g.",
"a.s.a.u.q.8.8.0.e.u.u.y.q.9.9.0.y.p.s.d.g.g.d.g.s.g.f.s.f.f.g.g.g.g.g.s.g.s.g.s.d.g.g.g.d.g.g.g.g.g.a.i.e.0.8.3.0.e.i.s.g.g.d.g.g.",
"s.a.a.u.e.0.0.0.0.e.y.q.0.9.9.q.u.p.a.d.g.g.g.g.g.g.g.g.g.g.f.g.g.f.g.g.g.g.g.g.g.d.d.d.d.d.g.g.g.g.d.i.u.q.0.q.e.u.s.s.g.g.g.g.g.",
"s.s.s.a.u.y.q.0.0.0.0.0.0.0.y.r.t.a.d.g.g.g.g.g.s.f.f.g.g.s.g.g.s.f.g.f.g.d.g.d.g.g.d.d.d.d.d.g.g.g.d.d.a.u.y.y.t.a.g.g.g.g.g.g.g.",
"g.s.s.d.a.i.y.q.9.8.8.9.q.y.t.a.d.d.g.g.g.g.g.g.s.s.g.g.g.g.g.g.g.g.g.g.g.d.g.g.d.g.d.d.d.d.g.g.g.g.g.d.a.a.p.p.a.d.g.g.g.g.g.g.g.",
"g.g.g.g.s.s.i.y.0.9.8.0.e.u.s.s.d.d.g.g.g.g.g.g.s.s.d.d.s.s.g.g.g.g.s.g.g.g.g.d.d.d.g.d.d.d.g.d.g.g.g.g.s.s.s.s.s.s.g.g.g.g.g.g.g.",
"g.g.g.g.g.d.a.i.y.0.0.e.y.i.g.g.g.d.g.d.g.d.d.t.&.! ! 7 7 ~ -.t.g.g.g.g.g.g.g.d.d.d.d.d.g.g.d.d.g.g.g.g.s.s.s.s.d.d.g.g.g.g.g.g.g.",
"g.g.g.g.g.g.g.a.u.y.y.y.t.s.g.g.g.g.g.g.s.g.s.6.~ ; o o O 1 ~ w.g.g.g.g.g.d.d.d.d.d.d.d.s.s.d.d.g.g.g.g.g.g.g.g.g.d.d.d.d.d.d.g.g.",
"g.g.g.g.g.g.g.s.i.i.i.i.a.d.g.g.g.g.g.g.s.s.t.*.k < : < < d ~ ;.6.w.6.0.6.6.w.p.d.d.d.d.d.d.d.d.g.g.g.g.g.g.g.g.g.d.g.d.d.d.g.g.g.",
"g.g.g.g.g.g.d.d.s.s.a.s.d.d.g.g.g.g.g.g.s.g.&.! K v Z W Q W ! ~ c 9 ~ @.9 ~ @.1.a.d.s.s.d.d.d.g.g.g.g.g.g.g.g.d.g.g.g.d.d.d.g.g.g.",
"g.g.g.g.d.d.g.g.d.g.d.d.g.g.g.g.g.g.g.g.f.a.~ < b A ] X.O. .Y < = * - ; ; - 3 $.w.g.g.s.d.d.d.d.g.g.g.g.g.g.g.d.d.d.d.g.g.g.g.g.g.",
"g.g.g.g.g.g.g.g.g.g.g.g.g.g.g.g.g.g.d.d.d.d.5 $ b F | o.+. .W i + . X o & , 3 ! -.w.w.r.d.d.d.d.g.g.g.g.g.g.g.d.g.s.s.g.g.g.g.g.g.",
"g.g.g.g.g.g.g.g.g.g.g.g.g.g.g.g.d.g.d.d.d.d.! 0 B H { ` ) W W M v $ O + a P W R ~ @.@.-.d.d.d.d.g.g.g.g.d.s.d.d.s.s.s.g.g.d.g.g.g.",
"g.g.g.g.g.g.g.g.g.g.g.g.g.g.g.g.d.d.d.d.g.g.! : B H J V v e N D V b @ > P _ ..Q L * - ! d.g.d.d.d.d.g.g.s.s.s.s.g.g.g.g.g.g.g.g.g.",
"g.g.g.g.g.g.g.g.g.g.g.d.g.g.g.g.d.d.d.d.d.g.7 : V H G b X O b H H n > , W O.+._ s X X ! g.g.d.d.a.a.a.d.a.a.s.s.g.g.s.g.g.g.g.g.g.",
"g.g.f.g.g.g.g.f.d.g.d.g.g.g.g.d.f.d.f.g.f.f.h 0 Z G F w   . t ' ' B $ > I } X./ p o o 5 g.g.d.s.p.u.e.e.u.i.s.d.g.d.g.g.g.g.g.g.g.",
"g.g.g.g.f.f.d.g.f.f.g.f.g.d.g.g.g.g.g.f.g.f.h 0 V G F r X O b J J B $ > M ( { S q o o 5 g.g.d.a.r.e.0.0.e.i.p.s.g.g.g.g.g.g.g.g.g.",
"g.g.g.f.g.d.g.d.g.g.f.g.d.g.g.g.f.g.g.g.f.g.h 0 B J J Z e e N D A v + + r C D N < ; ; l g.g.g.i.e.8.8.8.0.e.a.d.g.g.g.g.g.g.g.g.g.",
"g.g.f.g.g.f.f.g.g.f.g.d.g.g.d.g.g.f.f.g.f.g.h 0 B J { [ ^ T U M b $ O + $ r r K h 9 ~ *.g.g.s.e.8.2.,.2.9.e.p.d.g.g.g.g.g.g.g.g.g.",
"g.g.g.g.g.f.g.f.d.g.f.g.d.g.g.g.d.g.f.g.d.f.h 0 n G | o.O. .T s + X X o + # , 5 #.1.6.e.s.i.e.8.,.>.>.2.8.e.p.d.g.g.g.g.g.g.g.g.g.",
"g.g.f.g.f.g.d.g.f.g.f.d.g.g.d.g.g.f.g.d.g.g.x y m A ] X.+...E u * % = - = = 2 9 <.r.i.a.i.y.0.2.>.:.>.2.8.e.i.s.g.g.g.g.g.g.g.g.g.",
"g.f.g.g.g.d.g.f.g.f.g.g.d.g.g.g.f.g.f.g.g.g.*.j f m Z ^ ) Q K l 9 7 9 k 7 6 8 %.9.u.i.i.r.q.2.,.>.>.>.7.q.u.a.s.g.g.g.g.g.g.g.g.g.",
"g.g.g.f.f.g.f.d.g.d.g.f.g.g.d.g.g.d.g.f.g.g.w.&.j y q e p d ~ 4.6.6.6.1.;.=.=.3.e.i.a.i.e.8.2.:.:.>.2.0.e.i.s.s.g.g.g.g.f.f.g.g.g.",
"g.g.g.f.g.g.g.f.d.d.d.d.d.d.g.g.d.f.g.g.d.g.d.5.~ ; o o o 1 @.w.d.g.d.d.t.t.y.u.i.i.a.u.e.2.,.:.,.2.q.e.p.a.d.g.g.g.g.g.g.g.g.g.g.",
"g.g.g.g.g.f.g.g.d.d.d.d.d.g.g.g.g.g.d.g.g.g.g.w.*.l g 4 4 z *.t.d.d.d.d.d.d.i.a.s.a.a.i.e.2.2.,.2.9.q.p.a.d.d.d.g.g.g.g.g.g.g.g.g.",
"g.g.g.g.f.f.f.g.d.d.g.g.g.g.g.g.g.g.g.g.g.g.d.g.g.g.d.d.d.d.d.d.d.d.d.d.g.g.g.g.d.d.s.u.e.2.2.2.9.q.p.a.d.d.g.g.g.g.g.g.g.g.g.g.g.",
"g.g.g.g.f.g.f.g.d.g.g.g.g.g.g.g.d.g.d.g.g.g.g.g.g.g.d.d.d.d.d.d.d.d.d.d.g.g.g.g.g.d.s.i.e.q.q.9.q.i.d.g.g.g.g.g.g.g.g.g.g.g.g.g.g.",
"g.g.g.g.f.f.g.f.d.d.d.g.g.g.g.d.g.d.d.d.g.g.g.g.g.d.d.d.g.g.g.g.d.d.g.g.g.g.g.g.g.g.d.a.u.y.e.e.i.a.d.d.g.g.g.g.d.d.d.f.g.g.g.g.g.",
"g.g.f.f.f.f.f.g.d.d.d.g.g.g.g.d.g.d.d.d.g.g.g.g.d.d.d.d.d.g.g.g.d.d.g.d.g.g.g.g.g.g.d.s.i.i.u.i.p.a.d.g.g.g.g.g.d.d.d.g.g.g.g.g.g.",
"g.g.f.g.g.g.g.g.d.d.d.d.g.d.d.a.d.d.d.d.d.d.g.d.d.d.d.g.d.d.g.g.d.d.d.g.g.g.g.g.g.g.d.d.s.s.s.s.d.d.d.d.d.g.g.d.d.d.g.g.g.g.g.g.g.",
"g.g.g.g.f.g.g.g.d.d.a.a.a.a.p.a.d.d.d.a.a.a.p.a.p.d.d.g.g.g.g.g.g.g.g.g.g.g.d.d.g.g.g.d.d.d.s.s.d.g.g.d.d.d.d.f.g.g.g.g.g.g.g.g.g.",
"g.g.g.g.g.g.g.g.g.g.a.i.u.y.y.u.p.a.s.a.p.y.y.y.u.a.a.d.g.g.g.g.d.g.d.g.d.d.d.d.d.g.g.g.g.g.g.g.d.g.d.d.d.d.d.f.g.g.d.f.g.g.d.g.g.",
"g.g.g.g.g.g.g.g.g.g.a.u.y.0.q.y.u.a.a.p.u.q.0.q.y.a.a.d.g.g.g.g.g.g.g.g.d.d.d.g.d.g.g.g.g.g.g.g.g.g.g.d.d.d.d.d.f.d.g.g.f.g.f.g.g.",
"g.g.g.g.g.g.g.g.g.g.f.u.q.9.8.q.e.i.i.u.e.9.8.q.e.p.a.g.g.g.d.g.g.g.d.g.d.d.g.g.d.d.g.g.g.g.g.g.g.g.g.d.d.d.g.f.g.g.d.f.g.f.g.g.g.",
"g.g.f.g.g.g.g.g.g.g.f.u.q.9.8.9.q.e.u.e.q.9.8.q.e.p.a.g.g.g.g.g.g.d.g.d.d.d.g.g.g.d.g.g.g.g.d.g.d.g.d.g.g.f.g.d.f.g.f.g.f.g.g.g.g.",
"g.g.g.g.f.g.g.g.g.g.a.p.u.q.q.0.9.q.q.0.9.9.q.e.u.a.d.d.g.g.g.d.g.g.g.d.g.g.g.g.d.g.d.g.d.g.g.g.g.g.g.d.g.g.f.g.g.f.g.f.g.g.f.g.g.",
"g.g.f.g.f.g.g.g.g.g.a.a.i.u.y.q.9.9.8.9.q.e.e.i.i.a.d.g.g.g.g.g.d.g.g.g.g.g.g.g.g.g.d.g.g.g.g.d.d.g.g.g.d.g.g.f.g.g.d.g.g.f.g.g.g.",
"g.g.g.g.g.g.g.g.g.g.g.g.a.a.u.y.q.8.8.9.q.e.p.s.a.g.g.d.d.d.g.d.g.g.g.d.g.g.g.g.g.g.g.g.d.g.d.d.d.d.g.d.g.g.g.g.a.g.f.g.g.g.g.f.g.",
"g.g.g.f.g.f.f.g.d.g.g.g.g.f.a.u.q.9.8.q.e.i.d.g.g.g.g.g.d.d.g.g.g.g.g.g.g.g.g.g.g.g.g.g.g.g.g.d.d.d.d.g.g.d.g.d.g.g.g.g.f.f.g.g.g.",
"g.g.f.g.g.s.d.d.d.d.g.g.g.g.g.a.t.r.q.e.u.a.d.g.g.g.g.d.d.d.d.d.g.g.g.g.g.g.g.g.g.g.g.g.g.g.d.d.d.d.d.g.f.g.g.g.g.g.g.f.g.f.g.g.g.",
"g.g.g.f.g.g.d.d.d.d.g.g.g.g.d.d.p.t.y.u.p.a.g.g.g.g.g.d.d.d.d.g.g.g.g.d.g.g.g.g.g.g.g.g.g.g.d.d.d.d.d.g.g.g.f.f.f.g.f.g.d.g.g.g.g.",
"g.g.f.g.f.g.f.d.d.d.g.d.d.d.d.d.d.d.g.g.a.d.g.g.g.g.d.d.d.d.d.d.g.d.d.d.d.d.d.d.s.s.s.s.g.d.d.d.g.f.g.s.g.f.g.g.g.g.f.f.g.f.f.g.g.",
"g.g.g.d.g.f.g.g.g.g.d.d.d.d.d.d.g.g.g.g.d.g.d.d.g.g.g.g.g.d.d.d.d.a.a.a.a.d.d.d.a.a.a.a.d.d.d.d.d.g.g.f.g.g.f.g.g.f.g.g.g.d.g.g.g.",
"g.g.g.g.g.f.g.f.g.g.d.d.d.d.d.d.g.g.g.g.g.g.g.g.d.d.g.g.g.g.g.a.p.i.u.i.p.a.a.a.i.i.u.i.i.p.d.d.g.g.g.g.g.f.g.g.f.g.g.g.f.f.g.g.g.",
"g.g.g.g.g.g.f.g.g.g.d.d.d.d.g.g.g.g.g.g.g.g.g.g.d.d.g.g.g.g.d.p.u.q.q.q.u.p.a.p.i.e.q.q.e.i.s.d.g.g.g.g.g.f.g.f.g.g.f.f.g.d.g.g.g.",
"g.g.g.g.g.g.g.g.d.g.g.g.d.g.d.g.g.g.g.g.g.g.g.g.g.g.g.g.g.g.a.u.q.q.8.q.q.i.p.p.y.q.9.8.e.e.s.d.g.g.g.g.f.g.g.g.g.f.g.g.g.g.g.g.g.",
"g.g.g.g.g.g.g.g.g.g.g.g.g.g.g.g.g.g.g.g.g.g.g.g.g.g.g.g.g.g.a.i.q.8.8.q.e.p.p.p.e.0.3.8.q.i.d.g.g.g.g.g.g.g.f.f.g.g.f.g.g.g.g.g.g.",
"g.g.g.g.g.g.g.g.g.g.g.g.g.g.g.g.g.g.g.g.g.g.g.g.g.g.g.g.g.g.g.s.y.0.8.8.y.u.a.i.y.0.8.8.0.u.a.g.g.g.g.g.g.g.g.g.g.g.g.g.g.g.g.g.g."
};
