/* XPM */
static char *result[] = {
/* columns rows colors chars-per-pixel */
"65 65 121 2 ",
"   c #57471E",
".  c #5D4B1B",
"X  c #604E1B",
"o  c #64511D",
"O  c #69551E",
"+  c #725C1E",
"@  c #5B4B23",
"#  c #604F23",
"$  c #6B5822",
"%  c #63532E",
"&  c #725C20",
"*  c #6B5A33",
"=  c #65573C",
"-  c #705F3D",
";  c #766023",
":  c #7C6524",
">  c #766228",
",  c #7E692C",
"<  c #7B6632",
"1  c #71603E",
"2  c #72644C",
"3  c #7E6F5A",
"4  c #776A61",
"5  c #786D6A",
"6  c #7F7164",
"7  c #7C706E",
"8  c #816926",
"9  c #856D2B",
"0  c #8D732C",
"q  c #816B36",
"w  c #877032",
"e  c #8C7432",
"r  c #877343",
"t  c #8B7644",
"y  c #827465",
"u  c #8D7C67",
"i  c #8D7E6C",
"p  c #877970",
"a  c #887B72",
"s  c #9F8029",
"d  c #9E8131",
"f  c #99813D",
"g  c #A2842E",
"h  c #A68730",
"j  c #A78834",
"k  c #AC8D34",
"l  c #A48738",
"z  c #AA8C3A",
"x  c #B08F31",
"c  c #B39233",
"v  c #B89635",
"b  c #BF9C35",
"n  c #B8973A",
"m  c #BD9C3C",
"M  c #CEA737",
"N  c #C8A43B",
"B  c #D4AC3B",
"V  c #DBB33F",
"C  c #98814D",
"Z  c #A68D46",
"A  c #AB9048",
"S  c #B99B44",
"D  c #B5994D",
"F  c #B89C4D",
"G  c #B29752",
"H  c #BDA158",
"J  c #91816F",
"K  c #8E817F",
"L  c #918172",
"P  c #A38E60",
"I  c #C4A54C",
"U  c #CBAA4B",
"Y  c #DDB542",
"T  c #DFB848",
"R  c #CBAB53",
"E  c #E0BA49",
"W  c #DABB62",
"Q  c #E7C04C",
"!  c #EECB5D",
"~  c #E1C267",
"^  c #F6D461",
"/  c #F2D26B",
"(  c #F6D86D",
")  c #837982",
"_  c #8E8181",
"`  c #90858C",
"'  c #8E8494",
"]  c #88819E",
"[  c #978C9B",
"{  c #9C919E",
"}  c #8D86A3",
"|  c #9D92A2",
" . c #9F95A8",
".. c #8D89B7",
"X. c #8F8BB8",
"o. c #928DBB",
"O. c #9993B6",
"+. c #9591BD",
"@. c #A095A5",
"#. c #A198B2",
"$. c #A29AB9",
"%. c #A9A0BE",
"&. c #9792C0",
"*. c #9B96C4",
"=. c #9E99C6",
"-. c #9F9AC8",
";. c #A19BC4",
":. c #A29DCB",
">. c #ABA2C2",
",. c #A6A1CE",
"<. c #ADA5CB",
"1. c #B1A8CC",
"2. c #A7A2D0",
"3. c #ABA5D3",
"4. c #AFA8D6",
"5. c #B0A9D6",
"6. c #B4ADDB",
"7. c #B7B0DE",
"8. c #B8B1DF",
"9. c #B7B0E0",
"0. c #B8B2E0",
/* pixels */
"0.0.0.0.0.0.0.0.0.0.0.0.0.0.0.0.0.0.0.0.0.0.0.9.0.0.0.0.0.0.0.0.0.0.9.3.:.*.*.*.:.3.6.0.0.0.0.0.0.0.0.0.0.0.0.0.0.0.0.0.0.0.0.0.0.",
"0.0.0.0.0.0.0.0.0.0.0.0.0.0.0.0.0.0.0.0.0.0.0.0.0.9.0.0.0.0.0.0.0.0.9.4.,.*.*.*.:.3.6.8.0.0.0.0.0.0.0.0.0.0.0.0.0.0.0.0.0.0.0.0.0.",
"0.0.0.0.0.0.0.0.0.0.9.9.0.9.0.0.0.9.9.0.0.0.0.0.0.0.9.0.0.0.0.0.0.0.0.6.,.-.*.*.:.3.7.8.0.0.0.0.0.0.0.0.0.0.0.0.0.0.0.0.0.0.0.0.0.",
"0.0.0.0.9.0.0.9.9.0.0.0.9.0.0.0.9.0.0.9.0.0.0.0.9.9.0.9.0.0.0.0.0.0.0.9.2.,.:.,.<.4.6.8.0.0.0.0.0.0.0.0.0.0.0.0.0.0.0.0.0.0.0.0.0.",
"0.0.0.9.0.0.0.0.0.0.9.0.0.0.9.0.0.9.0.0.0.7.9.0.0.9.0.0.9.0.0.0.0.0.7.6.6.2.3.3.1.6.7.8.0.0.8.8.0.0.0.0.0.0.0.0.0.0.0.0.0.0.0.0.0.",
"0.0.0.0.0.9.9.9.9.9.0.0.0.9.9.0.0.0.9.0.0.0.0.0.0.0.9.0.9.0.0.0.0.9.7.7.6.6.6.6.7.7.8.8.0.0.8.8.0.0.0.0.0.0.0.0.0.0.0.0.0.0.0.0.0.",
"0.0.0.9.9.9.9.9.0.9.0.9.9.0.0.9.0.0.0.9.0.9.7.0.9.9.0.0.0.0.0.0.0.0.9.9.9.9.9.9.8.8.8.8.0.8.8.8.0.0.0.0.0.0.0.0.0.0.0.0.0.0.0.0.0.",
"0.0.0.0.0.0.9.9.0.0.9.0.0.9.0.0.0.6.0.0.8.0.0.0.0.0.0.9.0.9.9.0.8.7.9.9.9.0.0.0.0.0.8.8.8.8.8.8.0.0.0.0.0.0.0.0.0.0.0.0.0.0.0.0.0.",
"0.0.0.0.0.0.0.0.9.0.0.0.0.9.0.0.0.8.0.8.0.0.0.9.0.9.0.9.0.9.8.8.8.8.0.0.0.0.0.0.0.0.0.0.8.8.8.8.0.0.0.8.0.0.0.0.0.0.0.0.0.0.0.0.0.",
"0.0.0.0.8.0.0.0.0.9.0.0.9.0.0.9.0.8.0.0.8.0.0.7.9.0.8.0.8.0.8.8.8.8.0.0.0.0.0.0.0.0.0.0.8.8.8.8.8.8.8.7.8.8.0.0.0.0.9.9.0.0.0.0.0.",
"0.0.0.0.0.0.0.0.0.0.0.0.0.0.0.0.0.0.0.8.8.8.0.0.0.8.0.9.0.9.0.7.8.7.0.8.8.0.8.0.0.0.0.0.7.8.7.7.8.7.6.6.7.8.7.7.0.9.6.6.6.7.9.0.0.",
"0.0.0.0.0.0.0.0.0.0.0.0.0.0.0.0.0.0.0.8.8.8.8.0.9.0.8.0.9.0.0.9.0.0.0.0.0.0.0.0.8.0.8.0.8.7.7.6.4.3.3.3.4.7.7.7.9.6.3.3.3.4.7.9.0.",
"0.0.0.0.0.0.0.0.0.0.8.0.0.0.0.0.8.8.8.8.8.8.8.9.0.0.9.0.0.0.7.0.0.8.9.0.0.7.0.9.0.0.0.0.0.0.6.6.3.,.,.,.3.4.7.6.3.3.:.:.2.3.6.7.0.",
"0.0.0.0.8.8.0.8.0.0.0.0.0.0.0.0.8.7.8.8.8.8.8.0.7.0.9.0.9.0.0.9.9.0.0.8.0.0.8.0.8.0.0.0.0.0.7.6.2.;.=.=.,.3.6.4.3.,.=.=.:.3.4.7.0.",
"8.8.0.8.7.5.6.7.7.8.7.7.7.4.9.7.7.7.7.8.0.0.0.8.7.0.0.8.0.9.9.0.0.0.0.0.9.9.0.9.0.0.0.0.0.0.0.6.,.=.*.=.-.3.3.3.,.-.=.=.:.3.6.7.0.",
"7.8.8.7.3.3.3.4.6.7.7.7.4.4.4.4.5.6.8.0.0.8.0.0.0.0.9.0.0.7.0.8.0.7.0.9.0.0.8.0.0.8.0.0.0.0.0.8.3.,.=.=.-.:.,.,.-.-.=.-.,.3.4.7.0.",
"7.7.6.3.3.:.,.3.4.6.6.4.3.2.:.2.3.4.7.8.0.0.0.0.9.0.9.0.9.0.9.0.8.0.8.0.8.0.8.8.8.0.8.0.0.0.8.8.4.2.,.:.-.=.-.=.-.-.:.,.3.4.7.7.0.",
"7.7.4.3.:.=.=.:.3.4.6.4.2.;.=.:.2.4.8.8.0.0.8.0.0.8.0.8.0.9.0.9.0.0.0.0.0.0.8.8.0.0.0.0.0.8.8.0.7.6.4.,.-.=.*.*.-.:.3.4.4.7.7.0.0.",
"7.7.4.3.-.=.=.-.2.3.3.2.:.=.=.;.2.4.7.0.0.0.0.0.9.0.7.0.8.0.9.0.0.8.8.0.0.0.8.8.0.0.0.8.0.0.0.0.8.8.6.3.,.=.*.*.-.3.4.7.0.0.0.0.0.",
"7.7.7.3.2.-.=.=.:.:.2.:.;.-.-.:.3.4.7.8.0.0.8.0.0.0.0.0.0.9.0.8.0.0.0.0.0.8.8.8.0.8.8.8.8.8.0.0.0.0.7.6.3.,.;.;.,.3.6.7.0.0.0.0.0.",
"7.7.8.4.3.3.-.-.-.-.-.-.;.:.2.<.5.6.8.0.0.0.0.0.0.7.0.9.0.0.0.0.0.0.0.8.8.8.8.8.0.8.8.8.8.8.0.0.0.0.8.8.6.3.2.2.4.6.0.0.0.0.0.0.0.",
"0.0.0.8.4.4.3.,.=.*.*.=.:.2.3.5.6.8.0.0.0.0.0.0.0.0.0.0.0.0.0.0.8.0.9.0.0.0.8.8.0.8.8.8.8.8.0.0.0.0.0.8.6.6.5.5.6.8.0.0.0.0.0.0.0.",
"0.0.0.0.8.7.3.3.:.*.*.-.2.3.7.7.8.8.0.0.0.0.0.0.8.8.8.8.8.8.0.0.0.0.0.0.0.0.0.8.8.8.8.8.8.8.0.0.0.0.0.0.7.7.6.8.7.7.0.0.0.0.0.0.0.",
"0.0.0.0.0.8.6.3.2.-.-.:.3.4.0.0.0.0.0.0.0.0.0.0.8.8.<.| K y y 6 K | 1.0.0.0.0.8.8.8.8.8.8.8.0.8.0.0.0.0.8.8.8.8.8.8.0.0.0.0.0.0.0.",
"0.0.0.0.0.0.0.4.3.2.2.2.1.7.0.0.0.0.0.0.8.8.8.0.0.0.%.K 1 o o o 1 K %.0.0.8.8.8.0.0.0.8.8.8.8.8.0.0.0.0.0.0.0.0.8.8.0.8.8.8.8.0.0.",
"0.0.0.0.0.0.0.6.6.4.4.4.6.8.0.0.0.0.0.0.8.8.8.0.8.1. .J r , > O * 6 | >.5.7.8.8.0.0.8.0.8.8.8.8.0.0.0.0.0.0.0.0.8.8.0.8.8.8.0.0.0.",
"0.0.0.0.0.0.0.0.7.7.6.7.8.8.0.0.0.0.0.0.8.8.0.8.8. .J P H D f > # = 4 ` #.5.8.8.0.0.8.0.8.8.8.8.0.0.0.0.0.0.0.0.0.8.8.8.8.8.8.0.0.",
"0.0.0.0.0.0.0.0.7.0.0.8.0.0.0.0.0.0.0.0.8.0.0.0.8._ t H ~ ~ F , .   % 2 ` >.0.0.0.0.0.0.8.8.8.0.0.0.0.0.0.0.0.8.8.8.8.8.0.0.0.0.0.",
"0.0.0.0.0.0.0.0.0.0.0.0.0.0.0.0.0.8.8.8.8.8.8.0.0.L w R ( / I , X o < < J { %.>.1.0.0.0.8.8.8.0.0.0.0.0.0.0.0.8.8.8.8.8.0.0.0.0.0.",
"0.0.0.0.0.0.0.0.0.0.0.0.0.0.0.0.8.8.8.0.8.8.8.8.6.L 9 I ! ! S : $ w A G P J _ _ @.8.0.0.8.8.8.8.0.0.0.0.0.0.0.8.8.8.8.0.0.8.0.0.0.",
"0.0.0.0.0.0.0.0.0.0.0.0.0.0.0.0.8.8.0.0.8.8.8.8.9.a , n T Y j ; > Z W ~ H t 1 1 J 7.0.0.0.0.0.8.8.8.0.0.0.0.8.8.0.7.0.0.0.0.0.0.0.",
"0.0.0.0.0.0.0.0.0.0.0.0.0.0.0.0.0.0.8.0.8.8.8.8.9.a : k B M s + , F / ( R e o o J 0.0.0.0.0.8.6.6.6.6.8.4.4.7.8.0.0.8.0.0.0.0.0.0.",
"0.0.0.0.0.9.8.0.0.9.9.0.0.0.0.0.0.0.9.0.0.7.9.0.8.a : x B M s + < S ! ^ U 0 o o 6 6.7.8.8.0.8.8.6.2.2.2.3.4.7.8.0.8.0.0.0.0.0.0.0.",
"0.0.9.9.0.0.9.0.0.8.0.8.8.0.8.0.9.7.0.0.0.0.0.8.8.a : c B B g + > k E Q m , o o 6 6.7.8.0.0.8.6.2.,.;.;.,.4.4.8.0.0.0.0.0.0.0.0.0.",
"0.0.9.0.8.9.0.9.9.0.9.0.0.0.0.8.0.9.0.9.9.0.9.0.8.a 8 c V B h ; & s v b z < * * 7 4.7.0.0.0.0.3.:.=.*.*.-.,.6.8.0.0.0.0.0.0.0.0.0.",
"0.0.0.0.9.0.9.8.9.8.0.0.8.0.0.8.0.0.7.0.0.9.0.0.8.a 8 v Y V k : O : s d C 3 5 7 ' 3.6.7.0.0.7.<.*.+.o.+.*.,.4.8.0.0.0.0.0.0.0.0.0.",
"0.0.0.0.8.9.0.0.0.0.8.9.8.8.8.0.7.0.9.0.0.9.0.0.0.a 8 v V V c : X o & < 3 ) ] } O.3.4.7.7.3.2.=.o.o.X.o.=.,.4.8.0.0.0.0.0.0.0.0.0.",
"0.0.0.0.0.0.9.0.0.9.0.0.0.0.8.0.0.9.7.0.8.0.0.7.0._ q z N N h : . @ % 2 7 } &.&.-.3.4.7.4.3.-.+.X...X.+.=.,.6.8.0.0.0.0.0.0.0.0.0.",
"0.0.0.0.8.9.0.9.9.0.9.0.0.0.0.0.9.0.0.9.0.9.8.8.8. .i C l g 0 + o 2 4 ) } o.&.*.:.3.4.4.3.-.*.X.....o.&.:.3.4.8.0.0.0.0.0.0.0.0.0.",
"9.0.9.0.0.9.0.8.0.0.9.8.0.0.0.0.0.9.0.0.0.8.0.8.8.<.{ u q : + O * 4 [ $.;.=.=.:.3.4.6.4.,.=.o.....X.&.-.,.4.7.7.0.0.0.0.0.0.0.0.0.",
"9.9.0.9.9.9.0.9.8.8.8.8.8.8.0.0.8.0.0.0.8.0.8.0.8.0.%.K 1 O O o - K $.6.5.<.2.3.4.6.6.3.:.*.X.X.X.+.=.,.4.7.8.0.0.0.0.0.0.0.0.0.0.",
"0.0.0.0.0.0.0.0.8.8.8.8.0.0.0.0.0.9.0.8.0.0.0.9.8.8.1.{ p 3 3 3 J [ <.7.7.6.4.6.6.6.6.3.:.&.o.o.+.=.,.4.6.8.8.0.0.0.0.0.0.0.0.0.0.",
"0.0.0.9.0.9.9.0.8.8.0.0.0.0.0.0.0.0.0.0.0.0.0.8.0.8.8.8.8.8.8.8.0.8.8.8.0.8.0.0.8.8.6.4.:.=.+.+.-.,.5.7.8.8.0.8.0.0.0.0.0.0.0.0.0.",
"0.0.0.0.9.0.0.9.8.8.0.0.0.0.0.0.8.0.8.0.0.0.0.0.8.8.8.8.8.8.8.8.8.8.8.8.0.0.0.0.0.8.7.4.2.:.=.=.,.4.8.8.0.8.0.0.0.0.0.0.0.0.0.0.0.",
"0.9.0.0.0.0.0.0.8.8.8.0.0.0.0.0.0.0.8.8.0.0.0.0.8.8.8.8.8.8.0.0.8.8.8.0.0.0.0.0.0.0.8.6.3.<.2.2.<.4.7.0.0.0.0.0.8.8.9.0.0.0.0.0.0.",
"0.0.0.0.0.9.0.0.8.8.8.8.0.0.0.8.0.8.8.8.0.0.0.0.8.8.8.8.8.8.0.0.8.8.0.0.0.0.0.0.0.0.8.7.4.4.4.3.4.7.8.0.0.0.0.0.8.8.8.0.0.0.0.0.0.",
"9.0.0.0.0.0.0.0.8.8.8.8.0.8.8.7.0.8.8.8.8.8.0.0.8.8.8.0.8.8.0.0.8.8.0.0.0.0.0.0.0.0.0.8.7.6.7.7.7.8.0.0.0.0.0.8.8.8.0.9.9.0.0.0.0.",
"0.0.0.9.9.0.0.0.8.8.7.6.6.5.5.5.7.8.7.7.6.6.5.6.6.8.8.0.0.0.0.0.8.0.0.8.0.0.8.8.0.0.0.8.8.8.8.8.8.0.0.8.8.8.8.0.9.0.9.0.0.0.0.0.0.",
"0.0.0.0.0.0.0.0.0.0.9.4.3.2.2.3.5.6.7.6.4.3.2.3.3.6.6.0.0.0.0.0.0.8.0.8.8.8.0.0.8.8.0.0.0.0.0.0.0.8.0.8.8.8.8.9.0.8.0.0.0.7.0.0.0.",
"0.0.0.9.0.0.0.0.0.0.6.3.,.-.-.,.3.6.6.5.3.:.-.:.2.4.6.0.0.0.0.0.0.0.0.0.8.8.8.0.8.0.0.0.0.0.0.0.0.0.0.8.8.8.8.0.9.0.7.0.9.0.9.0.0.",
"0.0.0.9.0.0.0.0.0.0.0.3.:.=.=.:.,.4.4.3.,.=.=.=.,.4.7.8.0.0.0.8.0.8.8.0.8.8.0.0.8.8.0.0.0.0.8.0.0.8.0.8.8.8.0.0.0.0.0.0.0.9.0.0.0.",
"0.0.9.0.0.0.0.0.0.0.9.3.:.=.*.-.:.,.3.,.:.*.*.:.,.4.7.8.0.0.0.0.0.0.8.8.8.8.0.0.0.0.0.0.0.0.0.0.0.0.0.8.8.0.9.9.0.7.0.9.0.0.0.9.0.",
"0.0.0.0.9.0.0.0.0.8.6.4.3.:.-.-.-.:.:.-.-.-.-.,.3.5.7.8.0.0.0.0.8.0.8.0.0.0.0.0.0.0.0.8.8.0.0.0.0.8.8.0.0.0.0.0.0.0.0.9.9.9.0.0.0.",
"0.0.9.0.9.0.0.0.0.0.7.6.4.3.,.:.=.=.*.=.-.,.,.4.5.6.8.0.8.0.8.0.0.0.9.0.0.0.0.0.8.0.0.0.0.0.0.8.0.0.0.0.0.7.7.0.7.9.0.0.0.0.0.9.0.",
"0.9.0.0.0.0.0.0.0.0.0.9.6.6.4.,.-.*.*.*.:.3.5.7.7.0.0.8.8.0.0.0.0.0.0.8.0.0.0.0.0.0.0.8.8.0.8.8.8.8.0.0.0.0.8.0.0.0.9.0.0.0.0.9.0.",
"0.0.0.9.0.9.9.0.8.8.0.0.0.9.6.3.,.=.*.-.,.4.8.0.0.0.0.8.8.8.0.8.0.0.0.0.0.0.0.0.0.0.0.0.0.0.0.8.8.8.8.8.0.9.0.9.9.0.0.0.9.9.0.0.0.",
"0.0.9.0.0.9.8.8.8.8.0.0.0.0.0.7.1.,.,.,.3.6.0.0.0.0.8.8.8.8.8.8.0.0.0.0.0.0.0.0.0.0.0.0.0.0.8.8.8.8.8.0.0.0.0.9.0.0.0.0.9.9.0.0.0.",
"0.0.0.8.7.0.8.8.8.8.0.0.0.0.8.7.1.1.<.3.4.6.0.0.0.0.0.8.8.8.8.8.0.0.8.8.0.0.0.0.0.0.0.0.0.0.8.8.8.8.8.9.9.9.0.0.0.7.0.0.0.0.0.0.0.",
"0.0.9.0.0.9.0.8.8.8.0.8.8.8.8.7.8.8.0.0.6.9.0.0.0.0.0.8.8.8.7.7.0.8.8.8.7.8.0.8.7.7.7.7.0.8.8.8.0.7.0.0.0.0.9.0.0.0.0.0.0.0.9.0.0.",
"9.0.0.9.0.0.9.0.0.0.8.8.8.8.8.8.0.0.0.0.9.0.0.8.0.0.0.0.8.8.7.7.8.7.6.6.6.7.8.8.6.6.6.6.8.8.8.8.0.0.9.0.0.9.0.0.0.9.6.0.9.9.0.0.0.",
"0.0.0.0.0.0.0.7.0.0.8.8.8.8.8.8.0.0.0.0.0.0.0.0.0.0.0.0.0.0.0.6.4.5.3.4.5.6.7.6.6.3.3.3.4.5.8.8.0.0.0.0.0.0.9.9.9.0.0.0.0.8.0.0.0.",
"0.0.0.0.0.0.0.0.0.0.8.8.8.8.8.8.0.0.0.0.0.0.0.0.0.0.0.0.0.0.7.6.3.:.:.:.3.5.6.5.3.,.:.,.<.4.7.8.0.0.0.0.9.0.0.0.0.0.9.9.9.0.0.0.0.",
"0.0.0.0.0.0.0.0.0.0.0.0.8.0.0.8.0.0.0.0.0.0.0.0.0.0.0.0.0.0.6.3.:.:.*.:.,.3.5.5.3.:.=.*.:.3.7.8.0.0.0.0.0.9.0.0.0.9.0.0.9.0.0.0.0.",
"0.0.0.0.0.0.0.0.0.0.0.0.0.0.0.0.0.0.0.0.0.0.0.0.0.0.0.0.0.0.7.4.:.*.*.:.:.5.5.5.,.-.*.*.-.3.8.0.0.0.0.0.0.0.9.9.0.0.9.0.0.0.0.0.0.",
"0.0.0.0.0.0.0.0.0.0.0.0.0.0.0.0.0.0.0.0.0.0.0.0.0.0.0.0.0.0.0.9.2.-.*.=.2.3.4.4.2.-.*.*.-.3.6.7.0.0.0.0.0.0.0.0.0.0.0.0.0.0.0.0.0."
};
