/* XPM */
static char *result[] = {
/* columns rows colors chars-per-pixel */
"65 65 119 2 ",
"   c #5D4B1B",
".  c #604E1B",
"X  c #64511D",
"o  c #69551E",
"O  c #725C1E",
"+  c #5A4A22",
"@  c #604F23",
"#  c #625025",
"$  c #6B5822",
"%  c #65552F",
"&  c #725D20",
"*  c #6A5932",
"=  c #67583F",
"-  c #6F5E39",
";  c #705F3A",
":  c #766024",
">  c #7A6423",
",  c #776329",
"<  c #7D6729",
"1  c #7E692C",
"2  c #72613E",
"3  c #786954",
"4  c #7E6F5B",
"5  c #7C6E64",
"6  c #7C6F6B",
"7  c #7E7061",
"8  c #7E716D",
"9  c #826A25",
"0  c #836B2A",
"q  c #8A712C",
"w  c #9B7D27",
"e  c #997C2A",
"r  c #816B35",
"t  c #816C39",
"y  c #897232",
"u  c #867242",
"i  c #8B7646",
"p  c #957E4A",
"a  c #83735E",
"s  c #837465",
"d  c #81746B",
"f  c #86786D",
"g  c #8E7E6B",
"h  c #887B72",
"j  c #8C7E79",
"k  c #9D802B",
"l  c #9F8334",
"z  c #A3852F",
"x  c #A48733",
"c  c #AC8D32",
"v  c #A98B39",
"b  c #B08F31",
"n  c #AF9038",
"m  c #B39233",
"M  c #B89635",
"N  c #BD9C3C",
"B  c #C19D36",
"V  c #CDA637",
"C  c #C9A53C",
"Z  c #CEA83A",
"A  c #D5AE3B",
"S  c #DAB23F",
"D  c #AC9149",
"F  c #B59741",
"G  c #BD9E46",
"H  c #B4984C",
"J  c #A38E5F",
"K  c #B49A54",
"L  c #BEA14E",
"P  c #BCA159",
"I  c #92816F",
"U  c #8D807E",
"Y  c #928272",
"T  c #C5A449",
"R  c #CBAA4B",
"E  c #DCB443",
"W  c #CBAB53",
"Q  c #E2BC4A",
"!  c #EAC75B",
"~  c #F1D05F",
"^  c #DFC067",
"/  c #F5D260",
"(  c #F3D46C",
")  c #8F8282",
"_  c #8E838D",
"`  c #908484",
"'  c #93878E",
"]  c #8F8594",
"[  c #9B919F",
"{  c #968DAA",
"}  c #9D93A2",
"|  c #9D94AC",
" . c #8D89B7",
".. c #8F8BB8",
"X. c #928DBB",
"o. c #9591BE",
"O. c #A196A6",
"+. c #A096AB",
"@. c #A49CBE",
"#. c #A9A1BE",
"$. c #9792C0",
"%. c #9B96C4",
"&. c #9E99C6",
"*. c #9F9AC8",
"=. c #A29DCB",
"-. c #ABA3C3",
";. c #A6A1CE",
":. c #ADA5CB",
">. c #AFA8CD",
",. c #B0A8CE",
"<. c #A7A2D0",
"1. c #ABA5D3",
"2. c #AFA8D6",
"3. c #B0A9D6",
"4. c #B4ADDB",
"5. c #B7B0DE",
"6. c #B8B1DF",
"7. c #B7B0E0",
"8. c #B8B2E0",
/* pixels */
"8.8.8.8.8.8.8.8.8.8.8.8.8.8.8.8.8.8.8.8.8.8.8.8.8.8.7.8.8.8.8.8.8.8.4.2.=.&.%.%.=.1.4.8.8.8.8.8.8.8.8.8.8.8.8.8.8.8.8.8.8.8.8.8.8.",
"8.8.8.8.8.8.8.8.8.8.8.7.8.8.8.8.8.8.8.8.8.8.8.8.8.8.8.8.8.8.8.8.8.8.7.2.=.&.%.%.=.1.4.5.8.8.8.8.8.8.8.8.8.8.8.8.8.8.8.8.8.8.8.8.8.",
"8.8.8.8.8.8.8.8.8.8.8.8.7.8.8.8.7.8.8.7.8.8.8.7.8.7.7.8.8.8.8.8.8.8.8.4.<.*.&.&.=.1.4.6.8.8.8.8.8.8.8.8.8.8.8.8.8.8.8.8.8.8.8.8.8.",
"8.8.8.8.7.8.8.7.8.7.7.8.8.8.8.8.8.7.8.6.8.8.8.8.8.8.8.7.8.8.8.8.8.8.8.7.1.=.=.*.:.2.5.6.8.8.8.8.8.8.8.8.8.8.8.8.8.8.8.8.8.8.8.8.8.",
"8.8.8.7.8.8.8.8.8.7.8.8.7.7.8.7.6.7.8.8.6.8.7.8.7.8.8.7.8.8.8.8.8.8.4.4.2.1.1.1.,.4.6.6.8.8.6.6.8.8.8.8.8.8.8.8.8.8.8.8.8.8.8.8.8.",
"8.8.8.8.8.7.7.7.8.8.7.7.8.8.8.8.8.7.8.7.8.7.8.6.7.8.8.7.8.7.8.8.8.8.7.7.4.4.4.4.4.6.6.6.8.8.6.6.8.8.8.8.8.8.8.8.8.8.8.8.8.8.8.8.8.",
"8.8.8.7.7.7.7.7.7.8.7.8.8.7.7.8.6.8.7.8.7.8.7.8.8.8.8.8.8.8.7.7.8.8.8.7.8.8.7.4.6.6.6.6.8.8.6.6.8.8.8.8.8.8.8.8.8.8.8.8.8.8.8.8.8.",
"8.8.8.8.8.8.7.7.8.7.8.8.7.8.8.7.8.7.8.6.8.7.8.7.8.7.7.8.7.8.8.8.8.8.8.8.8.8.8.8.8.8.6.6.6.6.6.6.8.8.8.8.8.8.8.8.8.8.8.8.8.8.8.8.8.",
"8.8.8.8.8.8.8.8.8.7.8.8.8.8.7.8.6.8.8.8.8.8.6.8.6.8.8.8.8.7.6.6.7.5.8.8.8.8.8.8.8.8.8.8.6.6.6.6.8.8.8.6.8.8.6.8.8.8.8.8.8.8.8.8.8.",
"8.8.8.8.6.8.8.8.7.8.8.8.8.7.7.8.8.8.8.6.8.6.8.8.8.7.8.5.8.8.6.6.8.5.8.8.8.8.8.8.8.8.8.8.6.6.6.6.6.6.6.5.6.8.8.8.8.8.8.7.8.8.8.8.8.",
"8.8.8.8.8.8.8.8.8.8.8.8.8.8.8.8.8.8.8.6.6.6.8.6.7.8.8.8.5.8.8.5.6.5.8.8.8.6.8.8.8.8.8.8.6.6.4.6.6.5.3.5.5.5.5.5.8.4.4.4.4.4.8.8.8.",
"8.8.8.8.8.8.8.8.8.8.8.8.8.8.8.8.8.8.6.6.6.6.6.8.5.8.7.8.8.7.6.8.8.8.8.5.7.8.8.5.6.8.6.8.6.6.6.4.2.1.1.1.2.5.5.5.8.4.1.1.1.4.4.8.8.",
"8.8.8.8.8.8.8.8.8.6.6.8.8.8.8.8.8.6.8.6.6.6.5.8.8.8.8.5.8.6.8.7.8.8.8.7.8.5.7.8.8.8.8.8.8.8.4.4.1.;.*.;.<.2.5.5.2.1.=.=.<.1.4.8.8.",
"8.8.8.8.6.6.8.6.8.8.8.8.8.8.8.8.6.6.6.6.6.6.6.8.8.7.8.8.7.8.7.8.5.8.8.7.8.8.8.8.6.8.8.8.8.8.6.4.;.;.%.*.<.1.2.4.1.=.*.&.=.1.4.4.8.",
"6.6.8.6.5.3.4.5.6.6.5.5.5.2.7.5.4.5.6.6.8.8.6.8.8.8.8.7.8.7.5.8.8.8.7.8.7.8.8.7.8.6.8.8.8.8.8.4.;.*.%.*.=.<.1.1.<.*.%.&.=.<.4.4.8.",
"6.6.6.5.1.1.1.2.4.5.5.5.2.2.2.2.3.4.5.8.8.6.8.7.8.5.8.8.8.7.8.7.8.8.8.5.8.7.5.8.8.8.8.8.8.8.8.6.:.;.*.&.*.=.<.=.=.*.&.*.<.1.4.5.8.",
"5.5.4.1.<.=.<.<.2.4.4.4.1.<.=.<.>.2.5.6.6.8.8.8.7.8.6.8.7.8.6.8.7.8.8.5.5.8.8.5.6.8.6.8.6.6.6.5.2.1.;.*.*.*.&.&.&.*.;.;.2.2.5.5.8.",
"5.5.4.1.=.*.%.<.1.2.4.1.<.*.&.=.<.2.5.6.8.8.8.8.8.7.8.7.8.6.8.7.8.8.8.8.8.8.8.8.8.8.8.8.6.6.6.6.5.2.2.<.*.&.%.&.&.;.<.2.2.5.5.5.8.",
"4.5.4.1.=.%.%.*.<.1.1.<.=.&.%.*.<.2.5.6.8.8.6.8.8.8.8.8.7.8.6.8.5.8.8.8.8.8.8.8.8.6.6.8.8.8.8.8.8.8.5.2.;.*.%.%.&.;.2.5.8.8.8.8.8.",
"5.4.4.1.<.*.*.*.*.;.<.=.*.&.*.=.<.4.5.5.8.8.8.8.5.8.7.7.8.7.8.7.7.8.8.5.8.8.6.8.8.8.6.6.6.6.8.8.8.8.5.2.:.;.*.*.;.2.2.8.8.8.8.8.8.",
"5.5.5.4.1.<.=.*.*.*.*.*.*.*.<.>.,.6.6.8.8.8.8.8.8.7.8.8.8.8.8.8.8.8.7.8.8.8.8.8.8.8.6.6.6.6.8.8.8.8.8.6.3.1.;.;.,.4.8.8.8.8.8.8.8.",
"5.5.5.6.4.1.<.<.&.%.%.&.=.<.>.3.5.6.6.8.8.8.8.8.8.8.5.8.5.8.8.8.8.5.7.8.6.6.6.8.6.8.6.6.6.6.8.6.8.8.6.6.5.3.2.2.4.6.8.8.8.8.8.8.8.",
"8.8.8.8.5.5.2.<.*.%.%.*.;.1.5.5.6.6.8.8.8.8.8.8.8.5.8.6.5.8.8.8.8.6.8.8.6.6.8.6.6.6.8.6.6.6.8.8.8.8.8.8.6.6.5.6.5.5.8.8.8.8.8.8.8.",
"8.8.8.8.8.5.5.1.<.=.*.=.1.3.8.8.8.8.8.6.6.6.6.8.8.8.5.6.6.>.} U s s 7 U } >.8.6.6.6.6.6.8.6.6.6.8.8.8.8.6.6.6.6.6.6.8.8.8.8.8.8.8.",
"8.8.8.8.8.8.8.4.1.<.<.<.,.5.8.8.8.8.8.8.6.6.6.8.8.8.6.6.5.-.) 2 o X # ; U #.6.6.6.6.6.6.8.6.6.6.8.8.8.8.8.8.8.8.8.8.6.6.6.6.6.8.8.",
"8.8.8.8.8.8.8.5.3.2.2.3.4.6.8.8.8.8.8.8.6.6.6.6.8.6.5.2.#.{ 7 * o , 1 u I [ #.#.>.8.6.6.8.8.6.6.8.8.8.8.8.8.8.8.8.6.8.6.6.6.8.8.8.",
"8.8.8.8.8.8.6.6.5.5.4.5.6.8.8.8.8.8.8.8.6.6.8.8.6.8.,.#._ 6 = @ , l H K J Y U U } 8.6.6.6.6.8.8.8.8.8.8.8.8.8.6.8.8.8.6.6.6.8.8.8.",
"8.8.8.8.6.6.8.8.6.6.6.6.8.8.8.8.8.6.6.6.8.8.6.8.8.6.-.` 3 %     1 H ^ ^ P i ; ; Y 6.6.6.6.6.6.6.8.8.8.8.8.8.8.6.6.6.6.8.8.8.8.8.8.",
"8.8.8.8.8.8.8.8.6.8.8.8.8.8.8.8.6.6.6.6.8.8.8.6.8.>.O.I y 1 @   0 L ( ( W y o X 7 6.6.6.6.6.6.6.8.8.8.8.8.8.6.6.8.5.5.8.8.8.8.8.8.",
"8.8.8.8.8.8.8.8.8.8.8.8.8.8.8.8.6.6.6.8.6.8.8.8.8.| Y I K D y $ 1 F ! ~ T q X X I 6.6.6.6.6.6.6.8.8.8.8.5.5.8.6.5.5.5.8.8.6.8.8.8.",
"8.8.8.8.8.8.8.8.8.8.8.8.8.8.8.8.6.6.6.8.8.6.8.6.8.) i P ^ ^ D , : z E E N 9 X X a 6.8.8.6.6.6.6.6.6.8.8.5.5.5.6.8.8.8.8.8.8.8.8.8.",
"8.8.8.8.8.8.8.8.8.8.8.8.8.8.8.8.6.6.8.6.8.8.8.8.8.Y y W ( ( L 1 O k V A b < X X I 8.8.8.8.8.6.5.4.4.4.6.4.4.5.6.8.8.5.8.8.8.8.8.8.",
"8.8.7.8.7.7.7.7.8.8.8.8.8.8.8.8.8.8.7.8.8.8.8.8.7.h y R / ~ G < O k V A b < X X s 4.5.8.8.8.6.5.3.1.<.<.1.4.4.6.8.6.8.8.8.8.8.8.8.",
"8.8.8.8.7.7.7.8.8.6.8.6.6.8.6.8.7.6.8.8.7.7.6.7.7.h 0 B Q Q n > O k Z A m 9 X X 7 2.5.6.8.8.6.4.:.=.=.=.=.1.4.5.8.8.8.8.8.8.8.8.8.",
"8.8.8.7.7.8.7.6.6.8.6.8.6.6.8.6.8.6.6.7.8.6.8.6.8.` t v B B e & O z A S m 9 X X 7 2.4.8.8.8.8.2.=.&.$.$.=.;.4.6.8.8.8.8.8.8.8.8.8.",
"8.8.7.8.8.7.8.8.8.7.6.6.6.6.8.6.7.8.8.8.7.8.8.7.7.O.j p x w > o > c S E M 9 X X 7 1.4.5.8.8.5.;.$.o.X.o.%.;.2.6.8.8.8.8.8.8.8.8.8.",
"8.8.8.8.8.8.7.6.7.8.7.8.8.8.6.8.8.7.8.8.8.8.7.8.7.>.O.g r & X . > b S E M 0 o X 7 <.4.5.5.2.;.&.o.X...X.%.;.2.6.8.8.8.7.8.8.8.8.8.",
"8.8.8.8.6.7.8.7.6.8.6.7.8.6.8.8.6.8.7.6.7.6.8.6.7.7.-.' 3 % + . > z C C c 1 * * 8 <.4.4.2.:.*.o... ...o.&.;.4.6.8.8.8.8.8.8.8.8.8.",
"8.8.8.8.7.8.7.8.8.6.8.8.6.8.8.8.7.8.8.8.8.8.8.8.8.8.3.+.` 5 - # & q z x p 4 8 8 ] 2.2.2.<.=.o... . .X.$.=.1.4.6.8.8.8.8.8.8.8.8.8.",
"8.8.8.8.8.8.6.7.8.7.8.7.6.6.8.8.8.6.8.7.7.8.6.8.6.8.4.,.=.} d * o O > r a _ { { @.2.2.2.;.&.o... .X.o.*.;.2.4.6.8.8.8.7.8.8.8.8.8.",
"8.8.8.7.8.8.7.8.8.8.6.6.6.6.8.8.8.6.8.8.8.8.8.6.6.6.6.6.6.#.` 2 X X X - Y | <.1.2.2.4.2.=.o.o.....o.=.;.,.4.8.8.8.8.8.8.8.8.8.8.8.",
"8.8.8.7.7.8.8.7.8.6.8.6.6.6.8.8.8.7.6.8.6.8.8.8.8.8.6.6.8.>.[ g 4 4 4 f [ #.2.2.4.5.4.1.;.o.X...o.=.=.3.4.6.8.8.8.8.8.8.8.8.8.8.8.",
"8.8.8.8.7.8.8.7.6.6.8.8.8.8.8.8.8.8.8.8.8.8.8.6.8.8.6.6.6.6.6.8.6.6.6.6.8.6.8.8.7.7.4.2.;.%.$.o.=.=.3.4.6.6.8.8.8.8.8.8.8.8.8.8.8.",
"8.8.8.8.8.8.7.8.6.6.8.6.8.8.8.8.8.6.8.6.8.8.8.8.8.8.6.6.6.6.6.6.6.6.6.6.8.8.8.8.8.7.5.2.;.=.*.*.=.1.6.8.8.8.8.8.8.8.8.8.8.8.8.8.8.",
"8.8.8.8.7.8.7.8.6.6.6.6.8.8.8.6.8.8.6.6.8.8.8.8.8.8.6.6.8.8.8.8.6.6.8.8.8.8.8.8.8.8.6.3.2.;.;.;.1.4.6.6.8.8.8.8.6.6.7.8.8.8.8.8.8.",
"8.8.7.7.8.8.7.8.6.6.6.6.8.8.8.6.8.8.8.6.8.8.8.8.6.6.6.6.8.8.8.8.6.6.8.6.8.8.8.8.8.8.6.6.3.2.1.1.4.4.6.6.8.8.8.8.6.6.6.8.8.8.8.8.8.",
"8.8.8.8.7.8.8.8.6.6.6.6.6.6.5.5.6.6.5.5.5.5.8.6.6.6.6.8.8.6.8.8.6.6.8.8.8.8.8.8.8.8.8.6.6.5.5.5.6.6.6.8.8.8.8.6.6.6.8.7.8.8.8.8.8.",
"8.8.7.8.8.8.8.8.6.6.6.4.4.3.3.4.5.6.5.5.4.4.3.4.4.4.6.8.8.8.8.8.8.8.6.8.8.8.6.6.8.8.8.8.6.6.5.6.6.8.8.6.6.6.6.8.7.8.7.8.8.8.8.8.8.",
"8.8.8.8.8.7.8.8.8.8.7.2.1.<.<.1.4.4.6.4.2.<.;.<.1.4.4.6.8.8.8.8.6.6.6.8.6.6.6.6.8.8.8.8.8.8.8.8.6.8.6.6.6.6.6.7.8.6.7.8.6.8.8.7.8.",
"8.8.8.8.8.8.8.8.8.8.4.1.;.=.=.;.1.4.4.3.1.=.=.=.<.4.4.6.8.8.8.8.6.8.8.8.6.6.6.8.8.8.8.8.8.8.8.8.8.8.8.6.6.6.6.8.7.8.8.6.8.7.8.8.8.",
"8.8.8.7.8.8.8.8.8.8.8.1.=.&.%.=.;.1.4.1.=.=.%.%.=.2.4.8.8.8.8.8.6.6.6.8.8.8.8.8.8.8.8.8.8.8.8.8.6.8.8.6.6.6.8.8.8.7.8.8.7.8.7.8.8.",
"7.7.8.8.8.8.8.8.8.8.7.1.;.&.%.&.=.;.<.=.=.=.%.=.;.2.6.8.8.8.6.8.6.6.8.8.8.6.8.8.8.8.8.8.8.8.8.6.8.8.6.8.8.7.6.8.8.6.8.7.8.8.7.8.8.",
"8.8.8.8.8.8.8.8.8.7.4.3.<.;.=.&.&.=.=.=.=.=.=.;.1.4.6.6.6.8.8.6.6.6.8.8.8.8.8.8.8.6.6.6.8.8.6.8.8.8.8.6.8.8.6.7.8.8.8.7.8.8.7.8.8.",
"8.8.8.8.8.7.8.7.8.8.6.4.1.1.;.=.=.&.%.%.&.=.;.2.3.4.6.8.8.8.8.8.8.8.6.8.8.8.8.8.8.6.6.6.6.8.8.8.8.6.8.8.8.7.8.8.7.7.6.8.7.8.8.8.8.",
"8.8.8.8.8.8.7.7.8.8.7.7.7.4.1.;.=.%.$.%.=.<.3.4.6.6.8.6.6.6.8.6.8.8.8.8.8.8.8.8.8.8.8.8.8.8.6.6.6.6.8.6.6.8.7.7.8.6.7.8.8.7.7.8.8.",
"8.8.8.8.7.8.8.7.6.6.8.7.7.7.4.1.=.&.&.=.;.2.6.8.8.8.8.6.6.6.8.8.8.8.8.8.8.8.8.8.8.8.8.8.6.8.8.6.6.6.6.8.7.8.8.6.8.7.8.7.8.8.8.8.8.",
"8.8.8.7.7.8.6.6.6.6.8.8.8.8.8.4.>.;.=.;.1.4.6.8.8.8.8.6.6.6.6.8.8.8.8.8.8.8.8.8.8.8.8.8.8.8.6.6.6.6.6.7.8.8.7.8.8.7.8.8.7.8.7.8.8.",
"8.7.8.8.8.8.6.6.6.6.8.8.8.8.6.4.,.,.:.1.4.4.8.8.8.8.6.6.6.6.6.8.8.8.8.8.8.8.8.8.6.8.8.8.8.8.6.6.6.6.6.6.7.7.8.8.6.8.7.6.8.6.7.8.8.",
"8.8.8.8.6.8.8.5.6.6.8.8.8.6.6.6.6.6.8.8.4.6.6.8.8.8.8.6.6.6.8.8.8.5.5.5.5.5.8.8.6.6.6.6.8.6.6.6.8.8.8.8.8.7.8.7.8.6.8.8.8.7.8.8.8.",
"8.7.5.8.8.7.6.8.8.8.6.6.6.6.6.6.8.8.8.8.6.6.8.6.8.8.6.8.8.6.8.4.8.5.4.4.4.6.5.6.4.4.4.4.6.6.6.6.6.8.8.7.8.8.7.8.7.8.7.8.6.8.7.8.8.",
"8.8.8.8.8.8.7.7.8.8.6.6.6.6.8.8.8.8.8.8.8.8.8.8.8.8.8.8.8.8.8.4.3.3.1.1.3.4.4.4.3.3.1.1.2.4.5.6.8.8.8.8.8.7.8.8.8.8.7.8.8.8.6.8.8.",
"8.8.8.8.8.8.8.8.8.8.6.6.6.6.8.6.8.8.8.8.8.8.8.8.8.8.8.8.8.8.7.3.1.=.=.=.,.3.4.3.1.;.=.=.;.3.4.6.8.8.8.8.7.8.8.7.7.7.8.8.7.8.8.8.8.",
"8.8.8.8.8.8.8.8.8.8.8.8.6.8.8.6.8.8.8.8.8.8.8.8.8.8.8.8.8.8.4.3.=.=.=.=.=.3.3.3.;.=.%.&.=.1.5.6.8.8.8.8.8.8.8.8.8.7.8.7.8.8.8.8.8.",
"8.8.8.8.8.8.8.8.8.8.8.8.8.8.8.8.8.8.8.8.8.8.8.8.8.8.8.8.8.8.4.1.=.%.$.=.;.3.3.3.;.=.%.%.=.1.6.8.8.8.8.8.8.8.8.8.8.8.8.8.8.8.8.8.8.",
"8.8.8.8.8.8.8.8.8.8.8.8.8.8.8.8.8.8.8.8.8.8.8.8.8.8.8.8.8.8.8.7.<.*.%.&.<.1.4.1.<.*.%.%.*.1.4.8.8.8.8.8.8.8.8.8.8.8.8.8.8.8.8.8.8."
};
