/* XPM */
static char *result[] = {
/* columns rows colors chars-per-pixel */
"65 65 169 2 ",
"   c #524011",
".  c #5E4C1B",
"X  c #604E1C",
"o  c #6A5413",
"O  c #64511D",
"+  c #6A561E",
"@  c #6D591F",
"#  c #745D1B",
"$  c #4D4022",
"%  c #564722",
"&  c #5C4D2E",
"*  c #5D4F30",
"=  c #685527",
"-  c #6E5920",
";  c #64532B",
":  c #69572A",
">  c #715B20",
",  c #625331",
"<  c #6A5A34",
"1  c #60533C",
"2  c #6C5C38",
"3  c #7A6424",
"4  c #7F6826",
"5  c #79642A",
"6  c #7D672C",
"7  c #736135",
"8  c #6E5E42",
"9  c #746444",
"0  c #75664A",
"q  c #79694D",
"w  c #766856",
"e  c #7C6B55",
"r  c #7E6F59",
"t  c #7F705D",
"y  c #6E6364",
"u  c #796C65",
"i  c #7D7067",
"p  c #7D716D",
"a  c #7D7377",
"s  c #846B26",
"d  c #826B2C",
"f  c #8A712A",
"g  c #917627",
"h  c #947827",
"j  c #977B2C",
"k  c #9A7D2C",
"l  c #836D32",
"z  c #867132",
"x  c #8B7434",
"c  c #8E7638",
"v  c #987E39",
"b  c #836F47",
"n  c #816F4C",
"m  c #947D45",
"M  c #8B7956",
"N  c #8A7857",
"B  c #837464",
"V  c #84766C",
"C  c #86786E",
"Z  c #8B7C6A",
"A  c #867975",
"S  c #82777A",
"D  c #84797B",
"F  c #8A7D7B",
"G  c #9E802E",
"H  c #9C833E",
"J  c #A1832D",
"K  c #AE8C2B",
"L  c #B4912F",
"P  c #A78934",
"I  c #AB8C35",
"U  c #B29135",
"Y  c #B4943C",
"T  c #B9993F",
"R  c #C19D38",
"E  c #C5A035",
"W  c #C9A338",
"Q  c #CCA63A",
"!  c #CEA93C",
"~  c #D3AC3D",
"^  c #D8AF3C",
"/  c #DAB23E",
"(  c #AC944B",
")  c #B59744",
"_  c #B99B46",
"`  c #A38B52",
"'  c #BFA04A",
"]  c #BBA254",
"[  c #BFAB57",
"{  c #928062",
"}  c #8E817D",
"|  c #C8A74C",
" . c #D4AE40",
".. c #D2AE4C",
"X. c #D6B041",
"o. c #DBB343",
"O. c #D4B14C",
"+. c #C2A553",
"@. c #C4AC59",
"#. c #CCAC5A",
"$. c #C7B15B",
"%. c #D8B458",
"&. c #E0B740",
"*. c #EABF44",
"=. c #E5BD4A",
"-. c #DCBD64",
";. c #EAC045",
":. c #EFC548",
">. c #F4C94C",
",. c #E7C157",
"<. c #EBC352",
"1. c #F8CE55",
"2. c #FCD258",
"3. c #DFC064",
"4. c #DBC268",
"5. c #E1C163",
"6. c #ECCA65",
"7. c #E6CA6B",
"8. c #F3CE63",
"9. c #F7D264",
"0. c #F3D26C",
"q. c #FDDD6C",
"w. c #EFDD77",
"e. c #F2D572",
"r. c #F3D877",
"t. c #FBDB74",
"y. c #F2DE79",
"u. c #FAE37A",
"i. c #FBE57C",
"p. c #857E9B",
"a. c #928583",
"s. c #958889",
"d. c #96898E",
"f. c #8D8497",
"g. c #8B839E",
"h. c #978C99",
"j. c #9A8F9C",
"k. c #8B84A3",
"l. c #9289A1",
"z. c #9C92A9",
"x. c #8D89B7",
"c. c #938DB5",
"v. c #928DBB",
"b. c #9F96B3",
"n. c #9691BE",
"m. c #A095A7",
"M. c #A298AE",
"N. c #A49AB4",
"B. c #A69EBD",
"V. c #A8A0BE",
"C. c #FEF084",
"Z. c #9792C0",
"A. c #9B96C4",
"S. c #9E99C6",
"D. c #9F9AC8",
"F. c #A09AC5",
"G. c #A29DCB",
"H. c #ADA4C7",
"J. c #A6A1CE",
"K. c #ACA5CB",
"L. c #A7A2D0",
"P. c #ABA5D3",
"I. c #AFA8D6",
"U. c #B1AAD6",
"Y. c #B4ADDB",
"T. c #B7B0DE",
"R. c #B8B1DF",
"E. c #B7B0E0",
"W. c #B9B2E0",
/* pixels */
"W.W.W.W.W.W.W.W.W.W.W.W.W.W.W.W.W.W.W.W.W.W.W.W.W.W.W.W.W.W.W.W.W.W.E.I.G.A.A.A.G.P.Y.W.W.W.W.W.W.W.W.W.W.W.W.W.W.W.W.W.W.W.W.W.W.",
"W.W.W.W.W.W.W.W.W.W.W.W.W.W.W.W.W.E.W.W.W.W.W.W.W.W.W.W.W.W.W.W.W.W.E.I.L.A.A.A.G.P.Y.R.W.W.W.W.W.W.W.W.W.W.W.W.W.W.W.W.W.W.W.W.W.",
"W.W.W.W.W.W.W.W.W.E.W.W.W.E.W.W.W.W.E.W.W.W.E.E.W.W.W.W.W.W.W.W.W.W.W.I.L.D.A.S.G.P.R.R.W.W.W.W.W.W.W.W.W.W.W.W.W.W.W.W.W.W.W.W.W.",
"W.W.W.W.E.E.W.W.W.W.W.E.W.W.E.W.E.W.W.W.W.W.W.W.E.W.W.W.W.W.W.W.W.W.W.E.L.L.G.D.K.U.Y.R.W.W.W.W.W.W.W.W.W.W.W.W.W.W.W.W.W.W.W.W.W.",
"W.W.W.W.W.E.W.E.W.W.E.W.E.W.W.E.W.E.W.E.E.W.W.W.W.E.W.W.E.W.W.W.W.E.T.Y.I.P.P.P.U.U.Y.R.W.W.W.R.W.W.W.W.W.W.W.W.W.W.W.W.W.W.W.W.W.",
"W.W.E.W.E.W.W.E.E.E.W.W.W.E.E.W.W.E.R.W.W.E.R.E.E.W.E.W.W.E.W.W.W.E.T.T.Y.Y.Y.Y.Y.Y.R.R.W.W.W.R.W.W.W.W.W.W.W.W.W.W.W.W.W.W.W.W.W.",
"W.W.W.W.W.E.E.E.W.E.W.E.W.W.W.W.W.R.R.W.R.W.E.W.W.W.E.E.W.E.W.W.W.W.E.E.E.E.E.E.R.R.R.R.W.W.R.W.W.W.W.W.W.W.W.W.W.W.W.W.W.W.W.W.W.",
"W.W.W.E.W.E.E.E.W.W.E.W.E.E.W.E.W.E.W.E.W.E.R.W.W.E.W.W.E.W.E.W.R.T.E.W.W.W.W.W.W.W.R.W.W.W.R.W.W.W.W.W.W.W.W.W.W.W.W.W.W.W.W.W.W.",
"W.W.W.W.R.W.W.W.E.W.W.W.E.E.W.E.R.W.W.W.W.W.E.W.E.R.W.W.W.E.R.R.R.R.W.W.W.W.W.W.W.W.W.W.R.R.R.R.W.W.W.R.W.W.R.R.W.W.W.W.W.W.W.W.W.",
"W.W.W.W.W.W.W.W.W.E.W.W.W.W.W.W.W.W.W.R.W.R.W.E.W.W.E.E.E.W.R.R.R.R.R.W.W.W.W.W.W.W.W.W.R.R.R.R.R.R.R.T.R.W.R.R.W.W.E.E.W.W.W.W.W.",
"W.W.W.W.W.W.W.W.W.W.W.W.W.W.W.W.W.W.W.R.R.R.E.R.W.E.W.R.W.W.E.W.R.R.W.W.R.W.W.W.W.W.W.W.R.R.R.Y.R.T.Y.T.T.R.T.T.W.E.Y.Y.I.T.W.W.W.",
"W.W.W.W.W.W.W.W.W.W.W.W.W.W.W.W.W.W.W.R.R.R.R.W.R.W.E.W.E.R.W.W.W.W.W.R.W.W.R.E.W.R.W.W.R.R.R.Y.U.P.P.P.P.T.T.T.E.Y.P.P.I.I.T.E.E.",
"W.W.W.W.W.W.W.W.W.R.R.W.W.W.W.W.W.W.W.R.R.R.R.W.E.R.E.W.W.Y.W.W.R.W.E.W.E.W.W.W.W.R.W.W.W.W.R.U.P.J.J.G.P.I.T.Y.I.J.J.J.L.I.Y.T.W.",
"W.W.W.W.R.T.W.W.W.W.W.R.W.W.W.W.R.R.R.R.R.R.R.R.W.W.W.E.W.E.W.W.E.W.W.E.W.R.W.T.W.R.W.W.W.W.R.U.J.G.S.D.J.I.I.Y.P.J.A.S.G.L.I.T.W.",
"R.R.W.R.T.U.Y.T.T.R.T.T.T.I.E.T.Y.Y.R.R.W.R.W.W.E.W.W.R.R.W.W.W.W.E.W.W.E.W.R.W.W.W.W.W.W.W.W.Y.J.G.S.S.G.J.I.L.J.D.A.A.D.L.I.W.W.",
"R.R.T.T.P.P.P.I.Y.T.T.T.I.I.I.I.U.Y.R.W.W.W.W.R.W.E.W.E.W.E.W.T.R.W.T.W.W.E.W.E.W.R.W.W.W.W.W.R.K.G.S.S.D.D.J.J.G.D.D.D.J.I.Y.T.W.",
"T.T.Y.P.P.G.J.P.I.Y.T.U.P.L.G.L.P.U.T.R.R.W.W.W.W.W.E.W.E.W.W.W.W.W.T.W.W.W.W.W.W.W.W.W.R.R.R.R.I.P.J.D.D.D.S.D.D.D.J.J.P.I.T.T.W.",
"T.T.Y.P.G.S.S.G.P.I.U.I.L.D.A.G.L.I.T.R.W.W.W.W.W.T.W.R.T.W.E.W.E.E.W.W.R.R.W.R.R.W.R.W.R.R.R.R.Y.Y.I.L.G.S.n.S.S.J.K.P.I.T.T.W.W.",
"T.Y.Y.P.G.A.S.D.J.P.P.L.G.F.A.D.L.I.T.R.W.W.R.W.W.W.W.E.W.W.W.W.W.E.W.R.W.W.W.W.W.W.W.R.R.W.W.W.W.W.Y.I.J.D.A.n.D.J.I.T.W.W.W.W.W.",
"Y.T.Y.P.J.G.S.S.G.G.J.G.D.D.D.G.P.U.T.W.W.W.R.W.E.W.R.W.W.E.T.W.R.W.W.W.R.W.W.R.R.W.R.R.R.R.W.W.W.W.T.I.J.J.G.J.J.P.T.T.W.W.W.W.W.",
"T.T.Y.Y.P.J.G.G.D.D.D.D.F.G.K.K.I.Y.R.R.W.W.W.W.W.W.T.W.W.R.W.E.W.E.W.R.W.W.R.W.W.W.R.R.R.R.R.W.W.W.W.R.U.P.J.J.I.Y.W.W.W.W.W.W.W.",
"W.W.W.W.Y.P.P.G.S.A.A.S.G.L.P.U.Y.W.R.R.W.W.W.W.W.R.W.E.E.W.E.W.E.W.E.W.R.W.W.W.W.R.R.R.R.R.R.W.W.W.W.R.T.U.I.I.U.R.W.W.W.W.W.W.W.",
"W.W.W.W.T.Y.P.P.G.A.A.D.J.P.T.R.R.R.R.R.W.T.W.W.R.R.W.W.R.R.T.R.W.W.W.R.W.W.R.R.R.R.W.R.R.R.R.R.W.W.W.W.T.T.T.T.R.R.W.W.W.W.W.W.W.",
"W.W.W.W.W.W.Y.P.J.G.D.J.L.I.R.W.W.W.R.R.Y.B.d.{ V B B B B C s.V.R.W.W.W.W.W.W.R.R.R.R.W.R.R.R.R.W.W.W.W.R.R.R.R.R.R.W.W.W.W.W.W.W.",
"W.W.W.W.W.W.W.I.P.L.L.L.U.Y.R.W.W.W.W.W.K.j.e > + @ + X ; = t z.U.R.W.W.W.W.R.R.T.T.T.T.T.T.R.R.W.W.W.W.W.W.W.W.R.R.W.R.R.R.R.W.W.",
"W.W.W.W.W.W.W.Y.Y.P.I.Y.Y.R.R.W.W.W.K.V.m.} q 4 4 6 x 6 z l N d.V.V.V.V.V.V.V.V.V.B.V.V.V.V.H.R.W.W.W.W.W.W.W.W.W.R.W.R.R.R.R.W.W.",
"W.W.W.W.W.W.W.W.Y.T.Y.T.R.R.W.W.W.T.m.} } { H I T | $.[ [ _ ` Z A a a S D D D D D } } } } } d.R.W.W.W.W.W.W.R.W.R.W.W.R.R.R.W.W.W.",
"W.W.W.W.W.W.W.W.W.W.W.T.W.W.W.W.T.T.{ < 7 x I ~ <.8.w.y.w.7.] m 7 & , < < < < < 1 2 < 2 2 < i R.W.W.W.W.W.W.W.R.R.R.R.R.W.W.W.W.W.",
"W.W.W.W.W.W.W.W.W.W.W.W.W.W.W.W.W.W.r X @ G E ;.1.8.e.u.C.u.3.Y 6 # > 6 l d d d 4 3 @ + O O q R.W.W.W.W.W.R.W.R.R.R.T.W.W.W.R.W.W.",
"W.W.W.W.W.W.W.W.W.W.W.W.W.W.W.W.W.T.r X O G Q ;.;...@.4.u.i.0...U I _ +.@.@.+.' T P g 3 + o q R.W.W.W.W.T.T.W.R.R.R.R.W.W.W.W.W.W.",
"W.W.W.W.W.W.W.W.W.W.W.W.W.W.W.W.T.R.r X + G W &.E G z ( 4.u.q.,.X.o.,.e.r.r.e.6.;.~ L s @ X q R.R.R.W.W.T.T.T.R.W.W.W.T.W.W.W.W.W.",
"W.W.W.W.W.W.W.W.W.W.W.W.W.W.W.W.R.R.r X + G ! / U # . z #.t.q.:.o.o.,.0.r.r.0.9.2.:.W G @ X q R.Y.Y.U.R.Y.Y.T.R.W.W.W.E.W.W.W.W.W.",
"W.E.E.W.R.W.W.E.E.W.E.W.W.W.W.E.R.R.r . - G ~ / K o   l #.t.0.O.U I ) +.+.[ +.%.>.>./ J > X q Y.Y.P.J.L.P.I.Y.R.W.W.W.W.W.W.W.W.W.",
"W.W.W.W.W.E.W.R.W.R.W.E.E.E.R.W.W.T.r O - k ! / L # . c %.t.6.) d > 5 l 6 6 l I  .*.^ J > X 0 Y.P.G.S.G.G.I.Y.R.W.W.W.W.W.W.W.W.W.",
"W.W.W.E.E.W.W.W.E.W.R.W.W.R.E.W.W.T.r . - k Q &.W j z ( 7.t.5.H O   % * & & , z U Q R j - . 0 I.G.S.Z.Z.G.L.Y.W.W.W.W.W.W.W.W.W.W.",
"W.W.W.E.R.W.E.W.W.R.W.E.W.E.R.W.W.W.t . @ k Q *.=.| +.4.u.i.-.H % $ 8 y y y y r m J G s + X 0 G.A.n.v.Z.S.G.U.W.W.W.W.W.W.W.W.W.W.",
"W.W.W.W.R.E.W.R.E.W.R.W.W.W.W.E.W.R.t . @ h E ;.1.8.0.i.C.u.-.H ; 1 a g.k.p.p.p.e 6 3 @ O O 9 A.n.x.x.v.S.J.U.Y.W.W.W.W.W.W.E.W.W.",
"W.W.W.W.W.W.E.W.W.E.W.E.R.W.R.W.E.W.B < 7 c U / <.8.e.u.u.7.@.m 9 u h.F.Z.v.l.p.p 8 < < < : w c.x.x.v.v.S.J.Y.R.W.W.W.E.W.W.W.W.W.",
"W.W.W.E.W.E.W.E.R.W.R.E.W.W.W.R.R.R.j.A Z M v I _ | #.$.@.] ` { F j.B.G.G.A.n.c.f.a a S V i p.c.x.x.v.Z.G.P.Y.R.W.W.W.W.E.W.W.W.W.",
"W.W.E.W.E.R.W.W.E.E.W.W.R.W.W.W.R.R.H.V.M.} b d f z x z z x M d.N.H.U.U.J.G.F.F.B.b.N.b.z.l.k.x.x.v.Z.D.J.I.Y.R.W.W.W.W.W.E.W.W.W.",
"W.W.W.E.W.W.E.W.W.R.W.R.W.W.W.W.R.R.R.W.U.j.e - X O O = X : r m.T.W.R.T.U.K.K.P.I.Y.Y.I.G.A.v.x.v.Z.F.G.K.R.W.W.W.W.W.W.W.W.W.W.W.",
"W.W.W.W.E.W.W.E.W.W.W.W.R.W.W.W.R.R.W.W.U.N.} B r N n r r B a.B.R.R.R.T.U.R.U.Y.Y.Y.Y.P.G.Z.v.v.Z.F.G.U.Y.R.W.W.W.W.W.W.W.W.W.W.W.",
"W.W.W.W.E.W.W.E.R.R.W.W.W.W.W.W.W.R.W.R.W.W.R.R.W.R.R.R.R.R.R.W.W.W.R.R.W.W.W.W.W.W.Y.P.G.A.Z.Z.S.G.U.T.R.R.W.W.W.W.W.W.W.W.W.W.W.",
"W.W.W.W.W.W.E.W.R.R.R.R.W.W.W.W.W.W.W.W.W.W.W.W.R.R.R.R.R.R.R.R.R.R.R.R.W.W.W.W.W.W.Y.U.J.G.S.S.G.I.R.W.W.W.W.W.W.W.W.W.W.W.W.W.W.",
"W.W.W.W.E.E.W.E.R.R.R.W.W.W.W.W.W.W.R.R.W.W.W.W.R.R.R.R.R.W.W.W.R.R.R.W.W.W.W.W.W.W.R.U.P.P.G.P.P.Y.R.E.W.W.W.W.R.R.W.E.W.W.W.W.W.",
"W.W.E.W.W.W.W.W.R.R.R.R.W.W.W.R.W.R.R.R.W.W.W.W.R.R.R.R.R.W.W.W.R.R.W.W.W.W.W.W.W.W.R.R.U.I.I.U.Y.Y.E.W.W.W.W.W.R.R.W.W.W.W.W.W.W.",
"W.W.W.W.E.E.W.W.R.R.R.R.R.R.R.T.R.R.R.R.R.R.R.R.R.R.R.W.R.R.W.W.R.R.R.W.W.W.W.W.W.W.W.R.Y.Y.Y.Y.R.R.W.W.W.W.E.R.R.R.E.W.W.W.W.W.W.",
"W.W.W.E.E.W.W.W.R.R.T.Y.Y.U.U.U.R.R.R.R.U.Y.U.Y.R.Y.R.W.W.W.W.W.R.R.R.R.W.W.W.W.W.W.W.W.R.R.W.W.R.W.W.R.R.R.R.W.W.E.W.W.E.W.W.W.W.",
"W.W.E.W.W.E.W.W.W.W.E.I.P.L.L.P.Y.Y.Y.Y.I.P.J.P.P.Y.Y.W.W.W.W.W.R.W.R.R.W.W.R.R.W.W.W.W.W.W.W.W.W.R.W.R.R.R.R.W.W.R.W.W.R.W.R.E.W.",
"E.W.E.W.W.W.W.W.W.W.Y.P.L.D.D.J.P.Y.Y.U.P.G.G.G.L.I.Y.W.W.W.W.W.W.R.R.R.W.W.R.R.W.W.W.W.W.W.W.W.W.W.W.R.R.R.R.E.W.E.E.W.E.W.W.W.W.",
"W.W.W.W.W.W.W.W.W.W.E.P.G.S.A.D.J.I.I.P.G.S.S.S.G.I.Y.W.W.W.W.R.W.R.R.R.W.R.W.R.W.W.W.W.W.W.W.W.R.W.W.R.R.R.E.W.W.W.W.R.E.W.E.W.W.",
"W.W.W.E.W.W.W.W.W.W.E.P.J.D.A.D.G.L.P.J.G.S.S.S.P.I.R.W.W.W.W.W.W.W.R.W.W.W.W.W.R.R.W.W.W.W.E.R.W.W.W.R.W.R.W.W.R.E.E.W.W.W.E.W.W.",
"W.W.E.W.E.W.W.W.W.T.Y.I.L.J.D.D.G.G.G.D.D.S.G.J.P.U.R.W.W.W.R.W.W.W.W.R.W.W.W.W.R.R.R.W.W.W.R.W.W.R.W.R.E.W.R.E.W.W.W.E.W.W.E.W.W.",
"W.W.W.W.E.W.W.W.R.T.T.T.I.P.L.D.S.S.A.A.G.G.P.U.Y.Y.Y.W.W.W.W.W.R.W.W.W.W.W.W.W.R.R.R.W.R.W.W.W.W.W.W.E.E.W.W.W.R.E.W.W.E.W.E.W.W.",
"W.W.W.E.W.E.W.W.W.W.W.E.Y.Y.I.J.G.A.Z.S.G.J.U.Y.Y.W.W.R.R.W.W.W.W.W.W.R.W.W.W.W.W.W.W.W.W.W.W.R.R.R.W.W.W.E.W.E.E.W.E.W.W.E.W.W.W.",
"W.W.W.W.E.W.W.W.R.R.W.W.W.T.Y.P.G.D.S.G.G.I.R.W.W.W.W.R.R.R.W.R.W.W.W.W.W.W.W.W.W.W.W.W.R.W.W.R.R.R.R.R.R.W.R.W.E.W.W.W.E.W.E.W.W.",
"E.W.W.W.W.R.R.R.R.R.W.W.W.W.W.T.K.K.G.J.P.Y.R.W.W.W.R.R.R.R.R.W.W.W.W.W.W.W.W.W.W.W.W.W.W.W.R.R.R.R.R.E.W.E.E.W.W.R.E.W.R.W.W.E.W.",
"W.W.E.E.E.W.R.R.R.R.W.W.W.W.R.T.U.H.P.P.U.T.W.W.W.W.W.R.R.R.R.W.W.W.W.W.W.W.W.W.W.W.W.W.W.W.R.R.R.R.R.W.E.W.W.E.E.W.W.W.W.E.W.W.W.",
"W.E.W.W.W.W.E.R.R.R.W.W.R.R.R.T.R.R.W.W.Y.R.R.R.W.W.W.R.R.R.E.E.W.R.R.R.R.R.W.W.R.R.W.Y.W.R.R.R.W.W.W.R.W.E.W.W.W.E.W.E.W.R.E.W.W.",
"W.W.E.W.W.T.W.R.W.R.R.R.R.R.R.R.W.W.W.W.R.R.R.R.W.W.W.W.W.R.E.Y.R.Y.Y.Y.U.R.R.R.Y.Y.Y.Y.R.R.R.R.W.R.W.E.W.W.E.W.W.R.W.R.E.W.E.W.W.",
"W.W.W.W.W.W.W.W.W.W.R.R.R.R.R.R.W.W.W.W.W.W.W.W.W.W.W.W.W.W.E.Y.I.P.P.P.U.Y.Y.Y.Y.P.P.U.U.U.R.R.W.W.W.W.E.W.E.E.E.W.W.E.W.E.W.W.W.",
"W.W.W.W.W.W.W.E.R.W.R.R.R.R.R.R.W.W.W.W.W.W.W.W.W.W.W.W.W.W.R.U.P.J.G.J.P.U.Y.U.P.J.G.G.J.U.Y.R.W.W.W.W.W.W.W.W.W.W.E.W.W.R.W.W.W.",
"W.W.W.W.W.W.W.W.W.W.W.W.R.W.R.W.W.W.W.W.W.W.W.W.W.W.W.W.W.W.E.P.J.F.A.G.J.I.U.U.J.G.S.S.G.P.R.R.W.W.W.W.W.E.W.W.W.E.E.W.E.W.W.W.W.",
"W.W.W.W.W.W.W.W.W.W.W.W.W.W.W.W.W.W.W.W.W.W.W.W.W.W.W.W.W.E.E.I.G.A.Z.F.J.I.U.I.P.G.Z.Z.G.P.R.W.W.W.W.W.W.W.W.W.W.W.W.W.W.W.W.W.W.",
"W.W.W.W.W.W.W.W.W.W.W.W.W.W.W.W.W.W.W.W.W.W.W.W.W.W.W.W.W.W.W.T.L.D.A.D.L.P.I.I.L.D.A.A.D.P.Y.T.W.W.W.W.W.W.W.W.W.W.W.W.W.W.W.W.W."
};
