/* XPM */
static char *result[] = {
/* columns rows colors chars-per-pixel */
"65 65 146 2 ",
"   c #5C4913",
".  c #5E4C1A",
"X  c #614E1B",
"o  c #64511D",
"O  c #69551C",
"+  c #6E591D",
"@  c #715B1E",
"#  c #5F4F2D",
"$  c #5E4F31",
"%  c #645532",
"&  c #685731",
"*  c #6A5935",
"=  c #6F5E39",
"-  c #766020",
";  c #7C6523",
":  c #7F6827",
">  c #7B662F",
",  c #7F6929",
"<  c #7F6A35",
"1  c #71613E",
"2  c #6C5D43",
"3  c #75654E",
"4  c #7E6F59",
"5  c #7F705B",
"6  c #776C6A",
"7  c #7D716E",
"8  c #7A7076",
"9  c #7F7478",
"0  c #826925",
"q  c #836C2B",
"w  c #8E7223",
"e  c #8A722D",
"r  c #927629",
"t  c #977A29",
"y  c #997C2A",
"u  c #816B36",
"i  c #816E3E",
"p  c #867030",
"a  c #8B7431",
"s  c #907731",
"d  c #8A7545",
"f  c #927A44",
"g  c #907A48",
"h  c #81715A",
"j  c #837566",
"k  c #8B7A67",
"l  c #87796E",
"z  c #8C7D6C",
"x  c #827674",
"c  c #867974",
"v  c #897C72",
"b  c #827779",
"n  c #847879",
"m  c #8B7E7B",
"M  c #9F812B",
"N  c #9E8233",
"B  c #A4852C",
"V  c #AA8A2D",
"C  c #A08434",
"Z  c #A78935",
"A  c #AB8D36",
"S  c #AA8B38",
"D  c #B08F30",
"F  c #B29133",
"G  c #BC9935",
"H  c #B49439",
"J  c #BC9B3C",
"K  c #C09D37",
"L  c #C19E38",
"P  c #C7A239",
"I  c #CBA53A",
"U  c #D5AD3B",
"Y  c #D7B03C",
"T  c #DAB23E",
"R  c #9E8A5E",
"E  c #B09343",
"W  c #B69844",
"Q  c #BB9E4D",
"!  c #B19753",
"~  c #B49A56",
"^  c #BCA04E",
"/  c #BDA158",
"(  c #918272",
")  c #C2A64A",
"_  c #C9A84B",
"`  c #DBB342",
"'  c #C7AA53",
"]  c #CAAE53",
"[  c #DEBC51",
"{  c #E1B944",
"}  c #EABF40",
"|  c #E3BD4A",
" . c #E0BE52",
".. c #EFC344",
"X. c #E7C14C",
"o. c #EEC44B",
"O. c #F2C646",
"+. c #EAC75B",
"@. c #F5CC50",
"#. c #F5D25F",
"$. c #DEC067",
"%. c #E1C166",
"&. c #E2C368",
"*. c #EDCF69",
"=. c #F3D361",
"-. c #FAD963",
";. c #F3D66D",
":. c #F5D96E",
">. c #FFE370",
",. c #8F8282",
"<. c #8D828C",
"1. c #92868C",
"2. c #8C849C",
"3. c #9A8F9C",
"4. c #9B919E",
"5. c #958DAB",
"6. c #9D92A3",
"7. c #9A92AE",
"8. c #8D89B7",
"9. c #8F8BB8",
"0. c #928DBB",
"q. c #9D95B3",
"w. c #9591BE",
"e. c #9D96BC",
"r. c #A095A5",
"t. c #A298B3",
"y. c #A69DBA",
"u. c #A9A0BF",
"i. c #9792C0",
"p. c #9B96C4",
"a. c #9E99C6",
"s. c #9F9AC8",
"d. c #A29DCB",
"f. c #ACA4C4",
"g. c #A6A1CE",
"h. c #ADA5CB",
"j. c #B0A8CD",
"k. c #A7A2D0",
"l. c #ABA5D3",
"z. c #AFA8D6",
"x. c #B0A9D6",
"c. c #B4ADDB",
"v. c #B7B0DE",
"b. c #B8B1DF",
"n. c #B7B0E0",
"m. c #B9B2E0",
/* pixels */
"m.m.m.m.m.m.m.m.m.m.m.m.m.m.m.m.m.m.n.m.m.m.n.m.m.m.m.m.m.m.m.m.m.m.c.z.d.p.p.p.d.l.c.b.m.m.m.m.m.m.m.m.m.m.m.m.m.m.m.m.m.m.m.m.m.",
"m.m.m.m.m.m.m.m.m.m.m.m.m.m.m.m.m.m.m.m.m.m.m.m.n.m.m.m.m.m.m.m.m.m.n.z.g.p.p.p.s.l.c.m.m.m.m.m.m.m.m.m.m.m.m.m.m.m.m.m.m.m.m.m.m.",
"m.m.m.m.m.m.m.m.m.n.m.m.n.m.m.m.m.n.n.m.m.m.m.m.m.n.n.m.m.m.m.m.m.m.m.c.g.s.p.s.g.l.c.b.m.m.m.m.m.m.m.m.m.m.m.m.m.m.m.m.m.m.m.m.m.",
"m.m.m.m.n.n.m.m.m.m.m.n.m.m.n.m.m.n.m.m.m.m.m.m.m.m.n.m.m.m.m.m.m.m.m.n.k.g.d.d.h.z.c.b.m.m.m.m.m.m.m.m.m.m.m.m.m.m.m.m.m.m.m.m.m.",
"m.m.m.m.m.n.m.n.m.n.n.m.n.n.m.n.b.m.n.n.m.b.m.m.n.m.m.n.m.m.m.m.m.n.c.c.z.l.l.l.z.c.b.b.m.b.b.b.m.m.m.m.m.m.m.m.m.m.m.m.m.m.m.m.m.",
"m.m.n.m.n.m.m.n.n.m.m.n.m.m.m.m.m.n.m.b.n.m.n.n.m.n.m.n.m.n.m.m.m.n.n.n.c.c.z.c.b.b.b.b.b.b.b.b.m.m.m.m.m.m.m.m.m.m.m.m.m.m.m.m.m.",
"m.m.m.n.m.n.n.n.m.m.m.m.m.m.n.m.n.m.v.m.m.b.m.m.m.n.m.m.m.m.n.n.m.n.n.n.m.m.m.m.b.b.b.b.b.b.b.b.m.m.m.m.m.m.m.m.m.m.m.m.m.m.m.m.m.",
"m.m.m.m.m.n.n.n.m.n.n.m.n.n.m.n.m.m.m.m.n.m.v.m.n.m.n.m.n.m.m.m.m.m.m.m.m.m.m.m.b.m.b.b.b.b.b.b.m.m.m.m.m.m.m.m.m.m.m.m.m.m.m.m.m.",
"m.m.m.m.b.m.m.m.n.m.m.m.m.n.m.m.b.m.m.m.m.b.b.m.n.m.b.m.m.b.b.b.n.b.m.m.m.m.m.m.m.m.m.m.b.b.b.b.m.b.m.b.m.m.m.b.m.m.m.m.m.m.m.m.m.",
"m.m.m.m.m.m.m.m.n.m.m.m.n.m.m.n.m.m.b.m.m.m.m.m.m.n.m.n.n.m.b.b.b.b.m.m.m.m.m.m.m.m.m.m.b.b.b.b.b.b.b.v.b.m.b.b.m.m.n.n.m.m.m.m.n.",
"m.m.m.m.m.m.m.m.m.m.m.m.m.m.m.m.m.m.b.b.b.b.m.m.b.m.n.m.m.n.n.b.b.v.m.b.m.m.m.b.m.b.m.b.b.b.b.b.b.v.v.c.b.b.v.b.m.n.c.c.c.c.n.m.m.",
"m.m.m.m.m.m.m.m.m.m.m.m.m.m.m.m.m.b.b.b.b.b.b.b.m.n.m.m.v.m.m.n.m.m.m.m.b.m.m.m.m.m.m.m.b.b.v.c.z.l.l.l.l.v.v.v.n.z.l.l.z.c.c.m.m.",
"m.m.m.m.m.m.m.m.m.b.b.m.m.m.m.m.b.b.b.b.b.b.v.m.v.m.m.n.m.n.m.m.b.m.m.m.v.m.n.m.m.b.m.m.m.m.b.x.l.h.d.g.k.c.v.c.z.k.k.k.k.l.c.n.m.",
"m.m.m.m.b.b.m.b.m.m.m.b.m.m.m.m.v.v.b.b.b.b.b.b.m.n.n.m.m.n.v.m.m.n.n.m.m.m.m.m.m.m.m.m.m.m.b.x.g.d.p.a.g.l.z.c.l.d.p.p.d.k.c.v.m.",
"b.b.m.b.v.x.c.v.b.b.v.v.v.z.n.v.v.v.b.b.m.m.m.m.m.v.m.b.n.m.m.n.m.m.m.b.n.m.n.v.m.m.b.m.m.m.m.c.g.s.p.a.d.g.l.k.g.d.p.p.k.k.c.c.m.",
"b.b.v.v.l.l.l.z.c.v.v.v.z.z.z.z.z.v.v.m.b.m.m.n.m.m.n.m.m.v.m.m.v.m.n.m.m.b.m.m.b.m.m.m.m.m.m.b.k.g.s.a.s.d.g.k.d.s.p.s.k.l.c.c.m.",
"v.v.c.l.k.d.k.k.z.c.c.c.l.k.d.k.l.z.b.b.b.m.m.b.n.m.m.m.m.n.v.m.v.m.m.m.m.b.b.m.m.m.m.m.m.b.b.b.z.l.g.s.s.a.a.a.a.s.d.g.z.z.v.v.m.",
"v.v.c.l.d.s.p.k.l.z.c.l.k.s.a.d.k.x.b.b.b.m.m.m.m.m.v.m.b.m.m.m.m.m.m.v.m.m.m.m.b.m.m.m.m.b.b.m.v.c.z.k.d.a.p.p.a.g.g.z.z.v.v.v.m.",
"c.v.c.l.d.p.p.s.g.l.l.k.d.a.a.s.k.x.v.b.m.m.b.m.v.m.m.m.m.m.v.n.m.m.m.m.m.b.b.m.b.b.m.m.m.m.m.m.m.m.c.z.g.d.p.p.s.k.z.v.m.m.m.m.m.",
"v.c.c.l.g.s.s.s.s.g.k.d.s.a.a.d.l.x.c.b.m.m.m.m.m.m.n.v.n.m.m.m.m.n.b.m.m.m.m.m.b.b.b.b.m.m.m.m.m.m.b.z.k.d.a.d.g.l.v.b.m.m.m.m.m.",
"v.v.v.c.l.k.d.s.s.s.s.s.s.s.k.h.j.c.b.m.m.m.m.m.m.b.m.m.m.m.m.m.v.n.m.n.b.b.b.m.b.b.b.b.b.b.m.m.m.m.m.b.c.h.g.g.j.v.m.m.m.m.m.m.m.",
"m.v.v.b.c.z.k.d.a.p.p.a.d.k.j.c.b.b.m.m.m.m.m.m.n.m.n.m.m.m.m.m.m.m.v.m.m.m.m.b.b.b.b.b.b.b.m.m.m.m.m.b.c.c.z.z.c.b.m.m.m.m.m.m.m.",
"m.m.m.m.v.v.z.k.s.a.p.s.g.l.v.v.b.b.m.m.m.m.m.m.v.v.b.b.v.b.m.m.m.m.m.m.m.m.m.b.b.b.b.b.b.b.m.m.m.m.m.m.v.v.v.v.v.b.m.m.m.m.m.m.m.",
"m.m.m.m.m.b.c.z.k.s.s.g.k.z.m.m.m.b.m.b.m.b.b.j.6.( j 7 7 ( 6.j.m.m.m.m.m.m.m.b.b.b.b.b.b.b.b.b.m.m.m.m.b.b.b.b.b.v.m.m.m.m.m.m.m.",
"m.m.m.m.m.m.m.c.l.k.k.k.j.v.m.m.m.m.m.m.m.v.v.u.( = o o o 1 ,.f.m.m.m.m.m.m.m.b.b.b.b.b.b.b.b.b.m.m.m.m.m.m.m.m.b.b.m.b.b.b.b.m.m.",
"m.m.m.m.m.m.m.v.z.z.z.z.c.b.m.m.m.m.m.m.v.v.j.4.l < : < < d ( 6.u.f.u.s.u.u.f.j.c.b.b.b.b.b.b.b.m.m.m.m.m.m.m.m.m.m.m.b.b.b.b.m.m.",
"m.m.m.m.m.m.b.b.v.v.c.v.b.b.m.m.m.m.m.m.v.v.3.( R N H ^ ' / R ( n 9 9 ( 9 ( <.q.x.b.b.v.b.b.b.m.m.m.m.m.m.m.b.m.m.m.b.b.b.b.m.m.m.",
"m.m.m.m.b.b.m.m.b.m.b.b.m.m.m.m.m.m.m.m.n.c.( < M K | #.;.$.! < % $ * * * * 3 1.j.m.b.v.b.b.b.b.m.m.m.m.m.m.m.b.b.b.b.m.m.m.m.m.m.",
"m.m.m.m.m.m.m.m.m.m.m.m.m.m.m.m.m.m.b.b.b.b.5 ; M U @.-.:.$.^ p @ + - ; > : < ( r.f.f.j.b.b.b.b.m.m.m.m.m.m.m.b.v.v.v.n.m.v.m.m.m.",
"m.m.m.m.m.m.m.m.m.m.m.m.m.m.m.m.b.m.b.b.b.b.( : D Y X.[ ] ^ E Z B B V H ^ ^ ! R ( ,.,.4.b.b.b.b.m.m.m.m.b.v.m.b.m.m.v.m.m.m.m.m.m.",
"m.m.m.m.m.m.m.m.m.m.m.m.m.m.m.m.b.b.b.b.m.m.( : D Y T H N e N G U U U ` +.*.$./ d 1 = 7 b.m.b.b.b.b.m.m.v.v.v.b.m.m.v.m.m.m.m.m.m.",
"m.m.m.m.m.m.m.m.m.m.m.b.m.m.m.m.b.b.b.b.b.m.5 , F Y U M o o M U ..} Y [ #.>.:.^ e o o R m.m.b.v.c.c.c.b.c.c.v.v.m.v.m.m.m.m.m.m.m.",
"m.m.m.n.n.b.m.m.n.b.n.b.b.m.b.m.n.m.m.m.m.m.j 0 F Y I w     y T O.T G J [ -.=.) e o o 5 m.m.m.b.x.g.g.l.l.x.v.b.m.m.m.m.m.m.m.m.m.",
"m.m.n.m.m.m.n.n.m.m.m.m.n.m.m.m.m.m.n.n.n.m.j 0 F T I t o o B T { G r r H X.X.J q o o 5 m.m.b.x.l.g.s.d.d.l.c.b.m.m.m.m.m.m.m.m.m.",
"m.m.m.n.m.n.v.m.m.n.n.m.m.m.m.b.v.m.m.m.m.m.j 0 F T T H e e S P P M O O r G P A u = = l m.m.m.z.d.p.e.i.s.g.x.b.m.m.m.m.m.m.m.m.m.",
"m.m.m.n.b.m.m.m.b.m.m.b.m.n.m.m.m.m.n.m.m.n.j 0 F T o. ._ Q W A t - X X ; t B f j c m 4.m.m.v.g.p.w.0.w.s.k.x.b.m.m.m.m.m.m.m.m.m.",
"m.m.m.m.m.n.m.n.m.m.b.n.m.b.m.b.n.m.n.m.m.m.j ; V Y @.-.;.%.Q s + . . X O @ > h <.q.y.h.c.z.k.p.w.9.9.0.p.g.z.b.m.m.m.m.m.m.m.m.m.",
"m.m.m.m.b.m.b.m.n.m.m.m.m.m.m.m.m.b.v.m.n.m.v < N L | =.:.&.~ i # # * * * & 2 b 7.l.z.c.z.l.s.i.9.8.9.w.s.k.c.b.m.m.m.n.m.m.m.m.m.",
"n.m.m.m.m.n.m.m.b.m.b.n.m.b.m.m.m.b.m.m.n.m.4.k g C J ) ] / R z c x c x 7 6 8 2.p.l.z.z.l.d.i.9.8.9.0.i.d.k.c.b.m.m.m.m.m.m.m.m.m.",
"n.m.n.m.m.n.b.n.m.n.m.m.b.b.m.m.n.m.n.m.m.m.f.4.k < q e a d ( r.u.y.y.t.7.5.5.e.g.z.c.z.g.p.w.8.8.9.i.s.g.z.c.m.m.m.m.m.n.m.m.m.m.",
"n.m.m.n.m.n.m.n.b.m.m.m.m.b.m.m.m.m.m.m.m.m.m.y.( = o o o 2 ,.f.b.m.m.b.x.j.g.l.z.x.c.z.d.i.0.9.0.0.a.h.x.c.m.m.m.m.m.m.m.m.m.m.m.",
"m.m.m.n.n.m.m.m.b.b.m.b.m.m.m.m.m.c.m.m.b.m.m.f.4.z 4 4 h v 4.j.m.m.b.b.c.c.x.c.c.v.c.l.d.i.w.9.w.d.d.x.c.b.m.m.m.m.m.m.m.m.m.m.m.",
"m.m.m.m.m.n.n.m.b.b.b.m.m.m.m.m.m.m.m.m.m.m.m.m.m.m.b.b.b.b.n.m.m.m.b.b.m.m.m.m.b.b.c.z.g.e.w.w.d.d.x.c.b.b.m.m.m.m.m.m.m.m.m.m.m.",
"m.m.m.m.n.m.m.n.b.b.b.m.m.m.m.m.m.m.m.m.m.m.m.m.m.m.b.b.b.b.b.b.b.b.b.b.m.m.m.m.m.m.c.z.g.d.s.s.d.l.b.m.m.m.m.m.m.m.m.m.m.m.m.m.m.",
"m.m.m.m.m.m.m.m.b.b.b.b.m.m.m.b.m.b.b.b.m.m.m.m.m.m.b.b.m.m.m.m.b.b.b.m.m.m.m.m.m.m.b.x.z.g.g.g.l.c.b.b.m.m.m.m.b.b.m.n.m.m.m.m.m.",
"m.m.n.n.m.n.m.m.b.b.b.b.m.m.m.b.m.b.b.b.m.m.m.m.b.b.b.b.m.m.m.m.b.b.m.m.m.m.m.m.m.m.b.b.x.x.z.l.c.c.b.m.m.m.m.m.b.b.m.m.m.m.m.m.m.",
"m.m.m.m.n.m.n.m.b.b.b.b.m.b.c.b.b.b.b.b.b.b.m.b.b.b.b.m.m.m.m.m.b.b.m.m.m.m.m.m.m.m.m.b.v.v.v.v.b.b.b.m.b.m.m.b.b.b.m.n.n.m.m.m.m.",
"m.m.n.m.m.m.m.m.b.b.c.c.c.c.x.c.b.b.b.c.c.c.x.c.j.b.b.m.m.m.m.m.b.m.m.b.m.m.b.b.m.m.m.m.b.b.v.v.b.m.m.b.b.b.b.n.m.n.n.m.m.m.m.m.m.",
"m.m.m.m.m.m.m.m.m.m.n.z.l.k.k.l.c.c.b.c.x.k.g.k.l.x.n.m.m.m.m.m.m.b.b.b.m.b.b.b.m.m.m.m.m.m.m.m.b.m.b.b.b.b.b.n.m.b.n.m.m.m.m.m.m.",
"m.m.m.m.m.m.m.m.m.m.c.l.g.s.s.k.l.x.c.x.l.d.d.d.k.x.c.m.m.m.m.m.m.m.m.b.m.m.b.b.m.m.m.m.m.m.m.m.m.m.m.b.b.b.b.m.m.n.b.m.b.n.n.m.m.",
"m.m.n.m.m.m.m.m.m.m.m.l.d.p.p.d.g.x.x.l.d.d.p.a.g.l.b.m.m.m.b.m.m.b.b.b.m.b.m.m.b.b.m.m.m.m.m.m.b.m.m.b.b.b.m.n.m.b.n.n.m.m.m.m.m.",
"n.m.m.n.m.m.m.m.m.m.n.l.d.s.p.s.d.k.k.d.d.d.a.a.k.x.c.m.m.m.m.m.m.m.b.b.b.m.m.m.b.b.m.m.m.m.b.m.m.m.b.m.m.n.b.m.n.m.m.m.n.n.m.m.m.",
"m.m.m.n.n.m.m.m.m.m.c.x.l.d.d.s.s.d.d.d.s.d.d.g.l.x.c.m.m.m.b.m.m.m.m.b.m.m.m.m.b.b.m.m.m.m.m.m.m.m.b.m.m.m.b.n.m.n.m.b.m.m.n.m.m.",
"m.n.m.m.m.n.m.m.m.m.n.c.z.l.k.d.s.a.p.p.s.g.g.l.x.c.b.m.m.m.m.m.b.m.m.m.m.m.m.m.b.m.b.m.b.m.b.m.m.b.m.m.n.b.m.m.b.m.n.m.n.m.m.m.m.",
"m.m.n.m.n.n.m.m.m.m.m.m.c.c.l.k.d.p.p.p.d.g.x.v.m.m.m.b.m.m.m.m.m.m.b.m.m.m.m.m.m.m.m.m.b.m.b.b.b.b.m.b.m.m.b.n.m.n.m.n.n.m.m.m.m.",
"m.m.m.n.m.m.m.m.b.b.m.m.m.m.x.l.d.s.p.d.g.z.b.m.m.m.m.m.b.b.m.b.m.m.m.m.m.m.m.m.m.m.m.m.m.m.m.b.b.b.b.m.n.m.n.m.b.m.n.m.m.n.m.m.m.",
"m.m.m.n.v.m.b.b.b.b.m.m.m.m.m.v.j.h.d.g.l.c.m.m.m.m.m.b.b.b.b.b.m.m.m.m.m.m.m.m.m.m.m.m.m.m.b.b.b.b.b.m.m.n.m.n.n.m.n.m.m.m.n.m.m.",
"m.m.m.m.m.m.b.b.b.b.m.m.m.m.b.v.j.j.k.l.x.c.m.m.m.m.m.b.b.b.b.b.m.m.m.m.m.m.m.m.b.b.m.m.m.m.b.b.b.b.b.m.m.m.n.m.n.m.m.n.b.n.m.m.m.",
"m.n.m.n.n.m.n.b.b.b.m.m.b.b.b.v.b.b.m.m.c.m.m.m.m.m.b.b.b.b.v.v.m.b.b.b.v.v.m.b.b.b.v.b.m.b.b.b.b.m.m.n.n.m.n.m.m.m.m.b.m.b.m.m.m.",
"m.m.v.m.m.n.m.m.m.m.v.b.b.b.b.b.m.m.m.m.m.m.m.b.m.m.m.m.b.b.b.b.b.c.c.c.c.b.b.b.c.c.c.c.b.b.b.b.m.m.b.m.m.n.m.n.b.n.n.m.n.m.n.m.m.",
"m.m.m.m.m.m.m.v.m.m.b.b.b.b.b.b.m.m.m.m.m.m.m.m.m.m.m.m.m.m.b.c.x.x.l.l.x.c.c.c.x.z.l.l.x.x.b.b.m.m.m.m.n.m.m.m.m.m.n.m.m.b.m.m.m.",
"m.m.m.m.m.m.m.m.b.m.b.b.b.b.b.b.m.m.m.m.m.m.m.m.m.m.m.m.m.m.b.x.l.d.d.d.l.x.c.x.l.g.d.g.g.z.v.b.m.m.m.m.m.m.n.m.n.n.m.m.n.m.m.m.m.",
"m.m.m.m.m.m.m.m.m.m.m.m.b.m.b.m.m.m.m.m.m.m.m.m.m.m.m.m.m.m.c.l.d.d.i.d.d.x.c.x.g.d.p.p.g.l.c.b.m.m.b.m.m.n.m.m.m.n.m.n.m.m.m.m.m.",
"m.m.m.m.m.m.m.m.m.m.m.m.m.m.m.m.m.m.m.m.m.m.m.m.m.m.m.m.m.m.v.l.d.d.d.d.d.l.x.x.g.d.p.p.d.l.b.m.m.m.m.m.m.m.m.m.m.m.m.m.m.m.m.m.m.",
"m.m.m.m.m.m.m.m.m.m.m.m.m.m.m.m.m.m.m.m.m.m.m.m.m.m.m.m.m.m.m.n.k.a.p.a.k.l.z.z.k.s.p.p.s.l.c.m.m.m.m.m.m.m.m.m.m.m.m.m.m.m.m.m.m."
};
