/* XPM */
static char *result[] = {
/* columns rows colors chars-per-pixel */
"65 65 154 2 ",
"   c #54420E",
".  c #53441C",
"X  c #614D16",
"o  c #64511D",
"O  c #69551E",
"+  c #6F5A1F",
"@  c #5C4F3A",
"#  c #5F5031",
"$  c #685421",
"%  c #62522F",
"&  c #745E21",
"*  c #645535",
"=  c #6B5A35",
"-  c #6D5D39",
";  c #776123",
":  c #7B6423",
">  c #7C662B",
",  c #7E682B",
"<  c #796637",
"1  c #7E6A30",
"2  c #736344",
"3  c #75664A",
"4  c #79694D",
"5  c #766856",
"6  c #7E6E59",
"7  c #776B65",
"8  c #7F736E",
"9  c #7F7577",
"0  c #876C1D",
"q  c #846B25",
"w  c #836D2D",
"e  c #8F7322",
"r  c #8A722D",
"t  c #907526",
"y  c #826D33",
"u  c #826D3E",
"i  c #867132",
"p  c #8A7333",
"a  c #947A32",
"s  c #997F34",
"d  c #867243",
"f  c #8F7A4F",
"g  c #907A44",
"h  c #86755C",
"j  c #837566",
"k  c #887861",
"l  c #86786D",
"z  c #8B7C6C",
"x  c #837772",
"c  c #857875",
"v  c #8A7C73",
"b  c #82767A",
"n  c #857979",
"m  c #9C823B",
"M  c #A2842F",
"N  c #AF8E2F",
"B  c #B08F2F",
"V  c #A18433",
"C  c #AC8D33",
"Z  c #AE9038",
"A  c #B69533",
"S  c #B99735",
"D  c #BB9837",
"F  c #B3933B",
"G  c #C09D36",
"H  c #C19E3D",
"J  c #C8A237",
"K  c #C5A23A",
"L  c #CAA439",
"P  c #D6AF3E",
"I  c #DCB33F",
"U  c #96825B",
"Y  c #A78E4D",
"T  c #AC8E48",
"R  c #AD924D",
"E  c #B5984D",
"W  c #BA9D4D",
"Q  c #BEA04C",
"!  c #BEA554",
"~  c #8F8074",
"^  c #8E817E",
"/  c #918173",
"(  c #C3A44D",
")  c #D9B242",
"_  c #DCB64A",
"`  c #C4A753",
"'  c #C4A856",
"]  c #CCAC53",
"[  c #C4AB59",
"{  c #C3B05B",
"}  c #CDB25D",
"|  c #E0B740",
" . c #E8BD42",
".. c #E2BA4A",
"X. c #E2BC52",
"o. c #D5B660",
"O. c #D8B961",
"+. c #EBC148",
"@. c #F5CA4E",
"#. c #E7C151",
"$. c #E8C35A",
"%. c #EEC85C",
"&. c #F7CC50",
"*. c #F4CE5D",
"=. c #F8D25E",
"-. c #EECB66",
";. c #ECCD6C",
":. c #F1CF69",
">. c #F3D26C",
",. c #E7D171",
"<. c #EDD572",
"1. c #EFDE78",
"2. c #F2D573",
"3. c #F4DA76",
"4. c #FCDD72",
"5. c #FFE173",
"6. c #F8E57C",
"7. c #928587",
"8. c #91868E",
"9. c #958A94",
"0. c #998E9B",
"q. c #9B909B",
"w. c #8C85A5",
"e. c #9189A5",
"r. c #9F94A5",
"t. c #9B92AD",
"y. c #8D89B7",
"u. c #8F8BB8",
"i. c #918DBB",
"p. c #9591BE",
"a. c #A195A4",
"s. c #A59BB6",
"d. c #A69EBC",
"f. c #A89FBE",
"g. c #A9A0BE",
"h. c #FDEC81",
"j. c #9792C0",
"k. c #9B96C4",
"l. c #9E99C6",
"z. c #9F9AC8",
"x. c #A29DCB",
"c. c #ACA4C5",
"v. c #A6A1CE",
"b. c #ADA5CB",
"n. c #B1A9CE",
"m. c #A7A2D0",
"M. c #ABA5D3",
"N. c #AFA8D6",
"B. c #B1A9D6",
"V. c #B4ADDB",
"C. c #B7B0DE",
"Z. c #B8B1DF",
"A. c #B7B0E0",
"S. c #B8B2E0",
/* pixels */
"S.S.S.S.S.S.S.S.S.S.S.S.S.S.S.S.S.S.S.S.S.S.A.A.A.S.S.S.S.S.S.S.S.S.A.M.x.k.k.k.x.M.V.S.S.S.S.S.S.S.S.S.S.S.S.S.S.S.S.S.S.S.S.S.S.",
"S.S.S.S.S.S.S.S.S.S.S.S.S.S.S.S.S.S.S.S.S.S.S.S.S.S.S.S.S.S.S.S.S.S.A.N.v.l.k.k.x.M.V.A.S.S.S.S.S.S.S.S.S.S.S.S.S.S.S.S.S.S.S.S.S.",
"S.S.S.S.S.S.S.S.S.S.A.A.S.S.S.S.A.S.S.A.S.S.S.S.S.S.S.S.S.S.S.S.S.S.S.V.v.z.k.l.x.B.V.Z.S.S.S.S.S.S.S.S.S.S.S.S.S.S.S.S.S.S.S.S.S.",
"S.S.S.S.A.S.S.A.A.S.S.S.A.A.S.S.S.S.A.S.S.S.S.A.S.S.S.A.S.S.S.S.S.S.S.S.M.v.x.x.x.B.C.Z.S.S.S.S.S.S.S.S.S.S.S.S.S.S.S.S.S.S.S.S.S.",
"S.S.S.S.S.A.S.S.A.S.S.A.S.S.A.S.S.A.S.Z.S.A.A.S.A.A.A.S.S.A.S.S.S.S.C.V.N.M.M.M.n.V.C.C.S.S.S.Z.S.S.S.S.S.S.S.S.S.S.S.S.S.S.S.S.S.",
"S.S.A.S.S.S.A.A.S.S.A.S.A.S.S.A.Z.S.A.S.S.Z.S.S.S.A.S.A.A.S.S.S.S.A.C.C.V.V.V.V.V.C.C.C.S.S.S.Z.S.S.S.S.S.S.S.S.S.S.S.S.S.S.S.S.S.",
"S.S.S.A.A.S.A.A.A.S.A.S.S.A.A.S.S.A.Z.S.Z.A.Z.A.A.A.S.S.S.S.A.A.S.S.A.A.A.A.V.A.Z.Z.Z.Z.S.S.Z.Z.S.S.S.S.S.S.S.S.S.S.S.S.S.S.S.S.S.",
"S.S.S.S.S.A.A.A.A.S.S.A.S.S.A.S.A.S.A.S.A.S.S.A.S.S.A.S.S.A.S.S.S.C.A.S.S.S.S.S.S.S.Z.Z.Z.S.Z.Z.S.S.S.S.S.S.S.S.S.S.S.S.S.S.S.S.S.",
"S.S.S.S.S.S.S.S.S.A.S.A.S.S.S.A.S.Z.S.S.S.S.S.S.S.A.S.A.C.S.Z.Z.Z.Z.S.S.S.S.S.S.S.S.S.S.Z.Z.Z.Z.S.S.S.S.S.S.S.S.S.S.S.S.S.S.S.S.S.",
"S.S.S.S.Z.S.S.S.S.S.S.S.S.A.S.S.S.S.S.Z.S.Z.A.Z.S.S.Z.S.S.S.Z.Z.Z.Z.Z.S.S.S.S.S.S.S.S.S.Z.Z.Z.Z.S.S.S.Z.Z.Z.S.S.S.S.A.A.S.S.S.S.S.",
"S.S.S.S.S.S.S.S.S.S.S.S.S.S.S.S.S.S.S.Z.Z.Z.S.S.C.S.S.S.S.S.S.C.Z.Z.S.S.Z.S.S.S.S.S.S.S.Z.Z.C.C.Z.V.V.V.V.Z.S.Z.S.A.V.V.V.V.A.S.S.",
"S.S.S.S.S.S.S.S.S.S.S.S.S.S.S.S.S.Z.S.Z.Z.Z.Z.A.S.S.C.S.S.A.A.S.S.S.S.Z.S.S.S.A.S.S.S.S.Z.Z.Z.V.B.M.M.M.B.V.C.A.A.V.M.M.N.V.V.A.S.",
"S.S.S.S.S.S.S.S.S.S.S.S.S.S.S.S.S.Z.S.Z.Z.Z.Z.S.A.C.S.S.S.S.C.S.C.S.S.S.S.A.A.S.S.S.S.S.S.S.Z.V.M.v.x.v.M.B.V.V.N.M.x.x.m.M.V.A.A.",
"S.S.S.S.Z.C.Z.Z.S.S.Z.C.S.S.S.S.Z.Z.Z.Z.Z.Z.Z.S.S.S.S.A.A.S.S.A.S.S.C.S.S.S.S.S.S.S.S.S.S.S.Z.n.v.x.k.x.m.M.V.B.M.x.z.z.x.m.V.C.S.",
"Z.Z.S.Z.V.V.V.C.C.Z.C.C.C.V.A.C.Z.V.Z.Z.S.A.S.C.S.A.S.C.S.A.A.S.A.C.S.S.V.S.S.A.Z.Z.S.S.S.S.S.V.v.x.k.l.x.m.N.M.m.z.k.k.x.m.B.C.S.",
"Z.Z.Z.C.M.M.M.N.V.C.C.C.N.M.N.N.B.V.C.Z.S.S.S.Z.S.S.S.S.C.S.S.A.S.S.S.A.S.S.S.S.Z.Z.S.S.S.S.S.Z.v.x.l.x.z.x.x.x.x.z.l.z.v.M.V.C.S.",
"C.C.V.M.M.x.x.M.N.V.V.V.M.v.v.v.M.B.Z.Z.Z.S.S.S.A.S.A.C.S.A.S.S.A.S.S.S.S.C.S.Z.S.S.S.S.Z.Z.Z.C.B.M.v.x.z.l.l.l.l.x.x.v.N.N.V.C.S.",
"C.C.V.M.x.l.x.x.N.N.N.N.m.z.l.z.v.N.Z.Z.S.S.S.Z.S.S.S.S.S.S.C.S.S.S.A.C.S.S.S.S.Z.S.Z.S.Z.Z.Z.Z.V.V.N.v.x.l.k.k.l.x.m.N.V.C.C.Z.S.",
"C.V.V.M.x.l.k.x.m.M.N.m.x.k.k.z.m.N.V.Z.S.S.S.S.S.C.Z.S.A.S.A.A.C.S.S.S.S.A.S.S.S.S.S.Z.Z.S.S.S.S.Z.V.M.v.z.k.k.x.v.N.C.S.S.Z.S.S.",
"V.C.V.M.x.z.l.l.z.x.v.x.z.z.z.v.m.V.V.Z.S.S.S.Z.S.A.S.A.S.C.S.S.S.A.A.S.Z.S.Z.S.Z.S.Z.Z.Z.Z.S.S.S.S.C.V.v.v.z.x.v.M.V.Z.S.S.S.S.S.",
"C.C.V.V.M.m.x.x.z.z.z.z.z.z.m.n.n.C.S.S.S.S.S.S.S.S.C.S.S.S.S.S.S.C.S.S.Z.S.S.S.S.Z.Z.Z.Z.Z.Z.S.S.S.S.Z.V.b.v.v.N.V.S.S.S.S.S.S.S.",
"S.S.S.S.V.M.M.x.z.k.k.k.z.m.M.B.C.S.S.S.S.S.S.S.A.S.S.S.S.C.S.S.A.S.S.A.S.Z.S.Z.S.S.Z.Z.Z.Z.S.S.S.S.Z.Z.V.V.N.N.V.Z.S.S.S.S.S.S.S.",
"S.S.S.S.S.V.M.M.z.l.k.z.m.n.C.Z.Z.Z.S.S.S.S.S.S.S.Z.S.Z.C.Z.C.S.S.S.S.S.Z.Z.Z.C.C.C.S.Z.Z.Z.Z.Z.S.S.S.S.C.C.C.C.C.C.S.S.S.S.S.S.S.",
"S.S.S.S.S.S.V.M.m.z.z.x.M.N.S.S.S.Z.S.S.S.S.S.S.A.S.Z.Z.Z.Z.S.S.n.r.^ j j j j h 8 ~ q.n.Z.Z.Z.Z.S.S.S.S.Z.Z.Z.Z.Z.Z.S.S.S.S.S.S.S.",
"S.S.S.S.S.S.S.N.M.m.m.m.B.C.S.S.S.S.S.S.C.C.C.C.S.S.C.C.A.S.S.S.c.7.2 o o o o o o = ~ g.C.C.Z.Z.S.S.S.S.S.S.S.S.Z.Z.S.Z.Z.Z.Z.S.S.",
"S.S.S.S.S.S.S.C.N.N.N.N.n.Z.S.S.S.S.S.n.d.d.g.d.g.d.d.g.d.d.d.g.r.~ d , i i i q , , h q.g.g.c.Z.S.S.S.S.S.S.S.S.Z.Z.S.Z.Z.Z.Z.S.S.",
"S.S.S.S.S.S.S.S.C.C.C.C.S.S.S.S.Z.Z.S.q.^ ^ n n n n n n n b 9 b z U Y ! { { ` Q F M p / ^ ^ 9.Z.S.S.S.S.S.S.S.S.Z.Z.Z.Z.Z.Z.S.S.S.",
"S.S.S.S.S.S.S.S.C.S.S.C.S.S.Z.S.Z.Z.Z./ - - - = * = = = = * # * 4 T o.<.1.3.:.%...L m i = = 8 Z.S.S.S.S.S.S.S.Z.Z.Z.Z.Z.S.S.S.S.S.",
"S.S.S.S.S.S.S.S.S.S.S.S.S.S.S.S.Z.Z.Z.6 + + + : 1 1 w w i , & & a ` >.6.6.5.>.*.&.I N : o o 4 Z.S.S.S.S.S.Z.S.Z.Z.Z.Z.S.S.S.Z.S.S.",
"S.S.S.S.S.S.S.S.S.S.S.S.S.S.S.S.Z.Z.Z.6 & : M Z H ! ' [ ` Q Z C H $.5.6.,.} ` _ +.I A q o O 4 Z.S.S.S.S.Z.C.Z.Z.Z.Z.Z.S.S.S.S.S.S.",
"S.S.S.S.S.S.S.S.S.S.S.S.S.S.S.S.Z.Z.Z.6 : M G | $.>.3.3.2.-.X.) _ =.4.<.! Y r B I I A q o o 4 Z.Z.Z.S.S.C.C.C.Z.Z.S.S.Z.S.S.S.S.S.",
"S.S.S.S.S.S.S.S.S.S.S.S.S.S.S.S.Z.Z.Z.6 : N I @.=.>.<.<.2.-.X.) _ =.4.;.Y ; X e L I S q o o 4 Z.V.Z.n.Z.V.V.C.Z.S.S.S.S.S.S.S.S.S.",
"S.S.S.S.S.S.A.Z.S.A.S.A.C.S.S.Z.A.S.A.6 q S  .@.#.] ! ! ' W F C K $.4.;.T $   0 J I D q O o 4 V.N.M.v.v.M.N.V.Z.Z.Z.S.S.S.S.S.S.S.",
"S.S.A.A.Z.A.S.S.A.S.Z.S.S.S.A.S.S.C.S.6 q S |  .K s y > y w ; ; m ] >.;.E ;   e J I S q o o 3 V.M.v.z.z.v.M.V.Z.S.S.S.S.S.S.S.S.S.",
"S.S.A.S.A.S.A.S.S.Z.S.A.S.A.S.S.A.S.A.6 q M L H m < * * = % . . > Q ,.3.} m r Z P I S q o o 3 M.x.k.k.k.x.v.V.Z.S.S.S.S.S.S.S.S.S.",
"S.S.S.Z.S.A.S.A.A.S.Z.S.A.S.Z.S.A.S.A.h & t M m f l b b b 7 @ . > Q <.6.<.} ( _ +._ A q o o 3 v.k.p.u.p.k.v.N.Z.S.S.S.S.S.S.S.S.S.",
"S.S.S.S.A.S.S.Z.S.Z.S.A.Z.S.S.S.S.S.A.h O & ; u v a.g.f.g.q.7 % > W ;.h.h.3.>.*.@.I B q o o 3 k.p.u.y.p.k.v.N.Z.S.S.S.S.S.S.S.S.S.",
"S.S.S.S.Z.S.A.S.A.S.A.S.S.S.Z.S.C.S.A.j = = = 6 9.n.S.S.S.n.7.4 u R O.3.1.1.>.*...L V 1 = = 5 j.u.y.y.p.l.v.V.Z.S.S.S.S.S.S.S.S.S.",
"S.A.S.S.S.A.S.A.S.A.S.Z.Z.S.Z.S.A.A.A.0.v b c 8.s.V.S.S.S.n.s.9.~ U R ! [ } ] ( F V g k x 8 9 i.y.u.i.k.z.M.V.Z.S.S.S.S.S.S.S.S.S.",
"A.S.A.S.S.A.Z.S.Z.S.A.S.S.S.S.S.S.A.A.c.d.d.d.c.n.V.Z.Z.S.Z.n.g.a./ d i p p p w q 1 h 8.t.e.w.u.y.u.p.z.v.N.V.C.S.S.S.S.S.S.S.S.S.",
"S.S.S.S.S.A.S.A.S.Z.S.Z.S.S.S.S.A.S.S.S.Z.S.Z.S.Z.Z.Z.Z.Z.Z.S.S.c.7.2 O O o o o o = l t.z.p.p.u.i.p.x.x.B.V.S.S.S.S.S.S.S.S.S.S.S.",
"S.S.S.S.A.A.S.S.Z.Z.S.S.Z.S.S.S.A.S.Z.S.S.S.S.A.Z.S.Z.Z.Z.Z.S.S.n.q.v 6 6 h 6 6 6 j 9.s.v.k.i.u.i.x.x.n.V.Z.S.S.S.S.S.S.S.S.S.S.S.",
"S.S.S.A.S.A.A.S.Z.Z.Z.Z.S.S.S.S.S.S.S.S.S.S.S.Z.S.S.Z.Z.Z.Z.Z.S.Z.S.Z.Z.S.Z.S.S.C.C.V.N.v.p.p.p.x.x.B.C.Z.Z.S.S.S.S.S.S.S.S.S.S.S.",
"S.S.S.A.A.S.S.A.Z.Z.Z.Z.S.S.S.S.Z.S.Z.S.S.S.S.S.S.S.Z.Z.Z.Z.Z.Z.Z.Z.S.S.S.S.S.S.S.S.C.N.v.v.z.z.x.M.Z.S.S.Z.S.S.S.S.S.S.S.S.S.S.S.",
"S.A.S.A.S.S.S.S.Z.Z.Z.Z.S.S.S.Z.S.S.S.Z.S.S.S.S.S.S.Z.Z.S.S.S.S.Z.Z.S.S.S.S.S.S.S.S.Z.B.N.v.v.v.M.B.C.S.S.S.S.S.Z.Z.A.S.S.S.S.S.S.",
"S.S.S.S.S.A.S.S.Z.Z.Z.Z.S.S.S.Z.S.Z.S.Z.S.S.S.S.Z.Z.Z.Z.S.S.S.S.Z.Z.S.Z.S.S.S.S.S.S.Z.C.B.N.M.M.V.C.S.S.S.S.S.S.Z.Z.Z.A.S.S.S.S.S.",
"A.A.S.S.S.S.S.S.Z.Z.Z.Z.S.Z.C.C.Z.Z.Z.Z.Z.V.S.S.Z.Z.Z.S.S.Z.S.S.Z.Z.S.S.S.S.S.S.S.S.S.Z.C.C.C.C.C.Z.S.S.S.Z.S.Z.Z.Z.S.S.S.S.S.S.S.",
"S.S.S.S.S.S.S.S.Z.Z.C.V.C.B.V.n.Z.Z.Z.V.V.V.V.V.V.V.Z.S.S.S.S.S.S.S.Z.S.S.S.Z.Z.S.S.S.S.Z.Z.C.Z.Z.S.S.S.Z.Z.Z.A.S.S.A.S.A.S.S.S.S.",
"S.S.S.S.S.S.S.S.S.S.V.V.M.m.m.M.B.V.A.V.B.M.v.M.M.B.A.A.S.S.S.S.Z.S.Z.Z.S.Z.Z.Z.S.S.S.S.S.S.S.S.S.S.S.Z.Z.Z.Z.A.S.S.S.S.S.S.C.S.S.",
"S.S.S.A.S.S.S.S.S.S.V.M.v.z.z.v.N.B.V.B.M.x.x.x.M.N.V.S.S.S.S.S.S.S.S.Z.S.S.Z.Z.S.S.S.S.S.S.S.S.S.Z.S.Z.Z.Z.Z.S.S.C.C.S.A.S.S.S.S.",
"S.S.A.S.S.S.S.S.S.S.A.M.x.l.k.x.m.B.B.M.x.l.l.l.v.N.V.S.S.S.S.S.S.S.Z.Z.S.Z.Z.Z.S.S.S.S.S.S.S.Z.S.S.Z.Z.Z.Z.S.A.S.S.Z.S.A.S.A.S.S.",
"S.S.A.S.S.S.S.S.S.S.V.N.v.l.k.z.x.m.m.x.x.l.l.l.v.B.V.S.S.S.S.Z.S.Z.Z.Z.Z.S.Z.Z.S.S.S.S.S.S.S.S.S.Z.S.S.S.C.S.S.S.A.S.A.S.S.A.S.S.",
"S.S.A.S.S.A.S.S.S.S.V.N.M.x.z.l.x.x.z.x.x.x.x.x.M.B.V.S.S.S.S.S.S.S.S.Z.S.S.S.Z.S.S.S.Z.S.Z.S.Z.Z.S.S.S.S.C.S.S.S.A.A.S.S.S.A.S.S.",
"S.S.S.S.S.S.S.S.S.S.V.V.N.M.v.x.x.k.k.k.x.x.m.B.N.A.C.S.S.S.S.Z.Z.S.A.S.S.S.S.S.S.S.Z.S.S.S.S.S.S.S.Z.S.S.S.C.S.S.S.S.S.A.S.A.S.S.",
"S.S.S.A.A.A.S.S.S.S.S.A.V.V.N.v.x.k.k.k.x.v.B.V.A.A.S.Z.S.S.S.S.S.S.S.S.S.S.S.S.S.S.S.S.S.Z.S.Z.Z.Z.Z.S.A.S.Z.S.C.S.S.A.S.A.S.S.S.",
"S.S.S.S.S.S.S.A.S.S.S.S.S.A.V.M.x.z.k.x.v.M.Z.S.S.S.S.S.Z.Z.S.S.S.S.S.S.S.S.S.S.S.S.S.S.S.Z.S.Z.Z.Z.Z.S.S.A.S.A.S.S.S.A.S.S.S.A.S.",
"S.S.S.S.C.S.Z.Z.S.Z.S.S.S.S.S.V.n.x.x.v.M.V.S.S.S.S.S.Z.Z.Z.Z.A.S.S.S.S.S.S.S.S.S.S.S.S.S.S.S.Z.Z.Z.Z.S.A.S.S.S.A.S.S.S.S.A.S.S.S.",
"S.S.A.S.S.S.Z.Z.Z.Z.S.S.S.S.Z.C.n.n.n.M.B.V.S.S.S.S.S.Z.Z.Z.Z.A.S.S.Z.Z.S.S.S.Z.S.S.S.S.S.S.Z.Z.Z.Z.Z.A.S.S.A.A.S.Z.C.S.A.S.A.S.S.",
"S.S.S.C.A.S.S.C.Z.Z.S.Z.Z.Z.Z.C.Z.Z.S.S.A.A.S.S.S.S.S.Z.Z.Z.Z.Z.S.Z.Z.Z.Z.Z.Z.Z.A.C.A.A.S.Z.Z.Z.S.C.S.S.S.S.S.S.A.C.S.S.S.C.S.S.S.",
"S.S.A.S.S.A.A.S.S.S.Z.Z.Z.Z.Z.Z.S.S.S.S.A.A.S.Z.S.S.Z.S.S.Z.Z.Z.Z.Z.B.Z.V.Z.Z.Z.V.V.V.V.Z.Z.Z.Z.S.S.A.S.S.A.A.S.S.S.S.A.S.S.S.A.S.",
"S.S.S.S.S.S.A.S.S.S.Z.Z.Z.Z.Z.S.S.S.S.S.S.S.S.S.S.Z.S.S.S.S.S.V.B.B.v.M.B.V.V.V.B.B.M.M.M.V.Z.Z.S.S.S.S.S.A.S.S.S.A.A.S.S.Z.S.S.S.",
"S.S.S.S.S.S.S.A.S.S.Z.Z.Z.Z.S.S.S.S.S.S.S.S.S.S.Z.Z.S.S.S.S.A.B.M.x.x.x.M.B.V.B.B.x.x.x.m.n.C.Z.S.S.S.S.S.A.S.A.S.S.S.S.A.S.S.S.S.",
"S.S.S.S.S.S.S.S.Z.S.S.S.Z.S.Z.S.S.S.S.S.S.S.S.S.S.S.S.S.S.S.V.M.x.x.x.x.v.N.B.B.M.x.x.k.x.M.C.Z.S.S.S.S.A.S.A.S.A.S.S.A.S.A.S.S.S.",
"S.S.S.S.S.S.S.S.S.S.S.S.S.S.S.S.S.S.S.S.S.S.S.S.S.S.S.S.S.S.A.N.x.k.j.x.v.M.B.B.x.x.j.k.x.M.Z.S.S.S.S.S.S.S.S.S.A.S.S.A.S.S.S.S.S.",
"S.S.S.S.S.S.S.S.S.S.S.S.S.S.S.S.S.S.S.S.S.S.S.S.S.S.S.S.S.S.S.A.m.z.k.l.m.M.N.N.m.z.k.k.z.M.V.S.S.S.S.S.S.S.S.S.S.S.S.S.S.S.S.S.S."
};
