/* XPM */
static char *result[] = {
/* columns rows colors chars-per-pixel */
"65 65 221 2 ",
"   c #120706",
".  c #14150F",
"X  c #1A1B17",
"o  c #2C1214",
"O  c #1A221F",
"+  c #24211C",
"@  c #1D2826",
"#  c #242524",
"$  c #2A2927",
"%  c #272828",
"&  c #2B2B2B",
"*  c #372B28",
"=  c #3A3129",
"-  c #2E3738",
";  c #333334",
":  c #3A3537",
">  c #36363A",
",  c #37373C",
"<  c #3B3A3C",
"1  c #500916",
"2  c #452D18",
"3  c #5B3619",
"4  c #753C0D",
"5  c #653A1A",
"6  c #6C3D1A",
"7  c #753E13",
"8  c #75162A",
"9  c #47272A",
"0  c #56272C",
"q  c #473426",
"w  c #5B2534",
"e  c #4D3830",
"r  c #643F24",
"t  c #662B31",
"y  c #792B37",
"u  c #22403E",
"i  c #78431A",
"p  c #7A451D",
"a  c #5E4332",
"s  c #6A4326",
"d  c #734627",
"f  c #694936",
"g  c #3D3C41",
"h  c #3A3E46",
"j  c #403F44",
"k  c #403F49",
"l  c #713641",
"z  c #394345",
"x  c #424244",
"c  c #45444B",
"v  c #49464C",
"b  c #424849",
"n  c #4A494D",
"m  c #59464A",
"M  c #464551",
"N  c #494751",
"B  c #434954",
"V  c #4D4C53",
"C  c #4F4C59",
"Z  c #504F56",
"A  c #524E5B",
"S  c #4D5154",
"D  c #4B5059",
"F  c #525155",
"G  c #54535B",
"H  c #58575C",
"J  c #56585C",
"K  c #5A595F",
"L  c #775848",
"P  c #704C59",
"I  c #555462",
"U  c #595664",
"Y  c #555C65",
"T  c #5C5B64",
"R  c #5D5A6A",
"E  c #5F5D74",
"W  c #645F65",
"Q  c #605E6D",
"!  c #625F71",
"~  c #55626B",
"^  c #5C656A",
"/  c #64636B",
"(  c #676469",
")  c #7C636F",
"_  c #656373",
"`  c #666577",
"'  c #696774",
"]  c #6B6B73",
"[  c #69667A",
"{  c #6C6B7B",
"}  c #736C74",
"|  c #706F78",
" . c #6E757A",
".. c #717077",
"X. c #74727C",
"o. c #7B757D",
"O. c #98132D",
"+. c #8F1930",
"@. c #A71B37",
"#. c #BA1931",
"$. c #8B222F",
"%. c #872335",
"&. c #A92237",
"*. c #B92138",
"=. c #C02238",
"-. c #834A1F",
";. c #834D24",
":. c #894F23",
">. c #8D5124",
",. c #9B394B",
"<. c #AD3447",
"1. c #925050",
"2. c #A14F5F",
"3. c #8B6855",
"4. c #8F5968",
"5. c #A65A6B",
"6. c #957366",
"7. c #857379",
"8. c #9C7A71",
"9. c #A27A6B",
"0. c #A58178",
"q. c #6D6A82",
"w. c #716E85",
"e. c #716D88",
"r. c #747382",
"t. c #797784",
"y. c #747985",
"u. c #7B7A84",
"i. c #75728B",
"p. c #79748C",
"a. c #7D7C8A",
"s. c #767393",
"d. c #7A7692",
"f. c #7E7A95",
"g. c #7D7A9A",
"h. c #847C85",
"j. c #807F8A",
"k. c #807C94",
"l. c #827D9A",
"z. c #AE7A8E",
"x. c #7D858F",
"c. c #82818C",
"v. c #8E828C",
"b. c #858493",
"n. c #888794",
"m. c #8A8996",
"M. c #87879A",
"N. c #89879A",
"B. c #8D8C9C",
"V. c #948794",
"C. c #908F9D",
"Z. c #8C929F",
"A. c #95929E",
"S. c #8883A4",
"D. c #8985A4",
"F. c #8D8DA1",
"G. c #8E89AA",
"H. c #918FA1",
"J. c #918CAE",
"K. c #8C95A3",
"L. c #9593A4",
"P. c #9896A6",
"I. c #9694A9",
"U. c #9996AB",
"Y. c #9B9AAD",
"T. c #8E8AB7",
"R. c #938EB2",
"E. c #918DBA",
"W. c #9691B5",
"Q. c #9893B7",
"!. c #9D9CB1",
"~. c #9694B8",
"^. c #9B95BB",
"/. c #9E99BE",
"(. c #A59BAC",
"). c #A19EB4",
"_. c #97A2B6",
"`. c #A3A1B6",
"'. c #A6A3BA",
"]. c #A9A6BD",
"[. c #AAA8BA",
"{. c #B5AEBB",
"}. c #9793C0",
"|. c #9B96C4",
" X c #9E99C6",
".X c #9F9AC8",
"XX c #A29CC4",
"oX c #A39DCB",
"OX c #A9A9C3",
"+X c #ADABC4",
"@X c #A6A1CE",
"#X c #AAA4CE",
"$X c #B1AEC7",
"%X c #B1AFC9",
"&X c #AEB0CC",
"*X c #B4B2CC",
"=X c #BCB2C9",
"-X c #A7A2D0",
";X c #ABA5D3",
":X c #AFA8D6",
">X c #B0A9D6",
",X c #B4ADDB",
"<X c #B6B5D1",
"1X c #B9B6D3",
"2X c #BCB9D6",
"3X c #B7B0DE",
"4X c #B8B1DF",
"5X c #BEBBDA",
"6X c #B7B0E0",
"7X c #B8B2E0",
"8X c #C1BEDD",
"9X c #C2BFE0",
"0X c #BFC6CF",
"qX c #C6C4DE",
"wX c #C5C2E2",
"eX c #C8C5E6",
"rX c #CCC9E6",
"tX c #CDCAEC",
"yX c #D8D7E5",
"uX c #D4D0F0",
"iX c #EDEAFD",
/* pixels */
"7X7X7X7X7X7X7X7X7X7X7X6X7X7X7X7X7X7X7X7X6X6X7X7X7X7X7X7X7X7X7X7X9X7X6X;XoX|.|.|.oX;X,X7X7X7X7X7X7X7X7X7X7X7X7X7X7X6X7X7X7X7X7X7X7X",
"7X7X7X7X6X7X7X7X7X7X7X6X7X6X7X7X7X7X7X7X7X6X7X7X7X7X7X7X7X7X7X7X7X7X6X:XoX X|.|.oX;X,X7X9X7X7X7X7X7X7X7X7X7X7X6X7X7X7X7X7X7X7X7X7X",
"7X7X7X7X6X7X7X7X7X7X7X7X7X6X7X6X7X7X4X4X6X6X7X6X7X7X7X7X7X7X7X7X7X7X7X:X-XoX|. XoX:X,X4X7X7X7X7X7X7X7X7X6X7X6X7X6X6X7X7X7X7X7X7X7X",
"7X7X7X7X7X7X6X6X7X7X7X7X7X7X6X7X4X4X4X3X7X7X6X7X7X7X7X7X7X7X7X7X7X7X6X6X-XoXoXoX@X:X3X4X7X7X7X7X7X7X7X7X7X6X7X7X7X7X7X6X7X7X7X7X7X",
"7X7X7X7X6X6X7X7X7X6X6X7X6X7X6X7X6X7X6X7X7X7X7X7X7X7X6X7X6X7X7X7X7X6X6X,X:X:X;X;X>X,X,X4X7X7X7X7X6X7X6X7X7X6X7X7X6X6X7X7X7X7X7X7X7X",
"7X7X6X6X7X7X6X7X7X7X7X7X7X6X6X7X7X7X7X6X7X7X7X4X7X7X6X6X7X6X7X7X7X6X6X6X6X:X6X:X,X3X3X4X7X7X4X4X7X6X6X6X7X7X7X7X6X6X7X7X7X7X7X7X7X",
"6X6X7X6X6X6X7X7X6X7X7X6X7X6X7X7X7X6X7X7X7X7X4X7X7X6X6X6X7X6X7X7X7X7X6X6X6X6X6X6X4X4X4X4X4X4X7X7X7X7X7X6X7X7X7X7X7X7X7X7X7X7X7X7X7X",
"7X7X7X7X7X7X7X6X6X7X7X6X7X7X7X6X6X7X6X6X7X6X4X4X7X7X6X6X6X7X6X7X7X6X7X7X7X7X6X6X4X7X4X4X4X4X4X7X7X7X7X9X7X7X7X7X7X7X7X7X7X7X7X7X7X",
"7X7X7X7X7X4X4X7X7X7X7X6X7X7X7X6X7X4X7X7X7X4X4X4X7X3X7X3X7X7X4X4X3X7X7X7X7X7X7X7X7X7X6X4X4X4X4X7X8X7X7X4X4X4X7X7X7X9X7X7X7X7X7X7X7X",
"7X7X7X7X7X7X7X7X7X6X6X6X7X6X7X7X7X4X7X4X7X7X4X4X7X7X7X7X7X,XQ.Q c c c c c v v v C i.XX4X4X4X4X4X6X4X4X7X4X7X3X7X6X6X6X6X6X7X7X7X7X",
"7X7X7X7X7X4X7X7X7X7X7X7X7X7X7X7X7X7X4X4X3X4X7X4X7X3X7X7X;XQ.i.Z z a x V G I G Y H Q l./.,X4X3X,X,X,X,X,X3X3X6X6X6X6X,X,X,X3X6X7X6X",
"7X7X7X7X8X7X7X7X7X7X7X6X7X7X7X7X7X7X4X4X4X4X3X7X7X7X4X7XQ.! V / ` ] { n.U.!.!.`.U.w.I { XX4X3X,X>X;X;X;X:X,X6X6X6X:X;X;X;X>X,X7X6X",
"7X7X7X7X4X7X7X7X7X4X4X4X7X7X7X7X7X7X4X,XoX/.^.^.^.^.^.R.i.V F X.M.Z.Y.*XwXwXwXeX8XU./ U S.XX;X,X;X@XoX@X;X>X6X6X>X-XoXoX-X;X,X6X6X",
"7X7X7X7X4X3X4X4X4X4X4X4X7X4X7X7X4X4X4XXXf.Q I I A A C A Z K ] u.C.].2XwXeXwXwXwXwX2X!.i._ { ^.:X-XoX|.oX-X;X>X>X;XoXoX.XoX;X,X,X6X",
"7X6X7X6X,X,X,X,X4X4X4X3X,X,X4X3X,X3X3X^.T , < x v v c v / a.m.c.m.Y.+X*X<X2X2X3X2X5X1XB.V k D.,X-X|.|.|.oXoX;X;X@XoX|.|.oX-X>X6X7X",
"6X6X,X,X:X;X:X>X,X4X3X3X>X:X;X:X>X,X3XQ.I > n ' a.M.M.b.U.[.`.n.X.' { x._.<X0X&X!.Y.).t.c j D.,X;XoXoXoXoXoXoXoXoX.X|.oX@X;X,X6X7X",
"3X3X3X;X-XoX@X-X:X,X,X>X;X@XoX@X;X>X3X^.U , Z u.Y.*X5X5X5X1X+XP.] x : m v.[.%X`.n.c.c./ x v G.,X:X-X@XoXoX|.oX|.oXoXoX-X;X:X6X6X7X",
"3X3X:X;XoX.X.X@X;X:X,X:X@XoX|.oX-X:X,XXXQ ; : U c.[.qXtX8X+X'.`.y., o t 2.z.P.Z.u.t.o./ g N G.3X,X,X;X-XoX|.}.|.|.oX-X:X,X,X6X6X7X",
"3X3X:X;X.X|.|..X@X;X:X-XoX.X|..X-X:X:XW.R : & < J a.`.*X'.C.U.$XY.Y * 8 <.5.c.c.c.n.c./ x N G.7X7X6X,X:X@XoX}.XXoX-X:X6X7X7X7X7X7X",
"3X3X,X;X-X.X.X.XoX@XoXoX.X.X.XoX-XoXl.w.T F n v v Z / r.u.u.L.*X&XK.) 1.2.4.h.B.Y.`.!.t.n N R.6X7X7X6X,X-XoXoXoXoX;X,X6X9X7X7X7X7X",
"3X3X3X,X;X@X.X.X.X.X.X.X.XoXoX@X;XJ.T Z / u.c...F > & < F ..P.*X5X1X'.V.h.o.c.Y.*XqX<XM.V c G.,X7X9X4X4X:X#XoX#X;X:X6X6X7X9X6X6X7X",
"7X6X6X7X,X:X;X@X.X|.|.|.oX@X:XXXD.[ v K j.Y.'.P.X.b + X < ..Y.*XwXeX5XOXK.x.m.`.qXuX9XF.V ; _ G.;X6X4X4X,X>X:X:X,X,X6X9X7X7X6X6X7X",
"7X7X7X7X6X6X:X-XoX|.|.oXoX:X,XJ.U N K c.`.<X8X$XY. .a & < ] Y.*X0XwX7X2XOXK.m.!.5XtX8XF.n # : I R.4X4X4X6X4X3X4X6X,X7X7X7X7X7X7X7X",
"7X7X7X7X7X6X,X;XoXoX.XoX-XXXG.w.T ] b.`.*X8XwX5X&XK.{ n x K t.Y.&X1XwXuXqXY.] ] B.=XrX).V % v Q s.J.oX4X6X4X6X4X6X6X7X6X7X7X7X7X7X",
"7X7X7X7X7X7X4X>X;X@X@X-X:XG.I Q b.'.+X<X2X5X8X5X5X$XL...S x F t.!.+XeXiXyXA.b & S A.yX{.J u p.F.! I l.,X6X6X7X6X7X7X6X6X6X6X6X6X7X",
"7X7X7X7X7X7X7X3X,X:X:XXXR.q.A t.+XeXwX8X5X5X5X5X5X5X%XL.( ; ; ( L.%XqXyX{.7.q   @  .0X[.F n !.%X! * k.3X6X9X7X8X9X7X8X6X6X6X8X6X7X",
"7X7X7X7X7X7X7X,X3X,X,XS.R R k.OX2XwX9X9X8X5X5X5X5X8X8X$Xt., ; ( U.<X*XK.W t 0 o + Y Z.x.a S `.%X' * k.3X9X6X4X4X6X6X6X6X6X6X6X6X7X",
"7X7X7X7X4X4X7X7X4X#XQ.[ G u.%XeX9X2X2X%X$X*X*X5X5X5XwX5XB.F : H b.].!.~ $ 1 O.8 0 m 7.W - B F.OXi.C e.|.:X6X4X4X6X6X6X6X6X6X6X6X7X",
"7X7X7X3X3X3X6X7X4XD.! Q k.'.5XeXwX1X'.Y.L.Y.+X1X5X5X9X8X).| v < K b.M.S o 1 O.+.%.,.,.y = z y.Y.!.k.{ ` R.4X4X4X6X6X6X,X6X6X6X6X7X",
"7X7X7X7X3X&XoXXX^.` G f.%XeX8X8X5X'.n.X.X.m.`.5X8X5X5X2X$XH.] v v / ] V : w %.O.#.=.*.$.9 z ^ P.%XOX| c ! XXXXoX;X6X6X8X8X6X6X6X7X",
"7X7X7X7X;Xl._ R ! _ b.+XwXtXqX2X+Xn.T F ( n.].8X8X5X2X2X1X$X!.b.' S k Z Q ) 4.,.@.#.#.$.* - ^ C.`.(.j.K C Q ! [ l.6X6X6X6X6X6X6X7X",
"7X7X7X:XW.^ c g Z j.%X9X5X8X2X].C.W < : H c.'.1X5X5X5X5X2X1X2X2XU.T j H X.d.h.P %.O.#.$.9 h ^ j.n.n.N.j.) k k k [ ^.@XoX;X,X9X6X7X",
"7X4X@Xl.q.` t.p.b.Y.+X{.'.].].B.( < # ; G t.L.`.*X8XeX0X*X'.$XwX2XL.{ T J J J v w 8 O.@.8 l m ~  .m.(.'.I.k.a.p.' q.| w.l.oX7X7X7X",
"7X:XJ.N G B.1X2XOXU.b.c.c.m.n.] Z ; ; < F ' o.M.`.2X7X2X'.C.L.+X5X2XY./ : & ; ; g w +.O.&.%.0 h ~ c.[.*X<X+X<X%Xb.Z ; z U J.:X7X7X",
"7Xl.R # V '.tX<XN.' F F H ^ K J T Q ! R Z G W X.b.I.).).C.a.c.P.+X*X).| z % & z Y A w +.=.&.0 % z ] L.].!.N.+XtX!.c + c A { k.7X7X",
"7XN > X V ).<Xa.x ; ; ; ; : < R D.|.XXD.U h Z ( { { u.b.v.c.j.b.M.C.m.c.] c h R l.s.m t &.&.0 # @ z ..b./ v a.<XJ.x ; ( ..G k 7X7X",
"7X; ; < T b.a.n + $ < : # > A d.#X7X7X).R , v Q / ] u.C.Y.Y.L.c.y.o.v.Y.P.' j ! }.~.q.P ,.y 9 # O & c K F c / b.` - a u.j.Z & 4X7X",
"7X; e / ..K x $ $ V ( S ; I S.@X,X3X4X}.R , N / ] u.H.OX<X*X`.m.o.o.B.+X'.X.k R E.oXW.i.j 9 : & $ & ; j K ] ( n ; % z t.u.n & 7X7X",
"6X; B x.u.c X . : X.P.{ e E oX7X6X6X4XXXR , v / X.c.P.+X*X+X).B.x.o.b.I.H.{ I e.^.;X:XW.E B M M v M h N T ] / < % # x / / x & 7X7X",
"7X: n a.u.b X . , M.+Xc.j Q oX3X7X3X3X^.R , v / o.j.m.B.L.C.m.c.j.x.t./ R [ g.E.oX:X,XoXT.g.s.s.s.s.g.s./ n K ( F ; & < < : & 7X7X",
"6XC G ] / x % ; Z k.Y.r.< R XX7X6X:XXXl.U c G { t.x.b.B.F.Z.m.x.n.L.x.N h q..X;X;X>X>X:XoX}.E.T.T.}.oX|.` & H c. .< % g c N N 7X7X",
"7XD.q.G c > ; [ l.i./ V ; R XX3X3XXXi.U G R { y.x.c.L.'.&X+X!.B.Z.'.Y.T e w.oX,X,X6X6X;XoX|.E.E.}.XXoXoX` % H b.X.j g w.l.D.D.7X7X",
"7X7X~.T x g G ^.>Xk.v g h | oX4X3XR.V : v W } o.o.7.A.{.=X*X(.v.V.[.(.Q k w.oX3X7X7X,X;XoX|.}.}.|.oX;X#Xp.v H | ( < V ^.3X3X7X7X7X",
"7X7X:XG.l.f.G.>X,XXXl.k.l.Q.,X7X4XR.M * q f L L L 3.6.8.0.0.6.3.3.9.6.m k i.;X6X7X7X6X:X@XoXXXoX@X;X,X,X).l.` Z x ; N /.7X7X7X7X7X",
"7X7X,X,X,X,X,X,X4X,X>X3X3X4X7X>X;XS.D a a d d p i -.;.-.-.-.-.-.:.:.d q u h.>X8X7X7X3X,X;X-XoXoX;X>X6X7X4X>XN.v g j R /.7X7X7X6X7X",
"7X7X7X7X3X3X4X4X4X4X4X4X4X7X7X Xx.E Y ( 7.8.3.-.4 i i 4 4 4 i i i 3 2 + < f.,X7X7X7X3X,X,X:X:X:X,X,X7X7X7X4XXXp.e.p.l.#X7X7X7X7X7X",
"7X7X7X6X7X7X4X4X4X4X4X4X4X,X,XG.C M / B.].[.9.-.4 4 6 6 i 5 i 6 3 = & & k p.oX,X7X7X7X3X,X3X,X3X3X7X7X7X4X4X,X:X;X;X:X,X6X7X6X7X7X",
"7X7X7X4X7X4X7X7X4X4X4X,X>X>X:Xl.h < ( L.+X`.7.r 3 5 6 6 5 5 3 3 q a Y ] w.| k.Q.7X7X7X7X3X3X3X7X4X7X7X4X4X4X4X4X4X4X,X7X7X7X6X7X7X",
"7X7X7X7X7X7X7X7X7X7X,X:X;XoXoXf.k x ] n.L.u.G = 2 5 6 6 i 5 3 * < T b.[.).r.A e.-X6X4X7X7X7X7X6X4X7X4X4X4X4X4X7X6X4X6X9X6X6X6X6X7X",
"7X7X7X7X7X7X7X7X7X7X,X:XoXE.g._ Z W n.C.t.G > % 2 5 i d p i 3 $ u ] P.$X+XH.' ! l.z.>X6X7X7X7X9X7X4X7X4X4X4X4X4X6X7X7X4X6X6X6X6X7X",
"7X7X7X7X7X7X7X7X7X7X,X-X.Xs.N V / C.+X!.] ; # % q 6 p :.:.:.5 * j ] n.B.L.'.).r.U q.XX6X7X7X6X6X4X7X7X4X6X4X6X7X7X4X7X6X6X6X6X6X7X",
"7X7X6X7X7X7X7X7X7X7X3X:XoXq.> v X.'.eX+X/ @ X % q 6 p -.>.>.s = : Z ] X.B.=XqXN.k k XX7X7X7X6X6X7X7X4X7X7X4X7X4X6X7X6X7X6X6X6X9X7X",
"7X6X7X7X6X7X7X7X7X4X,X>XoXe.> c | ).8X+Xq.& # * q 7 i p ;.:.d q % - n / C.=X8Xk.k U  X8X6X9X6X6X7X4X6X7X6X4X7X6X9X6X6X6X6X6X6X8X7X",
"7X7X6X7X6X7X7X7X7X7X3X,X;Xp.< g W k.(.B.! k h k e 3 3 3 5 d a = & > v T t.I.I.{ k ! }.6X6X6X6X6X7X7X7X4X7X7X6X7X6X6X6X6X6X6X6X6X7X",
"6X7X6X7X7X7X7X7X7X7X7X7X,Xd.< ; g N U U q.g.l.l.Q e = 9 q q = * x q.g.R N G A k g P ^.8X6X6X9X6X4X4X4X7X6X4X7X4X6X6X6X6X6X6X6X6X7X",
"7X7X7X6X7X6X6X7X4X4X7X7X,XD.V < g g g A l.oX,X-Xk.V g < g < g g Q Q.#Xi.k g g g k q..X6X6X6X6X6X4X4X4X7X7X6X6X7X6X6X6X6X9X6X6X6X7X",
"7X7X7X7X7X7X4X3X4X4X4X7X8X7X7X,X-XoXoX-X;X,X6X9X7X8X4X4X4X4X3X7X7X7X7X7X7X7X7X7X6X6X6X6X6X6X6X6X6X6X6X6X6X6X6X6X6X6X6X6X9X6X6X6X7X",
"7X7X7X7X3X7X4X7X4X4X7X7X7X7X7X,X:X;X;X;X:X,X6X9X7X7X7X4X4X4X4X7X7X7X7X7X7X7X7X7X6X6X7X9X7X6X6X6X6X6X6X6X6X6X6X6X6X6X6X6X6X6X6X6X7X",
"6X7X7X3X7X7X3X3X4X4X7X7X3X7X7X,X,X,X,X,X,X6X6X6X7X4X7X4X4X4X3X3X7X3X3X3X3X4X4X4X6X6X6X6X6X6X6X6X9X6X6X6X6X6X6X6X6X6X6X6X6X6X6X6X7X",
"6X7X7X7X3X7X7X7X7X4X4X4X3X7X7X7X6X6X6X6X6X6X6X6X4X4X7X7X7X4X3X,X3X,X,X,X,X3X4X4X6X,X,X,X6X6X6X6X6X6X6X6X9X6X6X9X9X6X6X6X6X6X9X6X7X",
"7X7X7X7X7X7X6X7X7X7X4X4X7X4X7X7X7X7X9X9X7X4X7X4X4X4X7X7X7X7X7X,X,X:X;X:X>X,X,X,X,X;X;X;X;X,X6X6X6X6X6X6X6X6X6X6X6X6X6X6X6X6X6X9X7X",
"7X7X7X7X6X7X7X3X4X7X4X4X3X4X4X7X6X9X6X6X7X7X7X4X4X4X6X9X7X7X3X,X-XoXoXoX;X>X,X,X;X@XoXoX-X;X,X6X6X9X6X6X6X6X6X6X6X9X6X6X6X6X6X6X7X",
"7X7X7X7X6X7X7X7X7X7X7X7X4X4X7X7X7X7X7X7X7X7X7X7X4X7X6X7X7X7X,X:XoXoX|.oXoX:X,X:X-XoX|..XoX;X6X6X6X6X6X6X6X6X6X6X6X6X6X6X6X9X6X6X7X",
"7X7X7X7X7X7X7X7X7X7X7X7X7X7X7X7X7X7X7X7X9X7X7X7X7X7X7X7X7X7X,X:XoX|.}.oX@X;X>X:X-X.X|.|.oX;X6X6X9X6X9X6X6X6X9X6X6X6X6X6X6X6X6X6X7X",
"7X7X7X7X7X7X7X7X7X7X7X7X7X7X7X7X7X7X7X7X7X7X7X7X7X7X7X7X7X7X7X,X-X X|..X-X;X:X:X@X.X|.|..X;X,X7X7X7X7X7X7X7X7X7X7X7X7X7X7X7X7X7X7X"
};
