/* XPM */
static char *result[] = {
/* columns rows colors chars-per-pixel */
"65 65 219 2 ",
"   c #0F0D0B",
".  c #1A1B18",
"X  c #331016",
"o  c #23211D",
"O  c #3C2A1A",
"+  c #1F2D28",
"@  c #252523",
"#  c #282727",
"$  c #2A2926",
"%  c #2C2C2B",
"&  c #382C25",
"*  c #39322C",
"=  c #2E2E31",
"-  c #3F2A30",
";  c #2D3232",
":  c #333333",
">  c #36363A",
",  c #37393A",
"<  c #3B3A3C",
"1  c #4D1119",
"2  c #4B3018",
"3  c #5B361B",
"4  c #763D0D",
"5  c #683913",
"6  c #653A1B",
"7  c #6C3C19",
"8  c #4D1F2A",
"9  c #5F1D2B",
"0  c #6D0C23",
"q  c #7A0F24",
"w  c #681B2B",
"e  c #73182E",
"r  c #4B242D",
"t  c #493426",
"y  c #543926",
"u  c #422D34",
"i  c #552E37",
"p  c #463A38",
"a  c #67222E",
"s  c #7B4217",
"d  c #76421C",
"f  c #66432A",
"g  c #734523",
"h  c #7C4822",
"j  c #6B4D3A",
"k  c #3D3D42",
"l  c #403F44",
"z  c #3F4646",
"x  c #434346",
"c  c #45444A",
"v  c #48464C",
"b  c #464E4F",
"n  c #4A4A4D",
"m  c #524248",
"M  c #484752",
"N  c #4D4C54",
"B  c #4F4D59",
"V  c #504E57",
"C  c #4B535B",
"Z  c #535256",
"A  c #54535B",
"S  c #58575C",
"D  c #57595D",
"F  c #5A595D",
"G  c #63444A",
"H  c #715252",
"J  c #7B6052",
"K  c #4F5462",
"L  c #555563",
"P  c #595763",
"I  c #555A64",
"U  c #5C5B63",
"Y  c #5C5A6A",
"T  c #5E5D72",
"R  c #615D64",
"E  c #605E6C",
"W  c #7B5D69",
"Q  c #615E70",
"!  c #5A6166",
"~  c #5A6E77",
"^  c #626067",
"/  c #64636C",
"(  c #69676E",
")  c #67696E",
"_  c #7B6867",
"`  c #656274",
"'  c #686772",
"]  c #6B6A73",
"[  c #696679",
"{  c #676A78",
"}  c #6D6B7B",
"|  c #726E75",
" . c #716F7C",
".. c #6D737E",
"X. c #74737C",
"o. c #78767B",
"O. c #7B767E",
"+. c #96122F",
"@. c #90142F",
"#. c #A71330",
"$. c #B71732",
"%. c #902A3C",
"&. c #A92637",
"*. c #834A1F",
"=. c #834C22",
"-. c #854E26",
";. c #86522C",
":. c #8B532A",
">. c #8B5735",
",. c #863445",
"<. c #B23447",
"1. c #A24A5A",
"2. c #8E6049",
"3. c #876859",
"4. c #905A67",
"5. c #AF5F72",
"6. c #95746A",
"7. c #906F72",
"8. c #A3827B",
"9. c #6E6A81",
"0. c #6C6985",
"q. c #716E84",
"w. c #716E89",
"e. c #757482",
"r. c #797783",
"t. c #7C7A84",
"y. c #76728B",
"u. c #77788C",
"i. c #7D7D8A",
"p. c #7A7692",
"a. c #7C7896",
"s. c #807A80",
"d. c #807E8A",
"f. c #817F92",
"g. c #827D9A",
"h. c #837FA3",
"j. c #7D818C",
"k. c #7E8690",
"l. c #83828D",
"z. c #8A868D",
"x. c #96878F",
"c. c #848392",
"v. c #898693",
"b. c #8A8996",
"n. c #85819D",
"m. c #858A99",
"M. c #8C8B9B",
"N. c #968C95",
"B. c #918F9E",
"V. c #93929D",
"C. c #A88985",
"Z. c #A4899C",
"A. c #8682A2",
"S. c #8A85A5",
"D. c #8E8CA2",
"F. c #8A86AB",
"G. c #8E89AA",
"H. c #918FA4",
"J. c #918CAE",
"K. c #8E93A4",
"L. c #9593A4",
"P. c #9898A6",
"I. c #9695A9",
"U. c #9997AB",
"Y. c #9C9AAC",
"T. c #8E8AB4",
"R. c #938EB1",
"E. c #9691B4",
"W. c #9993B7",
"Q. c #9D9CB2",
"!. c #9B95BA",
"~. c #9E99BE",
"^. c #A39BAD",
"/. c #A19FB3",
"(. c #A29FB8",
"). c #9EA1B8",
"_. c #A2A1B6",
"`. c #A5A3BB",
"'. c #A9A7BD",
"]. c #ACA8BE",
"[. c #B1A8BC",
"{. c #9B96C4",
"}. c #9E99C6",
"|. c #9F9AC8",
" X c #A39DC5",
".X c #A29DCB",
"XX c #AAAAC4",
"oX c #ACAAC4",
"OX c #A6A1CE",
"+X c #AAA3CD",
"@X c #B1A7C0",
"#X c #B0AEC7",
"$X c #B1AECA",
"%X c #B4B2CC",
"&X c #BBB8C8",
"*X c #A7A2D0",
"=X c #ABA5D3",
"-X c #AFA8D6",
";X c #B1AAD6",
":X c #B4ADDB",
">X c #B6B5D1",
",X c #B9B6D3",
"<X c #BBB9D6",
"1X c #B7B0DE",
"2X c #B8B1DF",
"3X c #BEBBD9",
"4X c #B7B0E0",
"5X c #B8B2E0",
"6X c #C1BEDD",
"7X c #C5C4CD",
"8X c #C3C0DF",
"9X c #C9C8DD",
"0X c #C5C2E2",
"qX c #C9C5E6",
"wX c #CAC7E9",
"eX c #CECBEC",
"rX c #D4D2EC",
"tX c #DEDCF1",
"yX c #EDEBF8",
/* pixels */
"5X5X5X5X4X5X5X5X5X5X5X5X4X5X5X5X5X5X5X5X5X5X5X5X5X5X5X5X5X5X5X5X5X5X:X-XOX{.{.{..X=X:X5X5X5X5X5X5X5X5X5X5X5X5X5X5X5X5X5X5X5X5X5X5X",
"5X5X5X5X5X5X5X5X5X5X4X5X4X5X5X5X5X5X5X5X5X5X5X5X5X5X5X5X5X5X5X5X0X5X4X-X.X}.{.{..X*X:X5X5X5X5X5X5X5X5X5X5X5X5X5X5X5X5X5X5X5X5X5X5X",
"5X5X5X5X5X4X5X4X5X5X5X5X5X5X5X5X5X5X5X4X5X5X4X5X5X5X5X5X5X5X5X5X5X5X4X-X*X|.{.|..X-X:X5X5X5X5X5X5X5X5X5X4X5X5X5X5X5X4X4X5X5X5X5X5X",
"5X5X5X5X5X4X5X5X5X5X5X5X5X5X5X5X4X5X4X5X5X5X5X4X4X4X5X5X5X5X5X5X5X5X4X:X=X.X.X.XOX-X1X2X5X0X5X5X5X5X5X5X2X5X4X5X5X5X5X5X5X5X5X5X5X",
"5X5X5X5X4X5X4X5X5X4X4X5X5X4X5X4X5X2X4X5X4X5X5X4X5X4X5X4X5X4X5X5X5X4X4X:X-X=X=X=X-X:X:X2X5X5X5X5X5X5X5X5X5X5X5X5X5X5X5X5X4X5X4X5X5X",
"5X5X4X4X5X4X5X5X5X5X5X5X5X5X5X5X4X2X5X4X5X4X2X2X4X5X5X4X4X5X5X5X5X4X4X:X4X-X-X4X:X1X1X2X5X5X2X2X5X5X5X5X5X5X5X5X5X5X5X5X5X4X5X5X5X",
"4X4X4X5X5X5X4X4X4X5X5X4X4X5X4X5X5X5X2X5X5X2X5X5X5X5X4X5X5X5X4X4X4X5X4X4X4X4X4X4X2X2X2X2X2X2X5X5X5X5X5X5X5X5X5X5X5X5X5X5X5X5X5X4X5X",
"5X5X5X5X4X5X5X5X4X5X4X4X4X4X5X4X4X5X4X4X5X4X4X2X4X5X5X4X5X4X5X4X5X4X5X5X5X5X5X4X5X2X2X2X2X2X2X5X5X5X5X5X5X5X5X5X5X5X5X5X5X5X5X5X5X",
"5X5X5X5X5X2X5X5X5X5X5X4X5X5X5X4X5X2X5X5X5X2X2X2X5X4X4X4X2X Xy.B v c v l c c c c Y S.:X5X2X2X2X5X5X5X5X5X5X5X5X5X5X5X5X5X5X5X5X5X5X",
"5X5X5X5X5X5X5X5X5X4X5X4X5X4X5X5X5X2X5X2X5X5X2X2X5X4X4X4X1X X[ , % % = = % % % % c g.;X2X2X2X2X2X6X2X5X1X2X2X5X5X5X5X4X4X5X5X5X5X5X",
"5X5X5X5X2X5X5X5X5X5X4X5X5X5X5X5X5X5X2X2X2X2X2X2X4X5X4X-XE.y.P N n n A E ] { { { / [ g. X2X2X5X:X:X:X:X:X1X1X4X4X4X4X:X:X:X1X5X5X4X",
"5X5X5X5X5X5X5X5X5X5X4X5X5X5X5X5X5X2X2X2X2X2X2X2X4X5X4X(.[ v S X.O.e.b.(.#XoXoX%XI.E N p.;X5X2X:X-X=X=X=X;X:X4X4X:X-X=X=X-X-X1X5X4X",
"5X5X5X5X5X5X5X5X5X2X2X2X5X5X5X5X5X5X:X XR.S.S.S.S.S.S.y.A N ) z.L./.$X0XwXqXwXeX>XM./ [ S. X;X:X=X.X.XOX=X-X4X:X-X*X.X.X.X-X1X1X4X",
"5X5X5X5X2X2X2X2X5X5X5X2X5X2X5X5X2X2X+Xf.P M v v l l l v Z ] t.v./.>X0X0X0X6X8X0X8X,XU.} P w..X-X*X.X{..X*X=X:X-X=X.X.X{..X*X:X1X4X",
"2X2X5X2X:X:X:X:X2X2X2X2X1X:X1X1X1X:X.XQ k , x N A B B E d.V.b.l.N.Q.'.$X>X3X<X%X$X<X@X .x Y  X-X.X.X{..X.X.X=X*XOX.X{.{..X*X-X1X5X",
"2X2X1X:X-X=X=X;X:X2X2X:X;X-X+X-X;X:X XE , c ' c.L.U.I.Y.oXoXP.r.R P { k.XX>X>X).L.Y.M.E k E  X-X=X.X.X{..X.X*X.X.X.X X.XOX=X:X:X5X",
"1X1X:X-X*X.XOX=X-X:X:X:X=X*X.X.X=X-X.Xp.A A  .L.oX6X0X8X3X%X).l.b % u W Z.[.].K.t.d.X.Z l `  X:X-X=X.X.X.X{..X{.{..X.X*X-X-X4X4X5X",
"1X1X;X=X.X}.}.|.=X-X:X=X*X.X{..X*X-X-X XG.} R | P.,XwXqX#XQ.'.U.I o 1 ,.5.Z.K.k.O.t.X.Z p '  X1X:X:X-X*X.X{.{.{.{..XOX-X:X:X4X4X5X",
"1X1X;X=X|.}.}.|.*X=X=X*X.X{.{..X*X-X4X:X Xq.l l ) B.'.'.V.M.].#Xj.c 9 %.1.7.k.k.v.M.i.A k Q OX1X2X4X:X-X.X.X{.{..X*X-X4X5X5X4X5X5X",
"1X1X:X=X*X|.}.|..X.X*X.X.X{..X.X=X-X:X!.y.B $ $ < Z ) | X.v.].>X).c.4.1.4.7.c.P.`.].U./ k ` +X5X5X4X4X:X=X.X.X.X.X-X4X4X5X5X5X5X5X",
"4X4X4X;X=XOX|.|..X}.}.}..X.X.X*X;X=X Xq.N < = % ; = = x ^ v.].<X6X>X^.v.O.t.M.].8X0XXX} l Q .X5X5X5X6X:X-X=XOXOX=X:X5X5X5X5X5X5X5X",
"4X5X4X4X:X-X*XOX}.{.{.}..X.X-X:X;XR.q.P V N N n n : . $ F M.oX6XwX0X>XQ.m.k.P.%XeXrX%X .x ` +X5X5X5X5X2X:X-X-X-X:X1X5X5X5X5X5X5X5X",
"5X5X5X5X4X4X:XOX.X{. X.X.X-X;X:X(.[ N U o.t.O.s.o.F : : F v.'.<X6X3X3X>X).v.b.XX0XwX#X .l T OX1X5X5X5X5X4X4X:X4X:X1X5X5X5X5X5X5X5X",
"5X5X5X5X5X5X:X-X.X.X}..X.X:X-XE.w.N Z e.P._./._._.v.F v n ) b.`.>X3XrXtX&Xj.Y } Y.9X9Xc.k z e.W.2X5X5X5X4X2X2X2X2X2X5X5X6X5X5X5X5X",
"5X5X5X5X5X5X5X;X=X*XOX=X-X:X XQ B Z o.U.#X>X>X>X>X(.l.R x x ^ b.`.<XtXyX&X) % ; ) &XtXV., + c q..X6X5X5X5X5X5X5X5X5X2X2X2X2X2X2X5X",
"5X5X5X5X5X5X5X1X;X-X-X-X*XW.p.P E t.U.#X3X8X6X6X6X,X'.e.z % n l.`.3X9X7XN.G .   z P.7Xk., % V ` g.!.;X5X5X5X5X5X5X5X2X2X2X2X2X4X5X",
"6X5X5X5X5X5X2X1X1X1X:X1XW.Q P u./.oX$X,X3X3X3X3X6X6X,XL.V % n c.XX<X)...G a 1 X , j.V./ , D m.c.Q Q (.5X5X5X2X2X5X4X4X2X2X2X2X4X5X",
"5X5X5X5X4X4X3X5X1X5X-X!.u.B } (.8XqX6X6X3X3X3X<X<X8X0X_.' p x | Y.XXj.> 1 0 q w i ( o.b * | #XY.m l W.5X5X5X2X2X6X4X1X4X4X5X4X5X5X",
"5X5X5X5X5X4X5X2X5X5XE.` Y e.Q.>X0XqX0X6X6X3X<X<X<X6X8XoXc.S < n e.V.{ % X 0 @.@.,.7.X.z % ] $XU.l k R.5X2X6X4X1X2X2X2X2X5X5X4X5X5X",
"5X5X5X5X4X4X2X2X-XOXy.M ] (.0X8X3X,X>X%X>X,X3X3X<X3X6X%X/.d.A c Z ] ! z r e +.$.<.1.] C N p.$X^.Q B S..X;X2X4X4X2X2X2X2X5X4X5X5X5X",
"5X5X5X5X4X1X1X1XI.{ Y e.Q.,XwX0X<X@XQ.Y./.#X6X6X3X<X3X,X>X'.H.r.I c b U G %.#.$.&.H C ~ M.XX6X#XG. .[ y.!.2X2X5X5X4X5X5X4X5X5X5X5X",
"5X5X5X5X-XOXOX X9.N e.XX8X6X6X6X$XL.t.X.d.L.@X3X3X3X3X<X,X,X6XoXe.v M [ W ,.+.#.&.w u { XX<X,X6X6XU.S l h.:X2X5X5X5X5X4X5X5X4X5X5X",
"4X4X4X:XS.0.[ [ Q r./.6XeXqX3X$XP. .N c Z ] n.@X<XqX0X>XXXXX6X0X`.i.! I m i e @.+.q 9 H a.G.Y.,XwX`.Z = a.;X:X2X5X5X5X5X2X2X5X5X5X",
"5X4X-X(.[ c < v e.`.6X6X6X6X#XY.e.S < % : x ` M.oX6X6XoXL.N._.<X8XoXi.v $ $ r e @.@.e 8 < I j.'.3X/.P , p..XOX-X:X5X2X5X5X5X5X5X5X",
"5X5Xh.y.Q ] ` e.H.#X%XoXoX#XY.o.S P Y k % , A r.D./.`.P.l.t.B.`.%XoXb.Z ; + $ r w e w X @ x X.Y.`.L.' v Y w.w.g. X5X5X2X5X5X5X5X5X",
"5X5XM L f.#X$XXXY.B.b.v.B.B.e.A N f.R.[ < l F [ } r.l.v.l.d.l.b.M.M.v.O.D , # & u u u # $ b o.M.b.v.d.) B l l N f.-X:X;X:X1X4X5X5X",
"5X5X: B Q.eX6XI.r.R Z F R ^ U S }  X;Xy.l c R ' ' X.c.I.Y.L.v.t.O.t.V.Q.i.v # k B K C , % l R | r.v.U.L.t.E P Y [ A.S.S.!.:X2X2X5X",
"5X5X: B /.8XL.Z l > : : < < A p.W.-X*Xq.l x U ] | v./.%X>X].L.t.X.l.Y.#XK.Z > T h.F.h.L : = l A X.V.oX>XoX_.XXI.} A c B q..X:X5X5X",
"5X2X: c f.D.S . o , v Z l = B R.:X5X+X} k l U  .t.B.`.$X%XXXL.l.r.j.H.Q.k.Y I a..X-X.Xa.B : @ l | P.oX%X'.'.8X8Xk.> o p S g.!.2X5X",
"5X1X: > n N $ . > ^ v.P.t.l M R.:X4X*X} k < U  .d.v.B.L.L.K.v.l.l.t. .` Q w.F.}.*X-X-X Xa.B = l X.P.Y.M.' / '.8Xc.: : ^ E P P 5X5X",
"4X5X: % ; , < n P X.L.'.v.M M J.-X+XE.Q c M ' e.i.c.b.M.D.m.c.c.M.b.) < B F..X*X-X:X-X-X{.w.B B ] O.o.! p l u./.} : v j.X.x % 2X5X",
"5X5X: : c / c.B.e.S R  .R < N R.+XS.Q L L ` e.i.k.M.Q.XXXX).D.b.)._.u.z B T.-X:X1X1X:X=X.Xh.0.Q Z N x x N F / / c $ Z v.o.x % 5X5X",
"4X5X: < S l.'.XXy.: # k l l E  X.X[ l v F _ o.t.O.N._.&X<X].V.z.^.%Xl.n K R.4X4X4X4X:X-X.X{.T.w.x % % v | t.F $ . # N X.] M < 5X5X",
"5X5X: : x E r.e.A % > Q w.y.G.-X+XQ * t j H J J 3.6.6.C.C.8.6.3.6.6.3.l L E.5X5X5X5X1X-X.X.X{.p.z % c ) v.v.Z . . # p V I } u.5X5X",
"5X5Xl < l l x c l < Q (.+X;X;X-X!.T < y f g g g h :.;.;.;.:.:.-.>.:.f * L W.5X6X5X5X1X:X=XOX Xp.l k / d.v.O.A , = , < x E W.+X5X5X",
"5X5X9.[ ` ` Q E Q ` J.:X2X2X;XJ.u.Y F _ 6.2.s 4 s s s 4 4 4 s s 5 5 O $ L !.5X5X5X5X4X:X-X-X.Xg.l < Z ( / U U [ [ [ ` ` g.;X5X5X5X",
"4X5X+X X X X X.XOXXX+X1X1X1X!.Y v F j._.].C.>.s 7 7 5 d d 7 d 7 3 & $ % Y E.:X1X5X5X5X1X4X:X-Xg.c > k x l c y. X.X X XOX+X1X5X5X5X",
"5X5X5X5X5X5X5X2X2X2X2X:X;X;XG.c : ! b.XX#Xx.j 5 5 7 6 5 6 5 3 y p x L / [ u.J.+X5X5X5X6X2X2X:XW.q.Y Y P P ` E.5X1X5X5X5X5X5X5X5X5X",
"5X5X5X5X5X5X5X5X5X5X:X;X*XOXF.c < R d.L.B.' p 2 3 d 6 d 7 3 2 * N ] L._.n.Y Y R.:X:X6X5X4X4X6X:X X(.{.~.(. X=X4X4X4X4X5X4X4X5X5X5X",
"5X5X5X5X5X5X5X5X5X5X:X=X{.S.w.B Z e.M.v.) c % & 3 d d d d d O ; C j.].%XY.} A y.!.+X:X5X4X2X4X5X5X5X5X1X2X2X1X4X2X5X2X5X5X2X5X5X5X",
"5X5X5X5X5X5X5X5X5X5X1X=XA.Y B I t./.(.r.c # # O 3 d d =.*.d 2 : I l.P.Y.Q.Q.c.Q Q h.:X5X5X5X5X5X2X5X2X2X2X2X5X5X2X2X2X4X5X4X4X5X5X",
"5X5X5X4X5X5X5X5X5X5X:X-Xa.k p ( P.6X>Xe.; . @ * f h s -.:.h t * M ) o.s._.6X@XE l f.:X5X5X4X5X5X5X5X4X5X5X1X5X1X2X2X2X2X5X5X5X5X5X",
"5X5X4X5X4X5X5X5X5X2X:X-Xa.k k ] Y.8X<Xr.= . @ t 6 d d *.:.*.y = ; c U t.'.qX$XE l w.;X4X2X2X2X4X5X1X5X4X5X1X5X5X4X5X5X4X4X4X5X5X5X",
"4X4X5X5X5X4X5X5X2X1X1X1XA.c k U v.'._. .k % > t y 5 6 d h g y $ # : b } L.@XL.A l g.:X4X2X2X2X4X4X5X2X5X4X5X5X1X5X4X2X2X5X2X5X5X5X",
"4X5X5X4X5X4X5X5X5X5X5X1XS.k : x A [ [ Q 0.w.y.R p t t t y t * : C 9.' A Y ` R l l g.;X6X5X5X2X2X2X2X5X4X5X2X5X5X5X2X5X5X4X5X4X5X5X",
"5X5X4X5X4X5X5X5X2X2X5X5XG.M % % % % k 0.!.*X-Xg.n & $ $ % % $ x p.OXG.M - % % $ l g.;X4X2X2X2X2X2X2X1X5X4X5X4X5X5X4X4X5X5X5X4X5X5X",
"5X5X4X5X5X4X2X2X2X2X5X5XW.U x k k k l p..X-X1XG.P l < l k k p B n.-XR.P k k < k A h.2X5X5X5X2X2X2X2X5X4X2X5X5X5X2X4X5X2X4X5X2X5X5X",
"5X5X5X1X2X5X2X2X2X2X5X5X5X5X1X:X-X=X=X=X-X:X5X5X5X5X1X2X1X4X4X5X2X2X5X5X2X2X5X4X2X2X5X5X5X5X2X2X2X2X2X2X4X4X2X4X4X5X5X4X5X4X5X5X5X",
"5X5X5X5X5X4X4X2X2X2X5X2X5X2X2X1X:X:X:X4X:X4X5X5X2X2X5X2X4X1X1X1X2X2X2X1X1X1X1X1X2X4X4X4X5X2X2X2X5X5X5X2X5X4X4X5X5X4X5X5X2X5X4X5X5X",
"5X5X4X5X1X5X5X1X2X5X2X2X2X2X2X2X4X4X4X5X4X5X5X4X2X2X5X5X4X1X2X:X:X:X:X:X:X1X1X1X:X:X:X:X2X2X2X2X5X5X5X5X4X5X2X5X5X2X2X4X4X5X4X5X5X",
"5X5X5X5X5X5X4X5X5X5X2X2X2X2X5X2X5X5X5X5X5X5X5X2X2X2X2X5X5X5X2X:X:X;X*X-X-X:X1X:X:X=X=X-X-X;X2X2X5X5X5X5X4X5X4X4X5X4X4X5X5X5X4X5X5X",
"5X5X5X5X4X5X5X4X5X5X2X2X2X2X5X5X6X5X5X0X5X5X5X2X2X2X5X5X5X5X1X:X=X.X.X.X*X:X:X:X=X.X.X.X=X;X:X2X5X5X5X5X5X4X5X5X4X5X5X4X2X4X5X5X5X",
"5X5X4X5X5X4X5X5X2X5X5X5X2X2X2X5X5X5X5X5X5X5X5X2X2X5X5X5X5X5X1X=X.X.X{..X.X-X-X-X*X.X{.{..X=X2X2X5X5X5X5X5X5X5X5X5X4X5X5X5X5X5X5X5X",
"5X5X5X5X5X5X5X5X5X5X5X5X5X5X5X5X5X5X5X5X5X6X5X5X5X5X5X5X5X5X:X-X.X{.{..X.X-X;X-X*X X{.{..X=X2X5X5X5X5X5X5X5X5X5X5X5X5X5X5X5X5X5X5X",
"5X5X5X5X5X5X5X5X5X5X5X5X5X5X5X5X5X5X5X5X5X5X5X5X5X5X5X0X5X5X5X-X*X{.{.|.*X=X-X-X*X|.{.{.|.=X:X5X5X5X5X5X5X5X5X5X5X5X5X5X5X5X5X5X5X"
};
