/* XPM */
static char *result[] = {
/* columns rows colors chars-per-pixel */
"65 65 220 2 ",
"   c #11100C",
".  c #1B1C19",
"X  c #300B10",
"o  c #331418",
"O  c #2E2215",
"+  c #21221F",
"@  c #3A1E22",
"#  c #1D2322",
"$  c #242423",
"%  c #282627",
"&  c #292827",
"*  c #232A2A",
"=  c #2C2C2C",
"-  c #342C25",
";  c #3B2E25",
":  c #332E2A",
">  c #2F302F",
",  c #36312D",
"<  c #312E30",
"1  c #2B3232",
"2  c #293837",
"3  c #333334",
"4  c #3C3536",
"5  c #373639",
"6  c #38373A",
"7  c #363B3E",
"8  c #3B3A3D",
"9  c #451719",
"0  c #452D19",
"q  c #53341C",
"w  c #5C371C",
"e  c #673A17",
"r  c #6B3C1A",
"t  c #743D13",
"y  c #713F1A",
"u  c #4E1823",
"i  c #581A27",
"p  c #740D26",
"a  c #69192B",
"s  c #75142C",
"d  c #76142C",
"f  c #4E272F",
"g  c #493528",
"h  c #533620",
"j  c #5C3C25",
"k  c #43373B",
"l  c #573A38",
"z  c #652531",
"x  c #7B4113",
"c  c #74411B",
"v  c #7D451A",
"b  c #4E433E",
"n  c #6F482E",
"m  c #7E4922",
"M  c #774E33",
"N  c #78533C",
"B  c #3D3C41",
"V  c #403F44",
"C  c #783443",
"Z  c #384544",
"A  c #424144",
"S  c #45444B",
"D  c #48474D",
"F  c #44494B",
"G  c #4B4A4D",
"H  c #5C4F4D",
"J  c #474853",
"K  c #4C4C53",
"L  c #4E4C59",
"P  c #504F54",
"I  c #504E5B",
"U  c #4B5257",
"Y  c #525155",
"T  c #55545C",
"R  c #59575D",
"E  c #535A5F",
"W  c #59595D",
"Q  c #6A524F",
"!  c #555362",
"~  c #585664",
"^  c #5C5B63",
"/  c #575969",
"(  c #5D5B6A",
")  c #605F66",
"_  c #605E6C",
"`  c #785864",
"'  c #625F73",
"]  c #5E626A",
"[  c #5C6573",
"{  c #616167",
"}  c #65646C",
"|  c #69686F",
" . c #766867",
".. c #7E706F",
"X. c #646373",
"o. c #666776",
"O. c #686773",
"+. c #6C6B74",
"@. c #69667A",
"#. c #6C6B7C",
"$. c #726C74",
"%. c #706F7B",
"&. c #73737C",
"*. c #77787E",
"=. c #86142D",
"-. c #92142F",
";. c #9B112F",
":. c #881430",
">. c #AF1732",
",. c #972938",
"<. c #B02C3E",
"1. c #81471B",
"2. c #834B22",
"3. c #8E5124",
"4. c #8D5938",
"5. c #913045",
"6. c #B73548",
"7. c #8A5F45",
"8. c #926851",
"9. c #976B56",
"0. c #945965",
"q. c #AE5163",
"w. c #856874",
"e. c #926C78",
"r. c #8C7B7C",
"t. c #A17F78",
"y. c #6E6B81",
"u. c #716E85",
"i. c #736F8B",
"p. c #757483",
"a. c #787783",
"s. c #7C7A84",
"d. c #75728B",
"f. c #79758C",
"g. c #7D7D8A",
"h. c #7B7793",
"j. c #7E7A95",
"k. c #827D87",
"l. c #817F90",
"z. c #827E9B",
"x. c #7F838E",
"c. c #7F8795",
"v. c #838287",
"b. c #83828D",
"n. c #858493",
"m. c #898794",
"M. c #8A8996",
"N. c #86849A",
"B. c #868999",
"V. c #8B8A9A",
"C. c #918991",
"Z. c #9F8E95",
"A. c #908F9D",
"S. c #A48B9A",
"D. c #8682A1",
"F. c #8A85A5",
"G. c #8E8CA2",
"H. c #8D87A8",
"J. c #8E89AA",
"K. c #928FA4",
"L. c #918DAE",
"P. c #8F92A2",
"I. c #9392A4",
"U. c #9694A9",
"Y. c #9997AC",
"T. c #9898A9",
"R. c #9B9AAD",
"E. c #8E8AB3",
"W. c #938EB2",
"Q. c #9791B5",
"!. c #9E9CB2",
"~. c #9994BB",
"^. c #9A95BC",
"/. c #AD9CA8",
"(. c #A19FB4",
"). c #9BA1A7",
"_. c #9DA1B8",
"`. c #A3A1B6",
"'. c #A5A4BB",
"]. c #A9A7BD",
"[. c #ABA8BF",
"{. c #B5A6B9",
"}. c #B8B6BD",
"|. c #9B96C4",
" X c #9E99C5",
".X c #9F9AC8",
"XX c #A39DC5",
"oX c #A39DCB",
"OX c #A8A8C3",
"+X c #ADABC4",
"@X c #A6A1CD",
"#X c #A9A3CD",
"$X c #B0AEC5",
"%X c #B1AEC9",
"&X c #ACB0C9",
"*X c #B4B2CD",
"=X c #BCBBC8",
"-X c #A7A2D0",
";X c #ABA5D3",
":X c #AFA8D6",
">X c #B1AAD6",
",X c #B4ADDB",
"<X c #B6B5D1",
"1X c #B9B6D3",
"2X c #BBB9D6",
"3X c #B7B0DE",
"4X c #B8B1DF",
"5X c #BEBBD9",
"6X c #B7B0E0",
"7X c #B8B2E0",
"8X c #C1BEDD",
"9X c #C3C1DE",
"0X c #C8C6DB",
"qX c #C5C2E2",
"wX c #C9C6E6",
"eX c #CAC7E8",
"rX c #CCC9EB",
"tX c #D9D6E9",
"yX c #E1DEF2",
"uX c #E9E7F1",
/* pixels */
"7X7X7X7X7X7X7X7X7X7X7X6X7X7X7X7X7X6X7X7X7X7X7X7X7X7X7X7X7X7X7X7X7X7X6X:XoX|.|.|.oX;X,X7X7X7X7X7X7X7X7X7X7X7X7X7X7X7X7X7X7X7X7X7X7X",
"7X7X7X7X6X7X7X7X7X7X7X6X7X7X7X7X7X6X7X6X7X7X7X7X6X7X7X7X7X7X7X7XqX7X,X:XoX|.|.|.oX;X,X6X7X7XqX7X7X7X7X7X7X7X7X7X7X7X7X7X7X7X7X7X7X",
"7X7X7X7X6X7X7X7X7X7X7X7X7X7X7X7X7X7X6X7X7X7X7X7X7X7X6X7X7X7X7X7X7X7X7X:X-X.X|..XoX:X,X7X7X7X7X7X7X7X7X7X6X7X6X6X7X7X6X7X7X7X7X7X7X",
"7X7X7X7X7X7X6X6X7X7X7X7X7X7X7X7X6X7X7X7X7X7X7X7X6X6X7X6X7X7X7X7X7X7X6X,X;XoXoXoX-X:X,X4X7X7X7X7X7X7X7X7X7X7X6X7X7X7X7X6X6X7X7X7X7X",
"7X7X7X7X7X6X7X7X7X6X6X7X7X6X7X6X7X6X7X6X7X7X7X7X7X6X7X6X7X7X7X7X7X6X6X,X:X;X;X;X:X>X3X4X7X7X4X7X7X7X7X7X7X7X7X7X7X7X7X7X7X7X6X7X7X",
"7X7X6X6X7X7X6X7X7X7X7X7X6X7X7X7X4X7X4X7X6X7X3X7X6X7X7X6X7X6X6X7X7X6X6X6X,X,X,X,X,X3X3X4X7X7X7X7X6X7X7X7X7X7X7X7X7X7X7X7X6X7X7X7X7X",
"6X6X6X6X6X6X7X7X6X7X7X6X6X6X6X7X7X6X7X4X7X4X7X3X7X7X7X7X7X7X6X7X7X6X6X6X6X6X6X6X4X4X4X4X4X4X7X4X7X7X7X7X7X7X7X7X7X7X7X7X7X7X7X7X7X",
"7X7X7X7X7X7X7X6X6X7X6X6X6X6X7X6X4X7X6X7X6X7X7X6X7X6X6X7X6X7X7X6X4X4X7X7X7X7X6X6X7X4X4X4X4X4X7X4X7X7X7X7X7X7X7X7X7X7X7X7X7X7X7X7X7X",
"7X7X7X7X7X7X7X7X7X7X7X7X6X7X7X6X7X4X7X7X7X4X3X7X7X3X6X7X4X3X#Xh.I S S S S S S S S / W.4X3X4X4X7X7X7X7X7X7X7X6X6X7X7X7X7X7X7X7X7X7X",
"7X7X7X7X4X7X4X7X7X6X6X6X7X6X7X7X7X4X7X4X7X7X7X6X6X7X7X3X,X^.z.( K D S K ~ ( ( } } ( %.H.#X3X4X4X7X7X7X7X7X7X7X6X7X7X6X6X7X7X7X7X7X",
"7X7X7X7X7X7X7X7X7X7X6X7X7X7X7X7X4X4X4X3X4X3X7X7X7X7X4X7X#Xd.I R +.&.&.b.!.'.'.].OXG.^ I F.3X6X3X,X,X,X,X,X4X6X6X7X,X,X,X,X,X7X7X7X",
"7X7X7X7X7X7X7X7X7X7X7X7X7X7X7X7X4X4X4X3X#XQ.L.H.H.H.H.H.h.T G } b.A.(.$XqXeXwXeXrX1Xl.( u.L.XX>X>X:X-X:X>X,X6X6X6X:X;X;X:X>X,X7X6X",
"7X7X7X7X7X7X7X7X7X7X4X4X7X7X7X7X4X4X4X3XW.' L K K J V V D Y | *.m.(.*X9XqXqX8XqXqXqX*XG.O./ z.;X;XoXoXoX;X>X6X,X>X-X@XoX-X:X,X,X6X",
"7X7X7X7X4X4X4X4X7X4X4X4X7X4X7X7X4X4X4X3Xz.S 3 V G P I I R a.A.M.v.M.!.OX&X<X5X2X*X*X2X`.} V %.oX-XoXXXoXoX;X>X,X;XoXXX|.oX-X,X6X7X",
"4X4X7X4X,X,X,X,X4X4X4X3X3X,X3X3X,X3X3X,Xz.V 8 ) s.A.U.K.U.].[.(.s.| ^ #.c.OX5X<X(.I.R.M.Y 8 u.#XoXoX|.oXoX-X;X;X-XoX|.|.oX-X>X6X7X",
"3X3X3X3X:X;X;X>X,X4X3X3X>X:X#X:X>X,X3X,XJ.~ L } m.].8XqX0X8X*X'.n.Y & g  .S.OXOXV.s.k.&.K 8 u.oX-XoXoX|.oXoXoXoXoX.XXXoXoX;X,X3X7X",
"3X3X3X;X-XoX@X-X>X,X,X,X;X@XoX@X;X>X,X6XoXL.@.Y } V.$XwXwX*X(.'.!.] + 9 ,.q.S.P.b.*.s.+.G B u.#X:X;X@XoXoX|.oX|.oX|.oXoX:X:X6X6X7X",
"3X3X>X;XoX.X X@X;X>X,X;X@X.X.X.X-X>X6X7X4X>XL.~ K } m.`.].I.V.'.&Xc.G a ,.q.e.x.n.M.M.s.P k u.:X,X,X:X@XoX|.|.|.oXoX@X:X,X6X6X6X7X",
"3X3X:X;X.X X|..X@X;X;X-XoX X X.X-X:X6X7X7X7X#XN.@.T R } +.&.n.'.1XOXm.w.0.0.r.n.T.].+XK.W B u.:X7X7X,X:XoXoX|.XX.X-X>X6X7X7X6X6X7X",
"3X3X,X;X-X.X.X.XoXoX-XoX.X.X.XoX-X>X6X6X7X6X3X:XL.! = $ 3 W b.'.2XqX1X`.M.a.*.A.+X9XqX'._ B u.>X7X7X6X>X-XXXoXoXoX;X6X6X7X7X7X7X7X",
"3X6X3X>X;X-XoX.X.X.X.X.X XoX@X;X:X,X3X7X7X7X7X4X^.T .   + Y M.[.5XrXqX<X_.P.n.T.1XrXrXOX_ V u.:X7X7X7X4X>X;X-XoX;X>X7X7X7X7X7XqX7X",
"7X7X6X7X>X:X-X@X X|.|. XoX@X:X>X,X3X4X4X4X>X>X>XW.T = $ 3 R v.`.1X5X5X9X2X_.B.B.'.9XeX+X} 8 u.:X7X7X7X7X,X>X:X>X,X3X3X7X7X7X7X7X7X",
"7X7X7X7X6X3X:X-XoX|.|..XoX;X3X4X7X4X4X7X@XN.d.d.o.R Y G P P { b.`.&X2XtXyX=X*.E +.I.wX0X*.V #.:X7X7X7X7X,X4X,X4X,X3X6X7X7X7X7X7X7X",
"7X7X7X7X7X6X3X;X@X.X.XoX;X,X4X7X7X7X3X>XF.~ k V K | s.v.$.G 8 W n.^.1XyXuX=XW + % { =XtXv.Z y.:X7X7X7X7X7X7X7X7X7X7X7X7X6X7X7X7X7X",
"7X7X7X7X7X7X4X>X;X@X@X;X:X,X4X7X7X4X#XF.@.K G R #.V.(.'.V.K & A s.'.<X0X}.C.l X   Z ).=X*.8 d.3X7X7X7X7X8X7X7X7X7X7X4X4X4X4X4X7X7X",
"7X7X7X7X7X7X7X3X,X:X:X:X,X3X7X7X7X3XN.R P } b.Y.].%X1X8X(.^ < D x.].<XT.] l a i o 8 x.m.) 8 d.>X8X7X7X7X7X7X7X7X7X7X7X4X4X4X4X7X7X",
"7X7X7X7X7X7X7X3X3X3X,X3X4X4X4X4XoXH.' D ) m.[.2XqXqX9XwX$Xp.S A { A.'.x.3 X p =.a b $.*.P 3 ^ F.oX7X7X7X7X7X7X7X7X4X7X4X7X3X7X7X7X",
"7X7X7X7X4X3X7X7X3X7X4X7X7X4X7X>Xz.T K } m.'.2X8X8X8X8X9X1XA.| A k { n.o.3 X p ;.>.5.e.*.U : 1 I z.>X7X7X7X7X4X4X4X4X4X7X7X7X7X7X7X",
"7X7X7X7X7X7X7X7X4X7X7X7X7X7X@XJ.@.R O.V.'.1X8X5X2X2X5X8X1X].V.} K Y ] ^ S l d ;.>.6.0.{ Z % 6 I u.L.XX4X7X4X7X4X3X4X4X4X6X7X6X7X7X",
"7X7X7X7X6X7X7X7X7X7X7X7X4X3Xj.~ O.G.'.+X*X5X8X2X2X2X2X5X2X*X+X'.M.] A F } ` ,.;.>.<.Q k # = } V.a._ l.#X4X3X7X4X4X4X4X7X7X4X6X7X7X",
"7X7X7X7X6X6X7X7X7X7X5X3X#XL.] ~ n.1XeX8X8X8X8X8X8X2X2X1X2X5X8XwX1XB.I K ' ` C -.>.,.f # 2 T Y.*Xz.V ! XX3X3X3X4X7X7X7X6X7X7X7X7X7X",
"8X7X7X7X6X6X6X6X7X7X7X;Xj.( O.G.+X8XeXqXqXqXqXqX8X2X2X2X5X8XqXwX8X+XV.X.J < f a :.=.u 2 [ Y.8X2Xf.4 I XX,X,X3X4X7X7X4X7X6X6X7X7X7X",
"7X7X7X6X6X7X7X4X4X,X@XJ.( ~ M.2XqX8X2X*X%X+XOX+X*X2X8X8X2X1X*X1X8XqX8XG.Y 1 * f s d u V k.#XwX1Xn.T / F.|.;X,X7X7X7X7X7X7X7X7X7X7X",
"7X7X7X7X7X4X7X7X7X#Xh.X.X.V.+XqXeX8X1X`.N.%.%.l.Y.%X8X9X2X'.(.[.8XrXeX%XV./ 2 @ s :.p z Q k.'.2X+XB.@.' h. X>X7X7X7X7X7X7X7X7X7X7X",
"7X7X7X6X3X,X#XoX@XJ.R ~ V.2X9X8X9X1X`.b.W 6 6 Y g.(.1X8X$XA.n.T.*X2X1X2X*Xn.F o i :.:.s u B i.>XrX2Xj.D I E.>X3X7X7X7X7X7X7X7X7X7X",
"7X7X7X7X7XXXd.@.X.} O.G.>XeXrX9X1X`.l.R 4 + = K @.l.I.R.I.n.k.M.R.(.(.'.`.x.S & u i a i o % / !.wXeXG.A V W.>X6X7X7X7X7X7X7X7X7X7X",
"7X7X7X7X;XD.T V B ~ G.1X5X8X9X*X`.b.) S < & 7 R } O.%.k.n.m.b.b.b.b.b.V.M.+.A & < V k 4 % = R n.+X1XM.D J D.XX#X>X4X4X4X7X7X7X7X7X",
"7X7X7X7Xz.#.X.%.%.n.(.*X$X].[.`.b.W R _ I 3 8 W X.| %.M.R.`.(.M.k.*.k.A.R.g.S = J [ ' / 7 < R k.R.`.M.^ L ' u.d.V.:X7X4X7X7X7X6X7X",
"7X7X6X7XI _ Y.1X%X'.I.M.m.m.V.g.} D #.~.z.S 8 R O.&.m.(.*X2X$XT.b.*.g.T.+XG.Y S d.~.|.J.! 8 ~ k.V.M.b.s.{ K B S ~ W.>X3X7X7X7X7X7X",
"7X7X7X6XB O.1XrXOXg.| R Y R R R ~ @.Q.>XW.D 6 Y @.s.M.R.].+X`.I.b.a.g.m.V.d.X.y.~.:X>XoXh./ ! _ &.*.A.(.I.a.X.O._ u.F.XX6X6X6X7X7X",
"7X7X6X7XB X.%X+Xo.6 3 3 4 3 4 A @.^.;X>XD.S 8 T +.a.b.n.V.V.V.n.v.b.x.| Y / z.|.#X,X,X-X~.z./ B R *.(.*X<X+X+X%XK._ J F.7X7X7X6X7X",
"7X7X7X6XB ! N.N.R = . + : F Y _ d.L.L.H.u.J L } p.g.n.P.P.T.A.M.m.P.I.+.6 K W.>X,X,X,X;XoXE./ % H *.(.$XOX!.OXrX$X) % z.7X6X7X7X7X",
"7X7X7X7XV 3 S R | R < & G *.T.Y.a.T S K K I } p.g.x.V.`.&X1X+XI.m.R.OXx.S L ~.7X6X6X,X:XoXW./ < Y s.I.I.a.Y #.<X%X_ : z.,X7X6X7X7X",
"7X7X7X7X( B + Z *.b.| ~ ] *.Y.Y.#.3 . $ 4 H  .......r.Z.{.{./.C.r.Z./.k.D T Q.7X7X6X6X:XoX|.i.! ~ | +.| Y 8 Y m.A._ S i.Q.7X6X7X7X",
"7X7X6X7XQ.#.< V $.T.'.I.o.G I R S = + % ; j n M N N 7.9.9.9.9.7.7.8.9.Q k R !.7X7X7X3X>X;XoX^.F.o.S 8 6 G { | W R O.| ^ ~ 7X7X6X7X",
"7X7X7X7X6XJ.B B W m.].Y.o.B 5 7 3 = < 6 b N M c t v 1.1.2.v v 1.1.1.c q , ~ ^.7X7X7X4X3X,X:XoXW.y.A 3 6 Y %.{ > 3 $.k.Y 3 7X7X7X7X",
"7X7X7X6X6XH.7 3 B I } X.d.z.z.h.~ 5 Z ) g.Z.t.4.x t r t t t t t t e 0 O & ~ ^.4X7X7X4X4X,X#XF.@.{ } +.| ^ R 8 + 6 &.m.T 3 7X6X7X7X",
"7X7X6X7X6XL.I V B B 8 ! N.#X>X-Xy.B G a.!.<X/.8.c t r r r r r e e g 4 5 S ^ H.#X4X7X7X4X4X#X@.3 Y &.b.s.{ D < % 8 } %.K 3 7X6X7X7X",
"7X7X7X7X6X@XJ.z.l.z.h.D.|.@X#X;Xi.7 G a.T.'.m.H q w e e r r e h g b W a.m.d.X.d.XX8X7X7X7XoX' < A Y R R ) d.#.6 < S G 6 3 7X6X7X7X",
"7X7X7X7X6X6X3X3X,X,X>X;XoXoX|.W.@.A R s.M.b.] B - w t c y y e 0 = K a.`.%XU.~ I z.;X,X7X7X#Xi.B 3 6 4 Z @.#XXX_ 6 6 6 6 V 3X7X7X7X",
"7X7X6X7X7X7X7X7X7X7X,X;XoX|.h.X.~ ) v.T.V.{ 7 * - q c v 2.2.n 0 = U b.`.[.(.m.%.@.z.XX4X7X,XQ.l.d.d.d.d.L.4X,XH.d.d.u.d.h.7X7X7X7X",
"7X7X7X6X7X7X7X7X7X7X,X;XoXE./ B Y s.[.1XG.G + $ ; q c m 2.3.v g < U &.l.m.R.%XU.~ V z.3X7X8X,X>X>X>X>X>X3X3X3X,X,X:X>X,X>X6X7X7X7X",
"7X7X7X6X7X6X7X7X7X3X3X:X-XE.! 6 R M.1XwXU.V . $ ; j c v 2.3.2.j > 7 Y | k.(.eX+X) 4 z.6X7X4X7X4X4X7X3X7X7X6X6X7X4X7X6X7X4X7X6X7X7X",
"7X7X7X6X6X7X7X7X7X3X3X,X>X~.( B Y k.[.5XK.J # % , w y y v 1.2.j & * 3 Y *.(.8X(.! V z.7X7X4X7X7X7X4X7X7X3X7X7X6X7X6X7X3X7X6X7X7X7X",
"7X7X7X7X7X7X7X7X4X7X6X6X,XXX( 6 A ^ s.l.u.' _ _ R l q h h j j g < B ~ ~ ) %.l.u.V V z.7X7X7X4X4X4X4X7X4X7X6X7X7X6X7X6X7X6X7X7X7X7X",
"7X7X7X7X7X6X6X7X4X4X7X7X6XoX' 3 3 3 B V ~ H.XXoXF.G ; - : ; , : 5 X.Q.l.K 8 V B 4 V z.6X4X7X7X4X4X4X4X7X6X7X7X3X7X6X7X4X7X6X7X7X7X",
"7X7X7X6X7X6X4X4X4X4X7X7X7X#Xd.S B 6 B B ' XX7X7X(.' V V 8 B B B K h.;XQ.~ 8 8 B V I L.7X7X7X7X4X4X4X4X6X3X7X3X7X3X7X7X7X3X7X3X7X7X",
"7X7X6X7X7X7X4X4X4X4X7X7X7XqX3X,X:X:X;X;X:X,X7X7X7X7X4X4X3X3X3X7X7X7X7X7X4X4X7X7X7X6X7X7X7X7X7X4X4X4X4X7X7X7X7X7X6X7X6X7X7X7X7X7X7X",
"7X7X3X7X3X7X6X4X4X4X4X7X7X7X6X3X,X>X,X7X6X,X7X7X7X7X7X4X6X3X6X3X6X6X6X6X7X7X3X3X6X6X6X6X7X7X4X4X7X7X7X4X7X6X7X6X7X6X7X7X6X7X6X7X7X",
"7X7X7X6X7X6X7X3X7X7X4X4X4X3X7X3X7X7X7X7X6X6X7X7X7X7X4X7X7X7X6X6X,X,X,X,X,X,X4X,X6X,X>X6X,X4X4X4X7X4X6X7X4X7X7X6X3X7X7X3X7X7X6X7X7X",
"7X7X7X7X7X6X7X7X7X7X4X4X4X4X7X4X7XqX7X7X7X7X7X4X6X4X7X7X7X7X6X,X:X;X;X;X>X,X,X,X>X;X;X;X>X,X,X7X7X7X7X7X7X6X7X7X6X7X7X7X4X7X4X7X7X",
"7X7X7X7X6X7X7X6X7X7X4X4X4X4X7X7X7X7X7X7X7X4X7X4X7X4X7X7X7X7X6X>X;X@XoX@X;X>X,X>X:X@XoX@X-X>X,X7X7X7X4X7X6X7X7X6X7X7X6X6X7X6X7X7X7X",
"7X7X7X7X7X6X7X7X4X7X7X4X4X7X7X4X7X7X7X8X7X7X7X7X4X7X7X7X7X7X6X;XoX.X X.X@X:X,X:X-XoXXX|.oX;X,X7X7X7X7X7X7X6X7X6X7X6X6X7X6X7X7X7X7X",
"7X7X7X7X7X7X7X7X7X7X7X7X7X7X7X7X7X7X7X7X7X7X7X7X7X7X7X7X7X7X,X:XoX.X|..X@X;X>X:X@X|.|.|.oX;X,X7X8X7X7X7X7X7X7X7X7X7X7X7X7X7X7X7X7X",
"7X7X7X7X7X7X7X7X7X7X7X7X7X7X7X7X7X7X7X7X7X7X7X7X7X7X7X7X7X7X7X,X-X.X|..X-X;X>X:X-X.X|.|..X;X,X6X7X7X7X7X7X7X7X7X7X7X7X7X7X7X7X7X7X"
};
