/* XPM */
static char *result[] = {
/* columns rows colors chars-per-pixel */
"65 65 220 2 ",
"   c #181916",
".  c #2C1918",
"X  c #12231E",
"o  c #22211D",
"O  c #39291A",
"+  c #182723",
"@  c #232423",
"#  c #2A2925",
"$  c #232C2B",
"%  c #2B2B2A",
"&  c #382826",
"*  c #322D2A",
"=  c #29302E",
"-  c #36302C",
";  c #2C2F31",
":  c #302F30",
">  c #2D3535",
",  c #333334",
"<  c #363639",
"1  c #383639",
"2  c #3B3A3C",
"3  c #4B0611",
"4  c #462F1D",
"5  c #583419",
"6  c #783E0E",
"7  c #6D3B14",
"8  c #663A1B",
"9  c #6B3C1A",
"0  c #743E14",
"q  c #723F1A",
"w  c #531825",
"e  c #6B172D",
"r  c #751826",
"t  c #48262A",
"y  c #493425",
"u  c #533825",
"i  c #522E32",
"p  c #423834",
"a  c #6C2630",
"s  c #6E2935",
"d  c #7B4214",
"f  c #75421C",
"g  c #7B441C",
"h  c #51423A",
"j  c #6B4225",
"k  c #784926",
"l  c #774E33",
"z  c #3D3D42",
"x  c #403F44",
"c  c #6E3B48",
"v  c #394447",
"b  c #314749",
"n  c #434245",
"m  c #45454B",
"M  c #48474C",
"N  c #4A494D",
"B  c #57484C",
"V  c #494751",
"C  c #454850",
"Z  c #4C4B53",
"A  c #4D4C58",
"S  c #504F53",
"D  c #504E5A",
"F  c #495357",
"G  c #525156",
"H  c #54535B",
"J  c #58575D",
"K  c #515A5D",
"L  c #5A595E",
"P  c #6B5655",
"I  c #555361",
"U  c #595665",
"Y  c #575867",
"T  c #5C5B64",
"R  c #5D5B6A",
"E  c #5E5C71",
"W  c #625F65",
"Q  c #605E6C",
"!  c #615E72",
"~  c #745C72",
"^  c #5C6A71",
"/  c #616066",
"(  c #63626B",
")  c #6A676D",
"_  c #6A696F",
"`  c #7B6964",
"'  c #656373",
"]  c #676776",
"[  c #6C6B74",
"{  c #69667B",
"}  c #6C6A7C",
"|  c #726D76",
" . c #716F79",
".. c #6A717B",
"X. c #74737D",
"o. c #79777F",
"O. c #8A122E",
"+. c #90122E",
"@. c #971B32",
"#. c #AE1734",
"$. c #93212E",
"%. c #892B37",
"&. c #992535",
"*. c #AD2437",
"=. c #B62238",
"-. c #82481B",
";. c #854C22",
":. c #8C5024",
">. c #895A3B",
",. c #9E3B49",
"<. c #A93B4C",
"1. c #875B43",
"2. c #A9505F",
"3. c #94654A",
"4. c #946851",
"5. c #9C5765",
"6. c #966875",
"7. c #8D7273",
"8. c #AB6678",
"9. c #6E6B82",
"0. c #6B6888",
"q. c #716D84",
"w. c #716E89",
"e. c #6F7586",
"r. c #757483",
"t. c #787783",
"y. c #767983",
"u. c #7B7A84",
"i. c #75728B",
"p. c #79758E",
"a. c #7C7B8A",
"s. c #7A7691",
"d. c #7A7997",
"f. c #7D7994",
"g. c #827A84",
"h. c #807F89",
"j. c #907A85",
"k. c #807D93",
"l. c #827E9B",
"z. c #837FA3",
"x. c #82818D",
"c. c #8C858A",
"v. c #988383",
"b. c #858492",
"n. c #868997",
"m. c #8A8996",
"M. c #85809E",
"N. c #8C8B9C",
"B. c #918897",
"V. c #918D9D",
"C. c #92909F",
"Z. c #A18D92",
"A. c #AA949A",
"S. c #8682A0",
"D. c #8B88A6",
"F. c #8E89AA",
"G. c #918CAD",
"H. c #8E91A2",
"J. c #9593A4",
"K. c #9695AA",
"L. c #9896AA",
"P. c #9898A8",
"I. c #9B99AD",
"U. c #8D89B3",
"Y. c #928EB8",
"T. c #9691B4",
"R. c #9893B7",
"E. c #979DB3",
"W. c #9E9DB3",
"Q. c #9792BC",
"!. c #9B95BA",
"~. c #9E98BE",
"^. c #B095A4",
"/. c #A19FB7",
"(. c #A19FB8",
"). c #9EA5B5",
"_. c #A2A1B5",
"`. c #A5A3BB",
"'. c #A9A6BD",
"]. c #AAA8BF",
"[. c #B5ADB9",
"{. c #9793C0",
"}. c #9B96C4",
"|. c #9E99C6",
" X c #9F9AC8",
".X c #A29CC4",
"XX c #A39DCB",
"oX c #A8A8C2",
"OX c #ACAAC3",
"+X c #A6A1CE",
"@X c #AAA3CD",
"#X c #B1ADC5",
"$X c #B1AEC9",
"%X c #AFB2CE",
"&X c #B8B8C2",
"*X c #B4B2CD",
"=X c #A7A2D0",
"-X c #ABA5D3",
";X c #AFA8D6",
":X c #B1AAD7",
">X c #B4ADDB",
",X c #B7B4D0",
"<X c #B9B6D3",
"1X c #B5B8D4",
"2X c #BBB9D6",
"3X c #B7B0DE",
"4X c #B8B1DF",
"5X c #BEBBD9",
"6X c #B7B0E0",
"7X c #B8B2E0",
"8X c #C1BEDD",
"9X c #C1BEE0",
"0X c #C5C3DB",
"qX c #D5D1DE",
"wX c #C5C2E2",
"eX c #C9C6E6",
"rX c #CAC7E8",
"tX c #CCC9EA",
"yX c #D5D4EB",
"uX c #E5E3F5",
/* pixels */
"7X7X7X7X7X7X7X7X7X7X7X6X7X7X7X7X7X7X7X7X7X7X7X7X6X7X7X7X7X7X7X9X7X7X>X-X+X}.}.}.XX-X>X6X7X7X7X7X7X7X7X7X7X7X7X7X7X7X7X7X6X7X7X7X7X",
"7X7X7X7X7X6X7X7X7X7X7X7X7X7X7X7X7X7X7X7X7X7X6X7X7X7X7X7X7X7X7X7X9X7X6X;X+X}.}.}.XX-X>X6X7X7X7X7X7X7X7X7X6X7X7X7X7X7X6X7X7X7X7X7X7X",
"7X7X7X7X7X7X6X7X7X7X7X6X7X7X7X7X6X7X7X6X7X6X7X7X7X7X7X7X7X7X7X7X7X7X6X-X+X X}.}.XX;X>X7X9X7X7X7X7X7X7X7X6X7X7X7X7X7X7X7X7X7X7X7X7X",
"7X7X7X7X6X7X7X7X7X7X7X7X7X7X7X7X7X6X7X4X7X7X7X6X7X7X7X7X7X7X7X7X7X7X6X>X=X+XXX+X=X:X>X4X7X7X7X7X7X7X7X7X7X7X7X7X7X7X7X7X7X7X7X7X7X",
"7X7X7X7X6X7X7X6X6X7X7X7X6X7X6X7X7X4X6X7X6X7X6X7X7X7X6X7X6X7X7X7X7X6X6X>X;X-X=X-X:X:X>X4X7X7X7X7X7X7X7X7X7X7X7X7X7X7X7X7X7X7X7X7X7X",
"7X7X6X6X7X6X7X7X7X7X6X6X7X6X6X7X7X6X7X6X7X4X7X6X7X6X6X6X6X7X7X7X7X6X6X6X6X>X>X>X>X4X4X4X7X7X4X4X7X7X7X7X7X7X7X7X7X7X7X7X7X7X7X7X7X",
"6X6X7X6X7X7X6X6X7X6X7X7X6X6X7X6X7X4X4X7X4X6X7X4X6X6X7X6X7X7X7X7X6X7X6X6X6X6X6X6X4X4X4X4X4X4X7X7X7X7X7X7X7X7X7X7X7X7X7X7X7X7X7X6X7X",
"7X7X7X7X6X7X7X7X7X7X6X6X6X7X6X7X6X7X6X7X6X7X6X7X7X7X6X6X7X6X6X7X6X7X6X7X7X6X6X6X7X4X4X4X4X4X4X4X7X7X7X7X7X7X7X7X7X7X7X7X7X7X6X7X7X",
"7X7X6X6X7X7X7X7X7X6X6X7X7X7X6X7X7X7X7X7X7X7X6X7X7X6X7X6X>X-XF.Q S S S D H I H H U 9.!.:X>X4X4X4X7X7X7X7X7X7X7X7X7X7X7X7X7X7X7X7X7X",
"7X7X7X6X6X6X7X7X7X7X7X7X6X7X6X7X7X7X7X4X7X3X7X6X3X7X4X3X.Xf.Q L J D J ] r.a.p.a.r.] { M.:X4X4X4X7X7X7X3X4X7X7X6X7X7X6X6X7X6X7X7X7X",
"7X7X6X6X7X4X7X7X7X7X6X7X7X7X7X7X7X7X6X6X>X;X:X:X:X:X;X-XM.S N [ x.g.m./.<X2X<XwX*XM.G U T.>X>X>X3X>X>X>X>X3X6X6X6X>X>X>X>X>X7X7X7X",
"7X7X9X7X7X7X7X7X7X7X6X6X7X7X7X7X7X7X6X@XF.k.i.i.w.q.q.9.R S / o.V./.*X8XrXrXrXtXeX$Xb.' q.S.XX>X:X-X=X;X:X>X6X6X>X>X-X-X;X>X>X7X6X",
"7X7X7X7X7X7X7X9X7X7X7X7X7X7X9X7X7X4X7X(.{ x 2 2 2 2 1 2 Z [ u.x.V.'.5X8X8X8X5X5X8X8X*Xb.H H G.>X-XXXXXXX-X:X>X>X>X=XXXXXXX;X>X>X6X",
"7X7X7X7X3X3X4X4X7X7X4X7X7X4X7X7X3X3X4XT.D , x G W ' Q ( u.K.I.b.h.x.H.E.oX1X2X*XOXOX$Xb.M z D.;X@XXXXXXX+X-X>X:X-XXX X XXX-X>X6X6X",
"7X6X7X6X>X>X>X>X4X4X7X3X>X>X>X>X3X3X3XR.I 1 D u.K.'.OXoX$X*X].C.[ N N [ H.OX<X'.V.N.N.[ n m F.;XXXXX|.|.XX+X-X-XXXXX|.}.XX=X>X>X7X",
"6X6X>X>X;X-X-X;X>X3X>X>X>X;X-X;X:X>X3X.Xl.' W X.J.*XrXtXeX&X].W.X.< . i 6.A.`.P.u.t.o.W z Z F.>X-XXX|.|. XXX+XXXXX X|.XXXX;X>X>X7X",
"3X3X>X-X=XXXXX-X;X>X>X>X-X+XXX+X-X>X3X>X@XG.' G _ C.1XwX,XI.W.].H.v . w 2.8.m.n.u.g.u.W x V G.>X:X-XXXXX X|. X|. X XXX+X-X;X>X6X7X",
">X3X>X-XXX X XXX-X:X>X-X+XXX}.XX+X-X3X3X@XF.I , n / x.P.C.x.C.*XoXe.c ,.<.5.u.n.C.L.V.| x V F.6X>X>X;X+XXX|.}.}. XXX-X;X>X6X6X6X7X",
"3X3X>X=XXX}.|. X+X-X-X=XXX X}.XX=X:X>X@Xl.I 1 @ # 1 m G ( o.C.*X1X`.V.6.5.` x.J.].*X#Xk.Z V F.7X7X6X>X;X=X X}.}. X=X;X>X7X7X7X7X7X",
"3X3X>X-X=X X X XXXXX+XXX X}. XXX=X-XXXz.U m p 1 2 , @ o n [ I.*X9XwX1XW.n.u.c._.0XtX8XD.Z M G.9X7X7X6X>X=XXXXX XXX;X>X7X7X7X7X7X7X",
"6X6X>X>X-XXXXXXX X X X XXXXXXX-X;X.Xi.T H W W T / G , o 2 | I.,XwXrX5X%X).n.N._.wXyX7XH.S V T.4X7X7X4X3X:X=X+X@X=X>X7X7X7X7X7X7X7X",
"6X7X7X7X>X;X=XXX X}.}.}.XXXX-X-X.XM.D Z [ m.N.m.C.x./ 2 h ( C.].1X5X9XrX2XP.u.n.`.9XwXK.S x l.XX4X7X4X4X>X:X;X:X>X3X7X7X7X9X7X7X7X",
"7X7X7X7X7X>X;X=XXX|.}..XXX;X>X.Xi.U Z _ V.'.OX].#X_.b./ C N ( b._.*XwXuXqXP.F v ^ ).yX[.H % Z w..X7X7X4X4X4X>X3X3X4X7X7X7X7X7X7X7X",
"7X7X7X7X7X7X>X;XXX XXXXX-X-X@Xl.I G [ C.].2X8X2X5X2X].m./ > 2 _ J.OXeXuXqXc.,   1 c.qX&XH + < I S.@X>X4X4X7X7X7X4X4X7X7X7X7X7X7X7X",
"7X7X7X7X7X7X4X:X-X@X+X=X;X!.s.' ] b.K.].,X8X8X8X9X8X2X`.} , * / P.*X5X].c.P w 3 a 6.[.P.N , R X.q.s.!.4X9X7X7X7X4X7X4X4X4X4X4X7X7X",
"7X7X7X7X7X7X7X3X:X;X>X=X@Xl.D ' K.<X5X<X2X5X5X5X5X5XwX,Xb.n < / C.*X`...h t O.+.*.2.j.^ 2 N K.W.[ m l.4X7X7X7X7X7X4X4X4X4X4X4X7X7X",
"7X7X7X7X4X7X6X>X>X3X>X!.f.! ' N.*XeXeX9X0X8X5X2X2X2XwX8XL.( n N [ P.H.F . 3 O.#.=.,.S b $ J '.OXW # s.4X7X7X7X7X7X4X4X4X4X4X7X7X7X",
"7X7X7X7X3X>X:X>X:X:X-Xf.D ] L.2X8X8X8X5X2X2X2X2X2X5X8X2X].b.T p N  .y.F . w +.#.=.%.t + + L `.OX' < p.:X>X>X:X:X3X4X4X4X7X7X7X7X7X",
"7X7X6X6X>XR.S.l.M.M.l.! Q m.,XrXwX<X$X].'.].$X2X5X5X5X5X$X`.b.' H H K F B c O.+.#.@.a O # F W.<XN.! } l.l.M.l.S.~.3X6X6X7X7X7X7X7X",
"7X7X6X3X+X9.Z C M z M [ L.,X8XwX9X*XI.m.b.V.'.2X8X5X2X2X<X,X$XoXb.G 2 J | ,.O.+.+.@.@.r & F K.wX2XK.] M z M C A i.@X>X>X>X7X6X7X7X",
"7X7X7X!.k.Q T T T S T D.5XtX9X8X,XI.t./ _ b.`.2X8X5X<X2X8X8XeXrX].r.D T ! c e e r @.=.@.t v n.2X8X'.h.U H R R T ' l.F.F.!.:X7X7X7X",
"7X7XoX! Y a./.`.(.W./.$X8XeX9X,X/.t.S n W b.'.8X8X5X2X2X5X8X9XwX2XOXl.U x & & & t s *.$.t v X.L.L.K.L.W.W.`.'.W.r.H n V ] .X7X6X7X",
"6X7Xp.; Z L.rX,X`.OX,X&X*X*X*X/.u.G : * H h.I.#X2X5X8X5X<X$X$X2XwXrX,Xp.N > + + # a *.&.t > K  .o.x._.*XOX_.2XrXH.n o 1 G s.R.R.7X",
"7X6XZ   M _.wXH.] g.W._.I.W.I.h.L 1 @ , H X.m.L.OX5XeX0X#XI.I.*XeXrX0XOXb.D $ X + a *.&.t = > S _ x.P.P.X.( K.wXT.z * L Q T T I 7X",
"7X6X, % G H.I.T * n ) X.| o.o.W Z z x m S R [ h.K.OX*X*XI.x.b._.*X*X,X2X`.] > $ 2 c &.$.t + + 2 _ b.N.u.G 2 [ I.a.2 2 o.t.N ; % 7X",
"7X7Xn G ) ] U 1 o # 2 n M Z M I q.f.l.w.H N J [ r.b.N.C.m.h.x.C.K.L.I._.H.R z F 0.~ c i - @ o 1 _ c.N.x.[ / / T n % M a.u.Z % % 7X",
"7X7XG r.u.N # o % < z 2 : : x ! !.:X:XT.R z V Q ' [ r.x.m.m.b.x.h.x.b.V.h.L z ! Y.z.J x z z z x ( t.u.t.u.o.L 2 # @ n [ [ n % % 7X",
"7X7XG h.g.M     , T r.T : z ! U.-X4X3X.XR < M Q [ [ b.I.'.`.I.x.o.o.b.I.K.] z E }.}.l.w.0.0.0.E H H H H J J J G 2 % 1 Z G 1 % % 7X",
"7X4XH X.X.N @ + n h.'.p.p I R.;X>X7X4X!.R z M (  .h.L.#X5X1X_.C.o.o.n.].`.r.C E Q.=XXXXXXXQ.U.d.H z 2 2 * : U o.( 2 # 2 z z 2 2 7X",
"7X3X} U H 2 % D 9.p.b.( , Q XX9X7X7X>X.XQ 1 M ( X.x.C.I._._.P.m.h.u.h.h.p.} 0.d..X:X>X:XXX}.{.z.0.Y E Y < @ L b.X.2 < R } 9.9.9.7X",
"7X7XF.H v 2 n S..Xp.S x x ! XX4X7X>X;XT.R z Z ' y.h.n.n.n.m.b.x.x.b.y.K V { Y..X;X>X>X-XXX}.Y.U.U.z.Y.U.! 1 T u._ 2 Z F.+X+X+X@X7X",
"7X7X@Xi.' ! i.@X4XT.! Q ] l.@X4X7X@XG.i.I Z R ..a.x.N.J.I.E.H.b.N.I.m.G z q.=X>X>X>X>X-XXX{.Y.Y.{..XXX+XD.] T W G < G .X7X7X4X4X7X",
"7X7X3X+X|..X.X>X3X-X.X.X.X@X3X7X7X!.Q V Z Q X.u.a.x.P.OX1X,X_.m.C.]._.Q x w.-X7X6X7X>X;XXX|.{.{.}.+X;X>X-X(.q.m 2 1 I !.6X7X4X4X7X",
"7X7X7X7X4X7X4X4X4X4X4X4X4X7X4X7X7XT.V - h P ` ` ` 7.v.A.^.[.Z.7.7.A.Z.L n r.-X5X7X7X>X;XXXXX|.XX+X-X6X7X7X>XT.! I R p.+X7X4X4X4X7X",
"6X7X6X7X4X4X4X4X4X4X7X7X9X7X7X4X3XT.Z - u j l l l >.>.3.3.3.1.>.3.3.1.h n i.-X7X7X7X6X>X;XXXXX@X-X>X>X7X7X7X:X(.R.!..X>X4X7X4X7X7X",
"7X7X7X7X4X4X4X4X4X4X3X7X7X7X7X-X~.d.I B P l k f d d -.d d d g d d d 8 O z p.3X7X9X7X6X>X>X;X;X;X>X>X6X7X7X7X7X4X4X4X4X7X7X6X6X7X7X",
"7X6X7X6X4X7X4X7X4X4X3X3X3X3X>XT.] H T u.L.A.4.:.6 7 0 7 0 7 0 d 7 5 O o 2 s.;X4X7X7X7X6X>X>X>X3X6X6X7X7X7X7X4X4X4X4X7X3X7X6X7X7X7X",
"7X7X7X7X7X7X4X7X3X3X3X>X>X;X>Xl.v 2 ( J.*X&X7.l 7 7 9 9 9 9 8 8 u p 2 v H i.T.@X6X6X6X7X6X7X7X7X7X7X7X7X4X4X4X7X7X7X7X6X7X7X7X6X7X",
"7X7X7X7X7X7X7X7X7X7X>X:X-X+X=Xl.z 2 ( B._.J.) u 5 8 8 8 9 8 5 y 1 S  .N.N.9.! S.:X4X6X6X7X6X9X6X7X7X7X7X4X4X4X6X7X4X6X6X6X9X>X6X7X",
"7X7X7X7X7X7X6X7X7X7X>X;X+X|.Q.i.M Z X.m.b.[ C % 4 8 q q f f 5 O 2 ( J.*XOXa.Z ' ^.:X4X6X7X6X6X6X7X7X7X7X4X4X4X7X6X7X6X6X6X6X6X6X7X",
"7X7X7X7X7X7X7X7X7X7X3X=XXXz.' I L t.I.L.X.n = # y 8 f g ;.g 5 & v _ J._._.I.k.{ 0.l.-X6X7X7X9X6X7X7X7X4X4X4X6X7X7X7X6X6X6X6X6X6X7X",
"7X7X7X7X7X7X7X7X7X7X>X-XXXw.z n _ I.2X`.) # + # y 9 g ;.:.:.j - 2 T t.h.N.OX,Xh.x I .X6X7X7X6X6X4X4X7X7X6X4X7X6X4X6X9X6X6X6X6X9X7X",
"6X7X7X6X7X7X7X7X7X4X>X;X=X0.< M X.'.eX$X! @   & y 9 d -.:.:.j y > v J | V.2XwXm.x D }.6X6X6X6X6X7X7X6X7X6X7X7X4X6X6X6X6X6X6X9X6X7X",
"7X7X7X7X7X6X7X7X7X7X3X>X;Xs.z n _ P.<X`.{ ; + * y 9 9 q k ;.j y $ $ 2 W m.#X*Xa.c Y }.6X6X6X6X6X6X4X7X4X6X4X7X6X6X9X6X6X6X6X6X6X7X",
"7X7X7X7X6X6X6X7X4X7X7X4X>Xs.2 < N [ p.r.{ ! ~ ! B u u y u u u - < H ' U Q t.r.T z U |.6X9X6X6X6X4X4X7X7X7X6X7X4X6X6X6X6X9X6X6X6X7X",
"7X7X7X7X6X6X6X7X4X4X7X7X7Xl.z % : 1 2 V w.!.+XQ.} p * * & * * * A S.!.( 1 1 1 : < R .X7X6X6X6X6X4X4X4X6X7X4X6X7X6X6X6X6X6X6X6X6X7X",
"7X7X7X6X7X3X4X4X4X4X4X7X7XN.x % % % % x z.;X>X+Xi.x % % % % % % D R.@X{ , % % % z E }.6X6X6X9X6X6X6X6X9X6X6X6X6X6X6X6X6X6X6X6X6X7X",
"6X7X6X7X7X7X4X4X4X4X7X7X7XD.V , , , , x z.;X9X-Xp.M : , , , , , Y R.XXq.2 , , , x ~ XX9X9X6X6X6X6X6X6X6X6X9X6X6X6X9X6X9X6X6X6X9X7X",
"7X7X7X7X7X3X7X4X4X4X7X7X4X7X6X3X>X>X>X>X6X6X9X6X7X7X7X4X6X6X6X3X6X6X6X3X3X3X3X6X6X6X6X6X>X6X6X6X6X6X6X6X6X6X6X6X6X6X6X6X6X6X6X6X7X",
"7X6X3X7X7X7X6X7X7X4X4X4X4X4X7X7X6X6X6X6X6X6X>X6X4X4X7X7X6X3X6X6X>X>X>X>X3X>X3X3X6X:X>X6X>X>X>X6X9X6X6X6X6X6X6X6X6X6X6X6X6X6X6X6X7X",
"7X7X7X7X7X6X7X7X4X7X4X4X4X4X7X7X7X7X9X6X7X7X7X4X4X4X7X7X6X6X6X>X:X-X-X-X;X>X>X>X>X-X-X-X-X>X6X6X6X6X6X6X9X6X6X6X6X6X6X6X6X6X6X6X7X",
"7X7X7X7X7X6X7X6X7X7X4X4X4X4X7X4X6X9X6X9X7X7X7X4X4X4X7X7X9X7X6X;X-X+XXXXX-X>X>X;X-X+XXX+X+X-X6X6X6X6X9X6X6X6X6X6X6X6X6X9X6X9X6X6X7X",
"7X7X7X7X7X7X7X6X7X3X7X7X4X7X7X4X7X7X7X7X7X7X7X4X7X6X7X9X7X7X>X;X+X}.}.XXXX;X>X;X+XXX}. XXX-X6X6X7X6X6X6X6X6X6X6X6X6X6X6X6X6X6X6X7X",
"7X7X7X7X7X6X7X7X7X7X7X7X7X7X7X7X7X7X7X9X7X7X7X7X7X6X7X6X7X6X6X-X+X}.}..X=X-X:X;X+X X}.}.XX-X6X7X7X9X7X6X6X6X6X6X9X6X6X6X6X6X6X9X7X",
"7X7X7X7X7X7X7X7X7X7X7X7X7X7X7X7X7X7X7X7X7X7X7X7X7X7X7X7X7X7X7X3X=X}.}. X=X-X:X;X=X X}.}. X-X>X7X7X7X7X7X7X7X7X7X7X7X7X7X7X7X7X7X7X"
};
