/* XPM */
static char *result[] = {
/* columns rows colors chars-per-pixel */
"64 64 68 1 ",
"  c #3C3756",
". c #3E3A59",
"X c #423E5D",
"o c #44405F",
"O c #464262",
"+ c #4A4666",
"@ c #4C4768",
"# c #4E4A6B",
"$ c #514C6D",
"% c #534E71",
"& c #565274",
"* c #585375",
"= c #5B567A",
"- c #5D597D",
"; c #605B7E",
": c #5F5B82",
"> c #625E83",
", c #666185",
"< c #686386",
"1 c #67638B",
"2 c #69658C",
"3 c #6E698D",
"4 c #706A8E",
"5 c #6B6790",
"6 c #6E6992",
"7 c #716D94",
"8 c #736F98",
"9 c #76729C",
"0 c #79749C",
"q c #7D789F",
"w c #7A76A1",
"e c #7E7AA4",
"r c #827DA5",
"t c #837EA9",
"y c #8682AD",
"u c #8B85AD",
"i c #8783B0",
"p c #8A86B2",
"a c #8D89B5",
"s c #8F8BB8",
"d c #918BB5",
"f c #928DBB",
"g c #9591BE",
"h c #9993BF",
"j c #9692C0",
"k c #9A95C3",
"l c #9E98C6",
"z c #9F9AC8",
"x c #A19BC6",
"c c #A39DCB",
"v c #A6A0CE",
"b c #A9A2CF",
"n c #A7A1D0",
"m c #ABA5D3",
"M c #AFA8D6",
"N c #AFA9D9",
"B c #B0A9D7",
"V c #B3ADDB",
"C c #B7B0DE",
"Z c #B8B1DF",
"A c #B7B1E0",
"S c #BAB3E1",
"D c #BFB8E6",
"F c #BFB8E8",
"G c #C0B9E7",
"H c #C2BBEA",
"J c #C7C0EF",
"K c #CAC3F3",
/* pixels */
"AAAASAAZSAAAAAAACAAAAAVVGCGVVAAAGBBGBGBGZZAZZZZZAZVZZZZVGVZZZZZZ",
"AASAZZAAAAASAAGAVGGVVGGAVCGVGVAABGGAGBGBVGGZZZZZVVZVVVZGZAZZZZAA",
"AAZAAAASZAAZCSACVVAVCGVAVGVVGVAAGVAAAABGAAZZAZZVVVBVVGCAZGVZAAAA",
"SZSAASZZSAAZSCCCGAAGAACACCVGAAAVBGAAGAAVZZZZGVVBmbmmBVCAGVZZZAGA",
"ZZAASZZSAAAACSSAAGVAASASCCAAGVVGZAAGBAAAZZGGGZVmvxznmVVGSZSZZZZZ",
"AAZZZZZSCSCSSCSCAACAACACCGCVAAVGZAAAGVAAZZZAZZVbxklznVAASGZSZZAA",
"SSZSZZZZSAACSSACAAGCSASACAAGAVGAZZAAZAAGZZZZGVBmcklzmBAGSSZZAAZZ",
"ZAAAZZZSASAAACASAAAAAACACCAAGVVAZZAZZAAVZCGGZCVmnccvmVGAGZSAAAZZ",
"VGCVGACCAAAAACAACSCSACSASCCSSCSCZAAAZAAVZGZZZZVBmmmmBVVGZZZAAZAS",
"CAAGVAACCGAAGAGACCSSSSSCCSSSSSCSAAAAZVAGZAGZZCZCVVBBZZZZSZZZASZZ",
"CCZZCACGCCGSGCAGCGCGGSSSSSCCAACCZSZZZGZAZZZGZGCGGGAGGGSSSZZZZZAA",
"ZAZZZACCGGGGGGGGGGGGGGGSSSCCCACCAAZZZASZGGGGGGGGGGGGGGGZGZZZZZZZ",
"ZCCCCAGGGGGGGGGGGGGGGGGGSSCCCCCAASZZZZSGAGGGGGGGGGGGGGSGSSAAZZZZ",
"GCVGAVCCVCBGBCCVCGVVCCVCSCCGCCAGZZAZAAAAAAZZZVGGAZZZGSZZSASASSZS",
"GAGGGGGCBmbbbbbbbmbbbbmBASGSGGCGGSGGGGZVBBbBbBmVbBbmBBmBVSGSSGGS",
"GGGGGGCBckhgdggjdhhffjlcMCGGGGGGGGGGGGZBcktxtkhttkktthkbBSGGGGGG",
"GGGGHGBbxtttrrtttttrwttlcCGGGGGGGGGGGGAnkttrrttttrrrttpknAGHHGGG",
"ACZGGZBltew86688888668ttxMZGGSAZVZGGGAmltr865688rr6268ttlMASGSSA",
"bmmBBmldt9551555655115rtgxmMMMbbbmmBmmzftr5515565521158tfzmBBmmm",
"kkhkkkdte96655666655568rtdjjjjhhthjjkgstr96555666655558rtfjhkhhh",
"ttttrrrrwwwwwrwweewwwtwrrttttttttrrtttttrww9rr9rrrtr99rrrrrrtrtt",
"8r88888rtttttttttttttttte9888888rr5r89wwrtttttttttttpttt8r6rr5rr",
"8751558rtjjjljjjkjjkjjsttw868888555558wttfkkkjjjjjjjkjstr5551125",
"8855568rskcnnncczncnnckjte99889wrr7r99ttjkcnbccczcnnnckst865515r",
"rr999wttznNNVBMMNNNNBbcxdttteettrrrwwtifxvBBBBBmmBBBBmvkttt999tr",
"tttttttlnNVACAVVVVAAGZBcjattttttttttttsjxBVZGZVVVVZVSVmvksttttit",
"jjjjfjkcMVGSGCCVSSGHHGVbkttwwrrrrrwrrttkbCHHGGGVGAAGGGVmckjffjjj",
"cczzccnMVAGGGGGGGHHHHHZcdr855>26551116tsbSHHHGGGGGGGGGSVNnczzzcc",
"NNmmmMMVAGGGGGGGFGHHHHCxt7;&&*;*==&&&:5tbZHHHHGGGGGGGGSSVMMMmmNN",
"VVVVVVAAAAAGCAAGSSGHHGbd0>$O+@$$%%@+O%:rtBZHHGAGAAAZSSAAAAVVAVAN",
"GAGAGAAVVVBBMBVVAAAANmkr3=#+@$&&*&$@+#&5rtvBAAAVABBBBBVVAAASSAAS",
"GSGGGGGVMbvccvmMNmmcktr4>;=;>>334<,:==:>rrtkvmBBmmbccnnMASFGHFFF",
"DDDGDDZBnzllllxvvvlay72,,2690yyuttrrrr;;>>9rdkcnnckkjlcnNSGGGGGG",
"ZDSSSSCNclggfghlkgpq<---20ydhlvnbbxhttr3>=>3rtjxkkjjjjlcmAAGGAGA",
"VBVVVBNnclgjgghfsy02-&*,9ukmVZFFGGGVbktr>*%>3wtdjjjjjjxxnmBBNBBB",
"mbvnnvcczlzzzlhdy92-*&;6ykMZGHHJHHHGGbhr6>&&;>wtajklzxxccnnnbnbb",
"zzlklllzccmNBbhu92-&=>8ygbCDFHJJHHHHGVvjt8>=*=<rtxcBMmccczljxkxl",
"gkgggjkzvNCSZVxu6-$&:8ygvMASFFFFHGGGGVMcjt8>&%*4txCGACBczkjjjjjj",
"jjgggglcmCDJJGxu<%@&2yjmNNCCAVANAVVCCVVMbkt3&+*<pcGHHGCMckjjjjjj",
"zzkkkzzvNAFKKGbu<#+&6avNVNmmNnnnnmmmmMNVBcd4&+#<tmHKKHABnclljkxx",
"vvvvvvmMVZJJKJbu;$+-0hmVNnnzzzjzzzzzzcmNANjw=+#;ubHKKHSVMnncnnnn",
"NVVBNMVVZZGJJChu;%%<yhBVNzkjjjjjjjjjjkcNNNkt<&%<rxZHHGSZVVBNBBBB",
"CZZZZZCSZDDZBbh0<=;4ubVVnzjpjpjjfjtjsjzmVVct8;->rdbCGSSSSAAZZCAA",
"SSSSSSDDGZCbxdy3<<4yhmCVzjjjijjpsfsspsjnVAMlr4>>4rdxMZSGGFSSZGAG",
"ZDSSSSGHDZBxu03,,6edbVCBnkjpijajfssppsjnVCVcfr5>;3ruxBZGGGZGGGZS",
"ZSSDSDDHJZbd0>=-2qazmVVMzjppppajssssssjnMVVmctr2;;;4dcZGGGGZZAZG",
"SDSSSSDDZVhy<&#=3ykmBVBbkjpjippittsspfjzvVVVMkt5;$*;rxVSGGGZGSSG",
"SSSDDSDDZmd0-+@=9avNVMvvjjjpieeetttttfjkznMNVvf8*##;0fmZGSSGSZGZ",
"DSDDFSSSVcp6&+@:rdmVBbzkjfsyew8889weiaajkxnMVbdr;$+*6pcVASSDDSDS",
"ZZZZSAAVmky1&+$<uxVVMcjjgsatw855558weisjjkcMVBxu;%o*5ykmVASSSSSS",
"VVCCVVNNnje5&#&3uxVBnzgfsspew5::::59easjfflbVBvu3*$*2ejnMNVVCVVV",
"mmmmmmmnzje5&$*4ucVVnkfssspe81::::59epaasflbVVbu4*$*5efznmmmmmmm",
"vzzzzzczlfe2&@&4uvCVnlfssspe95::::18epjjsslnVVcu4*$&1rfkzzzzzzcc",
"khjjjkkkjse2=$*4ucVVnlfsssse85::::59eppssjlnVVxu4*$*1efjlkkjhjkk",
"hjgjjgjjjpw2&#&4ucNNnlsssspew651156wippsssknVBvu3*#*1wafjjjjjgjj",
"jjgjjjjssi9>%#&4pcNNnkssspptew8668weeppssslnVBcu4*#$>9ysjjsjjjjj",
"jjggjjfsiw5:#@&6uvBVvhsspsaiieeeweeejijeasknNVcu6&@#=5eipjjjjjjj",
"ffsfsspye8:%O+&6uvBVbxfasssssppiejijjijjsfkmVNvu6&@O&,6eiissssss",
"yiiiyytw71=@oO&4ubVVMzjggjkjjjjjjjjjjjjjgjcMVVcu7&OO@=16weiyyyii",
"98998843>=#oXo&7uvVCVmclklzczznznzczzzjjlcnVAVva4&O.o#=,56999999",
">>;>;;;=*$oX.o&4dvCZAVmvmmmmmMmMMMMmnnnnbbVZZCbu4*o.Xo#&---,:,:,",
"&&$$$$$#@oX  o&4uvCGDAVVNNVNVVAVVVVNNAVVBVZGGCbd4&o  XO@@#$$#$&&",
"&&#$$#$##+ooo+=7avASDACVCVCCCVVAAAVAAVAVCCZZGCbu7=+Xoo@###$#$#&&",
"&&$##$###@oXX+-8dvADDSCVVVVCCVCAANAAVVAVCZZGGCbd7=+Xoo@##$$$##&%"
};
