/* XPM */
static char *result[] = {
/* columns rows colors chars-per-pixel */
"64 64 65 1 ",
"  c #36324F",
". c #373350",
"X c #3A3653",
"o c #3D3956",
"O c #3F3A58",
"+ c #423E5D",
"@ c #464261",
"# c #494565",
"$ c #4C4867",
"% c #4B4768",
"& c #4E496A",
"* c #514D6E",
"= c #524E71",
"- c #565174",
"; c #595477",
": c #5B567B",
"> c #5D597E",
", c #605B7E",
"< c #5F5B80",
"1 c #625E84",
"2 c #646085",
"3 c #696387",
"4 c #67638B",
"5 c #69658D",
"6 c #6F698D",
"7 c #6B6790",
"8 c #6D6992",
"9 c #716D95",
"0 c #736E98",
"q c #757096",
"w c #76729C",
"e c #7A76A1",
"r c #7E7AA4",
"t c #817CA5",
"y c #837EA9",
"u c #8984AE",
"i c #8783B0",
"p c #8A85B2",
"a c #8E89B5",
"s c #8F8BB8",
"d c #928CB6",
"f c #938EBB",
"g c #9591BE",
"h c #9993BE",
"j c #9692C0",
"k c #9A95C3",
"l c #9E99C6",
"z c #9F9AC9",
"x c #A19BC7",
"c c #A29DCB",
"v c #A6A1CE",
"b c #A9A2CF",
"n c #A6A1D0",
"m c #ABA5D3",
"M c #AFA8D6",
"N c #AFA9D8",
"B c #B0A9D7",
"V c #B3ADDB",
"C c #B7B0DE",
"Z c #B8B1DF",
"A c #BAB3E1",
"S c #BFB8E6",
"D c #C0B9E7",
"F c #C2BBEA",
"G c #CAC2F2",
/* pixels */
"AAVACCACAACCACACACCCACACAACCAAAAACCANCCCZZAAAZZZVVZVVZZZZAZZZAZA",
"CACAACCAACACCAACCAACACCACCCANAAACACAACCCZZAZZAZAZVVZZZZZAZAZZZAZ",
"ACACACCACCAAACCAACCACAACAACAAAAAAANANAACZAAAAAZVVBVVZZZAAAZZZCZA",
"CCACCCACCACCCACCCAACACCACCACAANACAAAACAAZAAAAVVBmmbmBZZAAZAZZAZZ",
"ACCCCACAAACAAAACACCAZAZZACCACAAAAANAAANAZZZAAZVmvccvmVZAAAACZZZA",
"CAACCCACCCACCCCACAACAZAZACCACAANAAAAAAAAZAAAAZVnclkcvVZAAAAAZZAZ",
"AACAACAAACCACAACCCAVCAZZCCACACAANAAAAAAAZAADAZVncklcbVZAAACCAZZA",
"ACACCACAAACACCCAACAAACZZACCACAACAAANAAANZAAAAZVmccccmVZZAAAACZAZ",
"CACACCCCCCCAACACCZZCCZZZZZZZAZZAAAAACACCCCAAZZZBmbbBNVZAAAZAZZAC",
"ACACAVDVAAAAACAAZCDCZZZZAAZZZAZZANAACAAAAAAAZZZZVVVVZZZAAAAZZACA",
"CCACCACDAAASSAAADCDDDZDAAACZZZZZCANACAAAAAAAADAAAAAAAAAAAZZZZZZZ",
"CACACCVDASSSSSSSZDDDDDDZAZAZZZZZAAAACAAAFAFFDDDDFFFFFFDDAAAZZZZZ",
"CCACCDVCDDDDSSSADDDDDDDDAAACZZZZCAACCACAAADDDADDFFFFDDAAAAAAZCAC",
"AAAACVCDVCCAACCAVDVCCZVAAAZAZVZZCAAAAAAAAAZAACZAZZZZZZZZZAAAAAZA",
"ADDADDDVNmnnnnnnbbbbnnmNVAADDDZDAADAAAACNNnnnnmmmbnmmmNNCAAAAAAA",
"DDDFFDVNnkjfjjjjhghffjknNCDFDDDDADDFFDCNnkjgffgghggffgkcNZFFFFDF",
"DDDFFDBvjayyttyyyytttyylbVDDFDDDDDDDFDVnkyyyyyyyytttyypjnCDDFDDD",
"ACADDCBlit088800000870yylBZDDDVDZVDDAANzst08780wt78780tpkNZDDAAA",
"mNNBBBlyyw754777887447tykvmNmmbbbbBBNnzfyt7545778754570yfcnBBmmm",
"jjggkkkytw8777888877780tyyjjjjhhhjjjjgfyt08777778877770tyfjjkhhh",
"yyyyytttteeewtwteeeewytttyyyyyyyytyyyyttwwtwtwttttttt0ttttttytyy",
"tt00t7ttyyyiyyyyyiyiyyytee000000t88t0wweyyyyyyyyyyyyiyyytt8tt7tt",
"5855555tysjjlkjjjjjkjjsyyw08800085888weyifkkkkggfjjjjjsyt5855557",
"0085750tsjnnnncncncnnckjyre0wweett8twwtyfkcnvcncccnbnckst085555t",
"ttt0weyylcNNmNmNNNNNmmvkyyyytttyttyteyifkbBBBBBmBmNBNmvjyyt00wyt",
"yyyyyysjnNVCDVVVNCCADVBccysyyyyyyyyyyysjcBVZDZCBVZZZZVBcjsyyyiiy",
"jjffjjkcmVDDDVDVAADDFDVbzyyyttttyyytyysjbVFFDDDVZAADFAVNckjffjjj",
"ccczzcnNVCDDDDDDDFFFFDDbjyew66ttt0808wyfbDFFFFDDADDFFAAVNncczzcc",
"NNmmNmNVCDDDDDDDDDFFFFDly01::,1221<:<10ybAFFFFDDFDDDDDAZVNNmmNNN",
"VVVVVVVCCCVDDCCDAADFFFByt1%+#&%%=&%+%=<tybDDFDAAAAAZAAAZAVVCCNCN",
"DAADDCCCVNNBmBNVVCAAVmjt3=++++++@++ ++=4thbVDAVVZNBBNNVVZAAAAAAA",
"DADDDDDNNmnncnmmNNNnzft5-@+++ + +++  +@;5tfznNBNNbvvcnmNVADDFDAD",
"DDDDDDANnxkjhxxxnnxfy01<%+O.XXoo++   +++;3tyhxbvvckkklxnVZDDDDDD",
"ZDZDDAVmvxjjhhhxllyt8<=%+OOOOOOO+ ++++++++,6yykxkkjjjjkvBVDDZZDZ",
"BBVVNNNvxkjjhhhhsyt5<%+OoO++++++++++++++++#-6tyyjjjjjjkcnmBVVVBB",
"nvvvvnncxxlxxxhdyt4;%+oXoO++@+@++++++++ ++++:6ttykklzxllcvnnvvvv",
"xxlkkllzcnnNBbhut1;%+XXXoO+@@+++++++++++  ++#;,tglbMMbvcxllllkll",
"kjjjjjkxnNVAABbd81%+XoOOO++@++@+++++++++++  +#,3ycZFDVBvxkjfjjjj",
"jjjfjjkvmCDFGDbd9-+X.o+O+++++@+++++++++++++ ++-thmDFFFZbvjjjjjkj",
"xxkkklcnNDFFGFBd6*+  o++@++@+@+@++++++++++  ++&3dVFFFFDMnclkkkll",
"nnnvcnmMVAFFGFBd9*+   ++@++++@+++++++++++++  ++tdBFFFFDBBnvvvvvv",
"NNBBBBVVAADFFDxt6=+  ++++@++++@+++++++++++++++$3abDFFDVVVVNBNBNB",
"ZZZVZCZAAAAAAbht3*++ +++++++++++@+++++++++ +++*2thmZDDZDDVZZZVZZ",
"DZADAADDDAZBbdtt,#++++++@++++@+@+++@+++++++ ++$;6tdcBZDDDDDZDDZD",
"ADADDDDDDAVxdt,*++++++++@++@++++++++++++++++ +++;3tucVDDDDZDZZAA",
"AAAAAADDDZbht,*++++++++++++++@+++++++++++++++++++-,tdmZDDDDZADZD",
"AAAAAADDDVby,-+++++++++++O++++++++++++++++++++++++-6ycNDDDDZDAAD",
"ADADDADAZBht,$   +++++ +O+OOO+OO++++++++++++++   +$,tjmCDAADAZDZ",
"DADAASAANnjw<#X  +o++++o+++++O+++OO+OOOO++++++o.  +;escNAAADSASA",
"CAAAAACVNky0<@OX +++++++++++++++++@+@@@@+@++++oX+++,eyxmVAAAAAAA",
"VVVVVVNNcjyw<&+X+ ++@@%##%#@@%@%##@#@%@@##@@@+oX++$,0yjcmNVVCVVV",
"mmmMmmmnzjyw<&+X ++@%&=========%==========&%@+oX++&,0yjxnmmmmmmm",
"ccxxxxczkjy0<&+XXo+%==<<<<<<-<<<<<<<<<-<;<-=%+O. +&,qyjkzcxxcccc",
"kkjjjjjjjfy0<&+XoO@=-<<41<11<<11<<<<11<411<-&#+X++$,qyfkkkjjjjkj",
"jjjjjjjjjat8<&+oO@%=<1444544454444444457541<=%@O+++,9tyjjjjsjjjj",
"jjjjjjjjsye7;&++@%=<<4777777555577445777774<<=%@+++,5tyfjjjjjjjj",
"jjfjjjfsyr8<-%@@%=<14477775775757477747775511<=%@@%=19ryyjjjjjjj",
"ffsfssayrw4;&#@%=<1444575555555547474747555511<=%@#&;40tyjjjyjyj",
"iiiiyyye04<=%@%&;145444454445444474444445555811;&%@#=>49eyyyyyyy",
"w0wwww95<<=%@+#=<158775444544454444445445557871<=%@@%=>158wwewwe",
"111111>;-=%@+@#=<155774444454444454544454457751:=#@+@%*-:>114<<1",
"--&*=&&&%#++++#=<175774444445554444444444557771:=@++++@%&&**==--",
"--****&=%%%@#%=;11708887787788775577777777789741-*####%&&&&*=&--",
"--&*&*&&&%#@#%&-14880887788877775777777777789741;*####%&&*&=&=--"
};
