/* XPM */
static char *result[] = {
/* columns rows colors chars-per-pixel */
"65 65 215 2 ",
"   c #0D0308",
".  c #120309",
"X  c #130A1A",
"o  c #1B131C",
"O  c #1E1621",
"+  c #1B1B36",
"@  c #241A27",
"#  c #221F36",
"$  c #242238",
"%  c #4E2734",
"&  c #6B3537",
"*  c #713A3B",
"=  c #1D274B",
"-  c #282B4A",
";  c #28304F",
":  c #34344A",
">  c #2C3558",
",  c #353955",
"<  c #323A5D",
"1  c #353D61",
"2  c #4C3649",
"3  c #653A43",
"4  c #3D425A",
"5  c #344164",
"6  c #3B4365",
"7  c #3A4568",
"8  c #3C4569",
"9  c #3D496B",
"0  c #3F4D70",
"q  c #44455A",
"w  c #754B51",
"e  c #434863",
"r  c #41466B",
"t  c #424A6D",
"y  c #4B526C",
"u  c #51506B",
"i  c #464C71",
"p  c #484E72",
"a  c #455375",
"s  c #4C5374",
"d  c #4B5777",
"f  c #4C5579",
"g  c #4C5B7C",
"h  c #525875",
"j  c #51557C",
"k  c #545C7B",
"l  c #755967",
"z  c #645E76",
"x  c #59627D",
"c  c #61677F",
"v  c #746A7F",
"b  c #B43407",
"n  c #B04E08",
"m  c #AF4022",
"M  c #FE5500",
"N  c #FC6D00",
"B  c #FD7427",
"V  c #8B5653",
"C  c #915C58",
"Z  c #A36B57",
"A  c #8A666C",
"S  c #FB7A48",
"D  c #FF8600",
"F  c #F6940E",
"G  c #FFA905",
"H  c #FFB407",
"J  c #F1A61B",
"K  c #F1A628",
"L  c #D69B4A",
"P  c #FF8752",
"I  c #E7A846",
"U  c #FF996D",
"Y  c #DBA560",
"T  c #565B82",
"R  c #5C5E86",
"E  c #4E6287",
"W  c #536383",
"Q  c #5C6384",
"!  c #596886",
"~  c #536689",
"^  c #5D638A",
"/  c #56698C",
"(  c #5A6B8D",
")  c #5C6F91",
"_  c #5E7192",
"`  c #656B84",
"'  c #666A87",
"]  c #63658C",
"[  c #656C8B",
"{  c #6A728A",
"}  c #787789",
"|  c #696A93",
" . c #6B6C94",
".. c #617494",
"X. c #6C7392",
"o. c #6A7696",
"O. c #637799",
"+. c #65799A",
"@. c #6B7C9B",
"#. c #767994",
"$. c #73739C",
"%. c #6B7EA1",
"&. c #7877A2",
"*. c #7A7AA3",
"=. c #7D7CA7",
"-. c #9E7C80",
";. c #807EAA",
":. c #73819D",
">. c #7B849B",
",. c #7E8598",
"<. c #6D81A2",
"1. c #7484A2",
"2. c #7B8AA6",
"3. c #778AA8",
"4. c #7B8DAB",
"5. c #6C8BB6",
"6. c #7690B4",
"7. c #7F9DC7",
"8. c #858598",
"9. c #918F9A",
"0. c #B19791",
"q. c #B6A187",
"w. c #838FA7",
"e. c #8582AD",
"r. c #8D93A3",
"t. c #8392AC",
"y. c #8896AE",
"u. c #9499A9",
"i. c #959AAC",
"p. c #8886B2",
"a. c #8D89B6",
"s. c #8F8BB8",
"d. c #928EBA",
"f. c #8495B2",
"g. c #899AB6",
"h. c #8B9DB9",
"j. c #919EB5",
"k. c #9591BE",
"l. c #9DA1AC",
"z. c #8FA1BD",
"x. c #9AA3B7",
"c. c #93A2BB",
"v. c #9EA9BD",
"b. c #A9A5AA",
"n. c #A2A6B4",
"m. c #A7ABB8",
"M. c #A3ACBC",
"N. c #B2ACB4",
"B. c #D1AB90",
"V. c #D1BBB9",
"C. c #EFC3B0",
"Z. c #9793C0",
"A. c #9B96C4",
"S. c #9E99C6",
"D. c #9F9AC8",
"F. c #A29DCB",
"G. c #8BA3C4",
"H. c #84A1C9",
"J. c #91A7C3",
"K. c #9CACC4",
"L. c #98B5D4",
"P. c #A3AEC1",
"I. c #A6A1CE",
"U. c #A9A6CA",
"Y. c #A4B1C5",
"T. c #AEB4C2",
"R. c #A4B6CD",
"E. c #ACB8CA",
"W. c #B4B8C4",
"Q. c #B3BDCC",
"!. c #A7A2D0",
"~. c #ABA5D3",
"^. c #AFA8D6",
"/. c #B0A9D7",
"(. c #B4ADDB",
"). c #ADBDD2",
"_. c #B7B0DE",
"`. c #B8B1DF",
"'. c #B7B0E0",
"]. c #B8B2E0",
"[. c #BAC2CF",
"{. c #ADC4DA",
"}. c #B6C5D7",
"|. c #BCC4D2",
" X c #C2C5CE",
".X c #D9C7C6",
"XX c #C4C9D4",
"oX c #CAD0DA",
"OX c #CCD2DC",
"+X c #D2D4DB",
"@X c #DBD7DA",
"#X c #E0CFCD",
"$X c #FCDACB",
"%X c #E6DAD9",
"&X c #FDE1D4",
"*X c #CED6E1",
"=X c #C7D9E8",
"-X c #D0D8E3",
";X c #D5DAE3",
":X c #DADDE4",
">X c #DBE0E7",
",X c #DDE2E9",
"<X c #E1E2E6",
"1X c #E3E6EA",
"2X c #E6E9EE",
"3X c #EAEBEE",
"4X c #E5EDF3",
"5X c #EBEDF2",
"6X c #EEF1F4",
"7X c #EBF4F9",
"8X c #F2F4F6",
"9X c #FAF5F3",
"0X c #F4F5F9",
"qX c #F6F8F9",
"wX c #FCFDFE",
/* pixels */
"].].].].].].].].].].'.].].].].].].].].].].].].].].].].].].].].].].].'.^.F.S.A.A.F.~.(.].].].].].].].].].].].].].].].].].].].].].].",
"].].].].].'.].].].].'.'.].].].].].].].].].].].].'.'.].].].].].].].].(./.F.D.A.A.F.~.(.].].].].].].].].].].].].].].].].].].].].].].",
"].].].].].].].'.].].].].].].].].].'.'.].].].].'.].].].].].].].].].].]./.I.D.A.S.F.^.(.].].].].].].].].].].].].].].].].].].].].].].",
"].].].].'.].].].].].].].].].].].].'.].].].].].].].].].].].].].].].].].'.!.I.F.F.!./.(.`.].].].].].].].].].].].].].].].].].].].].].",
"].].].].'.'.'.].'.].].'.'.].'.].].].'.'.]._.].].].].'.'.'.'.].].].'.`.(./.~.~.~././.`.`.].].].].].].].].].].].].].].].].].].].].].",
"].].'.].'.'.].].].'.].].'.'.'.].'.`.].`.].].]._.].].].'.'.].].].].].'.(.(.(.(.(./._.`.`.].].`.].].].].].].].].].].].].].].].].].].",
"].'.].].'.].'.'.].'.].'.'.].].'.'.].].].].].].].'.'.].].].'.].].].].'.'.'.'.'.'.`.`.`.`.`.`.].`.].].].].].].].].].].].].].].].].].",
"].].].].].].].].'.].'.].].'.].].].]._.].]._.]._.].].'.].].].].'.`.`.].].].].].].].`.`.`.`.`.].].].].].].].].].].].].].].].].].].].",
"].].].].`.].].].].].].].].'.'.'.`.].].].].`.].].].].(./.d.] i i i i p p p p s  .F.`.`._.].`.`.].].].].`.].].].].].].].].].].].].].",
"].].].].].].`.].].].].].].].].'.].].].`.].].`._./.d.&. .{ #.8.8.,.,.,.,.,.#.Q f  .$.=.S.(.].`.`.].`.`.`.`.`.].].].].'.].].].].].].",
"].].].].].`.].`.].].].].].].].].].`.`.`.`.(.(./.S.] < < {  X2X1X1X1X1X1X1X;XE.o.r , r $.~._.`.`.`.(.(.(._.`.].].].'.(.(.(.`.`.].].",
"].].].].].].].].].].].].].].].].].].].`.`.A.| T ^ #.u.i.W.3XwXwXwXwXwXwXwXwX4XQ.:.( ( Q X.A.`.(.(.~.~.~./.(.].(.]./.^.!.^./.(.`.].",
"].].].].`.`.].].`.`.`.`.].].].].`.`.`.(.I.#.i < x W.1X3X8XwXqX6X3X6X6X6X6X6X5X*Xv.g.f.[ s $.I.^.~.F.F.I.~./.(.(./.~.F.F.I.^.(.(.'.",
"].].].].`.`.`.`.`.`.`.`.].].].].`.`.`.k.| X.i.n.W.1XwXwXwXwX,XE.x.v.M.K.M.M.Y.c.4.3.3.2.o.!  .k.I.F.A.F.I.~./.(.~.F.D.S.F.!./.`.].",
"`.`.].`.(.(.(._.`.`._._._.(.`._.(.(.F. .] n.<X8X8XwXwXwXqX1XE.<.~ ( .._ _ _ _ _ .._ O.4.t.W t e.F.F.A.F.F.!.~.~.I.F.A.S.F.~.(.`.].",
"`.`.`._.^.~.~./.(.`._._.^.^.~.^./.k.] { m.:XwXwXwXwXwXwX>XM.:.( ~ ( ) _ _ _ ) ( _ ( _ <.@.s r e.~.F.F.A.D.F.I.F.F.S.S.D.I.~./.`.].",
"`.`.(.~.!.F.I.!./.(._./.~.I.F.F.d.$.' x.<XwXwXwXwXwXwXwX*X2.E ) O._ ~ 0 0 g ! ........+.~ 7 >  .k.F.I.F.S.S.S.S.D.F.F.!.^./.'.'.].",
"_._.(.!.K.D.D.F.~././.^.I.F.S.p.R ' m.<XwXwXwXwXwXwXwXwXOX2.E _ <._ 0 ; = 5 W O..._ ..+.! 5 = < ' k.^.!.F.S.A.A.S.F.!.^./.(.'.].].",
"_.(.(.~.F.A.S.D.I.~.~.F.F.A.A.;.1 ] oXwXwXwXwXwXwXwX8X-XY.:.( _ x g x { ` { ......_ _ _ ..o.c 6 t d.(.^.I.F.A.A.F.I.^.(.].].].].].",
"_._.(.~.I.F.S.D.F.F.I.F.F.F.A.;.1 ' +X9XwXwXwXwXwXwX,Xx.@._ _ ) 9 9 r.+X+X|.4.( _ .._ ( :.[. X{ r k.`./.!.F.F.F.F.^.(.].].].].].].",
"'.'.(./.!.I.F.F.F.S.F.F.F.F.#. .X.n.<XwXwXwXwXwXwXwX:Xw.~ / +./ > 4 l.qXwX,Xl./ _ @.O./ 3.;X2X>.r A.`.(./.~.I.!.!.(.].].].].].].].",
"].].].].(.^.!.F.S.A.Z.S.F.~.j x N.1XqX0X6X0XwXwXwXwX;Xt./ ( +.! ; - 9.<X1XXXt.~ ~ ..( ~ 3.XX+X} r s./._.(./././.(.'.].XX].].].].].",
"].].].].].'./.!.F.A.A.F.F.~.t k XXwXwX;XQ.oX6XwXwXwX;Xy./ ( +.( : + q v } ,.{ x 4 : , k @.>.} x f ^ &.`.`.(.`.(.'.(.].].].].].].].",
"].].].].].].(.^.F.F.F.F.~./.i k  XwXwX|.2.M.4XwXwXwX:Xf.( ( +.( 9 $ # $ # 4 W h $   o 4 g 4 : f ( 9 p ].`.].].].].].].].].].].].].",
"].].].].].].`.(.~.U.I.!.^.(.t x  X9XwX[.:.x.1XwXwXwX:Xy.( ( O._ x 0 4 5 > 0 ! y @     @ : , 9 ) ! 6 r ].].].].].].]._.`.`.`.`.].].",
"].].].].].].].`.^.^.^./.(.`.p y x.+XoXx.@.v.2XwXwXwX;Xt.~ / _ ......_ ! ) _ <.y @   . . O q _ %.W < t ].].].].].].].].`.`.`.].].].",
"].].].].`.].`.`._._._._.`.`.s < s ` x x ..Y.5XwXwXwX;Xt.~ ~ .._ ..<...<._ <._ y @ . .   o q @.<.T < i ].].].`.].].].].`._._.].].].",
"].].].].`.`.`.].`.].`.`.`.`. .h s 1 = 5 @.|.8XwXwXwX1XT.2..._ _ _ .._ _ _ _ <.y # X X   o 4 +.<.~ 5 u ].].].].`.].].].].].].].].].",
"].].].].].].].].`.].].].].].F.k.d.| < 0 2.oX0XwXwXwX8X,XQ.1./ ) O._ _ .._ <._ d ; + + X o q O.<.W 5 i ].].].].`._.]._.].].].].].].",
"].].].].].].].].].].].].].].`.`.`.F.$.W @.Q.8XwXwXwXwXwXOX2.E ) .._ _ _ _ _ / g 9 5 5 > : s _ / g k X.].].].].`._._._.].].].].].].",
"].].].].].].].].].`.].`.].].].`.`.(.F. .s u.2XwXwXwXwXwX;Xt./ / _ _ ) _ ) ) _ _ _ ( ( ! ( ..! i i e.F.(.].`._.`.].].]._._.].].].].",
"].].].].].].].].].].].].].].].].`.`.`.$.8 r.2XwXwXwXwXwX2X[.t.) E ~ ~ E E <.v.M.y.3.2.<.+.+.( 5 r d././././._.`.].].].].].].].].].",
"].].].].].'.`.].`.].].'.].].].].].].(.*.h 8.+XqXwXwXwXwXwX6XXX2...:.:...O.c.+X>XR.g.h.4.@.O.W 9 s s.!.!.~./.`.].].].].].].].].].].",
"].].`.'.].].'.].'.'.].`.`.`.].`.].].].S.*. .r.+XqXwXwX9XwXwX2X|.M.[.[.W.Q.oXqX4X).h.z.z.4.( a R *.k.F.F.F.~./.].].].].].].].].].].",
"].].'.].`.'.`.'.].].'.].].].].].].].].(.^.&.] i.oX#X%X9XwXwXwXqX7X6X8X6X6XqX6XOXP.h.G.c.2.Q f e.S.S.k.A.F.F./.].].].].].].].].].].",
"].].].].'.].].'.'.`.].].]._.`.].].(.].].(.F.;.o.v A 0.%XwXwX9XwXwXwXwXwXwX7XOXY.J.J.c.:.Q ] e.A.A.k.d.d.F.I./.].].].].].].].].].].",
"].].].].'.].`.].].`.].'.`.].].].].].].].].'.!.^ - % w 0.V.V.V..X.X.X@X4X4X=X).G.J.j.;.u 1 $.D.A.d.d.s.d.S.I./.].].].].].].].].].].",
"].].].].].`.'.].'.].'.].].].].`.].].].].].(.~.R > u -.A V C C C V C u.E.{.R.J.G.J.8.w % > &.A.Z.s.a.s.d.S.I./.'.].].].'.].].].].].",
"].].].].'.].].].'.`.].`.].`.].].].].].'.(.F.e.X.>.K.U.-.C C V % % * l v } #.#.#.#.l 3 2 r R &.e.a.s.d.Z.F.~./.'.].].].].].].].].].",
"].].].'.].'.`.'.].].].'.].`.`.].].(.].]./.&.k u.oX4X3X@X#X.Xb.` ' } l & & & * * * w z ( ~ i i $.a.s.Z.S.I.^.'.].].].].].'.].].].].",
"'.'.].'.].].].'.].].`.].`.].].].].].].].^.] r n.6XwXwXwX8X-X{.R.{.}.N.Z m b n n n Z :.5._ 9 < | d.k.F.I./.`.].].].].].].].].].].].",
"].].].'.'.].].].`.].].].`.].].].].].].(.F.| s n.5XwXwXwX-Xg.v.;X0X7X3XC.S M N F F L l.5._ 9 1 | a.A.F./.(.`.].].].].].].].].].].].",
"'.].].].].].'.].`.`.].`.].].].].].].(.A.&.X.i.+X8XwXwXwX|.@.y.1XwXwXwX&XP N D H H I l.5._ g a j $.k./.(.`.`.].].].].].].].].].].].",
"].].].'.].].].].`.`.].`.].].].].].].(.&.p r.<X9XwXwXqX3X|.y.v.1XwXwXwX$XP M D G H I l.5.O...! 9 u a.`.`.].`.].].].].].].].].].].].",
"].].].].].].'.].`.`.`.`.].].].].].]./.$.r u.3XwXwXwX1XQ.M.Q.;X8XwXwXwX$XS M D G H I l.5._ +.( 7 6 a.`.`.].].].].`.`.`.`.].].].].].",
"].].'.'.].].'.].`.`.`.`.].].].].].].(.$.r r.3XwXwXwXOX4.w.*XwXwXwXwXwX&XU B F J K Y l.5.+.+.! 7 r s.`.].].].].].`.`.`.`.].].].].].",
"].].'.].].].].].`.`.(.`.`.`.`.`.`.`.(.$.t u.1XwXwXwXOX1.2.;XwXwXwXwXwX9X$XC.B.q.q.b.c.4.+...! 7 r d.`.].].].].`.`.`.`.`.].].].].].",
"].].].].'.].].].`.`.`.(.(.(././.(.`.(.p.Q #.Q.+X;XOX[.c.P.,XwXwXwXwXwXwX7X=XL.7.7.G.t.@.W E E s | F.].`.`.`.`.`.].`.`.`.`.].].].].",
"].].].'.].].].].].].(./.^.!.!.~./.(.(.~.s.| ^ $.2.3.j.|.2XqXwXwXwXwXwX6XoXL.H.G.J.6.@.d < < s $.F.(.].].`.`.`.].'.`.'.'.`.`.].].].",
"].].].].].].].].].]./.^.F.F.F.F././.(./.F.;.p 1 f o.M.2XwXwXwXwXwXwX0X=XR.g.z.z.g.3._ 7 = , | F.].].].`.`.`.`.].].].].].].].].].].",
"].].].'.].].].].].].].~.F.A.F.F.I././.I.F.Z.;.i s x.2XwXwXwXwXwXqX5XXXK.g.z.c.f.<..._ a 7  .F.`.].].`.`.`.`.].`.].].].].'.].].].].",
"].].].].].].].].].].(.^.F.F.Z.F.F.!.I.F.F.F.d.j h W.wXwXwXwXwX9X+Xx.{ ~ <.4.4.:...~ g j $.S.].].].`.`.`.`.'.].'.'.`.'.`.].].].].].",
"].].].].'.].].].]._._.^.I.F.F.F.F.F.F.F.F.F.d.j h N.qXwXwXwXqX>Xu.e = > g O.+.O._ g 6 | I.(.`.`.].].`.'.].`.].].].].].].].'.'.].].",
"].].].'.'.].].].]._._.(./.~.F.F.A.F.Z.F.F.F.k.j h T.qXwXwXwX+Xu.X.^ 1 ; s _ _ O._ a 1 X.(.`.`.`.`.`.].].`.`.].`.'.`.'.`.'.'.].].].",
"].'.'.'.].].].].].`.].].]./.^.F.F.A.Z.F.F.F.F.j h W.qXwXwXqXm.s $.F. .1 g ..O.O...g 6 | ^.`.`.`.`.`.`.'.`.`.`.'.`.].'.'.].].].].].",
"].].'.'.].'.'.].`.`.].].].]./.^.F.A.F.F.F./.F.j s m.qXwXwX8Xn.r  .~. .1 g ....O._ f 1 ] ^.].].`.`.`.`.`.`.`.].].].].'.'.'.].].].].",
"].].].`.].`.`.`.`.`.].].].].].(.!.F.F.I.~.(.F. .] W.5X0X0X5Xm.' =.!.*.s ( %.*.1.$.] s &./.].].`.`.`.'.].`.'.'.'.'.`.`.].].].].].].",
"'.].'.].].].`.`.`.`.].].].].`.`./.~.~.~./.(.].].].].'._.].].].`.].].].].].].].'.`.`.].].].].]._.`.`.`.].].'.'.].].].'.].'.`.].].].",
"].].].'.].`.].`.`.`.].`.`.`.`.`.`.(.].].`.`.].].].].]._.].]._._.].'.'.'.'.].'.'.`._.`.`.`._._.].`.`.`.].].'.'.].'.].'.].].`.].].].",
"].'.`.].'.].`.].].].`.`.`.`.`.`.].].].].'.'.`.`.`._.].].].'._._.(.(.(.(.(.(.`.(.(.(.(.(.(._._.`.].].'.].].`.].'.`.].`.].].'.'.'.].",
"].].].].].].].].].].`.`.`.`.`.`.].].].].].].].`.`.`.].`.].].].(./.^.~.^./.(.(.(./.~.~././.(.`.`.].].].].].'.].].'.].].'.].].].].].",
"].].].].].].`.].].].`.`.`.`.`.].].].].].].].].`.`.`.].].].].`.(.~.F.F.F.^.^.(././.~.F.F.F./.(.`.].].].].].'.'.].].'.].].'.`.].].].",
"].].].].].].].].`.].].].`.`.].].].XX].].].].].].`.].].].].]./.^.F.F.A.S.F.^.(.^.F.F.Z.F.F./.`.].].].].].].].].].].'.].].].].].].].",
"].].].].].].].].].].].].].].].].].].].].].].].].].].].].].].(.^.F.S.A.F.I.^./.^.F.F.A.A.F.~.].].].].].].].].].].].].].].].].].].].",
"].].].].].].].].].].].].].].].].].].].].].].].].].].].].].].].'.!.D.A.D.I.~.^.^.!.D.A.A.K.~.(.'.].].].].].].'.].].].].].].].].].]."
};
