/* XPM */
static char *result[] = {
/* columns rows colors chars-per-pixel */
"65 65 214 2 ",
"   c #0E0307",
".  c #12030A",
"X  c #12050B",
"o  c #050213",
"O  c #140B17",
"+  c #1A121D",
"@  c #181729",
"#  c #111331",
"$  c #292432",
"%  c #24243B",
"&  c #30293B",
"*  c #622D32",
"=  c #6B373A",
"-  c #1D2647",
";  c #252A47",
":  c #322E47",
">  c #2C304C",
",  c #363346",
"<  c #252E51",
"1  c #2A3255",
"2  c #273359",
"3  c #343854",
"4  c #323B5C",
"5  c #2E3F64",
"6  c #353D61",
"7  c #383E65",
"8  c #6C3E44",
"9  c #39415F",
"0  c #3B4365",
"q  c #364468",
"w  c #3E466A",
"e  c #3C4A6B",
"r  c #46465A",
"t  c #75474A",
"y  c #684854",
"u  c #41476B",
"i  c #454B68",
"p  c #424B6C",
"a  c #50536B",
"s  c #454C71",
"d  c #494E73",
"f  c #445273",
"g  c #4B5374",
"h  c #485779",
"j  c #4E5479",
"k  c #4C5A7B",
"l  c #525A75",
"z  c #545877",
"x  c #52567C",
"c  c #555D7B",
"v  c #6A5465",
"b  c #715564",
"n  c #5B637C",
"m  c #766679",
"M  c #9E330C",
"N  c #9A3720",
"B  c #9C440A",
"V  c #915837",
"C  c #FF5901",
"Z  c #F6560B",
"A  c #F76D06",
"S  c #FF7C00",
"D  c #824D4C",
"F  c #925C57",
"G  c #97625E",
"H  c #855D62",
"J  c #956B6B",
"K  c #EC7549",
"L  c #EC8C01",
"P  c #FFA800",
"I  c #FFB100",
"U  c #F9A814",
"Y  c #D7912D",
"T  c #EFA92B",
"R  c #E8A83E",
"E  c #D08C5E",
"W  c #FF8C59",
"Q  c #FE9464",
"!  c #D4A769",
"~  c #4D5E82",
"^  c #545982",
"/  c #5A5D84",
"(  c #4E6186",
")  c #536384",
"_  c #5B6484",
"`  c #526589",
"'  c #5D6389",
"]  c #576A8D",
"[  c #5B6C8D",
"{  c #5C6E90",
"}  c #5F7192",
"|  c #5A749E",
" . c #636984",
".. c #686D85",
"X. c #62648C",
"o. c #636D8B",
"O. c #69718B",
"+. c #76788B",
"@. c #666791",
"#. c #676C93",
"$. c #6C6C94",
"%. c #627495",
"&. c #6D7294",
"*. c #637799",
"=. c #65799B",
"-. c #6A7C9C",
";. c #757A96",
":. c #7A7D96",
">. c #72729B",
",. c #767AA2",
"<. c #7B7AA3",
"1. c #857E8D",
"2. c #857F96",
"3. c #807FA9",
"4. c #6F809E",
"5. c #7B8299",
"6. c #6D82A4",
"7. c #6482AA",
"8. c #7485A2",
"9. c #7A89A5",
"0. c #7A8BA9",
"q. c #7E90AE",
"w. c #6C8BB5",
"e. c #7391BC",
"r. c #81859C",
"t. c #858A9C",
"y. c #938996",
"u. c #AD9997",
"i. c #B5A290",
"p. c #B2A69C",
"a. c #878EA4",
"s. c #8381AB",
"d. c #8D92A3",
"f. c #8392AC",
"g. c #8996AE",
"h. c #969BAC",
"j. c #989AA8",
"k. c #8785B0",
"l. c #8986B3",
"z. c #8C89B5",
"x. c #8F8BB8",
"c. c #928EBB",
"v. c #8697B2",
"b. c #8B9DB9",
"n. c #9591BD",
"m. c #939BB8",
"M. c #A799A2",
"N. c #9CA1AF",
"B. c #8FA0BB",
"V. c #94A4BC",
"C. c #9CA6B9",
"Z. c #BAA8AC",
"A. c #A2A5B4",
"S. c #A7ACBB",
"D. c #AEB1BD",
"F. c #C6B6B9",
"G. c #E8B4A8",
"H. c #809EC8",
"J. c #9B96C4",
"K. c #9E99C6",
"L. c #9F9AC8",
"P. c #A29DCB",
"I. c #8CA4C2",
"U. c #84A8CD",
"Y. c #97A9C2",
"T. c #97B5D1",
"R. c #A7A5CB",
"E. c #A6A1CE",
"W. c #ACB5C6",
"Q. c #AAB6C9",
"!. c #B7BAC4",
"~. c #B4BDCC",
"^. c #A7A2D0",
"/. c #ABA5D3",
"(. c #AFA8D6",
"). c #B0A9D7",
"_. c #B4ADDB",
"`. c #ACBED3",
"'. c #B0BDD0",
"]. c #B7B0DE",
"[. c #B8B1DF",
"{. c #B7B0E0",
"}. c #B8B2E0",
"|. c #B7C0CF",
" X c #BDC2CB",
".X c #B9C6D6",
"XX c #DACAC9",
"oX c #C5C9D3",
"OX c #C5CBD6",
"+X c #CACDD5",
"@X c #CAD2DB",
"#X c #CCD2DC",
"$X c #D2D5DB",
"%X c #D6D9DF",
"&X c #EDDAD5",
"*X c #FDE2D7",
"=X c #CBD7E5",
"-X c #D3D9E2",
";X c #DBDEE3",
":X c #E3DFE2",
">X c #DBE2EA",
",X c #E3E3E7",
"<X c #E6E9ED",
"1X c #EAECEE",
"2X c #FAEAE7",
"3X c #E5EBF1",
"4X c #EBEDF2",
"5X c #EDF1F5",
"6X c #EBF4FA",
"7X c #F2F4F6",
"8X c #F9F7F7",
"9X c #F4F6F8",
"0X c #F6F9FA",
"qX c #FCFDFE",
/* pixels */
"}.}.}.}.}.}.}.}.}.}.{.}.}.}.}.}.}.}.}.}.}.}.}.}.}.{.}.}.}.}.}.}.}.}.]./.E.J.J.J.P./._.{.}.}.}.}.}.}.}.}.}.}.}.}.}.}.}.}.}.}.}.}.}.",
"}.}.}.}.}.}.}.}.}.}.{.{.}.}.}.}.}.}.}.}.}.}.}.}.}.{.}.}.}.}.}.}.}.}.[.).E.J.J.J.P./._.{.}.}.}.}.}.}.}.}.}.}.}.}.}.}.}.}.}.}.}.}.}.",
"}.}.}.}.{.}.}.}.}.}.}.}.{.{.}.}.{.}.}.{.}.}.}.{.{.}.}.{.}.}.}.}.}.}.}.).^.L.J.K.P.(._.[.}.}.}.}.}.}.}.}.}.}.}.}.}.}.}.}.}.}.}.}.}.",
"}.}.}.}.}.}.{.}.}.}.}.}.}.}.}.}.}.{.}.}.}.}.}.}.}.{.}.}.}.}.}.}.}.}.}.{.^.^.L.P.^.(._.[.}.}.}.}.}.}.}.}.}.}.}.}.}.}.}.}.}.}.}.}.}.",
"}.}.}.}.}.{.}.{.{.{.{.}.}.}.}.}.}.{.}.{.}.{.}.}.}.{.}.{.}.}.}.}.{.[.[._.)./././.(.).[.[.}.}.[.}.}.}.}.}.}.}.}.}.}.}.}.}.}.}.}.}.}.",
"}.}.{.{.{.{.}.{.{.{.{.}.}.}.}.}.{.}.[.}.[.}.{.].{.}.}.{.}.}.}.}.{.[.[.[._._._._._.[.[.[.}.}.}.}.}.}.}.}.}.}.}.}.}.}.}.}.}.}.}.}.}.",
"{.}.}.}.}.}.}.}.}.}.}.{.{.}.}.}.].}.}.{.}.{.}.}.}.}.{.}.}.}.}.{.}.[.{.{.{.{.{.{.[.[.[.[.[.[.[.[.}.}.}.}.}.}.}.}.}.}.}.}.}.}.}.}.}.",
"}.}.}.}.{.}.{.}.}.{.{.}.}.{.}.}.}.{.}.}.].}.[.}.}.{.}.}.}.}.}.}.[.[.}.}.}.}.}.{.}.[.[.[.[.[.[.[.}.}.}.}.}.}.}.}.}.}.}.}.}.}.}.}.}.",
"}.}.}.}.}.[.}.}.}.}.}.}.}.{.{.{.}.[.}.[.}.}.[.}.}.}.{._.n./ u u w w w w w w i X.K.}.[.[.[.[.[.[.}.}.}.[.}.[.}.}.}.}.}.}.}.}.}.}.}.",
"}.}.}.}.}.}.}.}.}.{.}.}.{.{.{.}.}.[.}.}.}.[.}.}._.P.J.c.:.c l l l l l l l a e f ,.n.P.^.].[.[.[.}.[.[.[.[.}.}.}.}.}.[.[.}.}.}.}.}.",
"}.}.}.}.}.}.}.}.}.}.}.}.}.}.}.}.}.}.[.[.[.[.[.}.P.@.7 6  .S.oXoXoXoXoXoXoX Xg.[ p w i >./.[.[._.[._._._.[.[.}.}.}.[._._._.].[.}.}.",
"}.}.}.}.}.}.}.}.}.}.}.}.}.}.}.}.}.}.}.[.[.P.z.k.<.O.n _ h.:X0X0X8X8X8X8X0X9X>XR.o.p s / s.P.[._.)./././.)._.}._.{._././.(.(.].[.}.",
"}.}.}.}.[.}.}.}.}.[.[.[.}.}.}.}.[.[.].[.(.>.u 6 c A.oX+X;X8XqXqX0XqXqXqX0XqXqX-XV.9.9.o.j >./._./.E.P.P./.)._._.)./.P.P.E.(._._.}.",
"}.}.}.}.[.[.[.[.[.[.[.[.}.}.}.}.].E.k.<.<.$.....d.-X8X8XqXqX5X#XOXOX@X@X@X@X=XOXY.v.v.8._ / <.J.E.P.K.P.^./._.)./.P.L.L.P.R.).[.}.",
"[.[.}.[._.).).].[.[.[.].].].[.].).s.s 1 u h.$X;X,X7XqXqXqX0X@Xf.4.8.8.8.8.8.9.8.8.-.-.0.q.O.f >.K.P.J.K.P.^././.E.L.J.J.P.^._.].}.",
"[.[.[.[.(./.(.)._.[.]._.(.(.(.n.>.$.:.:.d.+X8XqXqXqXqXqX1XOXm.} ( ` ] } { { ] ] [ [ } 6.q.{ 0 X.P.P.P.K.L.P.P.E.P.L.K.L.E./._.].}.",
"[.[._./.^.P.E.^._._._.)./.E.J.>.j t.+X;X,X7XqXqXqXqXqXqX#Xg.{ { [ ] ] ` [ [ { } } { { =.*.k 4 _ P.R.P.P.P.K.K.K.K.P.P.E./.(.[.[.}.",
"].[._.R.Y.P.K.E.^.)._.(.E.c.@._ r.oX8XqXqXqXqXqXqXqXqXqX#X8.( { 4.4.h q 9 q ( } %.} %.*.} e - 9 >.n./.^.P.K.J.J.K.P./.(._._.[.[.}.",
"]._._./.P.J.K.K.E././.^.J.>.d r.+X8XqXqXqXqXqXqXqXqXqX4XoX8.] { } ] h 9 9 q n } =.%.} *.} n 9 9 i ,.).(.E.K.J.J.K.E.).[.}.}.[.}.}.",
"].]._./.E.P.K.L.P.P.E.P.@.X.d.oX8XqXqXqXqXqXqXqXqXqX<X~.g.=.} { k e 5.S.S.C.9.} { { } { } v.A.5.0 $._.).^.E.K.P.E./._.}.}.}.}.}.}.",
"].}._._.^.E.P.P.L.L.L.L.g ..+X8XqXqXqX7X4X7XqXqXqXqX-Xg.{ { *.[ q 9 5.$X&XoXg.{ { *.*.[ } S.@Xd.u $.]._.(.^.E.E.^.).{.OX}.}.}.}.}.",
"}.}.{.{._.(.^.P.L.J.J.K.w +.,XqXqXqX0X@XQ.#X0XqXqXqX-X0.` [ *.[ q - r +.5.5.O.%.*.=.-.} O.4.5.a 7 <.].].].).(.(._.{.}.}.}.}.}.}.}.",
"}.}.}.}.{.{.).^.P.J.J.L.p n D.%X%X$XoXg.4.~.5XqXqXqX-Xf.] ] =.} 9 @ + + @ $ f } ] n n { } i @ % 7 &.K.(.].].].].{.{.}.}.}.}.}.}.}.",
"}.}.}.}.}.{._.(.E.L.L.P.p 9 n ...... .k %.|.7XqXqXqX$Xf.] { =.o.9 @ o o o @ f n 9 $ $ i [ e # ; x ^ X.n.].[.[.[.}.}.}.}.}.}.}.}.}.",
"}.}.}.}.}.}.[._./.R.E././ d d d d 4 < q -..X0XqXqXqX-Xf.] { *.[ f > % % % 9 k l $   X & a 0 > i [ g 4 3.}.}.}.}.}.}.[.[.[.[.[.}.}.",
"}.}.}.}.}.}.}.[.).(.(.(.m.z.z.z.s.x 2 f f.=X0XqXqXqX-Xf.] ] %.%.] l k k h k } l $   . + $ 9 k } %.f 4 3.[.}.}.}.}.}.}.[.[.[.}.}.}.",
"}.}.}.}.[.}.[.[.].].].].[.[.[.[._.>.w O.'.3XqXqXqXqX$X0.` ] } %.%.} %.} | 4.4.h $ . . . X , %.6.[ p 7 s.[.}.}.[.}.}.}.].[.[.}.}.}.",
"}.}.}.}.[.[.[.}.[.[.[.[.[.[.[.[._.>.p d.;X0XqXqXqXqX-Xf.] ] %.%.%.4.} 4.} } 4.k $ . .   X , o.6.} e 9 s.[.}.}.[.}.[.[.}.}.}.}.}.}.",
"}.}.}.}.}.}.[.}.[.[.}.}.}.}.}.}.).@.i A.4XqXqXqXqXqX<XQ.0.*.{ } %.%.} } %.*.4.h % + O O X & [ 6.%.e 4 9.}.}.}.[.[.[.[.{.}.{.}.}.}.",
"}.}.}.}.}.}.}.}.}.}.}.}.}.}.}.}._.$.g h.,X0XqXqXqXqX0X<X X8.` { %.%.*.} %.%.*.k 9 - - # + , [ 4.{ f u 3._.}.}.[.[.[.[.}.].}.}.}.}.",
"}.}.}.}.}.}.}.}.}.}.}.}.}.}.}.}._.x.&.;.A.%X8XqXqXqXqX0X@X8.) { %.%.} } } } [ ) e e q 9 3 a [ [ j x $.n._.}.[.[.}.[.}.[.}.{.}.}.}.",
"}.}.}.}.}.}.}.}.}.[.[.}.}.}.}.}.{.).L.' c D.7XqXqXqXqXqX#Xf.[ { [ [ } { } } } 4.%.{ o.[ [ %.} h 0 @.P./.)._._.[.}.}.{.}.}.}.}.{.}.",
"}.}.}.}.}.[.}.[.}.{.{.}.}.}.}.}.[.[./.^ u A.7XqXqXqXqXqX<X Xg.} ) ` ) ( ( *.C.W.b.0.0.0.=.| %.p 4 $.^.^./.(.].].}.}.}.}.}.}.}.}.}.",
"}.}.}.}.}.{.}.[.}.[.}.[.{.}.}.}.}.[./.$.z h.;X8XqXqXqXqX0X5X.X9.%.4.4.4.*.g.@X>X`.b.b.q.6.*.[ f i $.J.L.P.(._.].}.}.}.}.}.}.}.}.}.",
"}.}.}.}.{.[.[.[.{.}.{.}.}.{.}._.}.}.).n.,.&.j.;XqXqXqXqXqXqX1XOX|.|.|.|.|.@X5X5X.XB.B.J.v.=.h j $.s.J.J.P.P._.}.}.}.}.}.}.}.}.}.}.",
"}.}.}.}.}.}.[.[.{.[.}.{.}.}.}.{.}.[.[.].P./ d N.XX&X:XqXqXqXqX8X5X7X0X0X5X0X5X>XQ.B.B.I.f.o.j @.c.c.c.c.P.P.(.}.}.}.}.}.}.}.}.}.}.",
"}.}.{.}.}.[.{.[.}.{.}.{.].}.}.}.}.]._.].(./ : y F G i.&X8XqX8X8XqXqXqXqXqX5X-XQ.Y.I.Y.0._ / ,.z.c.x.x.c.J.P.).{.}.}.}.}.}.}.}.}.}.",
"{.{.{.}.}.{.}.[.}.[.[.}.}.}.}.[.[./.J.c.l.@.z t = = H F.XXXXXXXXXXXX:X4X6X>X|.I.I.m.d...i j 3.x.x.x.x.x.K.^._.{.}.}.}.}.}.}.}.}.}.",
"}.}.}.{.{.}.{.[.}.[.}.{.[.[.[.]._.x./ u ^ a.!.F.Z.1.m F F G G G F G M.'..X`.Y.U.I.d.b y g h c $.l.l.c.J.P.^._.{.}.}.}.[.}.}.}.}.}.",
"}.}.}.}.[.}.}.}.{.}.{.}.[.[.]./.c.;.n g .. X8X8X9X=XN.J t * = D t 8 b +.4.:.:.5.2.m t y o.` e g @.>.<.J.E.(._.{.}.}.}.}.[.}.}.}.}.",
"}.}.{.}.{.{.}.{.[.}.}.}.[.}._.k./ 2.!.oX$X1XqXqXqX6X<XXXM.m y.Z.Z.2.b = * 8 8 t = y v _ *.} ` f 0 0 j s.P._.[.[.}.}.}.}.}.}.}.}.}.",
"}.}.}.}.}.}.}.}.}.}.[.}.}.}.].>.0 d.1XqXqXqXqXqXqXqX0X>X|.Y..X6X6X.Xy.F N M M B B V 5.7.} *.*.k 0 4 w X.z.[.[.}.}.}.}.}.}.}.}.}.}.",
"}.}.}.}.{.}.{.{.[.[.[.[.[.}.[.>.0 d.,XqXqXqXqXqXqX0X-XC.I.@X6XqXqX6X:XG.K Z A L L Y u.w.| } %.[ ] [ ~ s z }.}.}.}.}.}.}.}.}.}.}.}.",
"}.}.}.}.}.}.{.{.[.[.[.[.}.}.[.>.w d.<XqXqXqXqXqX6X@XS.m.`.1XqXqXqXqXqX*XQ C S P I T p.e.4.} %.%.*.-.#.i i }.}.[.}.}.}.}.}.}.}.}.}.",
"{.}.}.}.}.}.{.}.[.[.[.[.}.}.].3.s a.%X1X1X1X1X7X-XB.g.OX4XqXqXqXqXqXqX*XW C S P I T p.e.=.{ } *.*.-.[ e u }.}.}.[.[.[.[.}.}.}.}.}.",
"}.}.{.}.{.}.}.}.[.[.[.[.}.[.].n.>.;.j.A.A.N.A.W.'.C.~.1XqXqXqXqXqXqXqX*XW C S P I T p.7.( k } 4.*.-.{ q u }.}.}.[.[.[.[.}.}.}.}.}.",
"}.{.}.{.}.}.{.}.[.[.].].[.[.].).P.3.j i u 7 i k a.@X5XqXqXqXqXqXqXqXqX*XQ Z Y U U R p.| 5 9 ( | } %.[ p d [.}.[.[.[.}.[.}.}.}.}.}.",
"}.}.}.{.}.}.}.}.[.[.].].).).).)._.J.>.@.X.X.^ q [ @XqXqXqXqXqXqXqXqXqX2XG.K E ! ! i.t.( < < e e s f p _ 3.[.}.[.[.[.}.}.}.}.}.}.}.",
"}.}.}.{.}.{.}.}.}.}._.)./.^.^./.)._.)./.E.P.3.^ x  X8XqXqXqXqXqXqXqXqX3X|.B.B.V.B.v.-.h 1 < 4 0 0 0 s k.).[.[.[.}.{.}.{.}.[.}.}.}.",
"}.}.{.}.}.{.}.}.}.}._.(.^.P.P.P./._._.)./.E.3.d z  X8XqXqXqXqXqXqXqX3X.XT.U.U.H.e.7.} h 4 p $.<.>.<.s.^.[.[.[.}.}.}.}.].{.}.}.}.}.",
"}.}.}.}.}.}.}.}.}.}.{./.P.J.J.P.E.).).^.P.J.3.d c !.8XqXqXqXqX0X5X%XD.q.q.b.B.q.*.%.%.j 7 ' R.].[._.[.[.[.[.}.{.[.}.[.}.}.{.{.}.}.",
"}.}.}.{.}.}.}.}.}.}.{./.P.P.J.P.P.^.E.P.P.P.3.d c oXqXqXqXqXqX7X!.O.p f ] 6.8.4.%.%.*.^ 7 / /.[.[.[.[.[.{.}.[.}.}.{.}.{.}.}.}.}.}.",
"}.}.}.}.}.}.}.}.}.[._.).^.P.P.P.P.P.P.P.P.P.3.d c oX8XqXqXqXqX1Xh.> # - f } %.} %.} ] h x >./.[.[.[.}.{.}.[.}.[.}.].{.[.{.}.[.}.}.",
"}.}.}.}.}.}.{.{.}.}.]._.(./.P.P.P.J.J.J.P.P.x.d z  XqXqXqXqXqX1Xh.1 # - g { *.} %._ p x s.P._.[.}.{.[.}.{.}.}.{.}.}.}.}.}.{.}.}.}.",
"}.}.}.}.}.}.}.}.}.}.}.}._._./.^.P.J.J.P.P.E.c.d l oX8XqXqXqX<X Xr.j 2 2 h %.=.*.*.k 4 x P.}.}.[.[.[.[.{.}.}.{.}.{.}.{.}.}.}.{.}.}.",
"}.}.}.}.}.}.}.{.[.[.}.}.}.}.)./.P.J.J.P.P.(.n.d l oX8X8XqX8X!.O.$.z./ 5 h { =.*.*.k 0 x P.}.}.[.[.[.[.}.}.[.}.[.}.{.}.}.{.}.{.}.}.",
"}.}.{.}.}.].[.[.[.[.}.}.}.}.}.[.E.P.P.P./._.P.X.$. X4X9X9X4XS._ <.(.s.j ' -.8.,.,.o.j @.R.}.}.].[.[.[.{.}.].}.}.[.}.}.{.}.{.}.}.}.",
"}.}.}.].}.}.[.[.[.[.}.}.}.}.[.].)././.).).[.}.}.}.}.}.[.{.[.{.[.}.}.}.}.}.}.{.{.}.}.}.}.}.}.}.[.[.[.[.}.}.}.{.{.}.{.{.}.[.}.}.}.}.",
"}.}.{.}.{.}.{.[.[.[.}.[.[.[.[.[.[._.}.}._.[.[.[.}.}.}.[.{.].[.[.[.}.].].[.[.{.{.].{.{.].{.].].}.}.}.}.].{.}.{.}.].{.}.[.}.{.{.}.}.",
"}.}.}.[.}.{.}.[.}.}.[.[.[.[.[.[.}.}.}.}.[.[.[.[.[.[.}.}.}.[.[._._._._._._._.[.[._._._._._.].].].[.}.}.[.}.{.}.}.}.}.{.}.[.}.[.}.}.",
"}.}.}.}.}.}.[.}.}.}.[.[.[.[.[.[.}.}.}.}.}.}.}.}.[.[.}.}.}.}.}._.(.(./.(.)._._._.).(./.(.).).[.[.}.}.}.}.{.}.}.{.{.}.}.{.}.].}.}.}.",
"}.}.}.}.}.}.}.}.[.}.[.[.[.[.[.[.}.}.}.}.}.}.}.}.[.[.}.}.}.}.[._./.P.P.P./.)._._./.^.P.P.R.)._.[.}.}.}.}.}.{.{.}.}.}.{.}.{.}.}.}.}.",
"}.}.}.}.}.}.}.}.}.}.}.}.[.[.[.}.}.OX}.}.}.}.}.}.}.}.}.}.}.}._.(.P.L.J.P.^./.).(.R.P.K.K.P./.[.[.}.}.}.}.}.}.}.}.{.}.}.}.}.}.}.}.}.",
"}.}.}.}.}.}.}.}.}.}.}.}.}.}.}.}.}.}.}.}.}.}.}.}.}.}.}.}.}.}._.(.P.K.J.K.E.(.).(.P.P.J.J.P./.[.}.}.}.}.}.}.}.}.}.}.}.}.}.}.}.}.}.}.",
"}.}.}.}.}.}.}.}.}.}.}.}.}.}.}.}.}.}.}.}.}.}.}.}.}.}.}.}.}.}.}.{.^.L.J.L.E./._./.^.L.J.J.L./._.}.}.}.}.}.}.}.}.}.}.}.}.}.}.}.}.}.}."
};
