/* XPM */
static char *result[] = {
/* columns rows colors chars-per-pixel */
"65 65 214 2 ",
"   c #0D0104",
".  c #12040A",
"X  c #120914",
"o  c #150C1C",
"O  c #1E141F",
"+  c #131228",
"@  c #1A1C37",
"#  c #201622",
"$  c #221925",
"%  c #221D30",
"&  c #262338",
"*  c #6B3436",
"=  c #743935",
"-  c #1F274C",
";  c #262D4B",
":  c #36364D",
">  c #222E51",
",  c #253256",
"<  c #2C3456",
"1  c #2C375A",
"2  c #2E395B",
"3  c #363B57",
"4  c #333B5C",
"5  c #343E60",
"6  c #393F64",
"7  c #354266",
"8  c #394265",
"9  c #3D456A",
"0  c #3E4A6B",
"q  c #3D5177",
"w  c #41455E",
"e  c #584957",
"r  c #6A424C",
"t  c #754E56",
"y  c #464C67",
"u  c #41476C",
"i  c #434A6C",
"p  c #5F4D60",
"a  c #4A516D",
"s  c #454C71",
"d  c #494E73",
"f  c #455273",
"g  c #4C5274",
"h  c #475678",
"j  c #4D5479",
"k  c #4C5C7D",
"l  c #545B75",
"z  c #595A77",
"x  c #51557B",
"c  c #535B7D",
"v  c #755763",
"b  c #55607D",
"n  c #5B627C",
"m  c #64647D",
"M  c #726679",
"N  c #BC3703",
"B  c #B95607",
"V  c #B84728",
"C  c #FF5800",
"Z  c #FF6000",
"A  c #EF6A20",
"S  c #89504C",
"D  c #8A5755",
"F  c #9F7458",
"G  c #845D63",
"H  c #B37368",
"J  c #FF8800",
"K  c #F79810",
"L  c #FFA908",
"P  c #FFB308",
"I  c #EFA92A",
"U  c #D59F5A",
"Y  c #FF8855",
"T  c #E2A959",
"R  c #E29D71",
"E  c #4E5E81",
"W  c #565D80",
"Q  c #5A5D84",
"!  c #4F6286",
"~  c #546384",
"^  c #5D6285",
"/  c #536689",
"(  c #56698C",
")  c #5A6C8D",
"_  c #4B6794",
"`  c #5C6F90",
"'  c #5E7192",
"]  c #606681",
"[  c #636A83",
"{  c #61638B",
"}  c #66698B",
"|  c #756F86",
" . c #6B728D",
".. c #77778D",
"X. c #676892",
"o. c #6A6B93",
"O. c #627495",
"+. c #6D7292",
"@. c #6C7795",
"#. c #637799",
"$. c #66799A",
"%. c #6A7C9B",
"&. c #777B92",
"*. c #73739C",
"=. c #677FA4",
"-. c #797AA3",
";. c #7B7AA4",
":. c #857889",
">. c #817FAB",
",. c #6F809F",
"<. c #7B8198",
"1. c #6882A8",
"2. c #7383A2",
"3. c #778AA7",
"4. c #7989A4",
"5. c #7C8DAA",
"6. c #708AB2",
"7. c #7A92B6",
"8. c #7FA7CC",
"9. c #84808B",
"0. c #84889A",
"q. c #858A9D",
"w. c #948E9D",
"e. c #96959F",
"r. c #A98889",
"t. c #AE9491",
"y. c #B2A598",
"u. c #8388A3",
"i. c #898EA1",
"p. c #8583AD",
"a. c #808FA9",
"s. c #8594AD",
"d. c #8B94A9",
"f. c #9399AB",
"g. c #8785B0",
"h. c #8986B1",
"j. c #8C89B5",
"k. c #8F8BB8",
"l. c #928EBB",
"z. c #8797B3",
"x. c #8D9CB3",
"c. c #8B9EBA",
"v. c #939EB4",
"b. c #9B9FB0",
"n. c #9490BD",
"m. c #9DA2AF",
"M. c #8BA0BE",
"N. c #95A2B7",
"B. c #9DA2B1",
"V. c #94A3BB",
"C. c #9BA8BC",
"Z. c #A1A5B3",
"A. c #A6AAB9",
"S. c #B1ACB4",
"D. c #B4B3BD",
"F. c #CFB7B6",
"G. c #D4C0BF",
"H. c #9793C0",
"J. c #9B96C4",
"K. c #9E99C6",
"L. c #9F9AC8",
"P. c #A09BC7",
"I. c #A29DCB",
"U. c #8BA3C2",
"Y. c #80A3CB",
"T. c #96A8C3",
"R. c #9EB6D0",
"E. c #A6A1CE",
"W. c #A8A1CF",
"Q. c #A8B5C9",
"!. c #B4BDCC",
"~. c #BBBECA",
"^. c #A7A2D0",
"/. c #ABA5D3",
"(. c #AFA9D6",
"). c #B0A9D7",
"_. c #B4ADDB",
"`. c #A9BED6",
"'. c #B0BDD0",
"]. c #B7B0DE",
"[. c #B8B1DF",
"{. c #B7B0E0",
"}. c #B8B2E0",
"|. c #B8C0CE",
" X c #BBC4D2",
".X c #C5C3CA",
"XX c #C4C9D3",
"oX c #C4CBD7",
"OX c #CACDD5",
"+X c #D8CED0",
"@X c #CAD0DA",
"#X c #CDD2DB",
"$X c #D1D4DB",
"%X c #DAD9DE",
"&X c #FED9C9",
"*X c #ECD7D2",
"=X c #CBD8E5",
"-X c #D5DBE4",
";X c #D5DDE8",
":X c #DEE1E7",
">X c #DDE1E9",
",X c #EAE4E6",
"<X c #E2E5EA",
"1X c #E6E9EE",
"2X c #EBECEE",
"3X c #E3ECF5",
"4X c #ECEEF1",
"5X c #EEF1F5",
"6X c #EDF6FB",
"7X c #F2F4F5",
"8X c #FAF8F7",
"9X c #F5F6F9",
"0X c #F6F8FA",
"qX c #FCFEFE",
/* pixels */
"}.}.}.}.}.}.}.}.}.}.}.}.}.}.}.}.}.}.}.}.}.}.}.}.}.{.}.}.}.}.}.}.}.}.].(.I.J.J.J.I./._.}.}.}.}.}.}.}.}.}.}.}.}.}.}.}.}.}.}.}.}.}.}.",
"}.}.}.}.}.}.}.}.}.}.{.{.}.}.}.}.}.}.}.}.}.}.}.}.}.{.}.}.}.}.}.}.}.}.].).E.J.J.J.I./._.}.}.}.}.}.}.}.}.}.}.}.}.}.}.}.}.}.}.}.}.}.}.",
"}.}.}.}.}.}.{.}.}.}.}.{.{.{.}.}.}.{.{.}.}.}.}.{.}.}.}.}.}.}.}.}.}.}.}.).E.L.J.J.I./._.}.}.}.}.}.}.}.}.}.}.}.}.}.}.}.}.}.}.}.}.}.}.",
"}.}.}.}.{.}.}.}.}.}.}.}.}.}.}.}.}.{.}.}.}.}.}.}.{.{.}.{.}.}.}.}.}.}.}.{./.E.I.E./.)._.[.}.}.}.}.}.}.}.}.}.}.}.}.}.}.}.}.}.}.}.}.}.",
"}.}.}.}.{.{.}.{.{.}.{.}.{.}.}.}.}.}.[.{.{.}.{.}.}.{.{.}.}.{.}.}.}.{.]._.(./././.)._._.[.}.[.}.[.}.}.}.}.}.}.}.}.}.}.}.}.}.}.}.}.}.",
"}.}.{.}.{.{.}.}.{.{.}.}.}.}.}.}.{.}.{.}.}.[.}.{.}.}.}.}.}.}.}.}.}.].].]._._._._._._.[.[.}.}.}.}.}.}.}.}.}.}.}.}.}.}.}.}.}.}.}.}.}.",
"}.{.}.}.}.}.{.{.{.{.}.{.{.}.}.}.[.{.[.}.[.{.[.}.{.}.}.{.}.}.}.}.}.}.{.{.{.{.{.{.[.[.[.[.[.[.[.}.}.}.}.}.}.}.}.}.}.}.}.}.}.}.}.}.}.",
"}.}.}.}.{.}.}.}.}.{.{.}.}.}.}.}.}.}.{.{.}.}.}.}.}.{.{.}.}.}.}.}.[.].}.}.}.}.}.{.}.}.[.[.[.[.}.}.}.}.}.}.}.}.}.}.}.}.}.}.}.}.}.}.}.",
"}.}.}.}.[.}.}.}.{.}.}.}.}.}.{.{.[.}.}.}.}.[.}.[.}.}.}.}.[.J.{ u 0 i 9 u 9 u u f *.E.[.[.[.[.[.}.}.}.}.[.}.}.}.}.}.}.}.}.}.}.}.}.}.",
"}.}.}.}.}.}.[.}.{.}.}.}.}.}.{.{.}.}.}.[.}.}.[.[.}._.I.n.k.-.m n n n n n n n l a c ;.n.J./.}.[.[.[.[.[.[.[.}.[.}.}.}.}.{.}.}.}.}.}.",
"}.}.}.}.}.[.}.[.}.}.}.}.}.}.}.}.[.[.[.[.[.[.}.[.}./.*.8 1 n A.$X$X$X#X$X$X$X Xz.~ u 4 g g.[.[._.[._._._.[.[.}.[.}._._._._.].}.}.}.",
"}.}.}.}.}.}.}.}.}.}.}.}.}.}.}.}.[.[.[.[.[.[.W.h.-.*. . ...b.:XqXqXqX8XqXqXqX8X>XC.) j c } p./._.).(././.)._.].].}._./././.).].[.}.",
"}.}.}.}.[.[.}.}.}.[.[.[.}.}.}.}.[.[.[.[.[.).g.g 2 d f.OX%X<X9XqX9X7X5X0X0X9X8X5X@XN.5.3.~ c h./.^.W.I.W./.)._._.(./.I.E.W.(._._.`.",
"}.}.}.}.[.[.[.[.}.[.[.[.}.}.}.}.[.[.[.[.^.>.o.0.0.f.$XqXqXqXqX1XXXQ.!.|.!.|.|. XQ.z.s.5.,.^ } >.n.E.K.P.E./._.)./.I.K.K.I./._.].}.",
"[.[.}.[._._._.].[.[.[.].]._.[.].].].]._.h.c 0.$X2X4X9XqXqXqX5X X<.' ' $.$.$.$.$.#.#.O.%.s.5.c d g.I.J.K.I.E././.E.L.J.K.I.E.).].}.",
"[.[.[.[.(.^.(.)._.[.]._.(.(./.(.)._./.*.{ q.XX9XqXqXqXqXqX<X!.s.' / ( ' ' ' ` ( ) ) ` O.3.%.f i k.I.P.K.K.I.E.E.I.L.K.L.E./._.].}.",
"[.[._./.^.I.E./.(._._.)./.E.I.E./.I.h.z &.OX9XqXqXqXqXqXqX-Xs.) ( ` O./ k k ! ` #.' O.' #.( 5 7 ;.J.I.I.L.K.K.K.L.L.I.E./.).].].}.",
"].]._.^.T.I.K.I./.)._.(.E.I.K.I.K.-.{ d.OX7XqXqXqXqXqXqXqX-X5./ ) ,.O.q , > 7 b ,.' O.#.O./ 1 - d *.P.W.I.J.J.J.K.E./.(._._.].{.}.",
"]._._./.I.J.K.L.E./././.I.K.J.l.-.^ 0.OX9XqXqXqXqXqXqX9X<X!.4.) ` ) b n b l n ) ` ' ' ' O.' n l 6 x P.(.E.K.J.J.L.^.).].}.}.}.}.}.",
"].]._./.I.I.K.L.I.I.E.I.I.K.J.X.x u.OX9XqXqXqXqXqXqXqX1XQ.2.O.O.) q 0 i. XOX|.4.) ` ' ' ` <.|.D.l s E.)./.E.L.I.E./._.}.}.}.}.}.}.",
"{.}._._./.^.I.I.K.L.L.L.I.g.*.[ <.XX9XqXqXqXqXqXqXqXqX>Xx.( ) $.) 4 3 Z.8X8X:Xd.( ' ,.' ( 5.<X%X[ s (._.(./.E.E./.).}.}.}.}.}.}.}.",
"}.}.}.}._.(./.I.K.J.J.K.I.Q i q.OX7XqXqXqX9X9XqXqXqXqX>Xx.( ( $.) < & e.,X2X$Xa./ ` ' ( ( 5.-XOXm d I.).].(.(.(._.{.}.}.}.}.}.}.}.",
"}.}.}.}.}._.(.E.I.K.J.K.I.j 4 m.2XqXqXqX4XoX@X5XqXqXqX>XV.` ) $.` 2 & e <.9.<.,.b w 3 w b ,.i.<.n h o.p.].].].]._.{.}.}.}.}.}.oX}.",
"}.}.}.}.}.}._./.I.I.L.I./.x < i.#X,X<X<X Xa.N.<XqXqXqX>XN.` ) $.' 0 & & & & w / a % X $ y b 3 : b ~ 9 Q ].[.].[.}.}.}.}.}.}.}.}.}.",
"}.}.}.}.}.}.}._./.E.E./.).x < l <.q.q.q.@.) x.<XqXqXqX<XN.` ) O.' b 0 3 < 2 0 ( y #   X & : 3 0 ) ~ 4 j }.}.}.}.}.}.[.[.[.[.[.}.}.",
"}.}.}.}.}.}.[.[.(.(.(.(._.o.i i a d u < 1 E C.4XqXqXqX>Xv.( ( ' O.' ` ( ) ) ) ,.y $   . . $ y $.$.k 2 g }.}.}.}.}.}.}.[.[.[.}.}.}.",
"}.}.}.}.}.[.[.[.].].].].[.n.h.u.>.>.o.2 1 ' '.5XqXqXqX>Xx.( ( O.O.,.' ,.' ,.,.' y $   . . O a ,.%.k 4 j }.}.}.}.}.}.}.[.[.].}.}.}.",
"}.}.}.}.[.[.[.}.[.[.[.[.[._.].[._._.J.i f v.;X9XqXqXqX4X!.4.O.' ' O.' ' ` ` ,.' i % X X . O a ,.%.k 4 z }.}.}.[.}.[.[.}.}.}.}.}.}.",
"}.}.}.}.}.}.}.}.[.[.}.}.}.}.}.[.[.[.K.d n ~.5XqXqXqXqX0X<X|.4.) ' ' ` ` ' ` ' ' f ; @ @ o # a %.=.E 4 c }.}.}.[.[.[.}.{.}.}.}.}.}.",
"}.}.}.}.}.}.}.}.}.[.}.}.}.}.}.}.[.[.I.*.+.b.$X7XqXqXqXqXqX-X5.! ( ' ' ,.' ,.' ( k 0 7 5 : : l O.~ j c -.}.}.[.[.[.[.[.}.}._.}.}.}.",
"}.}.}.}.}.}.}.}.[.}.}.}.}.}.}.}.[.[._.W.>.c d.,XqXqXqXqXqX-Xs.) ` ` ` ` ` ` O.,.O.` ( ) ~ ^ ` / 0 g k.I.}.[.].[.}.{.}.}.{.}.}.}.}.",
"}.}.}.}.}.}.}.}.}.[.}.[.}.}.}.}.[.[.{.{.g.9 ..:XqXqXqXqXqX4X Xs.` ! / ( / k ,.N.C.s.3.3.1.$.$.~ 5 d I.).)._._.[.}.}.{.}.}.}.}.}.}.",
"}.}.{.}.[.}.}.[.}.{.}.[.}.{.{.[.}.}.}.}.l.x ..XX5XqXqXqXqXqX5XXX5.,.,.,.#.' N.:X;XQ.z.z.5.=.O.k u W J.W./.)._.}.}.}.}.}.}.}.}.}.}.",
"}.}.}.{.[.}.{.}.}.[.}.}.[.}.}.}.}.}._.[.E.p.+.q..X7XqXqXqXqXqX1X X|.|.|.|.|.#X5X<X'.c.U.c.3.~ s { ;.H.I.I./._.{.}.}.}.}.}.}.}.}.}.",
"}.}.}.}.[.[.}.{.[.{.}.{.{.}.[.}.}.}.{.}._.(.p.{ u.~.+X*X7XqXqXqX6X7X7X0X5X9X0X5X@XT.c.U.c.2.W Q g.J.H.J.P.W.).}.}.}.}.}.}.}.}.}.}.",
"}.}.{.[.[.[.[.}.}.}.}.{.[.}.}.}.{.}.}.}.}.}./.k.+.m D r.+X8XqX8X8X0X8X8XqXqX5XoXT.T.T.c.@.c o.j.H.l.l.l.P.W.).}.}.}.}.}.}.}.}.}.}.",
"}.}.}.}.{.}.[.{.{.}.}.[.}.[.}.}.}.}.{.}.[.[./.n.*.z r t r.F.G.G.F.F.G.%X3X3X=XR.U.U.f.:.x 0 X.h.l.k.k.k.K.E.).}.}.}.}.}.}.}.}.}.}.",
"}.}.}.}.}.[.}.}.}.[.}.{.}.[.}.[.{.}.}.{.[.).k.} 0.Q.Z.:.G S S D D D D t.Q.|.R.Y.U.U.:.t e E h / ;.h.k.H.K.E.).{.}.}.}.}.}.}.}.}.}.",
"}.}.}.}.{.}.{.}.}.{.}.{.}.}.}.[.}.{.}.[./.j.o...~.7X3X|.r.D * r D D r p M | | | ..| v r m } k 7 Q *.k.H.I./.).{.}.}.}.}.}.}.}.}.}.",
"}.}.{.}.}.[.}.}.[.}.[.}.}.[.}.}.}.}._.).k.^ <.XX2XqXqX5X,XD.&.i..X.Xw.v * * = = = = t ] O.O.` ! u x >.J.E.(.{.{.}.}.}.}.}.}.}.}.}.",
"}.{.}.}.}.}.{.}.}.}.}.}.[.}.}.}.{.}./.>.+.<.~.7XqXqXqX9X;X|.Q.=X9X6X=XS.H V N B B B F 3.1.' #.' j s Q ;.)._.}.}.}.}.}.}.}.}.}.}.}.",
"}.}.}.}.}.{.{.}.[.}.[.}.}.}.}.}.}.{.J.x { ~.7XqXqXqXqX>XN.7.@X6XqXqX9X,X*XY C Z L K U v.6.' ' ' ' j 5 Q _.[.}.}.}.}.}.}.}.}.}.}.}.",
"}.}.}.}.}.{.}.{.[.[.[.}.[.}.}.}.}.}.J.u m $XqXqXqXqXqX-Xs.,.$XqXqXqXqXqX&XY C J P P T N.6.' ' $.$.E 3 d [.[.}.}.}.}.}.}.}.}.}.}.}.",
"}.}.}.}.{.{.{.{.[.[.}.[.}.}.}.}.}.[.n.i [ OX8XqXqX0X4XoXv.N.>XqXqXqXqXqX&XY C J P L T b.1.( ` ' $.k 3 x }.}.}.}.}.}.}.}.}.}.}.}.}.",
"}.}.}.}.}.}.}.}.[.[.[.[.}.}.}.}.}.}.J.u [ OX8XqX0X4X!.v.Q.-X5XqXqXqXqXqX&XY C J L L T z._ 7 b ,.$.k 4 j }.}.}.}.[.[.[.[.}.}.}.}.}.",
"{.{.}.{.}.{.}.{.[.[.[.[.}.}.}.}.}.[.I.} } A.OXOX-X@XC.v.#XqXqXqXqXqXqXqX&XR A K I I R u.q , 0 ( ) j s o.}.}.}.}.[.[.[.[.}.}.}.}.}.",
"}.}.}.}.}.}.}.{.[.[.[.[.[.[._.[.[.[.).P.>.} n n  .s.!.-X5XqXqXqXqXqXqXqX,XF.t.t.y.y.i.@.0 > 1 8 9 c h.E.}.}.[.[.[.[.}.}.}.}.}.}.}.",
"}.{.{.}.}.}.}.}.[.[._._._._.)._._.[.[._.K.o.d i 5 ~ !.9XqXqXqXqXqXqXqX9X=XR.Y.Y.8.7.1.) 7 , 0 c W -.).].[.[.[.[.[.[.}.}.}.}.}.}.}.",
"}.}.}.{.}.}.}.}.}.}._.)./.^.^./.).{.{.{.W.J.H.k.Q d A.4XqXqXqXqXqX0X4X XT.M.U.M.7.=.O.) 9 8 ;.I.E.(.[.[.[.[.[.}.[.}.{.}.[.}.[.}.}.",
"}.{.}.}.{.{.}.}.}.}._.(.E.I.I.I./._._.(./.I.L.P.X.s b.4XqXqXqXqX7X$XB.$.) %.5.5.,.O.O.` i 8 j.}.[.[.[.[.[.[.[.{.}.{.}.}.{.}.}.}.}.",
"}.}.}.{.}.}.}.}.}.}.}./.I.K.K.I.W.(.)./.I.P.J.H.{ a Z.4XqXqXqXqX5XB.4 @ 1 k $.$.O.O.O.) f i j.[.}.}.[.[.[.[.}.{.{.}.{.{.}.{.{.}.}.",
"}.}.}.}.}.}.}.}.}.}.{./.I.K.J.L.I.W.W.W.I.K.J.H.{ d Z.4XqXqXqXqX5XB.; + > h ` ' O.' ~ f ^ p.I.[.[.[.[.[.}.{.[.}.}.[.}.[.}.}.}.}.}.",
"}.}.}.{.}.{.}.}.}.}._.)./.I.I.L.P.P.P.P.I.I.I.P.{ g Z.4XqXqXqX5X#Xf.i ; 1 k O.$.O.O.i 8 -._._.[.}.}.[.}.}.[.}.[.{.}.[.}.{.{.}.}.}.",
"}.}.}.}.}.}.}.}.}.}.[._.(./.I.I.P.P.J.K.P.I.I.I.X.d Z.4XqXqX8XXX<.+.-.j 5 k $.O.#.O.f 8 ;.[.}.}.}.[.}.}.}.}.{.}.}.}.{.{.}.}.}.}.}.",
"}.}.}.}.{.}.{.{.}.}.}.}._._.(.E.I.J.J.P.I.W.)./.X.d Z.4XqXqX9XA.i { I.*.8 k O.O.O.' f 8 *._.}.[.[.[.}.}.}.{.}.{.[.{.[.}.{.}.{.}.}.",
"}.}.}.}.}.}.}.}.[.[.}.}.}.{._./.I.P.J.I.I.)._.).X.a Z.4XqXqX7XA.g { I.o.8 k O.$.$.' f 8 *.).}.[.[.[.[.[.[.}.[.}.}.}.}.{.}.}.}.}.}.",
"}.}.{.}.{.}.[.[.[.[.[.}.}.}.}._.W.I.I.I./._.}._.;.^ A.1X9X7X1XD.} *.W.-.x ) -.2.2.%.^ x p._.}.[.[.[.[.}.[.}.[.}.[.{.}.{.}.{.}.}.}.",
"}.}.}.}.}.}.[.[.[.[.}.}.}.}.[.[.)./././.).[.}.}.}.}.{.[.{.{.{.[.}.}.}.}.[.[.{.].}.}.}.}.}.}.[.[.[.[.[.{.{.{.}.{.{.}.{.}.[.}.}.}.}.",
"}.}.].}.].}.{.[.[.[.}.}.[.[.[.[.[._.}.}._.[.}.}.}.}.}.[.{.{.[.[.[.[.[.[.].[.].].[.].[.].}.}.{.}.}.[.}.[.}.}.{.}.}.{.}.[.}.{.{.}.}.",
"{.}.}.}.{.}.}.].}.[.[.[.[.[.[.[.}.}.}.}.}.}.}.[.}.}.}.}.}.{.].]._._._._._._.].]._._._._._._.[.[.}.}.}.}.{.[.}.}.}.[.{.}.[.}.[.}.}.",
"}.}.}.}.}.}.}.}.[.}.[.[.[.[.[.[.}.}.}.}.}.[.}.[.[.[.}.}.}.}.}._.)./././.)._._._.).(././.).).[.[.}.}.}.}.{.}.}.{.{.}.}.{.}.{.}.}.}.",
"}.}.}.}.}.}.}.{.}.}.[.[.[.[.}.}.}.oX}.}.}.}.}.[.[.[.}.}.}.}.[._./.E.I.E./._._.)./.W.I.E.W.)._.[.}.}.}.}.}.{.{.}.}.}.{.}.{.}.}.}.}.",
"}.}.}.}.}.}.}.}.}.[.}.}.[.}.[.}.}.}.}.}.}.}.}.}.[.}.}.}.}.}._./.I.I.K.K.E.(._.(.W.I.J.K.I./.[.[.}.}.[.}.}.}.}.}.{.}.}.}.}.}.}.}.}.",
"}.}.}.}.}.}.}.}.}.}.}.}.}.}.}.}.}.}.}.}.}.}.}.}.}.}.}.}.}.}.[./.I.K.J.K.E./.).(.W.P.J.K.P./.[.}.}.}.}.}.}.}.}.}.}.}.}.}.}.}.}.}.}.",
"}.}.}.}.}.}.}.}.}.}.}.}.}.}.}.}.}.}.}.}.}.}.}.}.}.}.}.}.}.}.}.].^.T.J.L.^./.).(.^.L.J.J.L./.{.{.}.}.}.}.}.}.}.}.}.}.}.}.}.}.}.}.}."
};
