/* XPM */
static char *result[] = {
/* columns rows colors chars-per-pixel */
"65 65 220 2 ",
"   c #120207",
".  c #120309",
"X  c #10070D",
"o  c #150B15",
"O  c #0E112E",
"+  c #1D1C38",
"@  c #1C213F",
"#  c #27202E",
"$  c #2A2637",
"%  c #322D3E",
"&  c #622E34",
"*  c #1C2549",
"=  c #262B4A",
"-  c #363245",
";  c #37364C",
":  c #262F51",
">  c #273153",
",  c #2B3355",
"<  c #2D375B",
"1  c #343852",
"2  c #333B5D",
"3  c #353D61",
"4  c #393E64",
"5  c #6B3D44",
"6  c #36405F",
"7  c #3B4365",
"8  c #384467",
"9  c #3E4569",
"0  c #3C4A6B",
"q  c #3C4E71",
"w  c #4E4158",
"e  c #6B444E",
"r  c #72434A",
"t  c #684856",
"y  c #41476B",
"u  c #474E68",
"i  c #424B6D",
"p  c #4C526E",
"a  c #595565",
"s  c #464C71",
"d  c #4A4E77",
"f  c #455274",
"g  c #4C5375",
"h  c #4D5478",
"j  c #485879",
"k  c #4C5B7C",
"l  c #535B76",
"z  c #5F5F71",
"x  c #52567C",
"c  c #545C7B",
"v  c #585F79",
"b  c #66566A",
"n  c #57617B",
"m  c #5B627C",
"M  c #786779",
"N  c #93340F",
"B  c #913615",
"V  c #88533E",
"C  c #E74700",
"Z  c #FF5A03",
"A  c #E56500",
"S  c #FE7E06",
"D  c #E3673C",
"F  c #894C46",
"G  c #885B5D",
"H  c #9B6B67",
"J  c #936A6B",
"K  c #A17876",
"L  c #E4784E",
"P  c #E38303",
"I  c #FF8400",
"U  c #FEA904",
"Y  c #FFB100",
"T  c #CD8A34",
"R  c #ECA92D",
"E  c #E8A539",
"W  c #DF8B4B",
"Q  c #FF8A56",
"!  c #DFA855",
"~  c #C7A175",
"^  c #575983",
"/  c #5A5D84",
"(  c #4E6286",
")  c #4F6388",
"_  c #536384",
"`  c #5B6385",
"'  c #546689",
"]  c #56698C",
"[  c #5B6C8D",
"{  c #5C6E91",
"}  c #5F7192",
"|  c #5E759A",
" . c #616685",
".. c #646A83",
"X. c #63658D",
"o. c #646C8C",
"O. c #696C88",
"+. c #63718E",
"@. c #6B718B",
"#. c #73778B",
"$. c #6B6C93",
"%. c #6C6C96",
"&. c #627495",
"*. c #677897",
"=. c #647798",
"-. c #65799B",
";. c #6B7D9C",
":. c #747896",
">. c #72739B",
",. c #6A7DA2",
"<. c #777AA3",
"1. c #7B7AA3",
"2. c #817C8C",
"3. c #817FAA",
"4. c #6F809E",
"5. c #71819E",
"6. c #7F859B",
"7. c #6A83A7",
"8. c #7485A2",
"9. c #7B88A3",
"0. c #7989A4",
"q. c #7B8DAA",
"w. c #748FB5",
"e. c #7591BB",
"r. c #7F9ECA",
"t. c #8E8B99",
"y. c #988C99",
"u. c #ABA39F",
"i. c #878AA1",
"p. c #848CA3",
"a. c #8381AD",
"s. c #8593AB",
"d. c #8C95A9",
"f. c #9699AB",
"g. c #8684B0",
"h. c #8986B2",
"j. c #8C89B5",
"k. c #8E8BB8",
"l. c #928EBB",
"z. c #8799B5",
"x. c #9599B6",
"c. c #9591BD",
"v. c #9DA1AF",
"b. c #8DA1BD",
"n. c #9CA2B2",
"m. c #95A4BC",
"M. c #9AA6BA",
"N. c #AEA5A5",
"B. c #A5A9B8",
"V. c #A4ABBA",
"C. c #ADB1BC",
"Z. c #DDAB9E",
"A. c #F0A28D",
"S. c #CDB1AE",
"D. c #CDB8B7",
"F. c #9793C0",
"G. c #9B96C4",
"H. c #9E99C6",
"J. c #9F9AC8",
"K. c #A29DCB",
"L. c #8DA5C3",
"P. c #80A7CF",
"I. c #95A9C3",
"U. c #97B7D4",
"Y. c #A6ACC4",
"T. c #A6A1CE",
"R. c #AAB5C7",
"E. c #AEB8CA",
"W. c #B6BAC5",
"Q. c #B1BBCB",
"!. c #BABECA",
"~. c #A7A2D0",
"^. c #ABA5D3",
"/. c #AFA8D6",
"(. c #B0A9D7",
"). c #B4ADDB",
"_. c #ADBED2",
"`. c #B7B0DF",
"'. c #B8B1DF",
"]. c #B7B0E0",
"[. c #B8B2E0",
"{. c #B6C0CF",
"}. c #BBC1CD",
"|. c #AEC2D7",
" X c #BCC4D2",
".X c #B9C6D6",
"XX c #BACFE3",
"oX c #C5C6CD",
"OX c #C3CAD5",
"+X c #CBCED6",
"@X c #C5CDD9",
"#X c #C8CFDA",
"$X c #D0CED2",
"%X c #CCD0D8",
"&X c #CCD1DB",
"*X c #D2D4DB",
"=X c #D9D6DA",
"-X c #FDDBCD",
";X c #E2D4D3",
":X c #E4D9D9",
">X c #FDE3D9",
",X c #CAD5E2",
"<X c #D3DAE3",
"1X c #DBDEE3",
"2X c #DFE1E6",
"3X c #DDE3EA",
"4X c #DDE9F2",
"5X c #E4E4E8",
"6X c #E4E5EA",
"7X c #E6E9ED",
"8X c #E8EAED",
"9X c #F1E9E8",
"0X c #E1E9F1",
"qX c #EAEDF2",
"wX c #EEF1F5",
"eX c #ECF4F9",
"rX c #F2F3F6",
"tX c #F4F5F9",
"yX c #F7F8F9",
"uX c #FCFDFD",
/* pixels */
"[.[.[.[.[.[.[.[.[.[.[.[.[.[.[.[.[.[.[.[.[.[.[.[.[.[.[.[.[.[.[.[.[.[.].^.K.H.G.G.K.^.).'.[.[.[.[.[.[.[.[.[.[.[.[.[.[.[.[.[.[.[.[.[.",
"[.[.[.[.[.[.[.[.[.[.].].[.[.[.[.[.[.[.[.].[.].[.[.[.[.[.[.[.[.[.[.[.]./.K.G.G.G.K.^.).'.[.[.[.[.[.XX[.[.[.[.[.[.[.[.[.[.[.].[.[.[.",
"[.[.[.[.[.[.].[.[.[.[.].].].[.[.[.].].[.[.].[.[.[.[.[.[.[.[.[.[.,X[.]./.T.J.G.H.K.^.).'.[.[.[.[.[.[.[.[.[.[.[.[.[.[.[.[.[.[.[.[.[.",
"[.[.[.[.].[.[.[.[.[.[.[.[.[.[.[.[.].[.[.[.[.[.].[.[.[.[.[.[.[.[.[.[.].).~.T.K.K.T./.`.'.[.[.[.[.[.[.[.[.[.[.[.[.[.[.[.[.[.[.[.[.[.",
"[.[.[.[.].].[.].].].].[.].[.[.[.[.[.'.].].'.'.'.[.[.].].].].[.[.].].].].(./.~.^.(.(.`.'.[.[.'.'.[.[.[.[.[.[.[.[.[.[.[.[.[.[.].[.[.",
"[.[.].[.].].[.[.].].[.[.[.[.[.[.].'.].[.[.'.'.'.[.].[.].].].[.[.[.].].].].(.).).`.'.'.'.[.'.'.'.[.[.[.[.[.[.[.[.[.[.[.[.[.[.].[.[.",
"[.].[.[.[.[.].].].].[.].].[.[.[.].[.'.[.].[.'.'.[.[.[.[.[.].[.[.[.].].].].].].].'.'.'.'.'.'.'.'.[.[.[.[.[.[.[.[.[.[.[.[.[.[.[.].[.",
"[.[.[.[.].[.[.[.[.[.].[.[.[.[.[.[.[.].].'.[.[.'.[.].].[.].[.[.].'.[.].].].[.].].[.[.'.'.'.'.'.'.[.[.[.[.[.[.[.[.[.[.[.[.[.[.[.[.[.",
"[.[.[.[.[.[.[.[.].[.[.[.[.].].].[.[.'.'.[.[.[.[.'.'.'.).j.c y y y 9 y y y y u X.K.'.'.'.'.'.'.'.[.[.[.[.[.'.'.[.[.[.[.[.[.[.[.[.[.",
"[.[.[.[.'.[.[.[.].[.[.[.[.].].[.[.'.[.[.'.[.[.[.(.K.l.j.>.m n n v v v v n l i h <.c.c.T.`.'.'.'.[.[.[.'.'.[.[.'.[.[.].].[.[.[.[.[.",
"[.[.[.[.[.[.[.[.[.[.[.[.[.[.[.[.[.[.'.'.'.'.'.[.H./ 2 3 @.W.%X%X+X+X+X+X+X}.x.[ i 7 i >.^.'.'.`.'.).).).'.'.'.'.[.].).).).'.'.[.[.",
"[.[.[.[.[.[.[.[.[.[.[.[.[.[.[.[.[.'.'.'.).G.a.a.>.O.m @.B.5XyXyXyXuXyXyXyXyX3XI...s g ` 1.K.`.).(.^.~.^.(.).`.`.].(.^.^./.(.).'.[.",
"[.[.[.[.'.[.[.[.'.'.'.'.[.[.[.[.[.[.[.'.K.%.4 3  .B.+X%X5XyXuXuXuXuXuXuXuXuXyX<Xm.0.0.[ h >.^.(.^.K.K.T./.(.`.`.(.K.K.K.K./.).`.[.",
"[.[.[.[.'.'.'.'.'.'.'.'.[.[.[.[.[.[.).G.<.@.O.#.n.5XuXuXuXuX8X&XOXOX@X@X@X@X&X.XI.z.z.8.` / 3.G.K.K.K.K.K./.(.(./.K.K.K.K.^.(.`.[.",
"'.'.[.'.).(.(.`.'.'.`.`.`.(.'.`.).).K.X.v B.=X1X8XyXuXuXuXrX Xq.;.5.8.8.8.0.0.8.;.-.;.q.q.+.g %.K.K.K.c.K.K./.~.K.K.G.G.K.~.(.'.[.",
"'.'.'.'./.^./.(.).'.`.`.(./././.^.l.%.o.f.1XuXuXuXuXuXyX8X Xz.{ ( ' ] } } ] ] ] [ { { 8.q.{ 7 X.K.K.K.K.K.K.K.K.K.K.K.K.K./.(.'.[.",
"'.`.).^.~.K.K.^.(.).).(.^.T.K.K.G.X.v B.1XyXuXuXuXuXuXyX@Xs.{ ] { { ] ) ] ] [ } } } } -.-.j 2  .F.K.K.K.K.H.H.H.H.H.K.T.^.).).].[.",
"`.`.).^.I.K.K.K.^.(.)./.T.K.K.3.X.X.f.2XyXuXuXuXuXuXuXyX@X;.( { 4.} j 6 < 0 _ &.&.&.&.&.} 0 * 7 >.l.^.^.K.H.G.G.J.K.^./.).).`.].[.",
"`.`.(.^.K.H.G.K.T.^.^.T.K.F.h./ v v.5XyXuXuXuXuXuXuXyXqX{.5.' } { ] f 6 < 0 _ &.&.&.&.*.} k 6 < 7 3.).^.K.J.G.G.K.^.^.`.[.[.[.[.[.",
"`.`.).^.K.J.H.H.K.K.T.K.K.3.^ X.v.1XyXuXuXuXuXuXuXuX6XQ.s.-.} [ j j #.f.v.d.5.{ } } +.{ &.q.v...2 $.'.).^.K.K.K.K.^.).[.[.[.[.[.[.",
"].[.).).^.~.K.K.K.H.K.K.K.$.v f.2XyXuXuXuXuXuXuXuXuX#X0.[ { =.[ 6 6 v.6X8X=Xz.[ [ | | ' *.E.2Xv.y %.'.).(.^.T.T./.(.[.OX[.[.[.[.[.",
"[.[.[.[.).^.^.K.G.G.F.G.K.3.v.1XyXuXuXuXuXuXuXuXuXuXOX5.( [ -.' : 1 B.yXuX8XM.[ } -.-.] *. XrXC.y >.'.'.).(.(.(.(.'.].[.[.[.[.[.[.",
"[.[.[.[.[.).^.^.K.G.G.K.K.B.2XyXuXuXuXwX7XwXuXuXuXuX@X8.' { -.' = $ t.!.$X}.s.] k n n _ *.M.oXt.u X.c.K.K.'.).'.].].[.[.[.[.[.[.[.",
"[.[.[.[.[.[.).^.K.K.K.K.^.V.8XuXuXuXwX{.Y.<XuXuXuXuX@X0.' } -.[ 1 # % a a m ..n 6 $ $ u } +.z z x x c X.>.'.[.'.'.'.[.[.[.[.[.[.[.",
"[.[.[.[.[.[.'.).^.T.T.^./.d.!.*X%X*X}.6.8.OXtXuXuXuX#X9.] { =.[ 7 = + + + 1 n k $   X % p 0 = u ] h < 4 c [.[.[.[.[.[.[.'.'.'.[.[.",
"[.[.[.[.[.[.[.'.(./././.). .v m m m n k ;.@XyXuXuXuX#X8.] [ &.} n j f 0 0 j ] l #   X o $ ; 0 [ { i , 2 x [.[.[.[.[.[.'.'.'.[.[.[.",
"[.[.[.[.[.[.'.'.`.`.`.`.'.o.g g s > * q q.,XuXuXuXyX@X5.( [ &.&.*.*.| | | -.-.l # . . . o ; +.7.[ i : 3 x '.[.[.[.[.'.'.'.'.'.[.[.",
"[.[.[.[.'.'.'.'.`.'.'.`.'.H.c.x.h.d < ' m.3XuXuXuXuX@X8.' ] &.&.} *.*.*.*.-.-.p # . . . o - +.7.} 0 , 3 g '.[.'.[.[.'.'.'.'.[.[.[.",
"[.[.[.[.[.[.[.[.'.'.[.[.[.[.'.'.^./ 9 p.@XeXuXuXuXuX3XM.0.=.{ } &.&.&.} } *.| l $ o o X X - [ 8.} f > 2 g [.[.'.'.'.[.].'.].[.[.[.",
"[.[.[.[.[.[.[.'.[.'.[.[.[.[.[.[.^.X.g B.7XuXuXuXuXuXtX6XE.4.] } &.} &.+.} *.| k 1 @ * O o - [ 7.[ i , 7 x '.'.'.'.'.[.'.'.'.[.[.[.",
"[.[.[.[.[.[.[.[.'.[.[.[.[.[.[.[.(.a.$.i.W.6XyXuXuXuXuXyXOX;.( { &.+.&.&.&.} { ( q 8 8 1 ; p [ [ k x / $.<.'.].'.[.'.[.[.].[.].[.[.",
"[.[.[.[.[.[.[.[.'.[.'.[.[.[.[.[.).^.c.v ..oXyXuXuXuXuXyX@X0.] [ } { { { { } &.&.{ { { ' [ +.} j 8 X.F.H.K.).).[.[.[.[.].[.[.[.[.[.",
"].[.[.].[.].[.].'.[.].'.'.'.[.[.[.'.K.s u W.yXuXuXuXuXyX2XE.q.{ ( ' ' ' ( *.m.V.z.q.q.0.-.-.&.f < $.~.^.^./.`.'.[.[.[.[.[.[.[.[.[.",
"[.[.[.[.[.'.[.[.].[.[.[.'.'.'.'.'.'.K.^ c C.8XuXuXuXuXuXyX7XQ.5.} *.;.*.&.s.#X3X_.x.z.w.7.=.{ s 9 %.H.H.K./.(.[.[.[.[.[.[.[.[.[.[.",
"[.].[.].[.].].[.[.[.'.].'.'.[.[.[.[./.j.>.:.B.6XuXuXuXuXuXuX5X}.E.E.{.E.E.@XwXwX|.z.b.b.s.=.g h %.3.c.G.K.K.(.].[.[.[.[.[.[.[.[.[.",
"[.[.[.].[.[.'.'.].'.[.[.].'.[.'.'.'.).(.G.X.O.W.=X:X9XuXuXuXyXrXwXwXwXwXwXyXrX<XR.z.L.I.s.+.g X.k.l.l.l.K.T.(.[.[.[.[.[.[.[.[.[.[.",
"[.[.[.].[.'.].[.[.[.[.[.'.[.[.[.'.'.'.'.).c.>.@.M J S.9XyXyXuXuXuXuXuXuXuXyX<XE.m.L.I.q.[ / >.j.l.l.k.l.G.T./.].[.[.[.[.[.[.[.[.[.",
"].[.[.[.[.].[.[.[.].'.'.[.[.'.[.'.'.[.].).~.j.` w 5 J D.;X;X;X;X;X:X5XwXeX3X_.L.L.m.d.O.9 x g.k.k.j.j.F.G.T.).[.[.[.[.].[.[.[.[.[.",
"[.[.].[.[.[.[.[.[.[.].[.'.[.[.[.'.[.'.].K.3.:.f.f.2.M G H H H H H K N.XXXX_.I.P.L.d.M t p j ^ >.g.j.l.F.K.^.).].[.[.[.[.[.[.[.[.[.",
"[.[.].[.].'.'.[.].].'.[.[.[.'.[.].].[.[.K.s v oXqX&Xy.G F F r & & 5 M 2.9.i.9.p.a.J & t [ j 2 x g.l.F.H.~./.).].[.[.[.[.].].[.[.[.",
"[.[.[.[.].].[.[.[.[.'.'.[.[.[.'.[.[.).).H.y v OXuXwX=XD.D.D.y.b b M b 5 5 5 t e e t b ..&.j < x 3.c.K.T.(.).'.[.[.[.[.[.[.[.[.[.[.",
"[.[.[.[.[.[.].[.[.'.[.[.[.'.[.[.].'.).K.a. .6.*XyXuXuXuXtX3XE.b.I.Y.y.F B N B N B V #.7.| k 0 x 3.l.K.(.).'.'.[.[.[.[.[.[.[.[.[.[.",
"[.[.[.[.].[.[.].'.'.'.'.[.[.[.[.[.[.^.%. .f.%XwXuXuXuXyX<XI.R.,X4X7X;XZ.D C A P P T y.e.| ] _ f p 3.^.).'.'.[.[.[.[.[.[.[.[.[.[.[.",
"[.[.[.[.[.[.].].'.'.[.'.[.[.[.[.[.[.H.d l oXyXuXuXuXuXtXQ.-.M.7XuXuXuX-XQ Z I Y Y R N.e.,.&.} f 1 X.).'.[.[.[.[.[.[.[.[.[.[.[.[.[.",
"[.[.[.].].].[.].'.'.'.'.[.[.[.'.'.'.K.d l !.yXuXuXuXuXwXQ.8.M.7XuXuXuX>XQ Z S U Y R u.w.| | } f 2 %.).[.[.[.[.[.'.'.[.[.[.[.[.[.[.",
"[.[.[.[.[.[.[.[.'.'.'.'.[.[.[.'.'.'.H.d g }.yXuXuXuX8XOXY.M.OXrXuXuXuX-XL Z S U U R u.r.-.| } f 4 %.'.[.'.[.[.[.'.'.[.[.[.[.[.[.[.",
"[.[.[.].].[.[.[.'.'.'.'.'.'.`.`.'.'.K.x v C.wXtXyXwXOXs.m.*XtXuXuXuXuX-XQ Z I U U E N.e.| } } f 7 >.).[.[.'.[.'.'.'.[.[.[.[.[.[.[.",
"[.[.[.].[.[.[.[.'.'.).).).).(.).).'.^.3.$.i.B.!. XQ.M.M. XwXuXuXuXuXuX>XA.L W ! ! ~ t.| ( q j k %.l.'.[.'.'.'.[.[.[.[.[.[.[.[.[.[.",
"[.].[.[.[.].[.[.[.[.).).^.~.^.^.(.'.).^.l./ d X.=.;.M.<XtXuXuXuXuXuXuX7X}.M.f.n.n.s.;.j < , 9 >.T.).'.'.'.'.'.[.'.].[.[.'.'.].[.[.",
"[.[.].[.[.[.[.[.[.[.).^.K.K.K.K.^.(.).(.K.1.d 4 k s.#XtXuXuXuXuXuXuX0X,XU.r.r.P.r.7.} f , 3 o.G.[.[.[.'.'.'.'.].[.[.].[.].[.[.[.[.",
"[.[.[.[.[.[.[.[.[.[.[.^.K.H.H.K.~.(.(.^.K.G.1.y m +XyXuXuXuXuXyXtX6XE.z.z.b.b.q.-.} &.h 3 / T.'.[.'.'.'.'.'.'.'.'.].[.].[.].[.[.[.",
"[.[.[.].[.[.[.[.[.[.].^.K.J.G.H.K.~.~.K.K.G.3.4 O.%XuXuXuXuXuXrX}.6.c ( } 0.0.4.} } =.k 4 / /.'.[.[.[.[.[.[.].'.].[.[.'.].[.[.[.[.",
"[.[.[.].[.[.].[.[.'.).(.^.K.K.J.K.K.G.K.K.K.3.y ..%XuXuXuXuXuX8Xi.= O > k &.&.&.} &.[ k p $.^.'.'.[.[.'.[.[.'.'.[.].].'.[.[.'.[.[.",
"[.[.[.[.[.].[.[.[.[.'.)./.^.K.K.K.K.G.G.K.K.3.y ..$XuXuXuXuXuX8Xi.= O * j { &.} &.' f x 1.G.).[.[.[.[.'.'.[.'.'.'.[.[.[.[.].[.[.[.",
"[.[.[.[.[.[.[.[.[.[.[.[.).).^.~.K.F.F.K.K.K.h.s ..%XuXuXuXuXrX+Xi.9 * , k &.=.=.=.k 8 c K.[.'.'.'.'.'.[.[.[.[.'.].[.[.].].[.].[.[.",
"[.[.[.[.[.].].].'.'.[.[.[.[.).^.K.G.K.K.K.(.j.y m *XuXuXuXtXW.#.%.1.j < k &.=.=.=.k 3 x K.[.'.'.'.'.'.[.[.'.[.'.'.[.[.].[.[.[.[.[.",
"[.[.[.[.[.[.'.'.'.'.'.[.[.[.[.`.K.K.K.K.(.).c./ >.+XrXtXtX6XB./ a.T.:.h [ <.8.7.>.$.g $.K.[.'.'.'.'.'.'.].[.[.[.].[.'.].[.[.'.[.[.",
"].].[.].[.[.'.'.'.'.[.[.[.[.'.).(.^.(.^.(.).[.[.[.[.].'.'.'.).'.'.'.'.'.[.[.'.'.[.[.[.[.[.[.'.'.'.'.'.'.[.].'.].[.].[.].[.].[.[.[.",
"[.[.[.[.`.[.[.`.'.'.[.[.'.'.'.'.'.).].[.'.'.'.].'.'.[.'.'.'.'.`.'.`.`.`.'.'.'.'.[.[.'.'.'.'.'.'.[.[.[.[.[.'.].[.[.[.].'.[.[.].[.[.",
"].[.[.`.[.[.`.[.[.'.'.'.'.'.'.'.[.[.[.[.'.'.'.'.'.'.[.[.[.'.`.`.`.`.(.`.).).'.).).).(.).`.`.'.'.[.[.[.].[.].[.[.'.].[.[.'.].[.[.[.",
"[.[.[.[.[.[.[.].[.[.'.'.'.'.'.[.[.[.[.[.[.[.'.'.'.'.[.[.[.[.[.)././.^.^.).).).).(.(.^.(.(.(.'.'.[.[.[.[.].[.[.].].[.[.].].].[.[.[.",
"[.[.[.[.[.[.'.[.'.[.'.'.'.'.[.'.[.@X[.[.[.[.[.'.'.'.[.[.[.[.'.).^.K.K.K.^.(.).).^.T.K.K.T.(.).'.[.[.[.'.[.].].[.[.[.].[.[.'.[.[.[.",
"[.[.[.[.[.[.[.[.[.[.[.[.'.[.[.'.[.[.[.[.[.[.[.[.[.[.[.[.[.[.'.^.K.K.G.K.^.^.).^.T.K.G.K.K.^.'.'.[.[.[.'.[.[.[.[.].[.[.[.[.[.[.[.[.",
"[.[.[.[.[.[.[.[.[.[.[.[.[.[.[.[.[.[.[.[.[.[.[.[.[.[.[.[.[.[.)./.K.G.G.K.K.^.).^.K.K.G.G.K.^.'.[.[.[.[.[.[.[.[.[.[.[.[.[.[.[.[.[.[.",
"[.[.[.[.[.[.[.[.[.[.[.[.[.[.[.[.[.[.[.[.[.[.[.[.[.[.XX[.[.[.].).T.G.G.G.~./.(.(.~.J.G.G.J.^.).].[.[.[.[.[.[.[.[.[.[.[.[.[.[.[.[.[."
};
