/* XPM */
static char *result[] = {
/* columns rows colors chars-per-pixel */
"65 65 73 1 ",
"  c #322E4C",
". c #35314F",
"X c #363251",
"o c #3B3758",
"O c #413D5C",
"+ c #443F60",
"@ c #45405F",
"# c #4A4565",
"$ c #4D4867",
"% c #4B4769",
"& c #4E496B",
"* c #514D6E",
"= c #534E71",
"- c #565174",
"; c #595476",
": c #5B567A",
"> c #5D597D",
", c #615B7E",
"< c #5F5B81",
"1 c #625E82",
"2 c #656185",
"3 c #696387",
"4 c #676289",
"5 c #6B668C",
"6 c #6D688D",
"7 c #706B8F",
"8 c #6B6790",
"9 c #6E6A92",
"0 c #726D93",
"q c #726E98",
"w c #767196",
"e c #787297",
"r c #76729B",
"t c #7A749C",
"y c #7A76A1",
"u c #7D79A3",
"i c #817CA4",
"p c #827EAA",
"a c #8681A7",
"s c #8681AC",
"d c #8A84AC",
"f c #8E88AF",
"g c #8783B0",
"h c #8A86B2",
"j c #8E89B4",
"k c #8F8BB9",
"l c #918BB5",
"z c #938EBB",
"x c #9690BD",
"c c #9993BE",
"v c #9692C1",
"b c #9B96C3",
"n c #9E99C6",
"m c #9F9AC8",
"M c #A19AC6",
"N c #A39DCA",
"B c #A7A0CD",
"V c #A9A2CE",
"C c #A7A2D1",
"Z c #ABA5D2",
"A c #AFA8D6",
"S c #AFA9D8",
"D c #B0A9D7",
"F c #B4ADDB",
"G c #B7B0DE",
"H c #B8B1DF",
"J c #B5AFE0",
"K c #B9B2E1",
"L c #BFB8E7",
"P c #C0B9E7",
"I c #C1BAE9",
"U c #C7C0EF",
"Y c #CAC2F2",
/* pixels */
"KKKKKKJKGKGKJGJKHHKKHKGGGFFDDDDZDZDDDDFFGKHHKKHHFGGFGHKHGGGGGGGHH",
"KKKJJKKHKJKHKKHKHHKHKHKGFGGDDDZDZDZDDDFFFHHKKHHHHFGGGKGHGGHJGGHHH",
"KKKKKKKKHKGKKHKGGGHHKKHGFDAVVNMMMMMVNVDDFGHHHHHFFDDDFGJGGFDDDGHHH",
"KFKKKFKJKJKJKKJKPHHHKHGDZNMxcpiiiiiffcMNZFFFPHHFSAVADFGGDAAVADFHH",
"KKKKJKKKHKGKGKHKHHHHKHHZNvppi6631337iipcNZGPPPGFZBNCCSJFSCNNNAFGH",
"JKKKHKKKKJKKKJKHHHPPPPFVbpr51:;=*-;>,3ipvVFPPPKDBNbNCZSSCNmMNVDGF",
"KKHFKHKFHKHHHHGKKPIIPPFNli5<;-=------>3ilNPIPPPFCNbbNCCZBNbbNVDJH",
"KJKKJKHKKJHHHGKKPIIIIIHMp01=->13631>-->5pMKIIIPJSBNbbNCNNmbNBADGH",
"GFFPPJGGHKHHHHKHKPPIIIFbi3;-,3ippii6,;;3iMFIIIIPJZVNmmmmmmNBSDGGH",
"JPGJFGGPKGHHHHHKGPPPIPZli,-;1ilNVVli3;=,epVPPPIPFFSVNbbbmNZSFJGJH",
"PFGGGGKJJKJHGKHFFFFFFVci1-*,0pBJPHVp6-*;3icVDFFGJFFSCmbbmCSJHHKKK",
"JGGGPJGKKHKKKKGFZNMMcli5,+$:ezZKPKDci,&&-3ilcnMVSFFFZCNNCZJJKPKKH",
"PJPFJKGKKKKKPHFZNvlpie5;$+$,0pVJPGBpr>&++,3iiipnNSHFFAVVADFPPKKKK",
"FGPFKGKJKFPKKHFNvpi51,-*OO+;8pbZAVbp0>++++*,13ipvVFKHGFSDFGKHHKHH",
"GFFJHKGKJKKPPKDMpi1,;=$+++*,qppvnbpp9<++++**-,1rdMAHPKKHGHHHHHHPH",
"JPFPKJKKJKPPPKZci8<=*-;--*;1qppvvkkp91>-;;-;==>5icZKPPPKKHHHHHHHH",
"PFGGGFGPPFPPPFZli,-*-<111<14qipvvkguq4<<<11<-*=1rlZKIIPKKKKHHHHHH",
"PGGPJPGFGFPPPJZci>*=:1qqq118qppvkvhpq8448qq4<==:0jNHIIPKKKHHHHHKH",
"FGGJFPJPJPJPPGNp6:*=<8qq0867rpvbbvzpy085qqq8<&*:wfVKPPPKKKKHHHKHH",
"GGGGGGGFJFPPPPVl0,**-1883137ipvNCNbhu9411881-=*,wlVKPIKHKKHKKKKFH",
"FFPFJFPFPFPPPGZci1-*=:<<,;,6ifMZSSmki61:<<<-==-1tlZHPPPKKKFKKFKFF",
"FDFFPFPJJFPPPPZbpq1;===+$$;3icZHLJZvi3-&%%*=-;19pbAKPPKHJKKHHKKFF",
"FFFPFPFJFPFPPFDMppq41:=+O+$,ilDPIISvi,*++%=:,10ilMDHPPKKKKHKHKKFF",
"FFDPJFFPFPGPPGFZMvpir01:$$$,icHPYIFbi1*+#=18eidlMZFHHKHHFKKJKKHFF",
"GFPFFJPPFFPFKKFDAMncfii,*$*,ifDUYYFct,*$-,ialcMMZSHKKKKKKKHKJKGFF",
"FFDPPJFFFPFPGGHGFAAVVcfi,**,ilDPYYDct,**,7dcVVVDSFHKKKHHHKKJKHHFF",
"PFFPPFGFFPFPGPKFFDAVZVii,;*,iiDUYIKce,*-,ilMVZZDDKKKKKKHHHHKHKHFF",
"FFJFFFPPFFJPPPPFZMMbclii,*$,icZPYIFce,**,wafcMMMZFKPPPKHHHHHKJKKH",
"FFJPFFFFPFGPPPPZMlpiiii;;$$,ifDUYIFci,$$*,wiiipfMZKPPPKGHHHHGKHGH",
"FPFPFPPFGJPPPPDMpi63,,,*$+$,ilDPYIFci,&@$*,,,,6ifMALPPLKHHHHKJKHH",
"PFFFJFPFPGPPJFMli3-$$**$$+*,icFUYIFci3*##$****-,ejMDKPKKKKKGHKGHH",
"FPPFPFFPGGFFZMpi,+++$*;*$*;iicFUYUFMi7;***-*$OO&,ejMZFHKKKKGKJKKH",
"KHKKHHHHPHFVMpi,*OO#-,611>10aMGIYUFMd01,115,-+OO#,7dcVGHPKKKKHKKH",
"HKHHHHPPPHZMfw;+OOO;1iii066qdnFIUIFMde66wiii5;OOO#,wpMDHPPKKKKKHH",
"HHHKHHPPPHZci,$O.O$1ilbldrqrsbAKPPDMhr0qpzbli1*O O+,ilVKPPKHHHHHH",
"GGHHKHPPPHVf0-O  O-0fMVNzuqqizBFHFNlpqqulNVNfw-O  O,0fVHPPPKHHKHH",
"GKKKHKPPIKVf7*O  O,izVDBziqqyhnCZVbkiqquzNDVvu<+  O*5pVKPPPKHHKHH",
"GFFGHKPPIHVf0*OXX+1ibZDVziqqygxmNMvhy0qixVDAbp1%O O*7fNKPPPKHHHHH",
"GHKKHKPIIHVf0-+++-7pMVDNcpyrugzbmbvpitrpxNAAMd9-OOO-7fNKPPKKKKHGH",
"GFKKHKPIIHVf0,$+&1tlNDDZMzppskvmmmbzpppkMVDSMky1$+#;7fVKIPPKGHHGH",
"GGHHKHPPIHVli;$+-8pvNSFSCmxxxbmCCCNbvzzbNDFFCvi8-$$;7fVKPPKKKKJHH",
"HHHKKPPPPHVp6;$*<9pvCJJFSCBNNCZZCZCCNNNZFFFFCbpq>*$;7fNKPPLKJKKGH",
"HHGHGJKPPFVf7;$-1rpmCDFGJSSSSSSSSSSSSASSFHFFCmkr1=$;7fNKPPLKKHKGH",
"GGFFDSFKPGNl7,**1rvmCSDDSJSJFFFFFFFFJFFJFFAACmky1=$,7dNHPILJGKJKH",
"JJJSVBZFFFNl0:=-1ypmNCCZCSSSSJCSZZZSSSSSZZVCNbzy5-=:7dNHPPPHKKJKH",
"FJSZBNCZFFNp0:=-8yvvMMmmCCCmCmmmNNNNNNNCNNMmmbky5-==7dNHPPKHKGHKH",
"GGSCNmMCADNf0,*-1yvvbbvvvvvvvvvvvvvvvvvbzvvvvvku1:*:7dNKPPPGKHKHH",
"GFJCNmNCFFNf0:*-8ypvvvvpuvuguugupppppppphkkvvvky5-*-7dNKPPPKJKHKH",
"GFFABBCSFFNl0,*-4ykvvvkupuyyryrrryyyyyyypppvvvhu5:=;7dNHPPPGHHHHH",
"GHFDAZSJJFNf0,*-4ykvvkkguyq998qqqq8888qyupkvbvku1:*;7dNHPPPHHHHHH",
"HHKFFFJPPJNf7-*-1ygvvvkguy98888q888888qqupkvbvku1-&:7dNHIPPHHHHHH",
"HHHKGJPPPJNf7,**<rpvvvvguuqq9qqrqqqq8qqypvkvvvpq1=&;7fVHPPPHKHHHH",
"HFHKKKPIPHNf0,#*<8ukvvzkkuuuyyuuyyyyuuuuppvvvhpq<=%:9dNKIPLKHKHHF",
"HKHKHPPPPPZf0,##=<yuhkzzvkguuuuguggupppvvvvvkpr1-%%:0dNHPPKKKHHHH",
"FFKKHKPPPKVf7,#+%<4yugjjggggvuguggggpppvpvpppr8:&++:0fNPPILFKFHFH",
"FKKKHKPPPKNf7-OO+%:49yyuuuuuyyuuyyyyyyyuuuyyq1:&+o+-7fNHIPLKKKKKF",
"HFHHKHPIPPNl7*OXXO$-:25566666366884848883331,-%OO O*6fNKIPLJKKHFH",
"FHHHHKKIPHNlw-OX.X@$&--;:::::,;,<<<<<-:<,,;-*$OO  O*7fVKIILKJKKJH",
"HGHKKHKPPHNlw,#OOO@@$***=*******&&&&==&=$*$$%#+OOOO,elNKPPLKJKKFH",
"FHHHKKPPPKDci1,***;---=---;;;;;;<=<==;--;;;;---*$#,3icZHPPKKKKKHH",
"HHHHHHKPPHDMfiw636777655665676376666636666,66666360ilMAHPPKKHKJHH",
"HHHKHHHKKHFVMlfdaaadaaaaaadaaaaaaaadpddpafffadddifflMVDHKKKHKHKHH",
"DFHHHHHHHHFDDVVMBBBBBMBBMBMNBMBMMMNMNNNNMMVMMVVMMVVVADHHKKKHHHHAF",
"ZZDDFDFFDFDDAAVZZVVZZVVZVVZVVZVZZZVZVZVVVZVVZVZVZZVZZAADFDDDFDFZZ",
"DZFDFDFDFDDDZZVZVZZZVZZVAVVZVZZZVZZVZVZVZZVZZVZZVZZZDDDDDDDFDFDZD"
};
